<svg viewBox="0 0 330 200" xmlns="http://www.w3.org/2000/svg"><g><g><g><g><g><line x1="40" y1="177" x2="35" y2="177" style="visibility: inherit;" fill="rgb(0, 0, 0)" stroke="rgb(204, 204, 204)" stroke-width="1px"></line><line x1="40" y1="160.9090909090909" x2="35" y2="160.9090909090909" style="visibility: inherit;" fill="rgb(0, 0, 0)" stroke="rgb(204, 204, 204)" stroke-width="1px"></line><line x1="40" y1="144.8181818181818" x2="35" y2="144.8181818181818" style="visibility: inherit;" fill="rgb(0, 0, 0)" stroke="rgb(204, 204, 204)" stroke-width="1px"></line><line x1="40" y1="128.72727272727272" x2="35" y2="128.72727272727272" style="visibility: inherit;" fill="rgb(0, 0, 0)" stroke="rgb(204, 204, 204)" stroke-width="1px"></line><line x1="40" y1="112.63636363636364" x2="35" y2="112.63636363636364" style="visibility: inherit;" fill="rgb(0, 0, 0)" stroke="rgb(204, 204, 204)" stroke-width="1px"></line><line x1="40" y1="96.54545454545453" x2="35" y2="96.54545454545453" style="visibility: inherit;" fill="rgb(0, 0, 0)" stroke="rgb(204, 204, 204)" stroke-width="1px"></line><line x1="40" y1="80.45454545454547" x2="35" y2="80.45454545454547" style="visibility: inherit;" fill="rgb(0, 0, 0)" stroke="rgb(204, 204, 204)" stroke-width="1px"></line><line x1="40" y1="64.36363636363636" x2="35" y2="64.36363636363636" style="visibility: inherit;" fill="rgb(0, 0, 0)" stroke="rgb(204, 204, 204)" stroke-width="1px"></line><line x1="40" y1="48.272727272727266" x2="35" y2="48.272727272727266" style="visibility: inherit;" fill="rgb(0, 0, 0)" stroke="rgb(204, 204, 204)" stroke-width="1px"></line><line x1="40" y1="32.18181818181817" x2="35" y2="32.18181818181817" style="visibility: inherit;" fill="rgb(0, 0, 0)" stroke="rgb(204, 204, 204)" stroke-width="1px"></line><line x1="40" y1="16.090909090909097" x2="35" y2="16.090909090909097" style="visibility: inherit;" fill="rgb(0, 0, 0)" stroke="rgb(204, 204, 204)" stroke-width="1px"></line><line x1="40" y1="0" x2="35" y2="0" style="visibility: inherit;" fill="rgb(0, 0, 0)" stroke="rgb(204, 204, 204)" stroke-width="1px"></line></g><g transform="translate(30, 0)"><text x="0" y="177" dx="0em" dy="0.3em" style="text-anchor: end; visibility: hidden; font-family: Roboto, sans-serif; font-size: 12px; font-weight: 200;" fill="rgb(33, 33, 33)" stroke="none" stroke-width="1px">-10</text><text x="0" y="160.9090909090909" dx="0em" dy="0.3em" style="text-anchor: end; visibility: inherit; font-family: Roboto, sans-serif; font-size: 12px; font-weight: 200;" fill="rgb(33, 33, 33)" stroke="none" stroke-width="1px">0</text><text x="0" y="144.8181818181818" dx="0em" dy="0.3em" style="text-anchor: end; visibility: hidden; font-family: Roboto, sans-serif; font-size: 12px; font-weight: 200;" fill="rgb(33, 33, 33)" stroke="none" stroke-width="1px">10</text><text x="0" y="128.72727272727272" dx="0em" dy="0.3em" style="text-anchor: end; visibility: inherit; font-family: Roboto, sans-serif; font-size: 12px; font-weight: 200;" fill="rgb(33, 33, 33)" stroke="none" stroke-width="1px">20</text><text x="0" y="112.63636363636364" dx="0em" dy="0.3em" style="text-anchor: end; visibility: hidden; font-family: Roboto, sans-serif; font-size: 12px; font-weight: 200;" fill="rgb(33, 33, 33)" stroke="none" stroke-width="1px">30</text><text x="0" y="96.54545454545453" dx="0em" dy="0.3em" style="text-anchor: end; visibility: inherit; font-family: Roboto, sans-serif; font-size: 12px; font-weight: 200;" fill="rgb(33, 33, 33)" stroke="none" stroke-width="1px">40</text><text x="0" y="80.45454545454547" dx="0em" dy="0.3em" style="text-anchor: end; visibility: hidden; font-family: Roboto, sans-serif; font-size: 12px; font-weight: 200;" fill="rgb(33, 33, 33)" stroke="none" stroke-width="1px">50</text><text x="0" y="64.36363636363636" dx="0em" dy="0.3em" style="text-anchor: end; visibility: inherit; font-family: Roboto, sans-serif; font-size: 12px; font-weight: 200;" fill="rgb(33, 33, 33)" stroke="none" stroke-width="1px">60</text><text x="0" y="48.272727272727266" dx="0em" dy="0.3em" style="text-anchor: end; visibility: hidden; font-family: Roboto, sans-serif; font-size: 12px; font-weight: 200;" fill="rgb(33, 33, 33)" stroke="none" stroke-width="1px">70</text><text x="0" y="32.18181818181817" dx="0em" dy="0.3em" style="text-anchor: end; visibility: inherit; font-family: Roboto, sans-serif; font-size: 12px; font-weight: 200;" fill="rgb(33, 33, 33)" stroke="none" stroke-width="1px">80</text><text x="0" y="16.090909090909097" dx="0em" dy="0.3em" style="text-anchor: end; visibility: hidden; font-family: Roboto, sans-serif; font-size: 12px; font-weight: 200;" fill="rgb(33, 33, 33)" stroke="none" stroke-width="1px">90</text><text x="0" y="0" dx="0em" dy="0.3em" style="text-anchor: end; visibility: hidden; font-family: Roboto, sans-serif; font-size: 12px; font-weight: 200;" fill="rgb(33, 33, 33)" stroke="none" stroke-width="1px">100</text></g><line x1="40" y1="0" x2="40" y2="177" fill="rgb(0, 0, 0)" stroke="rgb(204, 204, 204)" stroke-width="1px"></line></g></g><g transform="translate(40, 0)" clip-path="url(#clip_0)"><clipPath id="clip_0"><rect width="290" height="177"></rect></clipPath><g><g><g><line x1="0" y1="0" x2="0" y2="177" fill="rgb(0, 0, 0)" stroke="rgb(66, 66, 66)" stroke-width="1px" opacity="0.25"></line><line x1="32.22222222222222" y1="0" x2="32.22222222222222" y2="177" fill="rgb(0, 0, 0)" stroke="rgb(66, 66, 66)" stroke-width="1px" opacity="0.25"></line><line x1="64.44444444444444" y1="0" x2="64.44444444444444" y2="177" fill="rgb(0, 0, 0)" stroke="rgb(66, 66, 66)" stroke-width="1px" opacity="0.25"></line><line x1="96.66666666666666" y1="0" x2="96.66666666666666" y2="177" fill="rgb(0, 0, 0)" stroke="rgb(66, 66, 66)" stroke-width="1px" opacity="0.25"></line><line x1="128.88888888888889" y1="0" x2="128.88888888888889" y2="177" fill="rgb(0, 0, 0)" stroke="rgb(66, 66, 66)" stroke-width="1px" opacity="0.25"></line><line x1="161.11111111111111" y1="0" x2="161.11111111111111" y2="177" fill="rgb(0, 0, 0)" stroke="rgb(66, 66, 66)" stroke-width="1px" opacity="0.25"></line><line x1="193.33333333333331" y1="0" x2="193.33333333333331" y2="177" fill="rgb(0, 0, 0)" stroke="rgb(66, 66, 66)" stroke-width="1px" opacity="0.25"></line><line x1="225.55555555555557" y1="0" x2="225.55555555555557" y2="177" fill="rgb(0, 0, 0)" stroke="rgb(66, 66, 66)" stroke-width="1px" opacity="0.25"></line><line x1="257.77777777777777" y1="0" x2="257.77777777777777" y2="177" fill="rgb(0, 0, 0)" stroke="rgb(66, 66, 66)" stroke-width="1px" opacity="0.25"></line><line x1="290" y1="0" x2="290" y2="177" fill="rgb(0, 0, 0)" stroke="rgb(66, 66, 66)" stroke-width="1px" opacity="0.25"></line></g><g><line x1="0" y1="177" x2="290" y2="177" fill="rgb(0, 0, 0)" stroke="rgb(66, 66, 66)" stroke-width="1px" opacity="0.25"></line><line x1="0" y1="160.9090909090909" x2="290" y2="160.9090909090909" fill="rgb(0, 0, 0)" stroke="rgb(66, 66, 66)" stroke-width="1px" opacity="0.25"></line><line x1="0" y1="144.8181818181818" x2="290" y2="144.8181818181818" fill="rgb(0, 0, 0)" stroke="rgb(66, 66, 66)" stroke-width="1px" opacity="0.25"></line><line x1="0" y1="128.72727272727272" x2="290" y2="128.72727272727272" fill="rgb(0, 0, 0)" stroke="rgb(66, 66, 66)" stroke-width="1px" opacity="0.25"></line><line x1="0" y1="112.63636363636364" x2="290" y2="112.63636363636364" fill="rgb(0, 0, 0)" stroke="rgb(66, 66, 66)" stroke-width="1px" opacity="0.25"></line><line x1="0" y1="96.54545454545453" x2="290" y2="96.54545454545453" fill="rgb(0, 0, 0)" stroke="rgb(66, 66, 66)" stroke-width="1px" opacity="0.25"></line><line x1="0" y1="80.45454545454547" x2="290" y2="80.45454545454547" fill="rgb(0, 0, 0)" stroke="rgb(66, 66, 66)" stroke-width="1px" opacity="0.25"></line><line x1="0" y1="64.36363636363636" x2="290" y2="64.36363636363636" fill="rgb(0, 0, 0)" stroke="rgb(66, 66, 66)" stroke-width="1px" opacity="0.25"></line><line x1="0" y1="48.272727272727266" x2="290" y2="48.272727272727266" fill="rgb(0, 0, 0)" stroke="rgb(66, 66, 66)" stroke-width="1px" opacity="0.25"></line><line x1="0" y1="32.18181818181817" x2="290" y2="32.18181818181817" fill="rgb(0, 0, 0)" stroke="rgb(66, 66, 66)" stroke-width="1px" opacity="0.25"></line><line x1="0" y1="16.090909090909097" x2="290" y2="16.090909090909097" fill="rgb(0, 0, 0)" stroke="rgb(66, 66, 66)" stroke-width="1px" opacity="0.25"></line><line x1="0" y1="0" x2="290" y2="0" fill="rgb(0, 0, 0)" stroke="rgb(66, 66, 66)" stroke-width="1px" opacity="0.25"></line></g></g></g><g><g><line x1="0" y1="160.9090909090909" x2="290" y2="160.9090909090909" fill="rgb(0, 0, 0)" stroke="rgb(153, 153, 153)" stroke-width="1.5px"></line></g></g><g><g><line x1="32.22222222222222" y1="0" x2="32.22222222222222" y2="177" fill="rgb(0, 0, 0)" stroke="rgb(153, 153, 153)" stroke-width="1.5px"></line></g></g><g><g><g><g><g><path stroke="rgb(255, 112, 67)" stroke-width="2px" d="M32.51222222222222,157.20225086428903L32.97944444444445,157.18969370045446L33.22111111111111,157.18735779539332L33.23722222222222,157.19348677191186L33.36611111111111,157.19635269308412L33.65611111111111,157.1958123900697L33.88166666666667,157.1895011609214L33.94611111111111,157.18767128343032L34.284444444444446,157.18911737068237L34.31666666666666,157.18331563285125L34.751666666666665,157.1852677763039L34.8,157.18511100621438L34.864444444444445,157.1851611381014L34.99333333333333,157.187440284323L35.29944444444444,157.1923190203841L35.49277777777778,157.19181994231823L35.91166666666667,157.19079584904605L36.15333333333333,157.18979828831172L36.169444444444444,157.19178660958644L36.395,157.1938370619571L36.58833333333334,157.1913040291345L36.76555555555555,157.1917923818289L36.81388888888889,157.18937704299054L37.31333333333334,157.1912199347622L37.361666666666665,157.19371351400181L37.79666666666667,157.18936654605986L37.99,157.19434825554404L38.11888888888889,157.19514271856676L38.312222222222225,157.18971184186597L38.44111111111111,157.19011996853544L38.69888888888889,157.1919240995926L38.90833333333333,157.18444394925314L39.24666666666667,157.19228028077453L39.26277777777778,157.1943253152546L39.40777777777778,157.19405615092347L39.64944444444444,157.19795967180383L39.71388888888889,157.1982554636385L39.875,157.19460516051458L39.955555555555556,157.19731847548877L39.971666666666664,157.19109494617473L40.43888888888889,157.19549639184166L40.47111111111111,157.1962562094756L40.48722222222222,157.19702238579742L40.809444444444445,157.19139376973015L40.88999999999999,157.19657784713664L40.92222222222222,157.20081741449368L41.18,157.194908707363L41.27666666666667,157.1902492472934L41.72777777777778,157.18947472530863L41.79222222222222,157.19303743510946L41.824444444444445,157.19477346960227L42.35611111111111,157.19294118754362L42.485,157.19136196493844L42.58166666666667,157.19056527750988L42.59777777777778,157.1927411135274L42.82333333333333,157.1929311517077L42.968333333333334,157.18827748534446L43.09722222222222,157.19430970766925L43.83833333333334,157.19450653715924L43.90277777777777,157.1963769359827L44.53111111111111,157.18936161711994L44.708333333333336,157.1935091175096L44.82111111111111,157.1923949578243L44.91777777777778,157.19461325497633L45.175555555555555,157.19240694512197L45.626666666666665,157.19479492553904L46.029444444444444,157.1960874560406L46.17444444444444,157.19586382970067L46.49666666666666,157.18841261891527L47.39888888888889,157.18490865810784L48.31722222222222,157.18556079649105L48.397777777777776,157.1895461459674L48.575,157.19373799506585L48.68777777777778,157.1936055476998L48.752222222222215,157.20133846657322L48.784444444444446,157.198562664891L48.92944444444444,157.19110104008976L49.23555555555556,157.20111097195425L49.47722222222222,157.20068517722078L49.573888888888895,157.20015348161962L49.91222222222222,157.19888933573134L50.089444444444446,157.20138654666255L50.12166666666667,157.19308447812264L50.34722222222222,157.19151423178852L50.459999999999994,157.19232530584668L50.76611111111111,157.19630535033514L50.782222222222224,157.19572586680482L50.97555555555556,157.1937425012563L51.13666666666667,157.18883841377453L51.16888888888889,157.19498033597336L51.29777777777778,157.19542421558603L51.442777777777785,157.2014857664163L51.845555555555556,157.1964495812709L51.958333333333336,157.20022101024824L52.29666666666667,157.20477464189335L52.39333333333333,157.19821804430933L52.42555555555556,157.202807429452L52.47388888888889,157.1961120770851L52.538333333333334,157.1964933425257L52.635,157.19823915660794L52.699444444444445,157.19285381702107L52.78,157.19612833236712L53.13444444444445,157.2015987180177L53.56944444444445,157.19521835678026L53.891666666666666,157.19430854470363L54.19777777777777,157.19241501681324L54.375,157.19882274135432L54.391111111111115,157.198789418128L55.05166666666666,157.1955048253458L55.406111111111116,157.20203424168466L55.696111111111115,157.2015130559971L55.71222222222222,157.20160669307313L56.29222222222223,157.19593333093928L56.42111111111112,157.19446683481317L56.550000000000004,157.1991993954533L56.59833333333333,157.19863837197852L57.16222222222222,157.2007817420037L57.21055555555555,157.20312430078L57.43611111111112,157.2041099835289L57.48444444444444,157.20000506042012L57.565000000000005,157.19607354347502L57.75833333333333,157.20279992872509L57.93555555555555,157.20423132386767L58.435,157.2000201655933L58.56388888888889,157.1999295666467L59.12777777777778,157.19857329618475L59.36944444444445,157.19995225050607L59.64333333333333,157.19778234263126L59.675555555555555,157.20386572030375L59.723888888888894,157.19970520107265L59.788333333333334,157.19795682855707L60.81944444444444,157.19778157706202L60.85166666666667,157.2010370877583L61.044999999999995,157.19888087283042L61.093333333333334,157.19474393209282L61.97944444444445,157.19994908922646L62.04388888888889,157.198060807906L62.18888888888889,157.20173327828246L62.30166666666666,157.19777125085093L62.81722222222222,157.19984637391116L62.86555555555556,157.20611463937271L62.96222222222222,157.20560326168982L62.97833333333334,157.20194820333097L63.22,157.20597714936426L63.413333333333334,157.20498014618732L63.477777777777774,157.21035456117042L63.55833333333334,157.21071190596524L63.590555555555554,157.20128796608336L63.8,157.20422078307215L63.81611111111111,157.2033108189394L64.10611111111112,157.20036618742938L65.57222222222222,157.20364822711161L65.71722222222223,157.20537315077226L65.87833333333333,157.20538011081274L66.05555555555556,157.20727653880542L66.29722222222222,157.2041224164182L66.36166666666666,157.20224360046905L66.68388888888889,157.20540598825937L67.57000000000001,157.2071551835318L67.81166666666667,157.2039834642062L67.90833333333333,157.20321523135436L68.295,157.20016013711196L68.37555555555555,157.20544646567893L69.58388888888888,157.20353568416007L69.95444444444445,157.21168320928533L70.22833333333334,157.207156194069L70.79222222222222,157.20901432107786L71.46888888888888,157.20956724555919L71.54944444444445,157.21012642036132L71.75888888888889,157.20831340364583L71.88777777777777,157.2081206958574L71.93611111111112,157.20569895143888L72.25833333333334,157.2130950331641L72.46777777777777,157.20895747076102L72.54833333333333,157.20609850852972L72.77388888888889,157.20077955054268L72.80611111111111,157.21109880263006L72.98333333333333,157.2089118715841L73.56333333333333,157.20995585898865L73.74055555555556,157.21067616581018L73.75666666666667,157.20933656000554L74.095,157.2055246207595L74.5461111111111,157.20618363720874L74.675,157.20828132192096L74.80388888888888,157.2041865062485L75.23888888888888,157.20669326798193L75.30333333333333,157.21150749996403L75.4161111111111,157.21295801359202L75.46444444444445,157.21333051417938L75.60944444444445,157.21678270493928L75.85111111111111,157.21394791383355L75.93166666666666,157.21230427783559L75.9961111111111,157.21796207817042L76.18944444444445,157.21809952535853L76.27000000000001,157.2163009439083L76.35055555555556,157.21579111259575L76.36666666666666,157.22002855206367L76.5761111111111,157.22065267644862L76.59222222222223,157.2190696807926L76.60833333333333,157.2226558558208L76.76944444444445,157.21827805623514L76.81777777777778,157.21138763299643L76.97888888888889,157.219357898984L77.09166666666665,157.21447224848325L77.52666666666666,157.21383792409105L77.88111111111111,157.21353221543097L78.04222222222224,157.2158582376795L78.31611111111111,157.216416294363L78.33222222222223,157.2194335194531L79.28277777777778,157.22313349774282L79.78222222222222,157.21662282349783L79.83055555555556,157.21891645595338L79.94333333333333,157.22206872206056L79.99166666666666,157.22295387816015L80.12055555555555,157.21998758193982L80.86166666666666,157.22071080654774L81.10333333333334,157.21912941854058L81.31277777777778,157.22091116164458L81.89277777777778,157.21961193854034L81.90888888888888,157.2207783658497L82.21499999999999,157.2287863568345L82.23111111111112,157.23044271791343L82.24722222222222,157.23508691894358L82.47277777777778,157.23170823681397L82.4888888888889,157.23058134724255L82.505,157.2323256571212L82.61777777777779,157.2264207375608L82.89166666666667,157.2277906434004L83.34277777777778,157.23360508755613L83.64888888888889,157.23174186209846L83.76166666666667,157.2351460883076L83.84222222222222,157.23502890023104L84.05166666666666,157.233594373615L84.1,157.23268240371974L84.24499999999999,157.22538136616402L84.43833333333333,157.22770764205976L84.82499999999999,157.23189429126833L84.87333333333333,157.23339363212435L85.48555555555556,157.23230998593326L86.03333333333335,157.23457313887386L86.29111111111112,157.23807632968274L86.58111111111111,157.23788348008281L86.75833333333334,157.24168823527202L86.88722222222222,157.23873014430347L87.06444444444445,157.24325614657272L87.28999999999999,157.24748205073797L87.98277777777777,157.24655503761193L88.33722222222222,157.24568286616457L88.35333333333332,157.24655508185916L88.46611111111112,157.24652904285108L88.49833333333332,157.25060345202374L88.61111111111111,157.25242123439452L89.03,157.24906171266593L89.67444444444445,157.2516852471763L89.72277777777778,157.25894717253811L89.83555555555556,157.25830185253687L90.0288888888889,157.25814944648306L90.22222222222223,157.2559472311514L90.43166666666667,157.25812943002717L90.44777777777777,157.25926657299155L90.48,157.26111434848715L90.70555555555555,157.26387787107322L91.09222222222222,157.2649916802106L91.14055555555555,157.2643829142876L91.17277777777778,157.2655899533039L91.205,157.2637896906921L91.25333333333333,157.2654680378192L91.31777777777778,157.2677892335788L91.36611111111111,157.2655076276925L91.67222222222223,157.26569392924057L92.02666666666667,157.2697223387469L92.10722222222222,157.27092693754435L92.60666666666667,157.2696093609075L92.70333333333333,157.26872444018204L92.81611111111111,157.2672109162316L92.84833333333333,157.27179663956466L93.15444444444445,157.27416458985118L93.28333333333333,157.27439224843005L94.21777777777778,157.27389814407283L94.25,157.28250620704196L94.41111111111111,157.2865181384056L94.55611111111111,157.29008418838143L95.08777777777777,157.30088987508663L95.23277777777778,157.30267173688614L95.29722222222223,157.30504844288993L95.39388888888888,157.30997906875103L95.58722222222222,157.30585857124024L95.63555555555556,157.31026626825323L96.11888888888889,157.31161081682546L96.26388888888889,157.31217432000417L96.36055555555556,157.31642766939507L96.86,157.32067474149358L96.89222222222223,157.33191574261926L97.03722222222223,157.33695653390328L97.21444444444444,157.3376742751088L97.3111111111111,157.34335798684876L97.42388888888888,157.33826942297833L98.02000000000001,157.35131093804577L98.42277777777778,157.3523953420411L98.51944444444445,157.35825516336286L98.61611111111111,157.36564441046085L98.66444444444444,157.3639838055755L99.01888888888888,157.3786696093507L99.58277777777778,157.37771721877567L99.75999999999999,157.39526374024533L100.32388888888889,157.4081069801646L100.67833333333334,157.43113815480132L100.72666666666666,157.44135665494215L100.80722222222222,157.43047835717317L101.78999999999999,157.4635059051009L101.87055555555557,157.48341297222925L101.95111111111112,157.51293930392444L102.04777777777777,157.5219348766537L103.03055555555557,157.56860037738326L103.46555555555557,157.583846811076L103.675,157.61370540054386L103.80388888888889,157.64777520846735L103.98111111111112,157.68040133295574L104.17444444444445,157.71546328921715L104.545,157.7429093520509L104.64166666666667,157.79594758644612L105.125,157.83374874507513L105.28611111111111,157.84193018039053L105.35055555555554,157.84896508203846L105.75333333333333,157.89921826320122L105.81777777777778,157.93978968065952L105.91444444444444,157.9771242503804L106.47833333333332,157.95217380745467L106.52666666666667,157.99639553419883L107.12277777777777,158.06394828390722L107.2838888888889,158.1569228277142L107.59,158.1688287459768L107.7188888888889,158.19871400135503L107.78333333333333,158.23044619479785L107.81555555555555,158.23818716607806L107.91222222222223,158.27317292193146L108.05722222222222,158.3113322154475L108.20222222222222,158.32426412047968L108.42777777777778,158.3523739876326L108.54055555555556,158.40898264690819L108.895,158.39942328501314L109.00777777777778,158.43890598343407L109.10444444444445,158.44752134723694L109.1688888888889,158.5033732554455L109.185,158.5193738189206L109.62,158.494331183626L109.66833333333332,158.5683391189863L109.7811111111111,158.55162411093272L110.03888888888888,158.59784698007059L110.07111111111111,158.61732851261067L110.11944444444445,158.66685387802983L110.13555555555556,158.69747693627613L110.26444444444445,158.70159044059022L110.87666666666668,158.79338500505736L111.08611111111111,158.90207534490204L111.32777777777778,158.88096121139955L111.63388888888888,159.0194500723015L111.69833333333332,159.05077301081656L111.8111111111111,159.00673544579368L111.95611111111111,159.03439815147888L112.45555555555555,159.06798407269926L112.63277777777778,159.07633425559106L113.14833333333333,159.17012049968704L113.53500000000001,159.21067597409396L113.8411111111111,159.30790952798637L114.05055555555556,159.36934277335408L114.06666666666666,159.32302289340475L114.19555555555556,159.38679046417874L114.22777777777777,159.37494941193495L114.90444444444444,159.42116927278312L114.96888888888888,159.46895263807068L115.03333333333333,159.41615511784607L115.21055555555556,159.4386160199784L115.22666666666666,159.4129130783643L115.25888888888889,159.50916609814288L115.275,159.43126553370504L115.79055555555556,159.45069869345613L115.96777777777778,159.51865638464582L116,159.56454971663996L116.08055555555556,159.59090231026374L116.11277777777778,159.58041933656648L116.29,159.59207329852478L116.40277777777779,159.6148612839168L116.61222222222221,159.63766095683815L116.85388888888889,159.62270750181472L116.99888888888889,159.618036692003L117.04722222222222,159.6409540475095L117.53055555555557,159.65244249770603L117.9011111111111,159.7422163498213L117.91722222222222,159.81810519418886L117.96555555555555,159.72604802789442L117.99777777777778,159.7153051279695L118.06222222222222,159.68930382863945L118.15888888888888,159.7186646729702L118.61,159.83084827861967L118.7388888888889,159.89795085593767L119.10944444444443,159.94225263880153L119.25444444444445,159.96755704075156L119.27055555555556,159.8274692133831L119.94722222222222,159.859152830045L120.09222222222222,159.8913936868801L120.17277777777777,159.90499872039902L120.89777777777778,159.90861487279298L120.97833333333334,159.98770815155157L121.17166666666667,160.02440309623898L121.55833333333334,160.01490469168547L121.91277777777778,160.0292541053621L122.50888888888889,160.06444746913698L123.29833333333335,160.04311890693364L123.52388888888889,160.14085318132447L124.42611111111111,160.09390622806887L124.53888888888889,160.1064833157473L124.9738888888889,160.1779911683112L124.99,160.17125200264675L125.36055555555555,160.1507637425787L125.48944444444444,160.08460122265487L126.18222222222222,160.05333402238043L126.73,160.09629574347585L126.93944444444445,160.10987173309084L126.98777777777778,160.1530232785462L128.0511111111111,160.2062894799574L128.18,160.13232757330428L128.30888888888887,160.1462125620438L128.58277777777778,160.2039318725907L128.7277777777778,160.19606971534748L128.84055555555557,160.15207177298677L128.93722222222223,160.11462602185745L129.0338888888889,160.20091240007386L129.61388888888888,160.19471055105913L129.74277777777777,160.2341357712266L130.14555555555555,160.20564853152084L130.16166666666666,160.23661291957168L130.67722222222224,160.2525116166001L130.70944444444444,160.2494622223257L131.03166666666667,160.31384304761596L131.11222222222221,160.32553459329864L131.14444444444445,160.25695725026893L131.17666666666665,160.37023584380736L131.59555555555556,160.30045163917808L132.19166666666666,160.26244948342224L132.28833333333333,160.3070402351198L132.51388888888889,160.38866419070936L132.80388888888888,160.4141702220731L133.3838888888889,160.34836436924513L133.41611111111112,160.3912833207244L133.52888888888887,160.34958034378474L133.67388888888888,160.35703152572242L133.72222222222223,160.4099523099479L134.17333333333335,160.3707347624648L134.23777777777778,160.354640810298L134.27,160.3697036779294L134.47944444444443,160.38302892749996L134.65666666666667,160.36069594782072L134.67277777777778,160.3938456965448L134.75333333333333,160.29141761098435L134.83388888888888,160.23751708831324L135.43,160.19723807487992L135.72,160.2654372614379L136.0261111111111,160.31340468688072L136.2838888888889,160.30701374693126L136.50944444444443,160.30027823378688L136.79944444444445,160.38363271454818L136.8477777777778,160.3901059028768L137.39555555555557,160.34990913797455L137.4438888888889,160.34408445294304L137.5888888888889,160.28312146549422L137.68555555555557,160.36502711596L137.76611111111112,160.28818386838708L137.97555555555556,160.35056792145676L138.0561111111111,160.3479277004452L138.3138888888889,160.34828778346107L138.39444444444445,160.35735010355006L138.475,160.3439614223037L138.53944444444446,160.40995451543836L138.79722222222222,160.40434396769524L139.345,160.37367638770294L139.73166666666665,160.3910128120179L140.40833333333333,160.41005363854248L140.48888888888888,160.40658994323408L140.65,160.47557053689L140.71444444444444,160.47798975844938L140.97222222222223,160.45452620567914L141.14944444444444,160.43357607733248L141.53611111111113,160.42683695918942L141.81,160.5062127817939L142.1161111111111,160.45064390530354L142.45444444444445,160.4798631747917L142.48666666666668,160.42587469785815L142.58333333333331,160.475007157035L142.72833333333332,160.48313513330876L142.98611111111111,160.49511874965907L143.61444444444444,160.52647075277724L143.64666666666668,160.54005786182867L143.695,160.51444821500033L143.87222222222223,160.4120682421466L143.98499999999999,160.3737667892984L144.59722222222223,160.43357668871622L144.855,160.50514904688941L144.93555555555554,160.50173833085333L144.96777777777777,160.48067767308277L145.29,160.51833495066782L145.46722222222223,160.53791019820537L145.7088888888889,160.375974130488L145.87,160.43813359143638L146.885,160.50993516782486L146.93333333333334,160.5493662184126L147.03,160.5288754902217L147.64222222222222,160.48570228945812L147.8516666666667,160.5105385277746L147.86777777777777,160.53118763509045L147.9,160.5649286562579L147.99666666666667,160.5953086464413L148.045,160.47890891116796L148.33499999999998,160.54674519950765L148.625,160.51829718817407L149.01166666666668,160.53834724353686L149.07611111111112,160.54992162129895L149.26944444444445,160.56781355514187L149.41444444444446,160.52113184089805L149.9622222222222,160.50170515944134L150.3811111111111,160.51037871711108L150.44555555555556,160.51604945041873L150.47777777777776,160.50878211593601L150.68722222222223,160.55761275925187L150.76777777777775,160.55277100509807L150.9127777777778,160.59299518155535L151.20277777777778,160.65892406044347L151.8311111111111,160.6689711727973L152.00833333333333,160.6145701411152L152.02444444444444,160.62472207107666L152.47555555555556,160.63766650424424L152.54000000000002,160.62314740290765L152.57222222222222,160.65149605982722L152.76555555555555,160.65951746953914L153.1522222222222,160.61854805317103L153.34555555555556,160.632804851983L153.47444444444446,160.61631840580128L153.57111111111112,160.66376036478587L153.74833333333333,160.62188047669616L153.87722222222223,160.61040070464674L153.90944444444443,160.6050222522644L154.0061111111111,160.63708675039305L154.55388888888888,160.65713476064934L154.69888888888892,160.66310928315164L154.73111111111112,160.65945519488113L154.77944444444444,160.6137174105057L155.27888888888887,160.6678661413328L155.295,160.70546017108018L155.37555555555556,160.71263681462904L155.63333333333333,160.6942535347432L155.64944444444444,160.6250837184277L156.6161111111111,160.66245356386443L156.71277777777777,160.6710743158194L156.76111111111112,160.65738592657422L157.18,160.68575085076026L157.26055555555556,160.6705494382683L157.79222222222222,160.7073270566666L157.80833333333334,160.6959908861542L158.22722222222222,160.68185430973696L158.50111111111113,160.68329831383943L158.56555555555556,160.70469775440776L158.69444444444446,160.69272240479822L158.775,160.68608422327063L158.79111111111112,160.69626998447734L158.88777777777779,160.67265342581106L159.21,160.7195095085481L159.41944444444445,160.73973181836806L159.5161111111111,160.68914557208961L159.9188888888889,160.71356349211595L159.96722222222223,160.7206233065986L160.88555555555556,160.73236212645497L161.59444444444443,160.71049270389284L161.62666666666667,160.74029688926495L161.85222222222222,160.75608120729248L161.98111111111112,160.7557629313073L162.35166666666666,160.74120139694222L162.36777777777777,160.7708160222531L162.65777777777777,160.73606672016365L163.07666666666668,160.75326477706616L163.4311111111111,160.76903864880694L163.73722222222221,160.77697857038174L163.75333333333333,160.77635769132914L164.20444444444442,160.7415815897018L164.33333333333334,160.73733023784126L164.34944444444446,160.7102730872399L164.59111111111113,160.7535765399788L164.80055555555555,160.78310140256337L164.81666666666666,160.78296455094858L165.21944444444446,160.75461334878537L165.5738888888889,160.78047029021798L165.67055555555555,160.78456489293552L165.71888888888887,160.77859513130326L165.79944444444445,160.74240667101031L165.88,160.74914640507328L165.96055555555554,160.72503092729693L166.7338888888889,160.74562660050938L166.78222222222223,160.75494378058372L166.95944444444444,160.74316070062508L167.185,160.7612773856296L167.50722222222223,160.75001612608276L167.73277777777776,160.73855499560239L167.81333333333333,160.72556328951262L168.4738888888889,160.69446755412946L168.53833333333336,160.75971224253882L169.02166666666665,160.7649757701162L169.23111111111112,160.74786792236586L169.505,160.76687885374818L169.64999999999998,160.79020750584164L169.94,160.81483031492698L170.0366666666667,160.80383739601155L170.18166666666667,160.79004940205616L170.87444444444444,160.80999425353073L171.0677777777778,160.80902688764232L171.1,160.77275212747924L171.21277777777777,160.77812928453022L171.72833333333332,160.78915751673648L171.79277777777776,160.81075587111525L172.29222222222222,160.7632686422716L172.38888888888889,160.7613525156322L172.67888888888888,160.78513643105234L172.77555555555554,160.7366589124384L173.2266666666667,160.73266996399494L173.2588888888889,160.76130157249366L173.61333333333334,160.7951480811613L173.64555555555555,160.7879272285838L173.80666666666667,160.81864723268492L173.98388888888888,160.812377758615L174.37055555555557,160.81758197930566L174.53166666666667,160.80065436011458L175.04722222222222,160.79835003099927L175.1277777777778,160.81962717866517L175.24055555555557,160.8139708699702L175.4177777777778,160.75207432519906L175.51444444444445,160.75489061730917L175.88500000000002,160.74293541595935L175.94944444444445,160.75557462767665L176.25555555555556,160.7343286511329L176.67444444444445,160.74310426125362L176.73888888888888,160.79105388511516L176.88388888888886,160.7698300250185L176.98055555555555,160.80542568281123L177.0611111111111,160.79751401083746L177.3188888888889,160.76110058394772L177.75388888888887,160.80625394520825L178.01166666666666,160.78326210927656L178.15666666666667,160.78480307615268L178.26944444444442,160.80136714334984L178.35,160.81333418747928L179.10722222222222,160.81044044000052L179.17166666666668,160.81890781085522L179.67111111111112,160.81990203476448L179.86444444444444,160.81020092749134L180.28333333333333,160.7877677619018L180.33166666666668,160.79557988175011L180.44444444444446,160.779573477079L180.49277777777777,160.808016533931L180.57333333333335,160.78786655117594L180.63777777777779,160.79145720806704L180.79888888888888,160.76960816788502L180.86333333333334,160.79365860476338L180.9922222222222,160.7799568612449L181.2822222222222,160.810008279057L181.91055555555556,160.8300662709387L182.1038888888889,160.84620638298975L182.13611111111112,160.85655415451006L182.2488888888889,160.86423189121905L182.41,160.86453610594307L182.4261111111111,160.8385671919788L182.49055555555557,160.83191107120436L182.58722222222224,160.83528077469333L182.63555555555556,160.8373070925348L182.78055555555557,160.8146989000039L182.89333333333335,160.79867659180903L183.00611111111112,160.7851375724321L183.1027777777778,160.81457939920045L183.1188888888889,160.7831235155189L183.21555555555557,160.82207233197698L183.29611111111112,160.8036567954092L183.4572222222222,160.7629376222684L183.61833333333334,160.78267458685383L183.95666666666665,160.82592173338728L184.32722222222222,160.83879657775367L184.35944444444442,160.82233601182278L184.5688888888889,160.8372740795885L184.79444444444445,160.85025128039405L184.82666666666665,160.83790958051765L185.08444444444444,160.789603577838L185.10055555555556,160.81533035289928L185.11666666666665,160.83448678972695L185.6,160.83236603049858L185.89000000000001,160.81971891275464L186.035,160.84469468447463L186.18,160.8450637044727L186.3411111111111,160.77842523122058L186.42166666666668,160.80648675924348L186.77611111111113,160.82309335708558L186.905,160.8263630989678L187.00166666666667,160.79644746240356L187.2111111111111,160.81007842318314L187.74277777777777,160.82595037789892L188.0327777777778,160.83907161659235L188.0488888888889,160.7892017797007L188.09722222222223,160.78171103728963L188.30666666666667,160.732450963348L188.3711111111111,160.79332600534303L188.56444444444446,160.8103673731624L188.58055555555555,160.81883851163076L188.69333333333333,160.82648298225476L189.08,160.80166108472696L189.11222222222221,160.8309312116011L189.3538888888889,160.77533743939586L189.37,160.81559762877748L189.66,160.83250162842478L189.91777777777776,160.78097093905572L190.0788888888889,160.80558513246407L190.32055555555556,160.79763759502862L190.49777777777777,160.80757664980945L190.70722222222224,160.8168313922622L190.91666666666666,160.83596473573158L191.19055555555553,160.85404279278686L191.3033333333333,160.84640345265467L191.62555555555556,160.8458394357779L191.78666666666666,160.83770550880323L191.98000000000002,160.83884152572446L191.9961111111111,160.8454833564905L192.49555555555557,160.8141855388079L192.51166666666668,160.76351765118477L192.52777777777777,160.78247387117787L192.68888888888887,160.78151661982486L192.89833333333334,160.81484510199394L192.995,160.79124138954433L193.1238888888889,160.82019684714197L193.22055555555553,160.7497102531646L194.34833333333333,160.74929082147858L194.78333333333333,160.7600998008676L195.2827777777778,160.7951662294632L195.36333333333332,160.82954775369694L195.55666666666667,160.82158253206006L196.37833333333333,160.78252687592132L196.41055555555556,160.80651314143543L196.68444444444444,160.80219154963507L196.79722222222225,160.83993050491918L196.95833333333334,160.83370116198452L197.6672222222222,160.82805410771928L197.76388888888889,160.83516479201913L197.84444444444443,160.8526377586591L198.10222222222222,160.81399883732877L198.74666666666667,160.80452778946946L198.84333333333333,160.82578137414157L198.89166666666665,160.78467855126289L198.90777777777777,160.79187072636154L199.6972222222222,160.70612428575004L199.84222222222223,160.74260934043022L200.01944444444445,160.76379850424368L200.5027777777778,160.7853454761139L200.59944444444446,160.79722561764038L200.61555555555557,160.825432355438L200.71222222222224,160.81867430908179L201.405,160.8269279043537L201.67888888888888,160.80451561793566L202.04944444444445,160.79571208289195L202.21055555555554,160.8148086245034L202.37166666666667,160.77357268245066L202.565,160.7870111245846L202.6938888888889,160.77868850452407L202.93555555555557,160.81562900098194L203.22555555555556,160.83483583273392L203.53166666666667,160.80947006624444L203.69277777777776,160.83313330513323L203.725,160.85600667972005L204.7238888888889,160.85764006801085L204.885,160.86450608900543L204.99777777777777,160.84622012448304L205.07833333333335,160.83703753699874L205.3361111111111,160.79909243781466L205.4488888888889,160.7675666780039L205.465,160.79245608887027L205.65833333333333,160.8345872782207L205.755,160.84301402128773L206.3672222222222,160.86491910404573L206.89888888888888,160.83977291104614L207.43055555555557,160.8438124836665L207.785,160.83571503784438L207.84944444444446,160.82823296447395L209.05777777777777,160.8066284651148L209.26722222222222,160.818203071697L209.79888888888888,160.82011528087628L209.815,160.84487080690005L209.89555555555555,160.83321410484427L210.02444444444444,160.84720077953716L210.31444444444443,160.812908381501L210.49166666666667,160.84898683333475L210.95888888888888,160.8482398103556L211.34555555555553,160.79694926562468L211.44222222222223,160.70778221116726L211.45833333333331,160.7609505787296L211.555,160.77518725843774L211.5872222222222,160.76892926842893L212.00611111111112,160.79242319625084L212.18333333333334,160.8223542465953L212.79555555555555,160.77751743552938L212.85999999999999,160.78544377727206L212.95666666666665,160.79904748065735L213.06944444444446,160.82610895357922L213.08555555555554,160.84522627510609L213.2788888888889,160.77055359379693L213.5688888888889,160.81333670268475L214.02,160.77692780413423L214.19722222222222,160.8142042566972L214.55166666666668,160.8364782687128L214.7611111111111,160.84439694392196L214.77722222222224,160.8423250900792L214.90611111111113,160.84881665696045L215.09944444444443,160.81958486569619L215.3088888888889,160.84379646528018L215.7922222222222,160.8260566163501L215.95333333333335,160.77666039928982L216.00166666666667,160.80280433093532L216.03388888888887,160.79254704659377L216.58166666666668,160.77048928011394L216.6622222222222,160.76124425016116L216.69444444444446,160.80713798796182L216.82333333333335,160.78047946352606L216.87166666666667,160.79012323322473L216.90388888888887,160.7926581796345L216.96833333333333,160.80074616220702L217.30666666666664,160.81646091405273L217.3388888888889,160.7933526433332L217.54833333333332,160.7770022251663L217.9188888888889,160.79449940456874L217.93499999999997,160.7771606132514L218.4022222222222,160.7982682596358L218.6277777777778,160.76417158158168L218.75666666666666,160.8100197660663L219.28833333333333,160.82583620712228L219.80388888888888,160.82501989900564L220.5611111111111,160.81766332292798L220.65777777777777,160.81719537088637L220.93166666666667,160.75387969206844L221.3022222222222,160.80183915707295L221.52777777777777,160.8211784527064L221.62444444444446,160.84937166234087L221.7211111111111,160.7940998739614L221.76944444444445,160.82292442341557L221.91444444444446,160.84816238822938L222.07555555555555,160.8115445023051L222.10777777777776,160.81028907967146L222.60722222222222,160.73884465954407L222.63944444444445,160.728449910976L222.70388888888888,160.7331599278381L222.91333333333336,160.76310409846326L223.04222222222222,160.77955525320584L223.09055555555554,160.73495469522476L223.155,160.7224528687932L223.4127777777778,160.7372899390086L223.55777777777777,160.72635475873986L223.65444444444447,160.7095331834015L223.73499999999999,160.7615153335513L224.23444444444445,160.78594492714672L224.25055555555554,160.81035063759944L224.3311111111111,160.82956700932496L224.605,160.83710218157367L224.83055555555555,160.85346075621976L224.84666666666666,160.77507658790734L225.07222222222222,160.73767083374102L225.10444444444445,160.7306410882483L225.185,160.7671938566035L225.475,160.74862383641616L225.7488888888889,160.78845920751905L225.84555555555556,160.67606129196264L225.99055555555555,160.7382293414483L226.3127777777778,160.73681243154408L226.4738888888889,160.76503736971347L226.57055555555556,160.80266744423798L226.6511111111111,160.76393323812582L226.78,160.78089103217053L227.73055555555555,160.77364091800905L228.06888888888886,160.7501977071978L228.26222222222222,160.78421361924026L228.375,160.81329150342884L228.43944444444443,160.83476506709152L228.93888888888887,160.85066193434596L229.34166666666667,160.810379260818L229.39000000000001,160.81233610793612L229.51888888888888,160.8256656759605L229.77666666666667,160.82874013625695L229.92166666666665,160.6900904531231L230.42111111111112,160.65950216160286L230.45333333333332,160.6486483342359L230.51777777777778,160.6919088219025L230.61444444444447,160.69382179151125L230.64666666666668,160.68898809436863L230.6627777777778,160.6930141957906L231.11388888888888,160.58016984828697L231.25888888888886,160.62556909666944L231.33944444444444,160.59402879460907L231.45222222222222,160.65315713938085L231.51666666666668,160.6620837879268L231.90333333333334,160.74574079564601L231.96777777777777,160.7138269102927L232,160.69271381968755L232.33833333333334,160.73311358845748L232.35444444444443,160.65425680643955L232.37055555555554,160.64626535514972L232.5961111111111,160.558700726975L232.6927777777778,160.6394026728402L232.78944444444446,160.64440402064125L232.83777777777777,160.67335857429688L233.22444444444443,160.62734422237463L233.25666666666666,160.68188385243235L233.2888888888889,160.65790280088794L233.96555555555557,160.70108439387792L234.48111111111112,160.6569424399902L235.23833333333334,160.55561523806435L235.89888888888888,160.43424274232453L235.99555555555557,160.4443861150585L236.07611111111112,160.55620703080712L236.14055555555555,160.66607994155376L236.495,160.66756275977826L236.60777777777778,160.48136609822376L236.96222222222224,160.56681750315346L237.26833333333335,160.60486581156314L238.15444444444444,160.4287833367295L238.29944444444445,159.92385949839016L239.20166666666665,160.13324603494593L239.3788888888889,160.15990601259062L240.07166666666666,160.17215259804155L240.13611111111112,159.7143877086163L240.20055555555555,159.6901343941056L240.41,159.66670277786795L240.76444444444445,159.67689543171252L241.21555555555554,159.90579311741416L241.28,159.67636937857935L241.31222222222223,159.71775929221997L241.36055555555555,159.74900481494146L241.61833333333334,159.7931805208112L241.82777777777778,159.32592288809818L241.95666666666668,159.64508367394092L242.02111111111114,159.6368010133838L242.05333333333334,159.42796988678893L242.11777777777777,159.70083046529624L242.24666666666667,159.1460323380954L242.26277777777776,159.01812527636397L242.32722222222222,159.3713797234713L242.4238888888889,159.21957902288113L242.44,159.2008511146266L243.08444444444444,158.05570052365795L243.14888888888888,158.00048306622486L244.69555555555556,82.52584994826654L244.85666666666668,22.371863062887456L245.04999999999998,-14.779352920879045" style="fill: none;" fill="none"></path></g></g></g></g><g opacity="0.2"><g><g><g><path stroke="rgb(255, 112, 67)" stroke-width="2px" d="M32.51222222222222,157.20225086428903L32.97944444444445,157.1821594021537L33.22111111111111,157.18511532653463L33.23722222222222,157.20069444829767L33.36611111111111,157.20009443976662L33.65611111111111,157.19506495649165L33.88166666666667,157.1804760022597L33.94611111111111,157.1850033044815L34.284444444444446,157.19125006849114L34.31666666666666,157.17470072832975L34.751666666666665,157.18817828568544L34.8,157.184876704216L34.864444444444445,157.1852361722426L34.99333333333333,157.19085453857076L35.29944444444444,157.19963138970462L35.49277777777778,157.19107167720796L35.91166666666667,157.18926014249976L36.15333333333333,157.18830220049077L36.169444444444444,157.1947687885978L36.395,157.19691255309365L36.58833333333334,157.1875046188181L36.76555555555555,157.19252489480104L36.81388888888889,157.18575408241966L37.31333333333334,157.19398425058884L37.361666666666665,157.19745386513796L37.79666666666667,157.18284611268476L37.99,157.2018208070235L38.11888888888889,157.1963344118812L38.312222222222225,157.18156553181734L38.44111111111111,157.1907321583141L38.69888888888889,157.19463029558008L38.90833333333333,157.17322372523222L39.24666666666667,157.2040347771211L39.26277777777778,157.19739286682824L39.40777777777778,157.19365240443835L39.64944444444444,157.20381495302374L39.71388888888889,157.19869915138594L39.875,157.18912970586257L39.955555555555556,157.20138844793493L39.971666666666664,157.18175965222446L40.43888888888889,157.20209856033324L40.47111111111111,157.19739593592558L40.48722222222222,157.19817165027968L40.809444444444445,157.1829508456317L40.88999999999999,157.20435396324507L40.92222222222222,157.2071767655286L41.18,157.18604564666748L41.27666666666667,157.18326005718924L41.72777777777778,157.1883129423315L41.79222222222222,157.19838149981067L41.824444444444445,157.1973775213415L42.35611111111111,157.19019276445562L42.485,157.1889931310307L42.58166666666667,157.18937024636702L42.59777777777778,157.1960048675537L42.82333333333333,157.19321620897813L42.968333333333334,157.1812969857996L43.09722222222222,157.20335804115643L43.83833333333334,157.19480178139426L43.90277777777777,157.19918253421784L44.53111111111111,157.17883863882585L44.708333333333336,157.199730368094L44.82111111111111,157.1907237182964L44.91777777777778,157.1979407007044L45.175555555555555,157.18909748034045L45.626666666666665,157.19837689616463L46.029444444444444,157.1980262517929L46.17444444444444,157.19552839019082L46.49666666666666,157.17723580273716L47.39888888888889,157.17965271689675L48.31722222222222,157.18653900406576L48.397777777777776,157.19552417018195L48.575,157.20002576871352L48.68777777777778,157.19340687665073L48.752222222222215,157.2129378448833L48.784444444444446,157.19439896236767L48.92944444444444,157.17990860288793L49.23555555555556,157.21612586975098L49.47722222222222,157.2000464851206L49.573888888888895,157.19935593821785L49.91222222222222,157.19699311689897L50.089444444444446,157.2051323630593L50.12166666666667,157.1806313753128L50.34722222222222,157.18915886228734L50.459999999999994,157.19354191693392L50.76611111111111,157.2022754170678L50.782222222222224,157.19485664150932L50.97555555555556,157.19076745293358L51.13666666666667,157.18148228255185L51.16888888888889,157.20419321927156L51.29777777777778,157.19609003500506L51.442777777777785,157.21057809266176L51.845555555555556,157.1888953035528L51.958333333333336,157.20587815371428L52.29666666666667,157.21160508936103L52.39333333333333,157.18838314793328L52.42555555555556,157.20969150716607L52.47388888888889,157.18606904853473L52.538333333333334,157.19706524068658L52.635,157.20085787773132L52.699444444444445,157.18477580764076L52.78,157.20104010538623L53.13444444444445,157.20980429649353L53.56944444444445,157.18564781492407L53.891666666666666,157.19294382658873L54.19777777777777,157.18957472497766L54.375,157.2084343281659L54.391111111111115,157.19873943328858L55.05166666666666,157.19057793617247L55.406111111111116,157.21182836619292L55.696111111111115,157.20073127746582L55.71222222222222,157.2017471486872L56.29222222222223,157.18742328773845L56.42111111111112,157.19226709062403L56.550000000000004,157.20629823641343L56.59833333333333,157.19779683676634L57.16222222222222,157.20399679704147L57.21055555555555,157.20663813894444L57.43611111111112,157.2055885076523L57.48444444444444,157.19384767575698L57.565000000000005,157.1901762680574L57.75833333333333,157.2128895066001L57.93555555555555,157.2063784165816L58.435,157.19370342818175L58.56388888888889,157.19979366822676L59.12777777777778,157.1965388904918L59.36944444444445,157.2020206819881L59.64333333333333,157.194527480819L59.675555555555555,157.21299078681253L59.723888888888894,157.19346442222596L59.788333333333334,157.1953342697837L60.81944444444444,157.1975186998194L60.85166666666667,157.20592035380278L61.044999999999995,157.19564655043862L61.093333333333334,157.18853852098638L61.97944444444445,157.2077568249269L62.04388888888889,157.1952283859253L62.18888888888889,157.20724198384718L62.30166666666666,157.19182820970363L62.81722222222222,157.2029590585015L62.86555555555556,157.21551703756506L62.96222222222222,157.20483619516546L62.97833333333334,157.1964656157927L63.22,157.21202056841418L63.413333333333334,157.20348464142194L63.477777777777774,157.21841618364508L63.55833333333334,157.21124792315743L63.590555555555554,157.18715205626054L63.8,157.20862000855533L63.81611111111111,157.2019458727403L64.10611111111112,157.1959492401643L65.57222222222222,157.20857128663496L65.71722222222223,157.20796053626322L65.87833333333333,157.2053905508735L66.05555555555556,157.21012118079446L66.29722222222222,157.19939123283734L66.36166666666666,157.1994253765453L66.68388888888889,157.2101495699449L67.57000000000001,157.20977897644042L67.81166666666667,157.19922588521783L67.90833333333333,157.2020628820766L68.295,157.19557749574835L68.37555555555555,157.21337595852938L69.58388888888888,157.20066951188173L69.95444444444445,157.2239044969732L70.22833333333334,157.20036567124453L70.79222222222222,157.21180151159112L71.46888888888888,157.2103966322812L71.54944444444445,157.21096518256448L71.75888888888889,157.20559387857264L71.88777777777777,157.20783163417468L71.93611111111112,157.20206633481112L72.25833333333334,157.22418915575201L72.46777777777777,157.20275112715635L72.54833333333333,157.20181006518277L72.77388888888889,157.19280111356215L72.80611111111111,157.22657768076115L72.98333333333333,157.2056314750151L73.56333333333333,157.21152184009551L73.74055555555556,157.21175662604244L73.75666666666667,157.20732715129853L74.095,157.1998067118905L74.5461111111111,157.20717216188257L74.675,157.2114278489893L74.80388888888888,157.1980442827398L75.23888888888888,157.21045341058212L75.30333333333333,157.21872884793714L75.4161111111111,157.21513378403404L75.46444444444445,157.21388926506043L75.60944444444445,157.22196099107916L75.85111111111111,157.20969572717493L75.93166666666666,157.20983882383868L75.9961111111111,157.22644877867265L76.18944444444445,157.21830569614065L76.27000000000001,157.21360307173296L76.35055555555556,157.21502636562695L76.36666666666666,157.22638471126555L76.5761111111111,157.221588863026L76.59222222222223,157.21669518730857L76.60833333333333,157.22803511836312L76.76944444444445,157.2117113568566L76.81777777777778,157.20105199813844L76.97888888888889,157.2313132979653L77.09166666666665,157.20714377273214L77.52666666666666,157.21288643750276L77.88111111111111,157.21307365244084L78.04222222222224,157.21934727105227L78.31611111111111,157.2172533793883L78.33222222222223,157.22395935708826L79.28277777777778,157.22868346517737L79.78222222222222,157.2068568121303L79.83055555555556,157.22235690463674L79.94333333333333,157.22679712122138L79.99166666666666,157.22428161230954L80.12055555555555,157.21553813760931L80.86166666666666,157.22179564345964L81.10333333333334,157.2167573365298L81.31277777777778,157.22358377630061L81.89277777777778,157.21766310388392L81.90888888888888,157.22252800681375L82.21499999999999,157.24079834331167L82.23111111111112,157.2329272595319L82.24722222222222,157.2420532204888L82.47277777777778,157.2266402136196L82.4888888888889,157.22889101288536L82.505,157.2349421219392L82.61777777777779,157.2175633582202L82.89166666666667,157.2298455021598L83.34277777777778,157.24232675378974L83.64888888888889,157.2289470239119L83.76166666666667,157.24025242762133L83.84222222222222,157.2348531181162L84.05166666666666,157.23144258369098L84.1,157.23131444887682L84.24499999999999,157.2144298098304L84.43833333333333,157.23119705590335L84.82499999999999,157.23817426508123L84.87333333333333,157.23564264340834L85.48555555555556,157.23068451664665L86.03333333333335,157.23796786828476L86.29111111111112,157.24333111589604L86.58111111111111,157.23759420568294L86.75833333333334,157.24739536805586L86.88722222222222,157.23429300785065L87.06444444444445,157.25004514997656L87.28999999999999,157.25382090698588L87.98277777777777,157.24516451792283L88.33722222222222,157.24437460899352L88.35333333333332,157.24786340540106L88.46611111111112,157.24648998433892L88.49833333333332,157.2567150657827L88.61111111111111,157.25514790795066L89.03,157.24402243007313L89.67444444444445,157.25562054894186L89.72277777777778,157.26984006058086L89.83555555555556,157.257333872535L90.0288888888889,157.25792083740234L90.22222222222223,157.25264390815386L90.43166666666667,157.26140272834084L90.44777777777777,157.26097228743814L90.48,157.26388601173053L90.70555555555555,157.26802315495232L91.09222222222222,157.26666239391676L91.14055555555555,157.26346976540304L91.17277777777778,157.26740051182833L91.205,157.26108929677443L91.25333333333333,157.26798555850982L91.31777777777778,157.2712710272182L91.36611111111111,157.26208521886306L91.67222222222223,157.26597338156267L92.02666666666667,157.2757649530064L92.10722222222222,157.27273383574052L92.60666666666667,157.26763299595228L92.70333333333333,157.2673970590938L92.81611111111111,157.2649406303059L92.84833333333333,157.2786752245643L93.15444444444445,157.27771651528099L93.28333333333333,157.2747337362983L94.21777777777778,157.27315698753705L94.25,157.29541830149563L94.41111111111111,157.29253603545104L94.55611111111111,157.2954332633452L95.08777777777777,157.31709840514443L95.23277777777778,157.3053445295854L95.29722222222223,157.30861350189556L95.39388888888888,157.3173750075427L95.58722222222222,157.29967782497405L95.63555555555556,157.31687781377272L96.11888888888889,157.3136276396838L96.26388888888889,157.31301957477223L96.36055555555556,157.32280769348145L96.86,157.32704534964128L96.89222222222223,157.34877724430777L97.03722222222223,157.34451772082934L97.21444444444444,157.33875088691713L97.3111111111111,157.35188355445862L97.42388888888888,157.33063657717273L98.02000000000001,157.3708732106469L98.42277777777778,157.3540219480341L98.51944444444445,157.36704489534551L98.61611111111111,157.3767282811078L98.66444444444444,157.36149289824746L99.01888888888888,157.40069831501353L99.58277777777778,157.37628863291306L99.75999999999999,157.42158352244985L100.32388888888889,157.4273718400435L100.67833333333334,157.46568491675637L100.72666666666666,157.45668440515345L100.80722222222222,157.41416091051968L101.78999999999999,157.5130472269925L101.87055555555557,157.51327357292175L101.95111111111112,157.5572288014672L102.04777777777777,157.5354282357476L103.03055555555557,157.6385986284776L103.46555555555557,157.60671646161512L103.675,157.65849328474565L103.80388888888889,157.6988799203526L103.98111111111112,157.72934051968835L104.17444444444445,157.76805622360922L104.545,157.78407844630155L104.64166666666667,157.87550493803892L105.125,157.8904504830187L105.28611111111111,157.85420233336362L105.35055555555554,157.8595174345103L105.75333333333333,157.9745980349454L105.81777777777778,158.00064680684696L105.91444444444444,158.03312610496175L106.47833333333332,157.91474814306605L106.52666666666667,158.0627281243151L107.12277777777777,158.16527740846982L107.2838888888889,158.29638464342463L107.59,158.1866876233708L107.7188888888889,158.2435418844223L107.78333333333333,158.27804448496212L107.81555555555555,158.24979862299833L107.91222222222223,158.32565155571157L108.05722222222222,158.3685711557215L108.20222222222222,158.34366197802802L108.42777777777778,158.39453878836198L108.54055555555556,158.49389563582162L108.895,158.3850842421705L109.00777777777778,158.4981300310655L109.10444444444445,158.4604443929412L109.1688888888889,158.5871511177583L109.185,158.54337466413324L109.62,158.4567672306841L109.66833333333332,158.67935102202676L109.7811111111111,158.52655159885234L110.03888888888888,158.6671812837774L110.07111111111111,158.64655081142078L110.11944444444445,158.74114192615855L110.13555555555556,158.74341152364556L110.26444444444445,158.70776069706136L110.87666666666668,158.9310768517581L111.08611111111111,159.06511085466906L111.32777777777778,158.84929001114585L111.63388888888888,159.2271833636544L111.69833333333332,159.09775741858917L111.8111111111111,158.9406790982593L111.95611111111111,159.0758922100067L112.45555555555555,159.11836295452986L112.63277777777778,159.08885952992873L113.14833333333333,159.31079986583103L113.53500000000001,159.27150918570433L113.8411111111111,159.45375985882498L114.05055555555556,159.4614926414056L114.06666666666666,159.25354307348078L114.19555555555556,159.48244182033972L114.22777777777777,159.35718783356927L114.90444444444444,159.49049906405534L114.96888888888888,159.54062768600204L115.03333333333333,159.33695883750914L115.21055555555556,159.47230737317693L115.22666666666666,159.37435866594313L115.25888888888889,159.65354562781073L115.275,159.3144146870483L115.79055555555556,159.47984843308276L115.96777777777778,159.62059292143041L116,159.63338971463116L116.08055555555556,159.63043120069938L116.11277777777778,159.5646948760206L116.29,159.60955424146218L116.40277777777779,159.64904326200485L116.61222222222221,159.67186046622015L116.85388888888889,159.60027731927957L116.99888888888889,159.6110304772854L117.04722222222222,159.67533008076927L117.53055555555557,159.66967517300085L117.9011111111111,159.8768771279942L117.91722222222222,159.93193846074018L117.96555555555555,159.58796227845278L117.99777777777778,159.69919077808206L118.06222222222222,159.6503018796444L118.15888888888888,159.76270593946631L118.61,159.9991236870939L118.7388888888889,159.99860472191463L119.10944444444443,160.00870531309732L119.25444444444445,160.00551364367658L119.27055555555556,159.61733747233043L119.94722222222222,159.90667825503783L120.09222222222222,159.93975497213276L120.17277777777777,159.9254062706774L120.89777777777778,159.9140391013839L120.97833333333334,160.1063480696895L121.17166666666667,160.07944551327012L121.55833333333334,160.00065708485516L121.91277777777778,160.05077822587708L122.50888888888889,160.11723751479929L123.29833333333335,160.01112606362864L123.52388888888889,160.28745459291068L124.42611111111111,160.02348579818553L124.53888888888889,160.12534894726494L124.9738888888889,160.2852529471571L124.99,160.16114325415003L125.36055555555555,160.12003135247664L125.48944444444444,159.98535744276913L126.18222222222222,160.00643322196873L126.73,160.160738325119L126.93944444444445,160.13023571751336L126.98777777777778,160.2177505967292L128.0511111111111,160.28618878207425L128.18,160.02138471332464L128.30888888888887,160.167040045153L128.58277777777778,160.29051083841108L128.7277777777778,160.18427647948266L128.84055555555557,160.08607485944574L128.93722222222223,160.05845739516346L129.0338888888889,160.33034196739848L129.61388888888888,160.18540777753702L129.74277777777777,160.2932736014778L130.14555555555555,160.16291767196222L130.16166666666666,160.28305950164795L130.67722222222224,160.27635966214265L130.70944444444444,160.2448881309141L131.03166666666667,160.4104142855514L131.11222222222221,160.34307191182268L131.14444444444445,160.15409123572437L131.17666666666665,160.54015373411502L131.59555555555556,160.19577533223412L132.19166666666666,160.20544624978845L132.28833333333333,160.37392636266623L132.51388888888889,160.51110012409362L132.80388888888888,160.45242926911874L133.3838888888889,160.2496555900032L133.41611111111112,160.45566174794328L133.52888888888887,160.28702587837523L133.67388888888888,160.36820829862899L133.72222222222223,160.48933348628609L134.17333333333335,160.31190844124015L134.23777777777778,160.33049988204783L134.27,160.39229797937654L134.47944444444443,160.40301680185578L134.65666666666667,160.32719647830183L134.67277777777778,160.44357031963088L134.75333333333333,160.13777548264375L134.83388888888888,160.15666630430655L135.43,160.1368195547299L135.72,160.36773604127492L136.0261111111111,160.38535582504488L136.2838888888889,160.2974273370071L136.50944444444443,160.29017496407033L136.79944444444445,160.5086644356901L136.8477777777778,160.39981568536976L137.39555555555557,160.28961399062112L137.4438888888889,160.33534742539578L137.5888888888889,160.19167698432096L137.68555555555557,160.48788559165868L137.76611111111112,160.17291899702767L137.97555555555556,160.44414400106126L138.0561111111111,160.34396736892788L138.3138888888889,160.3488279079849L138.39444444444445,160.37094358368353L138.475,160.32387840043415L138.53944444444446,160.50894415514037L138.79722222222222,160.39592814608054L139.345,160.3276750177145L139.73166666666665,160.41701744849033L140.40833333333333,160.43861487832936L140.48888888888888,160.4013944002715L140.65,160.57904142737388L140.71444444444444,160.4816185907884L140.97222222222223,160.4193308765238L141.14944444444444,160.40215088481253L141.53611111111113,160.4167282819748L141.81,160.6252765157006L142.1161111111111,160.36729059056802L142.45444444444445,160.52369207902387L142.48666666666668,160.34489198245785L142.58333333333331,160.5487058458003L142.72833333333332,160.49532709771935L142.98611111111111,160.51309417418457L143.61444444444444,160.57349875745447L143.64666666666668,160.5604385254058L143.695,160.4760337447578L143.87222222222223,160.25849828286604L143.98499999999999,160.3163146100261L144.59722222222223,160.52329153784297L144.855,160.6125075841492L144.93555555555554,160.49662225679918L144.96777777777777,160.44908668642694L145.29,160.57482086704536L145.46722222222223,160.56727306951177L145.7088888888889,160.13307002891193L145.87,160.53137278285894L146.885,160.6176375324076L146.93333333333334,160.60851279429414L147.03,160.49813939793543L147.64222222222222,160.42094248831273L147.8516666666667,160.54779288524932L147.86777777777777,160.5621612960642L147.9,160.61554018800908L147.99666666666667,160.64087863171642L148.045,160.30430930825796L148.33499999999998,160.64849963201718L148.625,160.4756251711737L149.01166666666668,160.56842232658104L149.07611111111112,160.56728318794208L149.26944444444445,160.5946514559063L149.41444444444446,160.45110926953228L149.9622222222222,160.47256513725628L150.3811111111111,160.52338905361566L150.44555555555556,160.5245555503802L150.47777777777776,160.49788111421194L150.68722222222223,160.63085872422567L150.76777777777775,160.5455083738674L150.9127777777778,160.65333144624122L151.20277777777778,160.75781737877563L151.8311111111111,160.68404184132814L152.00833333333333,160.532968593592L152.02444444444444,160.63994996601886L152.47555555555556,160.65708315399561L152.54000000000002,160.60136875090274L152.57222222222222,160.69401904520663L152.76555555555555,160.67154958410697L153.1522222222222,160.55709392861885L153.34555555555556,160.65419005020098L153.47444444444446,160.5915887365287L153.57111111111112,160.73492330326275L153.74833333333333,160.55906064456158L153.87722222222223,160.5931810465726L153.90944444444443,160.59695457369088L154.0061111111111,160.68518349758602L154.55388888888888,160.68720677603375L154.69888888888892,160.67207106690518L154.73111111111112,160.6539740624753L154.77944444444444,160.54511073394255L155.27888888888887,160.7490892375735L155.295,160.7618512157012L155.37555555555556,160.72340177995238L155.63333333333333,160.66667861491442L155.64944444444444,160.52132899395446L156.6161111111111,160.7185083320195L156.71277777777777,160.6840054437518L156.76111111111112,160.6368533427065L157.18,160.7282982370393L157.26055555555556,160.64774731953037L157.79222222222222,160.76249348426407L157.80833333333334,160.67898663038557L158.22722222222222,160.6606494451111L158.50111111111113,160.68546431999317L158.56555555555556,160.73679691526021L158.69444444444446,160.67475938038393L158.775,160.67612695097924L158.79111111111112,160.71154862628742L158.88777777777779,160.63722858781165L159.21,160.7897936326536L159.41944444444445,160.770065283098L159.5161111111111,160.61326620267195L159.9188888888889,160.75019037215546L159.96722222222223,160.73121302832254L160.88555555555556,160.74997035623952L161.59444444444443,160.67768857004967L161.62666666666667,160.78500316732308L161.85222222222222,160.77975768433376L161.98111111111112,160.75528551732953L162.35166666666666,160.71935909539462L162.36777777777777,160.81523796021938L162.65777777777777,160.68394276702946L163.07666666666668,160.77906186241995L163.4311111111111,160.7926994564181L163.73722222222221,160.78888845274395L163.75333333333333,160.77542637275025L164.20444444444442,160.6894174372608L164.33333333333334,160.73095321005042L164.34944444444446,160.66968736133794L164.59111111111113,160.8185317190872L164.80055555555555,160.82738869644024L164.81666666666666,160.78275927352635L165.21944444444446,160.71208654554053L165.5738888888889,160.8192557023669L165.67055555555555,160.79070679701186L165.71888888888887,160.76964048885486L165.79944444444445,160.68812398057094L165.88,160.7592560061677L165.96055555555554,160.68885771063242L166.7338888888889,160.77652011032808L166.78222222222223,160.76891955069522L166.95944444444444,160.72548608068715L167.185,160.7884524131363L167.50722222222223,160.73312423676254L167.73277777777776,160.72136329988186L167.81333333333333,160.706075730378L168.4738888888889,160.6478239510547L168.53833333333336,160.8575792751529L169.02166666666665,160.77287106148222L169.23111111111112,160.7222061507404L169.505,160.79539525082166L169.64999999999998,160.82520048398186L169.94,160.85176452855495L170.0366666666667,160.78734801763838L170.18166666666667,160.76936741112308L170.87444444444444,160.8399115307426L171.0677777777778,160.80757583880967L171.1,160.71833998723463L171.21277777777777,160.7861950201067L171.72833333333332,160.80569986504588L171.79277777777776,160.8431534026834L172.29222222222222,160.69203779900616L172.38888888888889,160.75847832567314L172.67888888888888,160.82081230418248L172.77555555555554,160.6639426345175L173.2266666666667,160.72668654132974L173.2588888888889,160.80424898524177L173.61333333333334,160.84591784416276L173.64555555555555,160.77709594971753L173.80666666666667,160.86472723883662L173.98388888888888,160.80297354751013L174.37055555555557,160.82538831034168L174.53166666666667,160.77526293132792L175.04722222222222,160.7948935373263L175.1277777777778,160.85154290016402L175.24055555555557,160.80548640692777L175.4177777777778,160.65922950804233L175.51444444444445,160.75911505547438L175.88500000000002,160.7250026139346L175.94944444444445,160.77453344525262L176.25555555555556,160.70245968631724L176.67444444444445,160.75626767643473L176.73888888888888,160.86297832090747L176.88388888888886,160.7379942348735L176.98055555555555,160.85881916950032L177.0611111111111,160.78564650287683L177.3188888888889,160.7064804436131L177.75388888888887,160.87398398709908L178.01166666666666,160.74877435537903L178.15666666666667,160.7871145264669L178.26944444444442,160.82621324414558L178.35,160.83128475367346L179.10722222222222,160.80609981878237L179.17166666666668,160.83160886713728L179.67111111111112,160.82139337062836L179.86444444444444,160.79564926658162L180.28333333333333,160.75411801351743L180.33166666666668,160.80729806152257L180.44444444444446,160.75556387007236L180.49277777777777,160.85068111920899L180.57333333333335,160.75764157704333L180.63777777777779,160.7968431934037L180.79888888888888,160.736834607612L180.86333333333334,160.8297342600809L180.9922222222222,160.7594042459672L181.2822222222222,160.8550854057751L181.91055555555556,160.86015325876122L182.1038888888889,160.8704165510664L182.13611111111112,160.87207581179047L182.2488888888889,160.87574849628248L182.41,160.86499242802913L182.4261111111111,160.79961382103238L182.49055555555557,160.8219268900427L182.58722222222224,160.84033532992683L182.63555555555556,160.840346569297L182.78055555555557,160.7807866112075L182.89333333333335,160.77464312951673L183.00611111111112,160.7648290433667L183.1027777777778,160.85874213935298L183.1188888888889,160.73593968999657L183.21555555555557,160.88049555666407L183.29611111111112,160.77603349055755L183.4572222222222,160.7018588625572L183.61833333333334,160.812280033732L183.95666666666665,160.89079245318743L184.32722222222222,160.85810884430327L184.35944444444442,160.79764516292647L184.5688888888889,160.8596811812371L184.79444444444445,160.86971708160232L184.82666666666665,160.81939703070304L185.08444444444444,160.71714457381853L185.10055555555556,160.8539205154912L185.11666666666665,160.86322144496847L185.6,160.82918489165604L185.89000000000001,160.8007482361387L186.035,160.88215834205462L186.18,160.8456172344698L186.3411111111111,160.67846752134236L186.42166666666668,160.84857905127785L186.77611111111113,160.8480032538487L186.905,160.83126771179113L187.00166666666667,160.7515740075572L187.2111111111111,160.83052486435255L187.74277777777777,160.84975830997254L188.0327777777778,160.85875347463244L188.0488888888889,160.71439702436328L188.09722222222223,160.770474923673L188.30666666666667,160.6585608524355L188.3711111111111,160.88463856833565L188.56444444444446,160.83592942489142L188.58055555555555,160.83154521933332L188.69333333333333,160.83794968819078L189.08,160.76442823843522L189.11222222222221,160.8748364019123L189.3538888888889,160.691946781088L189.37,160.87598791284995L189.66,160.85785762789575L189.91777777777776,160.70367490500212L190.0788888888889,160.84250642257658L190.32055555555556,160.78571628887545L190.49777777777777,160.8224852319807L190.70722222222224,160.83071350594136L190.91666666666666,160.86466475093567L191.19055555555553,160.88115987836977L191.3033333333333,160.83494444245642L191.62555555555556,160.84499341046268L191.78666666666666,160.82550461834128L191.98000000000002,160.84054555110635L191.9961111111111,160.8554461026395L192.49555555555557,160.76723881228403L192.51166666666668,160.68751581975005L192.52777777777777,160.81090820116754L192.68888888888887,160.78008074279535L192.89833333333334,160.86483782524752L192.995,160.75583582086998L193.1238888888889,160.8636300335384L193.22055555555553,160.64398036219856L194.34833333333333,160.74866167394953L194.78333333333333,160.77631326995112L195.2827777777778,160.84776587235658L195.36333333333332,160.88112004004756L195.55666666666667,160.80963469960471L196.37833333333333,160.72394339171322L196.41055555555556,160.84249253970657L196.68444444444444,160.79570916193452L196.79722222222225,160.89653893784535L196.95833333333334,160.82435714758256L197.6672222222222,160.81958352632142L197.76388888888889,160.84583081846887L197.84444444444443,160.8788472086191L198.10222222222222,160.75604045533322L198.74666666666667,160.7903212176805L198.84333333333333,160.85766175114972L198.89166666666665,160.72302431694487L198.90777777777777,160.80265898900953L199.6972222222222,160.57750462483278L199.84222222222223,160.7973369224505L200.01944444444445,160.79558224996381L200.5027777777778,160.81766593391922L200.59944444444446,160.81504582993009L200.61555555555557,160.8677424621345L200.71222222222224,160.8085372395475L201.405,160.8393082972616L201.67888888888888,160.77089718830857L202.04944444444445,160.78250678032637L202.21055555555554,160.84345343692058L202.37166666666667,160.71171876937152L202.565,160.80716878778554L202.6938888888889,160.76620457443323L202.93555555555557,160.8710397456688L203.22555555555556,160.86364608036186L203.53166666666667,160.77142141651024L203.69277777777776,160.8686281634664L203.725,160.8903167416003L204.7238888888889,160.86009015044706L204.885,160.87480512049726L204.99777777777777,160.81879117769952L205.07833333333335,160.82326365577225L205.3361111111111,160.74217478903856L205.4488888888889,160.72027803828772L205.465,160.82979020516981L205.65833333333333,160.89778406224636L205.755,160.85565413588827L206.3672222222222,160.8977767281827L206.89888888888888,160.80205362154678L207.43055555555557,160.84987184259703L207.785,160.8235688691112L207.84944444444446,160.8170098544183L209.05777777777777,160.77422171607614L209.26722222222222,160.8355649815703L209.79888888888888,160.82298359464517L209.815,160.88200409593568L209.89555555555555,160.81572905176066L210.02444444444444,160.86818079157646L210.31444444444443,160.76146978444675L210.49166666666667,160.9031045110854L210.95888888888888,160.8471192758869L211.34555555555553,160.72001344852828L211.44222222222223,160.5740316294811L211.45833333333331,160.84070313007317L211.555,160.7965422779999L211.5872222222222,160.75954228341578L212.00611111111112,160.8276640879837L212.18333333333334,160.86725082211197L212.79555555555555,160.7102622189305L212.85999999999999,160.79733328988607L212.95666666666665,160.81945303573528L213.06944444444446,160.86670116296207L213.08555555555554,160.87390225739642L213.2788888888889,160.65854457183318L213.5688888888889,160.87751136601648L214.02,160.72231445630842L214.19722222222222,160.87011893554168L214.55166666666668,160.8698892867362L214.7611111111111,160.8562749567357L214.77722222222224,160.8392173093151L214.90611111111113,160.85855400728232L215.09944444444443,160.77573717879977L215.3088888888889,160.8801138646562L215.7922222222222,160.79944684295492L215.95333333333335,160.70256607369944L216.00166666666667,160.84202022840353L216.03388888888887,160.7771611200815L216.58166666666668,160.73740263039414L216.6622222222222,160.747376705232L216.69444444444446,160.8759785946628L216.82333333333335,160.74049167687244L216.87166666666667,160.80458888777278L216.90388888888887,160.79646059924906L216.96833333333333,160.81287813606588L217.30666666666664,160.84003304182127L217.3388888888889,160.75869023725392L217.54833333333332,160.75247659791597L217.9188888888889,160.82074517367238L217.93499999999997,160.75115242627535L218.4022222222222,160.82992972921244L218.6277777777778,160.71302656450055L218.75666666666666,160.8787920427932L219.28833333333333,160.8495608687062L219.80388888888888,160.8237954368307L220.5611111111111,160.80662845881147L220.65777777777777,160.81649344282394L220.93166666666667,160.65890617384153L221.3022222222222,160.87377835457974L221.52777777777777,160.8501873961565L221.62444444444446,160.8916614767926L221.7211111111111,160.71119219139217L221.76944444444445,160.86616124759684L221.91444444444446,160.8860193354501L222.07555555555555,160.75661767341873L222.10777777777776,160.808405945721L222.60722222222222,160.63167802935297L222.63944444444445,160.71285778812387L222.70388888888888,160.74022495313125L222.91333333333336,160.80802035440098L223.04222222222222,160.80423198531975L223.09055555555554,160.6680538582531L223.155,160.70370012914591L223.4127777777778,160.75954554433173L223.55777777777777,160.7099519883367L223.65444444444447,160.684300820394L223.73499999999999,160.839488558776L224.23444444444445,160.82258931753987L224.25055555555554,160.8469592032785L224.3311111111111,160.8583915669132L224.605,160.8484049399468L224.83055555555555,160.87799861818888L224.84666666666666,160.6575003354387L225.07222222222222,160.68156220249153L225.10444444444445,160.7200964700092L225.185,160.82202300913633L225.475,160.7207688061351L225.7488888888889,160.8482122641734L225.84555555555556,160.507464418628L225.99055555555555,160.8314814156768L226.3127777777778,160.73468706668777L226.4738888888889,160.80737477696755L226.57055555555556,160.8591125560247L226.6511111111111,160.7058319289576L226.78,160.80632772323762L227.73055555555555,160.76276574676686L228.06888888888886,160.7150328909809L228.26222222222222,160.83523748730394L228.375,160.85690832971173L228.43944444444443,160.86697541258553L228.93888888888887,160.87450723522767L229.34166666666667,160.74995525052603L229.39000000000001,160.81527137861332L229.51888888888888,160.84566002799707L229.77666666666667,160.83335182670166L229.92166666666665,160.48211592842233L230.42111111111112,160.61361972432246L230.45333333333332,160.63236759318548L230.51777777777778,160.75679955340246L230.61444444444447,160.69669124592434L230.64666666666668,160.68173754865472L230.6627777777778,160.69905334792355L231.11388888888888,160.41090332703158L231.25888888888886,160.69366796924308L231.33944444444444,160.54671834151856L231.45222222222222,160.74184965653853L231.51666666666668,160.67547376074575L231.90333333333334,160.87122630722484L231.96777777777777,160.66595608226277L232,160.66104418377984L232.33833333333334,160.79371324161238L232.35444444444443,160.53597163341263L232.37055555555554,160.63427817821503L232.5961111111111,160.4273537847129L232.6927777777778,160.760455591638L232.78944444444446,160.65190604234283L232.83777777777777,160.71679040478034L233.22444444444443,160.55832269449127L233.25666666666666,160.76369329751893L233.2888888888889,160.6219312235713L233.96555555555557,160.76585678336295L234.48111111111112,160.59072950915856L235.23833333333334,160.40362443517557L235.89888888888888,160.25218399871477L235.99555555555557,160.45960117415947L236.07611111111112,160.72393840443004L236.14055555555555,160.83088930767366L236.495,160.66978698711506L236.60777777777778,160.202071105892L236.96222222222224,160.694994610548L237.26833333333335,160.66193827417763L238.15444444444444,160.16465962447904L238.29944444444445,159.16647374088114L239.20166666666665,160.44732583977958L239.3788888888889,160.19989597905766L240.07166666666666,160.19052247621795L240.13611111111112,159.02774037447844L240.20055555555555,159.65375442233952L240.41,159.6315553535115L240.76444444444445,159.6921844124794L241.21555555555554,160.2491396459666L241.28,159.33223377032712L241.31222222222223,159.7798441626809L241.36055555555555,159.79587309902365L241.61833333333334,159.85944407961586L241.82777777777778,158.62503643902866L241.95666666666668,160.123824852705L242.02111111111114,159.62437702254815L242.05333333333334,159.11472319689665L242.11777777777777,160.11012133305724L242.24666666666667,158.31383514729413L242.26277777777776,158.8262646837668L242.32722222222222,159.9012613941323L242.4238888888889,158.99187797199596L242.44,159.1727592522448L243.08444444444444,156.33797463720495L243.14888888888888,157.91765688007527L244.69555555555556,-30.686099728670985L245.32388888888892,-107.46196372292256L245.43666666666667,5.64359123923561L245.58166666666668,-158.98312183726915L246.56444444444443,-230.5582285100763L247.28944444444446,34.55127182006835L247.9177777777778,10.617603648792615L248.14333333333335,-6.3820037841796875L250.94666666666666,-99.67983772971412L251.14,9.127790138938218L251.20444444444445,-125.11180239590732" style="fill: none;" fill="none"></path></g></g></g></g></g></g><g transform="translate(40, 177)" clip-path="url(#clip_1)"><clipPath id="clip_1"><rect width="290" height="23"></rect></clipPath><g><g><line x1="0" y1="0" x2="0" y2="5" style="visibility: inherit;" fill="rgb(0, 0, 0)" stroke="rgb(204, 204, 204)" stroke-width="1px"></line><line x1="32.22222222222222" y1="0" x2="32.22222222222222" y2="5" style="visibility: inherit;" fill="rgb(0, 0, 0)" stroke="rgb(204, 204, 204)" stroke-width="1px"></line><line x1="64.44444444444444" y1="0" x2="64.44444444444444" y2="5" style="visibility: inherit;" fill="rgb(0, 0, 0)" stroke="rgb(204, 204, 204)" stroke-width="1px"></line><line x1="96.66666666666666" y1="0" x2="96.66666666666666" y2="5" style="visibility: inherit;" fill="rgb(0, 0, 0)" stroke="rgb(204, 204, 204)" stroke-width="1px"></line><line x1="128.88888888888889" y1="0" x2="128.88888888888889" y2="5" style="visibility: inherit;" fill="rgb(0, 0, 0)" stroke="rgb(204, 204, 204)" stroke-width="1px"></line><line x1="161.11111111111111" y1="0" x2="161.11111111111111" y2="5" style="visibility: inherit;" fill="rgb(0, 0, 0)" stroke="rgb(204, 204, 204)" stroke-width="1px"></line><line x1="193.33333333333331" y1="0" x2="193.33333333333331" y2="5" style="visibility: inherit;" fill="rgb(0, 0, 0)" stroke="rgb(204, 204, 204)" stroke-width="1px"></line><line x1="225.55555555555557" y1="0" x2="225.55555555555557" y2="5" style="visibility: inherit;" fill="rgb(0, 0, 0)" stroke="rgb(204, 204, 204)" stroke-width="1px"></line><line x1="257.77777777777777" y1="0" x2="257.77777777777777" y2="5" style="visibility: inherit;" fill="rgb(0, 0, 0)" stroke="rgb(204, 204, 204)" stroke-width="1px"></line><line x1="290" y1="0" x2="290" y2="5" style="visibility: inherit;" fill="rgb(0, 0, 0)" stroke="rgb(204, 204, 204)" stroke-width="1px"></line></g><g transform="translate(0, 8)"><text x="0" y="0" dx="0em" dy="0.95em" style="text-anchor: middle; visibility: hidden; font-family: Roboto, sans-serif; font-size: 12px; font-weight: 200;" fill="rgb(33, 33, 33)" stroke="none" stroke-width="1px">-2k</text><text x="32.22222222222222" y="0" dx="0em" dy="0.95em" style="text-anchor: middle; visibility: inherit; font-family: Roboto, sans-serif; font-size: 12px; font-weight: 200;" fill="rgb(33, 33, 33)" stroke="none" stroke-width="1px">0</text><text x="64.44444444444444" y="0" dx="0em" dy="0.95em" style="text-anchor: middle; visibility: inherit; font-family: Roboto, sans-serif; font-size: 12px; font-weight: 200;" fill="rgb(33, 33, 33)" stroke="none" stroke-width="1px">2k</text><text x="96.66666666666666" y="0" dx="0em" dy="0.95em" style="text-anchor: middle; visibility: inherit; font-family: Roboto, sans-serif; font-size: 12px; font-weight: 200;" fill="rgb(33, 33, 33)" stroke="none" stroke-width="1px">4k</text><text x="128.88888888888889" y="0" dx="0em" dy="0.95em" style="text-anchor: middle; visibility: inherit; font-family: Roboto, sans-serif; font-size: 12px; font-weight: 200;" fill="rgb(33, 33, 33)" stroke="none" stroke-width="1px">6k</text><text x="161.11111111111111" y="0" dx="0em" dy="0.95em" style="text-anchor: middle; visibility: inherit; font-family: Roboto, sans-serif; font-size: 12px; font-weight: 200;" fill="rgb(33, 33, 33)" stroke="none" stroke-width="1px">8k</text><text x="193.33333333333331" y="0" dx="0em" dy="0.95em" style="text-anchor: middle; visibility: inherit; font-family: Roboto, sans-serif; font-size: 12px; font-weight: 200;" fill="rgb(33, 33, 33)" stroke="none" stroke-width="1px">10k</text><text x="225.55555555555557" y="0" dx="0em" dy="0.95em" style="text-anchor: middle; visibility: inherit; font-family: Roboto, sans-serif; font-size: 12px; font-weight: 200;" fill="rgb(33, 33, 33)" stroke="none" stroke-width="1px">12k</text><text x="257.77777777777777" y="0" dx="0em" dy="0.95em" style="text-anchor: middle; visibility: inherit; font-family: Roboto, sans-serif; font-size: 12px; font-weight: 200;" fill="rgb(33, 33, 33)" stroke="none" stroke-width="1px">14k</text><text x="290" y="0" dx="0em" dy="0.95em" style="text-anchor: middle; visibility: hidden; font-family: Roboto, sans-serif; font-size: 12px; font-weight: 200;" fill="rgb(33, 33, 33)" stroke="none" stroke-width="1px">16k</text></g><line x1="0" y1="0" x2="290" y2="0" fill="rgb(0, 0, 0)" stroke="rgb(204, 204, 204)" stroke-width="1px"></line></g></g></g></g></svg>