<svg viewBox="0 0 330 200" xmlns="http://www.w3.org/2000/svg"><g><g><g><g><g><line x1="50" y1="177" x2="45" y2="177" style="visibility: inherit;" fill="rgb(0, 0, 0)" stroke="rgb(204, 204, 204)" stroke-width="1px"></line><line x1="50" y1="163.38461538461678" x2="45" y2="163.38461538461678" style="visibility: inherit;" fill="rgb(0, 0, 0)" stroke="rgb(204, 204, 204)" stroke-width="1px"></line><line x1="50" y1="149.76923076923052" x2="45" y2="149.76923076923052" style="visibility: inherit;" fill="rgb(0, 0, 0)" stroke="rgb(204, 204, 204)" stroke-width="1px"></line><line x1="50" y1="136.15384615384733" x2="45" y2="136.15384615384733" style="visibility: inherit;" fill="rgb(0, 0, 0)" stroke="rgb(204, 204, 204)" stroke-width="1px"></line><line x1="50" y1="122.53846153846106" x2="45" y2="122.53846153846106" style="visibility: inherit;" fill="rgb(0, 0, 0)" stroke="rgb(204, 204, 204)" stroke-width="1px"></line><line x1="50" y1="108.92307692307786" x2="45" y2="108.92307692307786" style="visibility: inherit;" fill="rgb(0, 0, 0)" stroke="rgb(204, 204, 204)" stroke-width="1px"></line><line x1="50" y1="95.30769230769161" x2="45" y2="95.30769230769161" style="visibility: inherit;" fill="rgb(0, 0, 0)" stroke="rgb(204, 204, 204)" stroke-width="1px"></line><line x1="50" y1="81.69230769230839" x2="45" y2="81.69230769230839" style="visibility: inherit;" fill="rgb(0, 0, 0)" stroke="rgb(204, 204, 204)" stroke-width="1px"></line><line x1="50" y1="68.07692307692214" x2="45" y2="68.07692307692214" style="visibility: inherit;" fill="rgb(0, 0, 0)" stroke="rgb(204, 204, 204)" stroke-width="1px"></line><line x1="50" y1="54.461538461538936" x2="45" y2="54.461538461538936" style="visibility: inherit;" fill="rgb(0, 0, 0)" stroke="rgb(204, 204, 204)" stroke-width="1px"></line><line x1="50" y1="40.84615384615268" x2="45" y2="40.84615384615268" style="visibility: inherit;" fill="rgb(0, 0, 0)" stroke="rgb(204, 204, 204)" stroke-width="1px"></line><line x1="50" y1="27.230769230769468" x2="45" y2="27.230769230769468" style="visibility: inherit;" fill="rgb(0, 0, 0)" stroke="rgb(204, 204, 204)" stroke-width="1px"></line><line x1="50" y1="13.615384615383212" x2="45" y2="13.615384615383212" style="visibility: inherit;" fill="rgb(0, 0, 0)" stroke="rgb(204, 204, 204)" stroke-width="1px"></line><line x1="50" y1="0" x2="45" y2="0" style="visibility: inherit;" fill="rgb(0, 0, 0)" stroke="rgb(204, 204, 204)" stroke-width="1px"></line></g><g transform="translate(40, 0)"><text x="0" y="177" dx="0em" dy="0.3em" style="text-anchor: end; visibility: hidden; font-family: Roboto, sans-serif; font-size: 12px; font-weight: 200;" fill="rgb(33, 33, 33)" stroke="none" stroke-width="1px">2.29</text><text x="0" y="163.38461538461678" dx="0em" dy="0.3em" style="text-anchor: end; visibility: inherit; font-family: Roboto, sans-serif; font-size: 12px; font-weight: 200;" fill="rgb(33, 33, 33)" stroke="none" stroke-width="1px">2.29</text><text x="0" y="149.76923076923052" dx="0em" dy="0.3em" style="text-anchor: end; visibility: hidden; font-family: Roboto, sans-serif; font-size: 12px; font-weight: 200;" fill="rgb(33, 33, 33)" stroke="none" stroke-width="1px">2.29</text><text x="0" y="136.15384615384733" dx="0em" dy="0.3em" style="text-anchor: end; visibility: inherit; font-family: Roboto, sans-serif; font-size: 12px; font-weight: 200;" fill="rgb(33, 33, 33)" stroke="none" stroke-width="1px">2.29</text><text x="0" y="122.53846153846106" dx="0em" dy="0.3em" style="text-anchor: end; visibility: hidden; font-family: Roboto, sans-serif; font-size: 12px; font-weight: 200;" fill="rgb(33, 33, 33)" stroke="none" stroke-width="1px">2.29</text><text x="0" y="108.92307692307786" dx="0em" dy="0.3em" style="text-anchor: end; visibility: inherit; font-family: Roboto, sans-serif; font-size: 12px; font-weight: 200;" fill="rgb(33, 33, 33)" stroke="none" stroke-width="1px">2.3</text><text x="0" y="95.30769230769161" dx="0em" dy="0.3em" style="text-anchor: end; visibility: hidden; font-family: Roboto, sans-serif; font-size: 12px; font-weight: 200;" fill="rgb(33, 33, 33)" stroke="none" stroke-width="1px">2.3</text><text x="0" y="81.69230769230839" dx="0em" dy="0.3em" style="text-anchor: end; visibility: inherit; font-family: Roboto, sans-serif; font-size: 12px; font-weight: 200;" fill="rgb(33, 33, 33)" stroke="none" stroke-width="1px">2.3</text><text x="0" y="68.07692307692214" dx="0em" dy="0.3em" style="text-anchor: end; visibility: hidden; font-family: Roboto, sans-serif; font-size: 12px; font-weight: 200;" fill="rgb(33, 33, 33)" stroke="none" stroke-width="1px">2.3</text><text x="0" y="54.461538461538936" dx="0em" dy="0.3em" style="text-anchor: end; visibility: inherit; font-family: Roboto, sans-serif; font-size: 12px; font-weight: 200;" fill="rgb(33, 33, 33)" stroke="none" stroke-width="1px">2.3</text><text x="0" y="40.84615384615268" dx="0em" dy="0.3em" style="text-anchor: end; visibility: hidden; font-family: Roboto, sans-serif; font-size: 12px; font-weight: 200;" fill="rgb(33, 33, 33)" stroke="none" stroke-width="1px">2.31</text><text x="0" y="27.230769230769468" dx="0em" dy="0.3em" style="text-anchor: end; visibility: inherit; font-family: Roboto, sans-serif; font-size: 12px; font-weight: 200;" fill="rgb(33, 33, 33)" stroke="none" stroke-width="1px">2.31</text><text x="0" y="13.615384615383212" dx="0em" dy="0.3em" style="text-anchor: end; visibility: hidden; font-family: Roboto, sans-serif; font-size: 12px; font-weight: 200;" fill="rgb(33, 33, 33)" stroke="none" stroke-width="1px">2.31</text><text x="0" y="0" dx="0em" dy="0.3em" style="text-anchor: end; visibility: hidden; font-family: Roboto, sans-serif; font-size: 12px; font-weight: 200;" fill="rgb(33, 33, 33)" stroke="none" stroke-width="1px">2.31</text></g><line x1="50" y1="0" x2="50" y2="177" fill="rgb(0, 0, 0)" stroke="rgb(204, 204, 204)" stroke-width="1px"></line></g></g><g transform="translate(50, 0)" clip-path="url(#clip_0)"><clipPath id="clip_0"><rect width="280" height="177"></rect></clipPath><g><g><g><line x1="0" y1="0" x2="0" y2="177" fill="rgb(0, 0, 0)" stroke="rgb(66, 66, 66)" stroke-width="1px" opacity="0.25"></line><line x1="31.11111111111111" y1="0" x2="31.11111111111111" y2="177" fill="rgb(0, 0, 0)" stroke="rgb(66, 66, 66)" stroke-width="1px" opacity="0.25"></line><line x1="62.22222222222222" y1="0" x2="62.22222222222222" y2="177" fill="rgb(0, 0, 0)" stroke="rgb(66, 66, 66)" stroke-width="1px" opacity="0.25"></line><line x1="93.33333333333333" y1="0" x2="93.33333333333333" y2="177" fill="rgb(0, 0, 0)" stroke="rgb(66, 66, 66)" stroke-width="1px" opacity="0.25"></line><line x1="124.44444444444444" y1="0" x2="124.44444444444444" y2="177" fill="rgb(0, 0, 0)" stroke="rgb(66, 66, 66)" stroke-width="1px" opacity="0.25"></line><line x1="155.55555555555557" y1="0" x2="155.55555555555557" y2="177" fill="rgb(0, 0, 0)" stroke="rgb(66, 66, 66)" stroke-width="1px" opacity="0.25"></line><line x1="186.66666666666666" y1="0" x2="186.66666666666666" y2="177" fill="rgb(0, 0, 0)" stroke="rgb(66, 66, 66)" stroke-width="1px" opacity="0.25"></line><line x1="217.77777777777777" y1="0" x2="217.77777777777777" y2="177" fill="rgb(0, 0, 0)" stroke="rgb(66, 66, 66)" stroke-width="1px" opacity="0.25"></line><line x1="248.88888888888889" y1="0" x2="248.88888888888889" y2="177" fill="rgb(0, 0, 0)" stroke="rgb(66, 66, 66)" stroke-width="1px" opacity="0.25"></line><line x1="280" y1="0" x2="280" y2="177" fill="rgb(0, 0, 0)" stroke="rgb(66, 66, 66)" stroke-width="1px" opacity="0.25"></line></g><g><line x1="0" y1="177" x2="280" y2="177" fill="rgb(0, 0, 0)" stroke="rgb(66, 66, 66)" stroke-width="1px" opacity="0.25"></line><line x1="0" y1="163.38461538461678" x2="280" y2="163.38461538461678" fill="rgb(0, 0, 0)" stroke="rgb(66, 66, 66)" stroke-width="1px" opacity="0.25"></line><line x1="0" y1="149.76923076923052" x2="280" y2="149.76923076923052" fill="rgb(0, 0, 0)" stroke="rgb(66, 66, 66)" stroke-width="1px" opacity="0.25"></line><line x1="0" y1="136.15384615384733" x2="280" y2="136.15384615384733" fill="rgb(0, 0, 0)" stroke="rgb(66, 66, 66)" stroke-width="1px" opacity="0.25"></line><line x1="0" y1="122.53846153846106" x2="280" y2="122.53846153846106" fill="rgb(0, 0, 0)" stroke="rgb(66, 66, 66)" stroke-width="1px" opacity="0.25"></line><line x1="0" y1="108.92307692307786" x2="280" y2="108.92307692307786" fill="rgb(0, 0, 0)" stroke="rgb(66, 66, 66)" stroke-width="1px" opacity="0.25"></line><line x1="0" y1="95.30769230769161" x2="280" y2="95.30769230769161" fill="rgb(0, 0, 0)" stroke="rgb(66, 66, 66)" stroke-width="1px" opacity="0.25"></line><line x1="0" y1="81.69230769230839" x2="280" y2="81.69230769230839" fill="rgb(0, 0, 0)" stroke="rgb(66, 66, 66)" stroke-width="1px" opacity="0.25"></line><line x1="0" y1="68.07692307692214" x2="280" y2="68.07692307692214" fill="rgb(0, 0, 0)" stroke="rgb(66, 66, 66)" stroke-width="1px" opacity="0.25"></line><line x1="0" y1="54.461538461538936" x2="280" y2="54.461538461538936" fill="rgb(0, 0, 0)" stroke="rgb(66, 66, 66)" stroke-width="1px" opacity="0.25"></line><line x1="0" y1="40.84615384615268" x2="280" y2="40.84615384615268" fill="rgb(0, 0, 0)" stroke="rgb(66, 66, 66)" stroke-width="1px" opacity="0.25"></line><line x1="0" y1="27.230769230769468" x2="280" y2="27.230769230769468" fill="rgb(0, 0, 0)" stroke="rgb(66, 66, 66)" stroke-width="1px" opacity="0.25"></line><line x1="0" y1="13.615384615383212" x2="280" y2="13.615384615383212" fill="rgb(0, 0, 0)" stroke="rgb(66, 66, 66)" stroke-width="1px" opacity="0.25"></line><line x1="0" y1="0" x2="280" y2="0" fill="rgb(0, 0, 0)" stroke="rgb(66, 66, 66)" stroke-width="1px" opacity="0.25"></line></g></g></g><g><g><line x1="0" y1="15739.384615384735" x2="280" y2="15739.384615384735" fill="rgb(0, 0, 0)" stroke="rgb(153, 153, 153)" stroke-width="1.5px"></line></g></g><g><g><line x1="31.11111111111111" y1="0" x2="31.11111111111111" y2="177" fill="rgb(0, 0, 0)" stroke="rgb(153, 153, 153)" stroke-width="1.5px"></line></g></g><g><g><g><g><g><path stroke="rgb(255, 112, 67)" stroke-width="2px" d="M31.39111111111111,56.59981045356093L31.842222222222222,3.4733480765258213L32.07555555555555,-6.409327182139554L32.09111111111111,19.520958088640086L32.215555555555554,31.646009202050426L32.495555555555555,29.36011183329534L32.71333333333333,2.658757744397018L32.775555555555556,-5.083031640939082L33.102222222222224,1.0350298100332278L33.13333333333333,-23.510784090903954L33.78666666666667,-6.060335556453424L34.08222222222222,14.58047085580339L34.26888888888889,12.468986730972356L34.67333333333333,8.136284425627005L34.906666666666666,3.9158351649749226L34.922222222222224,12.327963634963563L35.14,21.002954433948663L35.32666666666667,10.286277107485732L35.49777777777778,12.352384660735833L35.544444444444444,2.13364342152553L36.02666666666667,9.930493224648156L36.07333333333333,20.480251546152285L36.49333333333333,2.089233330201809L36.68,23.165696532493683L36.80444444444444,26.52688624405169L36.99111111111112,3.550100202152023L37.11555555555556,5.276789957642998L37.364444444444445,12.909652122568966L37.56666666666666,-18.737137775224443L37.89333333333333,14.416572507591226L37.90888888888889,23.068641461752623L38.04888888888889,21.929869291633562L38.282222222222224,38.44476532395361L38.34444444444445,39.69619231673955L38.5,24.235722141575877L38.577777777777776,35.691369751743274L38.593333333333334,9.341602428472752L39.044444444444444,27.89559876702943L39.07555555555555,31.07165679404693L39.09111111111111,34.29588206728166L39.40222222222222,10.37994147471388L39.48,32.30687166529582L39.511111111111106,50.220602832872345L39.76,25.128630983542134L39.85333333333333,5.333404087588186L40.28888888888889,2.0040581843174183L40.35111111111111,16.96309543434694L40.382222222222225,24.219351101961482L40.89555555555555,16.394808193221L41.019999999999996,9.714730592048133L41.11333333333334,6.283851395621295L41.128888888888895,15.451845883295059L41.346666666666664,16.21714341395472L41.486666666666665,-3.613480618925223L41.611111111111114,21.972860496445456L42.32666666666667,22.58449886833721L42.388888888888886,30.48062691218034L42.995555555555555,0.4259538497535117L43.16666666666667,17.94445226191814L43.275555555555556,13.192753146607329L43.36888888888889,22.559633146649823L43.617777777777775,13.018892428601896L44.05333333333333,22.99547784865907L44.44222222222222,28.410104825605043L44.58222222222222,27.48626610722158L44.89333333333333,-4.3415488636881046L46.72888888888889,-0.7554558371900877L46.900000000000006,16.86554413520313L47.00888888888889,16.34666239632137L47.07111111111111,49.17798439739497L47.102222222222224,37.218271204608094L47.242222222222225,5.111280234689593L47.53777777777778,48.151945547711556L47.77111111111111,45.99833529150663L47.864444444444445,43.27136612875107L48.19111111111111,37.769656524410664L48.36222222222222,48.72576835382697L48.39333333333334,12.446219426932096L48.61111111111111,5.754958611866641L48.72,8.988878863033642L49.01555555555555,25.994013376453616L49.03111111111111,23.390341072652262L49.217777777777776,14.910569336865773L49.373333333333335,-6.906707250653723L49.404444444444444,19.67555461266714L49.52888888888889,21.139244428600648L49.668888888888894,47.30310211581533L50.05777777777778,25.273239144010436L50.166666666666664,41.244148728855215L50.49333333333334,61.12546377039521L50.586666666666666,32.69278968872214L50.61777777777778,52.238840469727826L50.66444444444444,23.513466101293577L50.72666666666667,25.309182929912648L50.82,32.7542817658161L50.882222222222225,8.999220342168828L50.96,23.015048926587493L51.30222222222223,46.24911255156588L51.72222222222223,18.562734197057313L52.03333333333333,14.360979364292694L52.32888888888888,5.317091246646282L52.5,33.0704156519176L52.51555555555556,32.348958475293L53.15333333333333,18.035501213151367L53.495555555555555,45.783001519471476L53.775555555555556,43.99785381390424L53.791111111111114,44.65631958697256L54.351111111111116,18.033603928227777L54.47555555555556,10.31561030803418L54.6,31.514514459169796L54.64666666666666,28.636704239890104L55.191111111111105,38.26184191508385L55.23777777777778,48.54649090062879L55.455555555555556,53.07407376894018L55.50222222222222,34.36791087043698L55.580000000000005,17.123883582572617L55.766666666666666,45.8761738220757L55.937777777777775,51.33684323860641L56.42,31.93881272088335L56.544444444444444,31.496002505621668L57.08888888888889,24.16277540075022L57.32222222222222,29.526641152690626L57.586666666666666,20.521218045451253L57.61777777777778,46.74335973586807L57.66444444444445,27.46355593692363L57.72666666666667,20.135808703707752L58.72222222222222,19.533272936082664L58.75333333333334,33.33475040856381L58.94,22.084137469541254L58.986666666666665,4.49938390759999L59.842222222222226,26.77111137436425L59.904444444444444,18.654302807424987L60.044444444444444,34.085706396884625L60.15333333333333,15.310705143297278L60.65111111111111,22.72541125806959L60.69777777777778,50.29988342546891L60.791111111111114,46.61254583427861L60.80666666666667,28.59069166283452L61.04,47.01574816983962L61.22666666666667,43.07936294210091L61.288888888888884,67.12050410019197L61.36666666666667,67.01797063661982L61.397777777777776,24.19932088928796L61.6,37.715259418949685L61.61555555555556,34.60154669187862L61.89555555555556,20.467376408728953L63.31111111111112,33.02653990116285L63.45111111111112,41.57484012064663L63.60666666666666,40.567927384296674L63.77777777777778,46.741763187872564L64.0111111111111,33.007689637152865L64.07333333333334,24.476389512130325L64.38444444444444,35.03202077064117L65.24000000000001,40.65903496745442L65.47333333333333,22.737832667294878L65.56666666666666,20.169331527867364L65.94,2.9265517611947374L66.01777777777778,26.65063842835435L67.18444444444444,18.954029050760226L67.54222222222222,51.99542240247614L67.80666666666667,29.017033263029024L68.35111111111111,37.01238699930223L69.00444444444445,35.878863726352556L69.08222222222223,36.8588363209993L69.28444444444445,26.48063995670801L69.40888888888888,24.912611908643495L69.45555555555556,7.104744322025488L69.76666666666667,44.68394037255655L69.96888888888888,28.859891377135515L70.04666666666667,10.795597853529443L70.26444444444445,-15.225920871151272L70.29555555555555,34.45379405487769L70.46666666666667,26.699648851844547L71.02666666666666,28.264857846544317L71.19777777777777,27.960703712911116L71.21333333333334,14.005400810275729L71.54,-1.7430579370141002L71.97555555555554,-0.8161052711963868L72.10000000000001,6.765407215510125L72.22444444444444,-14.079101623828311L72.64444444444443,-0.7054664979784313L72.70666666666666,22.595795847015943L72.81555555555555,29.1168760713002L72.86222222222223,31.015606136178587L73.00222222222223,44.44480841085104L73.23555555555555,31.572384343433974L73.31333333333333,25.254517466129833L73.37555555555555,43.22930452428966L73.56222222222223,43.361575957276216L73.64,36.43507489377762L73.71777777777778,41.135998983836124L73.73333333333332,60.53794205810184L73.93555555555555,58.62898410106055L73.95111111111112,49.04164393024865L73.96666666666667,66.5979717871792L74.12222222222223,43.37494386120998L74.16888888888889,11.96120121639302L74.32444444444444,51.504244240107774L74.43333333333332,25.709889278768426L74.85333333333332,17.84682149967244L75.19555555555556,21.34825960794357L75.35111111111112,33.58623296296987L75.61555555555556,28.949385698755695L75.63111111111112,44.45874339294354L76.5488888888889,57.84932657634839L77.0311111111111,19.612902525398912L77.07777777777778,35.58796971042889L77.18666666666667,50.57591981383411L77.23333333333333,52.5991829519088L77.35777777777778,35.47817622927655L78.07333333333332,29.771621771502303L78.30666666666667,18.015443930351342L78.50888888888889,18.701882688870118L79.06888888888889,6.558245766745782L79.08444444444444,19.72677112595947L79.38,59.69865513796855L79.39555555555556,63.8055438612151L79.41111111111111,87.57228177045494L79.6288888888889,67.23019964159016L79.64444444444445,42.38634847429168L79.66,40.0608580042524L79.7688888888889,8.00947173872627L80.03333333333333,29.075829105059416L80.4688888888889,39.93350132585469L80.76444444444445,30.723702450740102L80.87333333333333,52.83238877250157L80.9511111111111,51.88915538334732L81.15333333333334,36.40256252017032L81.19999999999999,31.061833550217134L81.33999999999999,2.5146199430804215L81.52666666666667,15.581428949442316L81.89999999999999,27.30846712026725L81.94666666666667,35.542523304057354L82.53777777777779,17.840337221101386L83.06666666666668,18.89741313987385L83.31555555555556,43.53182286983906L83.59555555555556,31.301815138669852L83.76666666666668,39.26361489403079L83.89111111111112,29.964692919712018L84.06222222222222,54.02018957690086L84.28,71.78080224148232L84.94888888888889,69.94529441181123L85.2911111111111,45.85403073080716L85.30666666666666,40.26648496445796L85.41555555555556,41.59881656038887L85.44666666666666,53.08652408704625L85.55555555555556,44.85528611642197L85.96,49.380400104490754L86.58222222222223,56.68943505475962L86.62888888888888,75.41509532968368L86.73777777777778,63.788431241201806L86.92444444444445,47.53165947855107L87.11111111111111,27.063318566628617L87.31333333333333,29.147224145206454L87.32888888888888,51.607331972942916L87.36,68.63339796071615L87.57777777777777,73.34809370924387L87.95111111111112,70.69674274241177L87.99777777777777,39.00882904341458L88.02888888888889,73.88429537550158L88.06,63.07835478267307L88.10666666666665,64.05187068116338L88.16888888888889,64.5398938649039L88.21555555555555,44.55394217009945L88.51111111111112,69.81920621040594L88.85333333333334,82.43921777108777L88.93111111111111,70.07460443537683L89.41333333333334,35.98408203707069L89.50666666666666,34.05171205722994L89.61555555555555,42.21980809230478L89.64666666666666,58.1985135609197L89.94222222222223,79.9731224011744L90.06666666666666,73.10581205811724L90.96888888888888,43.83352387356992L91,42.207501309332955L91.15555555555555,39.461431750142694L91.29555555555555,33.49769480917358L91.80888888888889,45.5639993001004L91.94888888888889,40.36189744030817L92.01111111111112,41.15225991240738L92.10444444444444,28.795702794976975L92.29111111111112,19.778814393614205L92.33777777777777,41.16314062239191L92.80444444444444,40.38128627350496L92.94444444444444,16.31063801377502L93.03777777777778,26.477392975312615L93.52000000000001,72.76751177630457L93.55111111111111,61.297448447384824L93.69111111111111,75.59011639556039L93.86222222222221,82.11219593479453L93.95555555555555,82.20146640801812L94.06444444444445,64.75108121387724L94.64,71.5147170090609L95.0288888888889,68.5514529917375L95.12222222222222,67.57594549499161L95.21555555555555,67.45354350619506L95.26222222222222,48.206329794466185L95.60444444444444,50.049063496983806L96.14888888888889,30.329284659327673L96.32,42.643658764863986L96.86444444444444,66.36501594232361L97.20666666666666,54.27276580975921L97.25333333333333,61.428421337238774L97.33111111111111,50.47979191930566L98.28,36.84502098921827L98.35777777777778,17.73823090220056L98.43555555555555,24.37604712051665L98.52888888888889,12.76612876646015L99.47777777777779,30.304146066215342L99.89777777777779,47.110225007800345L100.1,52.01949229040079L100.22444444444444,51.54554702711795L100.39555555555556,45.21033641023895L100.58222222222223,45.98499809788021L100.94,33.0061453783153L101.03333333333333,68.74335579435193L101.5,52.76718818622307L101.65555555555557,33.65660303061111L101.71777777777777,57.85516980974768L102.10666666666665,68.19390418710856L102.16888888888889,63.69844853033186L102.26222222222222,52.49623422298962L102.80666666666666,64.09428867292677L102.85333333333334,73.17805810694472L103.42888888888889,72.06458292512784L103.58444444444444,68.01529687891268L103.88,79.35788644151009L104.00444444444445,53.53952560715766L104.06666666666666,51.67264537105753L104.09777777777778,42.00602545975043L104.19111111111111,49.83473440239117L104.33111111111111,44.897354947135376L104.47111111111111,52.118782477464414L104.68888888888888,56.86455063084062L104.79777777777777,54.910939915717954L105.14,61.59642996552564L105.24888888888889,61.04492058025787L105.34222222222223,63.34600200729479L105.40444444444445,60.946172165963226L105.42,61.15921926613918L105.84,66.01930052753245L105.88666666666666,81.60771124514636L105.99555555555555,64.51623452460844L106.24444444444444,76.74620487773755L106.27555555555556,74.85730004690973L106.32222222222222,58.48128518185957L106.33777777777777,89.99488295838643L106.46222222222222,84.11406040669796L107.05333333333334,70.193957390352L107.25555555555555,87.92155027414934L107.4888888888889,86.91737389946599L107.78444444444443,77.55412970185256L107.84666666666666,56.47017536374308L107.95555555555555,58.21262986823365L108.09555555555555,68.06753335353778L108.57777777777778,79.69047203497026L108.74888888888889,69.53359624095386L109.24666666666667,68.12822521306913L109.62,73.45011091026623L109.91555555555556,88.294362147637L110.11777777777777,75.84572041217403L110.13333333333333,55.84960140741213L110.25777777777778,77.88792446092042L110.28888888888889,58.43181899000087L110.94222222222221,55.34165370854725L111.00444444444445,44.214572015684695L111.06666666666666,46.70418222237874L111.23777777777778,62.77061275397927L111.25333333333333,74.14002546934766L111.28444444444445,77.88236510225833L111.30000000000001,76.05968035051177L111.79777777777778,76.42619256159702L111.9688888888889,59.758922934420625L112,66.8534923937921L112.07777777777778,70.57721449004353L112.1088888888889,68.35122300930531L112.28,55.605373422327794L112.3888888888889,70.36935682481455L112.5911111111111,49.26438556635265L112.82444444444444,30.739485902423215L112.96444444444444,67.13730113125125L113.0111111111111,42.27542463697349L113.47777777777779,36.60985660408132L113.83555555555556,39.245128439987546L113.85111111111111,39.357079229565876L113.89777777777778,52.188153394531426L113.92888888888889,64.95924853132759L113.99111111111111,40.294040893135644L114.08444444444444,41.73610729391953L114.52,54.56604607261481L114.64444444444445,64.92780877243676L115.00222222222222,67.4754063891367L115.14222222222222,43.73260426837994L115.15777777777778,68.49149094918207L115.8111111111111,66.0318020296483L115.9511111111111,62.51090746595645L116.02888888888889,82.86699630992541L116.72888888888889,75.71859977992416L116.80666666666667,78.86976208071226L116.99333333333334,72.48599595433973L117.36666666666667,60.601362464009085L117.70888888888888,56.694669131284144L118.28444444444445,56.23602323944604L119.04666666666668,74.92750317307336L119.26444444444445,84.55761550200657L120.13555555555556,83.98294649964312L120.24444444444445,84.18479855234659L120.66444444444446,86.85154896877256L120.67999999999999,53.23010689145247L121.03777777777778,82.92865700338352L121.16222222222223,64.03435930682244L121.83111111111111,76.29087632158699L122.36,55.01429879499066L122.56222222222223,67.30936175943425L122.60888888888888,69.30945903094637L123.63555555555556,86.01123298058883L123.76,83.68455145498905L123.88444444444444,65.95710828975054L124.14888888888889,46.13206004361598L124.28888888888889,57.37761193348104L124.39777777777778,48.551811946276224L124.49111111111111,69.58594101790959L124.58444444444444,85.05070442585486L125.14444444444443,90.87954292763504L125.2688888888889,80.88580235100565L125.65777777777778,76.79115891609572L125.67333333333333,81.79989312703795L126.17111111111112,86.5541650139373L126.20222222222223,85.44900907681303L126.51333333333332,60.47347068093193L126.59111111111112,69.00463388467013L126.62222222222223,85.00641001525142L126.65333333333332,90.29462664880035L127.05777777777777,88.97616874816117L127.63333333333333,78.23950699629479L127.72666666666666,78.28398816384112L127.94444444444444,55.64533394655962L128.22444444444443,70.87830954105009L128.78444444444443,69.13371822514505L128.81555555555556,73.44312851457336L128.92444444444445,69.9681927473599L129.06444444444443,107.34550789249028L129.11111111111111,95.38142177979607L129.54666666666668,66.93152857916468L129.60888888888888,87.11648001957842L129.64000000000001,89.90902211067896L129.8422222222222,88.17478021446098L130.01333333333332,72.23630537162619L130.0288888888889,73.41087067696559L130.10666666666665,62.94167565724012L130.18444444444444,55.70059355610629L130.76000000000002,50.22498192360044L131.04000000000002,49.75987932022072L131.33555555555554,55.82706183660962L131.58444444444444,93.62607067552842L131.8022222222222,97.30894383213108L132.0822222222222,98.54871492270037L132.1288888888889,92.35293533108839L132.6577777777778,78.56522799552775L132.70444444444445,79.43119506711123L132.84444444444443,76.70851004892168L132.9377777777778,67.23022720174478L133.01555555555555,64.9348461446544L133.2177777777778,73.50255528975465L133.29555555555555,48.86744756265573L133.54444444444445,62.459774738061455L133.6222222222222,82.15786909651825L133.7,92.64709830774738L133.76222222222222,89.8299613431863L134.01111111111112,81.7213703195165L134.54,82.73631111382822L134.91333333333333,67.72345205948683L135.56666666666666,80.29945881480289L135.64444444444445,98.15746603337095L135.79999999999998,71.2817299921007L135.86222222222221,70.48790513580884L136.11111111111111,68.43462537635997L136.28222222222223,101.88853333997052L136.65555555555557,86.81015209321303L136.92,70.89359816933391L137.21555555555557,67.4951402541873L137.54222222222222,77.34545351615027L137.57333333333332,93.1330591110786L137.66666666666666,75.73844919979297L137.80666666666667,76.53599604411122L138.05555555555557,80.26198326888503L138.66222222222223,77.87634129682817L138.69333333333333,97.29115060094223L138.74,87.75169636313856L138.91111111111113,91.46656053779614L139.02,95.94376991149596L139.61111111111111,102.43784198276737L139.86,102.7206591855856L139.93777777777777,116.3060822578025L139.9688888888889,116.78016615460817L140.28,121.65663535372865L140.45111111111112,98.68984103326306L140.68444444444447,99.59020138227801L140.84,92.80837762070149L141.82,63.78734488132472L141.86666666666667,80.30814101740017L141.96,72.05964830461613L142.5511111111111,80.74183049489082L142.75333333333333,67.22988208576072L142.76888888888888,80.25327120091978L142.8,81.14649015585259L142.89333333333332,90.06660526576141L142.94,87.02734904132076L143.22,95.82068834136956L143.5,105.62378756935807L143.87333333333333,117.77982641805086L143.93555555555557,107.82854586937626L144.1222222222222,118.7683268507079L144.26222222222222,112.317688145805L144.7911111111111,95.7171613024449L145.19555555555556,77.66806207898895L145.2577777777778,89.42279144637541L145.28888888888886,110.01926054709895L145.4911111111111,78.75653360440147L145.56888888888886,100.96284796274661L145.70888888888888,83.84673889380167L145.98888888888888,76.31163918729742L146.59555555555556,103.33871629459684L146.76666666666668,104.06168698993969L146.78222222222223,92.58465673577736L147.21777777777777,66.71294338275466L147.28,76.38271897389586L147.3111111111111,85.19312602263363L147.49777777777777,120.29925125092753L147.8711111111111,114.19905403589165L148.05777777777777,107.85695777459973L148.18222222222224,103.04019635806151L148.27555555555557,85.46580717406019L148.44666666666666,88.04280425894126L148.57111111111112,95.47169484690549L148.60222222222222,97.9923697535564L148.69555555555553,79.37922787536387L149.22444444444443,105.8382401201821L149.36444444444447,79.64859924929867L149.39555555555555,90.09432497245882L149.44222222222223,116.4691287288742L149.92444444444442,111.10177576966424L149.94,91.22985830378234L150.01777777777778,67.58741863146655L150.26666666666665,56.78445422946243L150.28222222222223,62.774424820628035L151.21555555555554,83.94117325926253L151.3088888888889,90.96238887447332L151.35555555555555,54.162475309830924L151.76000000000002,67.1904038753315L151.83777777777777,77.7813299094754L152.3511111111111,88.97201567217128L152.36666666666667,88.21960839363965L152.7711111111111,88.56152569033901L153.03555555555556,79.6449646308392L153.0977777777778,75.50584591905074L153.22222222222223,86.51471683393797L153.29999999999998,69.76975656708481L153.31555555555556,90.04776400377189L153.4088888888889,96.01634931318985L153.72,115.21088401207068L153.92222222222222,109.57683963247197L154.01555555555555,104.8576963510338L154.40444444444444,124.49873135713909L154.45111111111112,109.98101104633892L155.33777777777777,94.96893179846862L156.0222222222222,86.6102671483969L156.05333333333334,71.40666852995767L156.2711111111111,80.45197207463009L156.39555555555557,96.02600317346133L156.75333333333333,110.37340463258177L156.76888888888888,99.04392677166943L157.04888888888888,88.8942545638853L157.45333333333335,94.53088198544073L157.79555555555555,111.42857293704009L158.0911111111111,93.25417428449755L158.10666666666665,83.3324725389806L158.54222222222222,95.9656689317592L158.66666666666666,92.80209346721084L158.68222222222224,88.96079642104091L158.91555555555556,104.32681832902855L159.11777777777777,108.02471220150042L159.13333333333333,105.5507986836743L159.52222222222224,115.43645287940518L159.86444444444444,89.97552417702998L159.95777777777778,111.62664132248399L160.00444444444443,127.43497905736068L160.08222222222224,120.89108962135289L160.16,119.35328096890228L160.23777777777778,111.63832922516822L160.98444444444445,113.10824481551514L161.0311111111111,119.00940777281699L161.20222222222222,116.39473571523253L161.42000000000002,120.10418970395607L161.7311111111111,111.91617871941187L161.9488888888889,104.1805108240366L162.02666666666667,117.3923444512454L162.66444444444446,105.79378829423645L162.7266666666667,99.78448120736728L163.19333333333333,103.26981028767024L163.39555555555557,118.84166369945639L163.66,103.03352299994765L163.79999999999998,118.66028816684619L164.07999999999998,104.58283654240395L164.17333333333335,132.2927521632454L164.31333333333333,127.26226534917912L164.98222222222222,110.83668052791481L165.1688888888889,99.242685988916L165.2,94.24632106835436L165.30888888888887,105.44201495922047L165.80666666666664,92.73180901215434L165.86888888888888,74.64590658484947L166.35111111111112,103.44686674824418L166.44444444444446,105.17508715334529L166.72444444444443,109.97756575495465L166.81777777777776,90.8890376101797L167.25333333333336,104.94619883822125L167.28444444444443,104.7385666821781L167.62666666666667,108.55807258306479L167.65777777777777,89.92827070907585L167.81333333333336,102.20325107713369L167.98444444444442,102.88764067219535L168.35777777777778,104.62984952947204L168.51333333333332,113.05564570659415L169.01111111111112,128.32289559797243L169.0888888888889,111.29387060909251L169.1977777777778,95.88974012293095L169.3688888888889,84.85408268600547L169.4622222222222,101.10383772712049L169.82000000000002,111.65224627265414L169.88222222222223,108.17593852873966L170.17777777777778,96.92364542784682L170.5822222222222,111.17752592670382L170.64444444444445,110.35624072175732L170.78444444444443,122.48389298910342L170.8777777777778,105.19873437767976L170.95555555555555,106.36903879977855L171.20444444444445,106.26357668234222L171.62444444444444,109.16404408891117L171.87333333333333,114.77959112150195L172.01333333333332,137.60900322918565L172.1222222222222,109.7655326055668L172.2,107.04520879274703L172.9311111111111,111.92221584829934L172.99333333333334,111.04651672375812L173.47555555555556,123.12464060394821L173.66222222222223,136.8495531330258L174.06666666666666,125.19202816324443L174.11333333333334,138.50809116083042L174.22222222222223,117.1667197548101L174.26888888888888,110.53934063561015L174.34666666666666,124.13762694441888L174.4088888888889,135.44082993909228L174.56444444444446,119.50871640828063L174.62666666666667,122.41470520084901L174.7511111111111,79.13145327798092L175.0311111111111,92.48029842881277L175.63777777777779,112.12579299935997L175.82444444444442,109.604013579202L175.85555555555555,123.97635770314072L175.96444444444444,99.10847547886412L176.12,104.35808998350471L176.13555555555556,120.49964285541353L176.1977777777778,125.61268191357364L176.29111111111112,109.37428947534057L176.33777777777777,106.9915986791019L176.4777777777778,105.55289495152591L176.58666666666667,97.54747004422448L176.69555555555556,105.54382655825289L176.7888888888889,93.63300234880924L176.80444444444444,109.43426671784049L176.89777777777778,116.47910638455909L176.97555555555556,106.70077465931222L177.13111111111112,107.34232773527567L177.28666666666666,113.53593945497994L177.61333333333332,107.35780881365098L177.97111111111113,121.17889949576765L178.0022222222222,125.34568371390188L178.20444444444445,114.85526853992135L178.42222222222222,123.10771455788213L178.45333333333332,119.16145581626033L178.70222222222222,102.35672567903949L178.7177777777778,118.90603883360748L178.73333333333332,115.28809985327436L179.20000000000002,100.13723847430536L179.48000000000002,87.18314123662564L179.61999999999998,108.14569700252792L179.76,126.04368777384693L179.91555555555556,118.20275711785438L179.99333333333334,104.06810202461807L180.33555555555557,119.68810412764957L180.45999999999998,127.02800882011434L180.55333333333334,120.59237198002042L180.75555555555556,112.09027860511819L181.26888888888888,106.07685143642375L181.54888888888888,121.0212525044975L181.56444444444446,94.27947672007666L181.61111111111111,93.31737211180408L181.81333333333333,86.59382876470715L181.87555555555556,96.03711255940006L182.06222222222223,97.40516613042219L182.07777777777775,109.83686569998358L182.18666666666664,134.56221395992597L182.56,140.5360535628177L182.5911111111111,134.07543779705802L182.82444444444445,118.88100460164083L182.84,119.9287229239489L183.12,134.38145367812177L183.36888888888888,129.63411321944682L183.52444444444447,128.77430696083346L183.75777777777776,112.60673499671908L183.92888888888888,105.44923407453243L184.13111111111112,105.11375105474343L184.33333333333334,123.71227605398805L184.59777777777776,148.10663727170456L184.70666666666665,133.47262338592608L185.01777777777778,118.25962310264796L185.17333333333335,109.60900854880754L185.36,102.51184504839048L185.37555555555554,116.87547215542399L185.85777777777778,127.2628059760318L185.87333333333333,114.9219734709216L185.88888888888889,123.39314726191994L186.04444444444442,116.37156769017963L186.24666666666667,130.63122176433757L186.34,119.73601957053714L186.46444444444444,131.64163539344534L186.55777777777777,128.36547842023305L187.64666666666668,117.9279541617043L188.06666666666666,124.82862105823611L188.5488888888889,124.12250333984947L188.62666666666667,122.76783383327408L188.81333333333333,128.2519345658078L189.60666666666668,124.39370001326014L189.63777777777779,125.64174521547433L189.9022222222222,133.09324485502137L190.01111111111112,138.0588595224066L190.16666666666669,125.68064226913485L190.8511111111111,128.9076111833427L190.94444444444446,148.7846732339615L191.0222222222222,140.39254169930553L191.2711111111111,146.6155971584418L191.89333333333335,169.63746780739496L191.98666666666665,166.09921226942794L192.03333333333333,134.34205833699897L192.04888888888888,116.88292932287973L192.8111111111111,112.92769020387148L192.95111111111112,100.56675963248149L193.12222222222223,103.98848248095992L193.5888888888889,97.59630463280774L193.68222222222224,113.79435378352453L193.6977777777778,113.11832762796722L193.79111111111112,100.39677841365663L194.46,123.42318702922616L194.72444444444443,121.30233108420603L195.08222222222224,109.88816240221125L195.23777777777778,142.08902616329644L195.39333333333332,126.07963032693033L195.58,144.8006399233587L195.70444444444445,127.09956654068498L195.9377777777778,128.25469489924507L196.2177777777778,128.47123553038668L196.51333333333332,139.28817001391133L196.6688888888889,144.40066012250134L196.70000000000002,125.7325116811291L197.66444444444446,133.78914607962906L197.82,131.3328991221526L197.92888888888888,151.26433429962316L198.0066666666667,144.41558980941628L198.25555555555556,124.60791019292814L198.36444444444444,135.15816793441797L198.38,137.35985545965295L198.56666666666666,123.26420179719149L198.66,117.37517190909593L199.2511111111111,129.95959085509045L199.76444444444445,127.66204003081891L200.27777777777777,112.71650569925794L200.62,118.31990181151308L200.68222222222224,134.17056874663157L201.8488888888889,131.93246426903252L202.0511111111111,104.7436704559511L202.56444444444443,103.70358004480197L202.58,126.83492946350735L202.65777777777777,115.66181888415834L202.78222222222223,128.08303264519225L203.06222222222223,115.57771596937368L203.23333333333332,123.33018257304987L203.68444444444444,128.5081897933216L204.05777777777777,119.13026025050699L204.15111111111113,102.0601369876118L204.16666666666666,99.55820849308404L204.26000000000002,101.15388866021073L204.29111111111112,123.0328021750089L204.69555555555556,143.65228907313696L204.86666666666667,145.15583534268526L205.45777777777778,134.7334070471438L205.51999999999998,134.26201142658354L205.61333333333332,144.85446147701816L205.72222222222223,137.3176623727543L205.73777777777778,124.87754784315179L205.92444444444445,118.75609117185392L206.20444444444445,120.49391774702822L206.64,127.72509436277076L206.8111111111111,132.02484640436683L207.15333333333334,144.0867328994322L207.35555555555555,140.40832498159446L207.3711111111111,127.94471102875843L207.49555555555557,138.9755014735877L207.6822222222222,129.50470507538975L207.88444444444445,134.69037310579887L208.3511111111111,130.0960377637648L208.5066666666667,133.5227233721348L208.55333333333334,160.9922772645771L208.58444444444444,162.1326543496086L209.11333333333334,170.15450214275302L209.1911111111111,174.14503370893542L209.22222222222223,160.77599651320483L209.34666666666666,141.77216347141754L209.39333333333335,157.67591783500032L209.42444444444445,171.34988373346164L209.48666666666665,153.01235530181694L209.81333333333333,147.26991696644538L209.84444444444446,148.6975903388879L210.04666666666665,134.11610352443208L210.40444444444447,132.12766561361568L210.42,145.49428263209364L210.8711111111111,152.48716761228096L211.0888888888889,150.6826952476828L211.2133333333333,147.69646322146625L211.72666666666666,128.03720653442392L212.22444444444443,142.7478527257269L212.95555555555555,140.35680768481944L213.04888888888888,149.9461422409929L213.31333333333333,135.27814630087568L213.6711111111111,127.4038029874333L213.88888888888889,131.77169299100322L213.98222222222222,125.04608123837436L214.07555555555555,129.06184184065327L214.1222222222222,147.89362495020785L214.26222222222222,138.70877185756763L214.4177777777778,142.374756170619L214.4488888888889,127.81766546290748L214.9311111111111,153.99392117481057L214.9622222222222,144.72955761986083L215.02444444444444,156.11265193970627L215.2266666666667,166.81193203108586L215.3511111111111,143.00974439790514L215.39777777777778,124.2409393300183L215.45999999999998,112.03891893177983L215.70888888888888,114.49514258244648L215.84888888888887,121.70873804111132L215.94222222222223,111.156494878735L216.01999999999998,113.40410235749059L216.50222222222223,157.76494474133497L216.51777777777775,160.86106853758884L216.59555555555556,140.8753277751029L216.85999999999999,129.65646955324462L217.07777777777775,140.46351140113566L217.09333333333333,152.05459645061805L217.3111111111111,158.89108723250777L217.34222222222223,161.67049585123405L217.42,151.2650203184039L217.7,160.7688603308805L217.96444444444447,167.13727650455047L218.05777777777777,170.16691224132524L218.19777777777776,172.5618610476579L218.5088888888889,169.0536291912726L218.66444444444446,167.4985896922175L218.75777777777776,152.09483102973346L218.83555555555554,142.59093528353577L218.96,139.73742842569908L219.87777777777777,160.15959534582365L220.20444444444442,130.5569000262396L220.39111111111112,139.96694597207198L220.5,142.9699495351487L220.56222222222223,136.45833423830106L221.04444444444442,131.48467666931455L221.43333333333334,119.87673173471532L221.48000000000002,127.52488157364789L221.60444444444443,134.33414536428842L221.85333333333332,144.3582299389545L221.9933333333333,154.10576543576488L222.47555555555556,129.9078237211568L222.50666666666666,129.81239970989503L222.5688888888889,168.73828859608008L222.66222222222223,143.70525275617743L222.69333333333333,154.57356246725823L222.7088888888889,165.34701875054478L223.14444444444445,142.7865208816738L223.28444444444443,157.41650892229615L223.36222222222221,150.71810621303499L223.4711111111111,148.079332097525L223.53333333333333,163.19107187133505L223.90666666666667,145.48508112634036L223.9688888888889,147.9999973100246L224,155.96231440023013L224.32666666666668,142.69689450772987L224.3422222222222,138.7265247837682L224.35777777777778,139.85794724119563L224.57555555555555,130.2704930315606L224.6688888888889,139.80678795361507L224.76222222222222,129.42241420635426L224.80888888888887,108.53472537341354L225.1822222222222,134.24772766601785L225.21333333333334,155.17257749293015L225.24444444444444,135.80669121480784L225.89777777777778,143.3200303421466L226.39555555555557,134.4538519243965L227.12666666666667,154.76842632563094L227.76444444444445,162.78650375821232L227.85777777777778,156.96617407617072L227.93555555555554,143.07262829964992L227.99777777777777,164.8355516490265L228.34,145.94718943128217L228.4488888888889,155.60449612102087L228.79111111111112,155.26753189173994L229.08666666666667,171.1143716271571L229.9422222222222,182.9649049962776L230.08222222222224,178.25400638042828L230.95333333333332,167.49709673339078L231.12444444444444,166.44586073755247L231.79333333333332,135.58946805925927L231.85555555555555,156.4372780774727L231.9177777777778,145.07564633585406L232.11999999999998,157.72459426818975L232.4622222222222,153.7946373310842L232.89777777777778,142.48440131743735L232.95999999999998,143.93182159185582L232.9911111111111,160.55324217785437L233.0377777777778,157.9212527102771L233.2866666666667,175.45480372788975L233.48888888888888,177.38559324818038L233.61333333333334,165.4724272391433L233.67555555555558,168.02080950698632L233.70666666666668,148.90620480514508L233.76888888888888,143.167564770341L233.89333333333335,151.79685222139184L233.90888888888887,160.47248741268854L233.9711111111111,165.536335922955L234.06444444444446,156.79108185537996L234.07999999999998,158.239460379613L234.70222222222222,151.8617584503377L234.76444444444445,148.59932001442468L236.25777777777776,156.47772373426017L236.41333333333336,159.15643859353654L236.6,150.53241836007322L236.86444444444447,152.17883898601525L236.97333333333336,166.3986914190945L237.11333333333334,180.26988792251177L237.22222222222223,173.49276492678183L237.39333333333335,156.0484138424022L237.92222222222225,176.59302515081538L238.06222222222223,165.31436089268018L238.76222222222225,176.74838512433337L239.3688888888889,169.95025409588783L239.58666666666667,184.16543846006L239.83555555555554,168.44637822590016L240.4111111111111,170.23237484109714L240.81555555555556,188.98840682064534L240.98666666666668,178.69531005190623L241.45333333333332,174.56388397050245L241.59333333333333,184.12893357983955L243.02444444444444,187.86415866983467L243.32,171.06943273711278L243.3511111111111,180.58122902750415L243.38222222222223,189.3104823705391L243.39777777777778,164.9398030519433L243.6,168.63093540594699L244.25333333333333,153.4033443926987L244.4711111111111,165.05260568394039L244.78222222222223,150.68047765949152L245.14,163.87464659982663L245.48222222222222,181.17385071812L245.8088888888889,162.89302077562547L246.26,171.30085575338862L246.54,169.9694479836131L246.82,161.79337861964441L246.9288888888889,159.27950817107364L247.17777777777778,158.70543093813032L247.41111111111113,169.74851617232025L247.58222222222224,150.71476580784548L247.8,151.62667991340945L248.2822222222222,157.03982319697465L248.4377777777778,179.18361033359147" style="fill: none;" fill="none"></path></g></g></g></g><g opacity="0.2"><g><g><g><path stroke="rgb(255, 112, 67)" stroke-width="2px" d="M31.39111111111111,56.59981045356093L31.842222222222222,-28.402529349695232L32.07555555555555,-15.89669543046344L32.09111111111111,50.01497356708158L32.215555555555554,47.476475935715115L32.495555555555555,26.197892849261013L32.71333333333333,-35.524605824398556L32.775555555555556,-16.37063488593594L33.102222222222224,10.0579820779643L33.13333333333333,-59.958457066464184L33.66222222222222,-15.385425127470825L33.78666666666667,8.38458626086787L34.08222222222222,45.51741798107362L34.26888888888889,9.3032497259276L34.67333333333333,1.6390644220194177L34.906666666666666,-2.4137671544013113L34.922222222222224,24.94487483684739L35.14,34.01464770390349L35.32666666666667,-5.788151154152496L35.49777777777778,15.451478004454545L35.544444444444444,-13.194266686073963L36.02666666666667,21.625675568212856L36.07333333333333,36.30481404524498L36.49333333333333,-25.497215564435688L36.68,54.78033740703803L36.80444444444444,31.56866565117379L36.99111111111112,-30.915057695830317L37.11555555555556,7.866823636567438L37.364444444444445,24.358942838814595L37.56666666666666,-66.20731632526267L37.89333333333333,64.14713397392795L37.90888888888889,36.04674427325822L38.04888888888889,20.221711085391895L38.282222222222224,63.21710894657951L38.34444444444445,41.573332786559234L38.5,1.0450170223518276L38.577777777777776,52.874841103186235L38.593333333333334,-30.183048468371066L39.044444444444444,55.72659323765611L39.07555555555555,35.83574383075334L39.09111111111111,39.13221997481043L39.40222222222222,-25.49396940378177L39.48,65.19726694547148L39.511111111111106,77.09119958143913L39.76,-12.509326788096542L40.28888888888889,-2.9899606704723705L40.35111111111111,39.4016513090859L40.382222222222225,35.103734603294086L40.89555555555555,4.6579938301662205L41.019999999999996,-0.3053858096794224L41.11333333333334,1.1375326009885764L41.128888888888895,29.203837614792125L41.346666666666664,17.365089709941163L41.486666666666665,-33.35941666823308L41.611111111111114,60.35237216949396L42.32666666666667,23.501956426179373L42.388888888888886,42.324818977942016L42.995555555555555,-44.656055743879165L43.16666666666667,44.222199880159025L43.275555555555556,6.065204473641119L43.36888888888889,36.60995314671357L43.617777777777775,-1.292218648471514L44.05333333333333,37.96035597874484L44.44222222222222,36.53204529101945L44.58222222222222,26.10050802964337L44.89333333333333,-52.08327132005112L46.651111111111106,-14.057745420017003L46.72888888888889,24.06678837996168L46.900000000000006,43.297044093791456L47.00888888888889,15.56833978799572L47.07111111111111,98.42496739900992L47.102222222222224,19.278701415427758L47.242222222222225,-43.04920622018814L47.53777777777778,112.71294351724451L47.77111111111111,42.76791990720227L47.864444444444445,39.18091238461924L48.19111111111111,29.51709211789553L48.36222222222222,65.15993609795139L48.39333333333334,-41.97310396341324L48.61111111111111,-4.281932610733014L48.72,13.83975923978262L49.01555555555555,51.50171514657754L49.03111111111111,19.484832616951763L49.217777777777776,2.190911733186051L49.373333333333335,-39.632622131935975L49.404444444444444,59.54894740764843L49.52888888888889,23.334779152502424L49.668888888888894,86.54888864663883L50.05777777777778,-7.7715553136984346L50.166666666666664,65.20051310612541L50.49333333333334,90.94743633270221L50.586666666666666,-9.95622143378746L50.61777777777778,81.55791664123484L50.66444444444444,-19.574595451356277L50.72666666666667,28.00275817284125L50.82,43.92193001967131L50.882222222222225,-26.633371793308136L50.96,44.03879180321246L51.30222222222223,81.10020798903193L51.72222222222223,-22.966833334704035L52.03333333333333,8.058347115148791L52.32888888888888,-8.24874092982485L52.5,74.70040225982609L52.51555555555556,31.26677271035912L53.15333333333333,-3.434684680059564L53.495555555555555,87.40425197894709L53.775555555555556,41.320132255553375L53.791111111111114,45.64401824657655L54.351111111111116,-21.900469559890887L54.47555555555556,-1.2613801222592709L54.6,63.31287068587017L54.64666666666666,24.31998891096754L55.191111111111105,52.69954842787449L55.23777777777778,63.97346437894317L55.455555555555556,59.86544807140575L55.50222222222222,6.308666522685204L55.580000000000005,-8.742157349220895L55.766666666666666,89.00460918133031L55.937777777777775,59.52784736339794L56.42,2.8417669442972695L56.544444444444444,30.83178718273366L57.08888888888889,13.162934743440037L57.32222222222222,37.572439780601236L57.586666666666666,7.013083384586132L57.61777777777778,86.07657227149329L57.66444444444445,-1.4561497614945231L57.72666666666667,9.144187853885468L58.72222222222222,18.6294692846435L58.75333333333334,54.03696661729007L58.94,5.208218061005895L58.986666666666665,-21.87774643531342L59.842222222222226,60.17870257450916L59.904444444444444,6.479089957016069L60.044444444444444,57.2328117810756L60.15333333333333,-12.851796737085252L60.65111111111111,33.847470430226544L60.69777777777778,91.66159167656488L60.791111111111114,41.081539447490165L60.80666666666667,1.5579104056713828L61.04,74.65333293034423L61.22666666666667,37.174785100495875L61.288888888888884,103.18221583733157L61.36666666666667,66.86417044126009L61.397777777777776,-40.02865373171436L61.6,57.98916721343925L61.61555555555556,29.930977601270502L61.89555555555556,-0.7338790159970638L63.31111111111112,51.86528513981671L63.45111111111112,54.39729044987533L63.60666666666666,39.057558279770234L63.77777777777778,56.00251689323942L64.0111111111111,12.406579311076376L64.07333333333334,11.679439324598L64.38444444444444,50.86546765840895L65.24000000000001,49.09955626267577L65.47333333333333,-4.143970782941389L65.56666666666666,16.316579818724584L65.94,-22.93761788881873L66.01777777777778,62.23676842909527L67.18444444444444,7.409114984364532L67.54222222222222,101.55751243004397L67.80666666666667,-5.450550446144684L68.35111111111111,49.00541760371205L69.00444444444445,34.178578816926525L69.08222222222223,38.3287952129649L69.28444444444445,10.913345410272566L69.40888888888888,22.560569836542196L69.45555555555556,-19.6070570578955L69.76666666666667,101.05273444835919L69.96888888888888,5.123817884003942L70.04666666666667,-16.300842431876635L70.26444444444445,-54.25819895817839L70.29555555555555,108.97336644392718L70.46666666666667,15.068431047291837L71.02666666666666,30.612671338593984L71.19777777777777,27.50447251246433L71.21333333333334,-6.927553543678903L71.54,-25.36574605795186L71.97555555555554,0.5743237275332292L72.10000000000001,18.137675945574433L72.22444444444444,-45.34586488283744L72.64444444444443,19.354986190794914L72.70666666666666,57.547689364505956L72.81555555555555,38.898496407728096L72.86222222222223,33.86370123349616L73.00222222222223,64.58861182286125L73.23555555555555,12.263748242303835L73.31333333333333,15.777717150173643L73.37555555555555,70.19148511152942L73.56222222222223,43.55998310675907L73.64,26.0453232985267L73.71777777777778,48.18738511892388L73.73333333333332,89.64085666949887L73.93555555555555,55.76554716550315L73.95111111111112,34.66063367403383L73.96666666666667,92.93246357257509L74.12222222222223,8.540401972256104L74.16888888888889,-35.159412750832416L74.32444444444444,110.81880877568142L74.43333333333332,-12.9816431632421L74.85333333333332,6.052219831025426L75.19555555555556,26.600416770347252L75.35111111111112,51.943192995510834L75.61555555555556,21.99411480243293L75.63111111111112,67.72277993422226L76.5488888888889,77.93520135145867L77.0311111111111,-37.741733551026805L77.07777777777778,59.550570487975385L77.18666666666667,73.05784496894192L77.23333333333333,55.63407765901934L77.35777777777778,9.796666145323647L78.07333333333332,21.211790084837883L78.30666666666667,0.38117716862491646L78.50888888888889,19.731540826649788L79.06888888888889,-11.657209616442236L79.08444444444444,39.47955916478L79.38,119.65648115598218L79.39555555555556,69.96587694608188L79.41111111111111,123.22238863431471L79.6288888888889,36.71707644829297L79.64444444444445,5.120571723350023L79.66,36.57262229919347L79.7688888888889,-40.06760765956141L80.03333333333333,60.675365154559124L80.4688888888889,56.22000965705214L80.76444444444445,16.909004138065214L80.87333333333333,85.99541825514525L80.9511111111111,50.47430529961145L81.15333333333334,13.172673225401791L81.19999999999999,23.050740095284304L81.33999999999999,-40.30620046762466L81.52666666666667,35.1816424589882L81.89999999999999,44.89902437650161L81.94666666666667,47.893607579744L82.53777777777779,-8.712941903335592L83.06666666666668,20.48302701803257L83.31555555555556,80.4834374647869L83.59555555555556,12.956803541916031L83.76666666666668,51.2063145270707L83.89111111111112,16.01630995823685L84.06222222222222,90.10343456268265L84.28,98.42172123835599L84.94888888888889,67.19203266730612L85.2911111111111,9.71713520930257L85.30666666666666,31.885166314931116L85.41555555555556,43.597313954279166L85.44666666666666,70.31808537703235L85.55555555555556,32.508429160484006L85.96,56.16807108658941L86.58222222222223,67.65298748016295L86.62888888888888,103.50358574206979L86.73777777777778,46.34843510847748L86.92444444444445,23.14650183457499L87.11111111111111,-3.63919280125661L87.31333333333333,32.27308251307472L87.32888888888888,85.29749371455219L87.36,94.17249694237299L87.57777777777777,80.42013733203544L87.95111111111112,66.71971629216058L87.99777777777777,-8.523041505081197L88.02888888888889,126.19749487363359L88.06,46.86944389343183L88.10666666666665,65.51214452890186L88.16888888888889,65.27192864051169L88.21555555555555,14.575014627895792L88.51111111111112,107.71710227085963L88.85333333333334,101.36923511211651L88.93111111111111,51.5276844318089L89.41333333333334,-15.151701560388513L89.50666666666666,31.15315708747186L89.61555555555555,54.47195214491553L89.64666666666666,82.16657176384508L89.94222222222223,112.63503566155039L90.06666666666666,62.8048465435315L90.96888888888888,-0.0749084032510301L91,39.768467462979L91.15555555555555,35.34232741135732L91.29555555555555,24.55208939772291L91.80888888888889,63.663456036493685L91.94888888888889,32.5587446506198L92.01111111111112,42.33780362055771L92.10444444444444,10.260867118834389L92.29111111111112,6.253481791568554L92.33777777777777,73.2396299655615L92.80444444444444,39.20850475017757L92.94444444444444,-19.795334375822915L93.03777777777778,41.727525417620505L93.52000000000001,142.20268997779255L93.55111111111111,44.09235345400217L93.69111111111111,97.02911831782374L93.86222222222221,91.89531524364722L93.95555555555555,82.33537211784899L94.06444444444445,38.57550342266292L94.64,81.66017070183337L95.0288888888889,64.10655696575394L95.12222222222222,66.1126842498773L95.21555555555555,67.26994052300024L95.26222222222222,19.335509226871388L95.60444444444444,52.81316405076173L96.14888888888889,0.7496164028449916L96.32,61.115219923165455L96.86444444444444,101.94705170851451L97.20666666666666,36.134390610914096L97.25333333333333,72.16190462845964L97.33111111111111,34.05684779240447L98.28,16.392864594091723L98.35777777777778,-10.921954228329064L98.43555555555555,34.332771447987774L98.52888888888889,-4.648748764626129L99.47777777777779,56.61117201584966L99.89777777777779,72.31934342017482L100.1,59.38339321429844L100.22444444444444,50.83462913219671L100.39555555555556,35.70752048492345L100.58222222222223,47.14699062934211L100.94,13.537866298967948L101.03333333333333,122.34917141840988L101.5,28.802936774032847L101.65555555555557,4.990725297193156L101.71777777777777,94.15301997844948L102.10666666666665,83.70200575314985L102.16888888888889,56.955265045165305L102.26222222222222,35.6929127619808L102.80666666666666,81.49137034782946L102.85333333333334,86.80371225797167L103.42888888888889,70.39437015239949L103.58444444444444,61.941367809588435L103.88,96.37177078540469L104.00444444444445,14.81198435563206L104.06666666666666,48.87232501690128L104.09777777777778,27.506095592791286L104.19111111111111,61.57779781634924L104.33111111111111,37.4912857642532L104.47111111111111,62.95092377295796L104.68888888888888,63.983202860904925L104.79777777777777,51.98052384303093L105.14,71.62466504023566L105.24888888888889,60.21765650235621L105.34222222222223,66.7976241478547L105.40444444444445,57.34642740396283L105.42,61.47878991640464L105.84,73.30942241962082L105.88666666666666,104.99032732156573L105.99555555555555,38.87901944380457L106.24444444444444,95.09116040743272L106.27555555555556,72.02394280066798L106.32222222222222,33.91726288428587L106.33777777777777,137.26527962317826L106.46222222222222,75.29282657916674L107.05333333333334,49.313802865834575L107.25555555555555,114.51293959984385L107.4888888888889,85.41110933743943L107.78444444444443,63.50926340543241L107.84666666666666,24.844243856575826L107.95555555555555,60.82631162496646L108.09555555555555,82.84988858149552L108.57777777777778,97.12488005711441L108.74888888888889,54.298282549930725L109.24666666666667,66.02016867124053L109.62,81.43293945605888L109.91555555555556,110.56073900369466L110.11777777777777,57.17275780897805L110.13333333333333,25.855422900272305L110.25777777777778,110.94540904118435L110.28888888888889,29.24766078362006L110.94222222222221,50.70640578636682L111.00444444444445,27.52394947638786L111.06666666666666,50.43859753241831L111.23777777777778,86.87025855137705L111.25333333333333,91.19414454240022L111.28444444444445,83.49587455162586L111.30000000000001,73.32565322289044L111.79777777777778,76.97596087822492L111.9688888888889,34.75801849365148L112,77.49534658285233L112.07777777777778,76.16279763441764L112.1088888888889,65.01223578819797L112.28,36.48659904186456L112.3888888888889,92.51533192854617L112.5911111111111,17.60692867865829L112.82444444444444,2.952136406530588L112.96444444444444,121.73402397449178L113.0111111111111,4.98260989555836L113.47777777777779,28.11150455474761L113.83555555555556,43.19803619384685L113.85111111111111,39.52500541393489L113.89777777777778,71.43476464198126L113.92888888888889,84.11589123652482L113.99111111111111,3.296229435846237L114.08444444444444,43.89920689509384L114.52,73.81095424065167L114.64444444444445,80.47045282217121L115.00222222222222,71.29680281418962L115.14222222222222,8.118401087246339L115.15777777777778,105.62982097038822L115.8111111111111,62.34226865034771L115.9511111111111,57.22956562042165L116.02888888888889,113.40112957587581L116.72888888888889,64.99600498492838L116.80666666666667,83.5965055318974L116.99333333333334,62.91034676478394L117.36666666666667,42.77441222851012L117.70888888888888,50.83462913219671L118.28444444444445,55.54805440169043L119.04666666666668,102.96472307351885L119.26444444444445,99.00278399540791L120.13555555555556,83.12094299609795L120.24444444444445,84.48757663139881L120.66444444444446,90.85167459341152L120.67999999999999,2.7979437754693337L121.03777777777778,127.47648217127858L121.16222222222223,35.6929127619808L121.83111111111111,94.67565184373079L122.36,23.099432505093137L122.56222222222223,85.75195620610116L122.60888888888888,72.30960493821306L123.63555555555556,111.0638939050525L123.76,80.1945291665879L123.88444444444444,39.36594354189276L124.14888888888889,16.39448767441868L124.28888888888889,74.24593976827713L124.39777777777778,35.31311196547201L124.49111111111111,101.13713462536114L124.58444444444444,108.24784953777575L125.14444444444443,99.62280068030687L125.2688888888889,65.89519148606458L125.65777777777778,70.64919376373233L125.67333333333333,89.31299444345281L126.17111111111112,93.68557284428482L126.20222222222223,83.7912751711327L126.51333333333332,23.010163087110286L126.59111111111112,81.80137869027895L126.62222222222223,109.00907421112029L126.65333333333332,98.2269515991207L127.05777777777777,86.99848189720694L127.63333333333333,62.13451436849675L127.72666666666666,78.3507099151606L127.94444444444444,21.68735262063736L128.22444444444443,93.7277729327858L128.78444444444443,66.5168312512905L128.81555555555556,79.90724394871586L128.92444444444445,64.7557890965382L129.06444444444443,163.41148061018734L129.11111111111111,77.43529261075479L129.54666666666668,24.256688778216073L129.60888888888888,117.39390718019904L129.64000000000001,94.09783524733281L129.8422222222222,85.57341737013549L130.01333333333332,48.32859310736946L130.0288888888889,75.17271863497164L130.10666666666665,47.237883127651905L130.18444444444444,44.83897040440406L130.76000000000002,42.01156447483861L131.04000000000002,49.06222541515567L131.33555555555554,64.92783561119602L131.58444444444444,150.32458393390363L131.8022222222222,102.83325356703502L132.0822222222222,100.40837155855581L132.1288888888889,83.05926594367345L132.6577777777778,57.88366699218681L132.70444444444445,80.7301456744849L132.84444444444443,72.62448252164343L132.9377777777778,53.0128029309779L133.01555555555555,61.49177455902033L133.2177777777778,86.35411900740355L133.29555555555555,11.914785972007289L133.54444444444445,82.84826550116857L133.6222222222222,111.70501063420193L133.7,108.38094212458654L133.76222222222222,85.60425589634774L134.01111111111112,69.55848378401477L134.54,84.25872230529735L134.91333333333333,45.20416347797022L135.56666666666666,99.163468947777L135.64444444444445,124.94447686121995L135.79999999999998,30.968125930198365L135.86222222222221,69.2971678513741L136.11111111111111,65.35470573718668L136.28222222222223,152.06939528538632L136.65555555555557,64.19258022308284L136.92,47.018767283512226L137.21555555555557,62.397453381464366L137.54222222222222,92.12092340909473L137.57333333333332,116.81446750347405L137.66666666666666,49.646534332861506L137.80666666666667,77.73231631058859L138.05555555555557,85.85096410604575L138.66222222222223,74.29787833873985L138.69333333333333,126.41336455711934L138.74,73.44251500643159L138.91111111111113,97.03885679978552L139.02,102.65958397205024L139.61111111111111,112.17895008967444L139.86,103.14488498981149L139.93777777777777,136.68421686612635L139.9688888888889,117.49129199981665L140.28,128.97133915240934L140.45111111111112,64.2396495525647L140.68444444444447,100.94074190579892L140.84,82.63564197833671L141.82,20.255795772258075L141.86666666666667,105.08933522151032L141.96,59.68690923544009L142.5511111111111,93.76510378030588L142.75333333333333,46.9619594720686L142.76888888888888,99.78835487365686L142.8,82.48631858825632L142.89333333333332,103.44677793062615L142.94,82.46846470465975L143.22,109.01069729144727L143.5,120.32843641134389L143.87333333333333,136.0138846910916L143.93555555555557,92.90162504636282L144.1222222222222,135.17799832270686L144.26222222222222,102.64173008845368L144.7911111111111,70.81637103740927L145.19555555555556,50.59441324380652L145.2577777777778,107.05488549745968L145.28888888888886,140.9139641981858L145.4911111111111,31.86244319035367L145.56888888888886,134.27231950026282L145.70888888888888,58.172575290385794L145.98888888888888,65.00898962754405L146.59555555555556,143.8793319555429L146.76666666666668,105.14614303295396L146.78222222222223,75.36911135453389L147.21777777777777,27.905373353223606L147.28,90.88738236060466L147.3111111111111,98.4087365957403L147.49777777777777,172.9584390933699L147.8711111111111,105.04875821333633L148.05777777777777,98.34381338266188L148.18222222222224,95.81505423325719L148.27555555555557,59.104223398061215L148.44666666666666,91.90829988626291L148.57111111111112,106.61503072885334L148.60222222222222,101.77338211352973L148.69555555555553,51.45951505807656L149.22444444444443,145.52675848740793L149.36444444444447,40.364137942973564L149.39555555555555,105.76291355719901L149.44222222222223,156.03133436349728L149.92444444444442,103.05074633084776L149.94,61.421982104961025L150.01777777777778,32.12375912299434L150.26666666666665,40.58000762645933L150.28222222222223,71.75938070737341L151.21555555555554,115.6912959172173L151.3088888888889,101.4942122972925L151.35555555555555,-1.0373950371386758L151.76000000000002,86.73229672358539L151.83777777777777,93.66771896068825L152.3511111111111,105.75804431621812L152.36666666666667,87.0909974758437L152.7711111111111,89.0744016353896L153.03555555555556,66.27012304159247L153.0977777777778,69.2971678513741L153.22222222222223,103.02802320627032L153.29999999999998,44.65231616680358L153.31555555555556,120.46477515880856L153.4088888888889,104.96922727731524L153.72,144.0026860603919L153.92222222222222,101.12577306307243L154.01555555555555,97.77898142887958L154.40444444444444,153.9602838662955L154.45111111111112,88.2044305801387L155.33777777777777,72.45081292665864L156.0222222222222,74.07227017329232L156.05333333333334,48.60127060229885L156.2711111111111,94.01992739163872L156.39555555555557,119.38704982170668L156.75333333333333,131.89450682126545L156.76888888888888,82.0497099803039L157.04888888888888,73.66974625220608L157.45333333333335,102.98582311776934L157.79555555555555,136.77510936443613L158.0911111111111,65.9925763056822L158.10666666666665,68.44991992070064L158.54222222222222,114.9154635209301L158.66666666666666,88.05673027038527L158.68222222222224,83.19885085179205L158.91555555555556,127.375851191007L159.11777777777777,113.5715530102067L159.13333333333333,101.83992840693512L159.52222222222224,130.26493417299696L159.86444444444444,51.78413112346868L159.95777777777778,144.10331704066348L160.00444444444443,151.14748565967267L160.08222222222224,111.07525546734121L160.16,117.04656799022942L160.23777777777778,100.06590160956713L160.98444444444445,115.31311820103546L161.0311111111111,127.86115220876823L161.20222222222222,112.47272762885433L161.42000000000002,125.6683706870444L161.7311111111111,99.63416224259558L161.9488888888889,92.5770089809707L162.02666666666667,137.2100948920616L162.66444444444446,88.39595405872006L162.7266666666667,90.77052057706348L163.19333333333333,108.4978039081277L163.39555555555557,142.19944381713864L163.66,79.32131195068307L163.79999999999998,142.10043591719403L164.07999999999998,83.46665910574056L164.17333333333335,173.8576255945061L164.31333333333333,119.7165351280797L164.98222222222222,86.19830329601534L165.1688888888889,81.85169418041471L165.2,86.75177368750892L165.30888888888887,122.23555579552264L165.80666666666664,73.66650009155217L165.86888888888888,47.517052943889134L166.35111111111112,146.64830699333777L166.44444444444446,107.7674177609954L166.72444444444443,117.18128365736717L166.81777777777776,62.2562453930188L167.25333333333336,126.0319406802836L167.28444444444443,104.42711844811038L167.62666666666667,114.28733143439634L167.65777777777777,61.98356789808941L167.81333333333336,120.6157216292159L167.98444444444442,103.91422506479083L168.35777777777778,107.24316281538711L168.51333333333332,125.69433997227578L169.01111111111112,151.22377043503985L169.0888888888889,85.75033312577419L169.1977777777778,72.78354439368557L169.3688888888889,68.30059653062024L169.4622222222222,125.47847028879L169.82000000000002,127.47485909095161L169.88222222222223,102.96147691286492L170.17777777777778,80.04520577650752L170.5822222222222,132.55834667499238L170.64444444444445,109.12431291433451L170.78444444444443,140.6753713901226L170.8777777777778,79.2709964605473L170.95555555555555,108.12449543292676L171.20444444444445,106.1053835061877L171.62444444444444,113.51474519876307L171.87333333333333,123.20291167039119L172.01333333333332,171.85312139070967L172.1222222222222,68.00032667013254L172.2,102.96472307351885L172.9311111111111,119.23772643162633L172.99333333333334,109.73296803694475L173.47555555555556,141.24182642423185L173.66222222222223,157.4369219266452L174.06666666666666,107.70574070857091L174.11333333333334,158.48218565720788L174.22222222222223,85.15466264577964L174.26888888888888,100.59827195681021L174.34666666666666,144.53505640763498L174.4088888888889,152.39563443110544L174.56444444444446,95.61054611206015L174.62666666666667,126.7736883897046L174.7511111111111,14.206575393675736L175.0311111111111,112.50356615506657L175.63777777777779,141.59403485518231L175.82444444444442,105.82134444896958L175.85555555555555,145.53487388904276L175.96444444444444,61.806652142450694L176.12,112.23251174046413L176.13555555555556,144.7119721632737L176.1977777777778,133.28224050081684L176.29111111111112,85.01670081798798L176.33777777777777,103.41756248474086L176.4777777777778,103.39483936016343L176.58666666666667,85.53933268326931L176.69555555555556,117.53836132929851L176.7888888888889,75.76676603463923L176.80444444444444,133.13616327139036L176.89777777777778,127.04636588463401L176.97555555555556,92.03327707143886L177.13111111111112,108.30465734921938L177.28666666666666,122.82635703453631L177.61333333333332,98.09061285165602L177.97111111111113,141.91053551893964L178.0022222222222,131.59586004110471L178.20444444444445,99.11964577894906L178.42222222222222,135.48638358482938L178.45333333333332,113.24206770383368L178.70222222222222,77.14963047320971L178.7177777777778,143.73000856546253L178.73333333333332,109.86119138277463L179.20000000000002,77.41094640585038L179.48000000000002,67.75199538010754L179.61999999999998,139.5895306513859L179.76,152.89067393082843L179.91555555555556,106.44136113386855L179.99333333333334,82.86611938476511L180.33555555555557,143.11810728219837L180.45999999999998,138.03786585881153L180.55333333333334,110.93891671987652L180.75555555555556,99.3371385427618L181.26888888888888,97.0567106833821L181.54888888888888,143.4378541066096L181.56444444444446,54.166813043446915L181.61111111111111,91.87421519939673L181.81333333333333,76.50851374406027L181.87555555555556,110.20203825143636L182.06222222222223,99.45724648695688L182.07777777777775,128.48441505432112L182.18666666666664,171.65023634983962L182.56,149.4968129671537L182.5911111111111,124.38451414841853L182.82444444444445,96.08935480851355L182.84,121.50030040740947L183.12,156.06054980938256L183.36888888888888,122.5131025314329L183.52444444444447,127.48459757291337L183.75777777777776,88.35537705054604L183.92888888888888,94.71298269125091L184.13111111111112,104.61052652505694L184.33333333333334,151.61006355285647L184.59777777777776,184.69817909827626L184.70666666666665,111.52160255725538L185.01777777777778,95.44012267772926L185.17333333333335,96.63308671804535L185.36,91.86609979776193L185.37555555555554,138.42091281597422L185.85777777777778,142.843806706942L185.87333333333333,96.41072471325172L185.88888888888889,136.0999079484205L186.04444444444442,105.83919833256616L186.24666666666667,152.0207028755775L186.34,103.39321627983645L186.46444444444444,149.50005912780762L186.55777777777777,123.45124296041615L187.64666666666668,102.27166777390666L188.06666666666666,135.17962140303382L188.5488888888889,123.06332676227257L188.62666666666667,120.735829573411L188.81333333333333,136.47808566460233L189.60666666666668,118.60634818443862L189.63777777777779,127.51381301879867L189.9022222222222,144.2704943143404L190.01111111111112,145.50728152348444L190.16666666666669,107.11331638923026L190.8511111111111,133.74806455465452L190.94444444444446,178.60026630988511L191.0222222222222,127.80434439732461L191.2711111111111,155.95018034714926L191.89333333333335,204.17027378082318L191.98666666666665,160.79182896247286L192.03333333333333,86.70632743835402L192.04888888888888,90.69423580169635L192.8111111111111,106.99483152536214L192.95111111111112,82.0253637753995L193.12222222222223,109.1210667536806L193.5888888888889,88.00803786057645L193.68222222222224,138.0914275096012L193.6977777777778,112.10428839463427L193.79111111111112,81.31445459219074L194.46,157.96279995258047L194.72444444444443,118.12104716667739L195.08222222222224,92.7669093792251L195.23777777777778,190.39032180492728L195.39333333333332,102.06553657238265L195.58,172.88215431800273L195.70444444444445,100.54795646667445L195.9377777777778,129.9873874370867L196.2177777777778,128.79604647709758L196.51333333333332,155.51357173919683L196.6688888888889,152.06939528538632L196.70000000000002,97.73028901907074L197.66444444444446,145.87409767737753L197.82,127.6485286859364L197.92888888888888,181.16148706582902L198.0066666666667,134.14247307410594L198.25555555555556,94.89639076819748L198.36444444444444,150.98355454664966L198.38,140.6623867475069L198.56666666666666,102.12072130349932L198.66,108.54162707695563L199.2511111111111,148.83621927408072L199.76444444444445,124.21571379441463L200.27777777777777,90.29820420191793L200.62,126.7249959798958L200.68222222222224,157.94656914931085L201.8488888888889,128.57530755263093L202.0511111111111,63.96047973632748L202.56444444444443,102.14344442807675L202.58,161.53195359156692L202.65777777777777,98.90215301513632L202.78222222222223,146.71485328674314L203.06222222222223,96.81974095564583L203.23333333333332,134.95888247856715L203.68444444444444,136.27520062373225L204.05777777777777,105.06336593627896L204.15111111111113,76.45495209327055L204.16666666666666,95.80531575129541L204.26000000000002,103.5474089108977L204.29111111111112,155.85117244720465L204.69555555555556,174.58151942033055L204.86666666666667,147.41115474700928L205.45777777777778,119.09976460383467L205.51999999999998,133.5549179957462L205.61333333333332,160.74313655266405L205.72222222222223,126.01246371636006L205.73777777777778,106.21737604874798L205.92444444444445,109.57390616490261L206.20444444444445,123.10065760979266L206.64,138.57185928638157L206.8111111111111,138.47447446676392L207.15333333333334,162.17956264202422L207.35555555555555,134.89071310483482L207.3711111111111,109.24929009951047L207.49555555555557,155.52168714083163L207.6822222222222,115.29851047809282L207.88444444444445,142.4688751514141L208.3511111111111,123.20453475071814L208.5066666666667,138.66275178469138L208.55333333333334,202.19660810323904L208.58444444444444,163.8432199771589L209.11333333333334,182.18727383246815L209.1911111111111,180.130831058209L209.22222222222223,140.72244071960444L209.34666666666666,113.26641390873809L209.39333333333335,181.53154938037605L209.42444444444445,191.86083258115363L209.48666666666665,125.50606265434834L209.81333333333333,138.65625946338352L209.84444444444446,150.83910039755014L210.04666666666665,112.24387330275287L210.40444444444447,129.14500874739412L210.42,165.54420815981365L210.8711111111111,162.97649508256188L211.0888888888889,147.97598670079157L211.2133333333333,143.21711518214295L211.72666666666666,98.54832150385892L212.22444444444443,164.81382201268136L212.95555555555555,136.77024012345524L213.04888888888888,164.3301440752471L213.31333333333333,113.27615239069986L213.6711111111111,115.5922880172727L213.88888888888889,138.32352799635657L213.98222222222222,114.95766360943108L214.07555555555555,135.08548274407008L214.1222222222222,176.14129961453972L214.26222222222222,124.93149221860429L214.4177777777778,147.87373264019305L214.4488888888889,105.98202940133869L214.9311111111111,193.25830474266675L214.9622222222222,130.8330122874332L215.02444444444444,173.18729341947133L215.2266666666667,182.8608521681568L215.3511111111111,107.30646294813857L215.39777777777778,96.08773172818657L215.45999999999998,93.7358883344206L215.70888888888888,118.17947805844797L215.84888888888887,132.5291312291071L215.94222222222223,95.32813013516899L216.01999999999998,116.775513575627L216.50222222222223,224.306208317097L216.51777777777775,165.50525423196657L216.59555555555556,110.89671663137554L216.85999999999999,112.82818222045871L217.07777777777775,156.6740741729737L217.09333333333333,169.44122402484615L217.3111111111111,169.1458234053393L217.34222222222223,165.83960877932049L217.42,135.65680701916025L217.7,175.0246203495908L217.96444444444447,176.68990076505244L218.05777777777777,174.71136584648738L218.19777777777776,176.1542842571554L218.5088888888889,163.79128140669613L218.66444444444446,165.16603044363183L218.75777777777776,128.9891930360059L218.83555555555554,128.33509166424076L218.96,135.45716813894407L219.87777777777777,190.7928457260135L220.20444444444442,86.15285704686043L220.39111111111112,154.08201489081753L220.5,147.47445487976074L220.56222222222223,126.69091129302963L221.04444444444442,124.02419031583327L221.43333333333334,102.46481433281497L221.48000000000002,138.99710633204526L221.60444444444443,144.54804105025067L221.85333333333332,159.39435680095974L221.9933333333333,168.72706868098348L222.47555555555556,93.61091114924463L222.50666666666666,129.66926369300242L222.5688888888889,227.1271219253546L222.66222222222223,106.15569899632348L222.69333333333333,170.87602703387938L222.7088888888889,181.50720317547163L223.14444444444445,108.94577407836883L223.28444444444443,179.36149098322966L223.36222222222221,140.67050214914167L223.4711111111111,144.12117092426L223.53333333333333,185.8586815320531L223.90666666666667,118.92609500884986L223.9688888888889,151.77237158555255L224,167.9057900355414L224.32666666666668,122.798764668978L224.3422222222222,132.7709701978242L224.35777777777778,141.55508092733524L224.57555555555555,115.8893117171065L224.6688888888889,154.11123033670285L224.76222222222222,113.84585358546305L224.80888888888887,77.20319212399941L225.1822222222222,172.81723110492433L225.21333333333334,186.55985223330012L225.24444444444444,106.75786179762588L225.89777777777778,154.59003903315622L226.39555555555557,121.15458429776685L227.12666666666667,185.24028792748112L227.76444444444445,174.81361990708592L227.85777777777778,148.23567955310529L227.93555555555554,122.23230963486873L227.99777777777777,197.47993667309137L228.34,117.61464610466567L228.4488888888889,170.09045615563042L228.79111111111112,154.76208554781405L229.08666666666667,194.88463123028131L229.9422222222222,200.74070504995532L230.08222222222224,171.18765845665584L230.95333333333332,151.36173226283148L231.12444444444444,164.86900674379802L231.79333333333332,89.30487904181801L231.85555555555555,187.70899310478828L231.9177777777778,128.03319872342607L232.11999999999998,176.69801616668724L232.4622222222222,147.89970192542444L232.89777777777778,125.51904729696403L232.95999999999998,146.10295200347898L232.9911111111111,185.48537305685215L233.0377777777778,153.97326850891116L233.2866666666667,201.75513025430573L233.48888888888888,180.28177752861635L233.61333333333334,147.60267822559064L233.67555555555558,171.8433829087479L233.70666666666668,120.23429775238016L233.76888888888888,134.55960471813486L233.89333333333335,164.74078339796813L233.90888888888887,173.4859401996321L233.9711111111111,173.1321086883547L234.06444444444446,143.6732007540189L234.07999999999998,160.41202816596407L234.70222222222222,142.2952055564293L234.76444444444445,143.7056623605581L236.25777777777776,168.29532931401192L236.41333333333336,163.1745108824511L236.6,137.59638800987824L236.86444444444447,154.6484699249268L236.97333333333336,187.7284700687118L237.11333333333334,201.07668267763617L237.22222222222223,163.3270804331854L237.39333333333335,129.88188721583427L237.92222222222225,207.4099421134366L238.06222222222223,148.3963645054744L238.76222222222225,193.89942147181617L239.3688888888889,159.75305755321804L239.58666666666667,205.48821500631522L239.83555555555554,144.86778787466193L240.4111111111111,172.91136976388802L240.81555555555556,217.12245478996914L240.98666666666668,163.25566489879913L241.45333333333332,168.3667448483982L241.59333333333333,198.47650799384522L242.29333333333332,204.11184288905258L242.48,169.38117005274862L242.54222222222222,248.01778881366513L243.02444444444444,147.03622319148135L243.32,145.87734383803144L243.3511111111111,194.8489234630882L243.38222222222223,202.40436238509L243.39777777777778,128.3837840740496L243.6,174.16763393695558L244.25333333333333,130.5619578728308L244.4711111111111,182.5264976208029L244.78222222222223,129.1222856228167L245.14,183.66590001032927L245.48222222222222,207.1226568955646L245.8088888888889,135.47177586188673L246.26,183.9126082200273L246.54,167.97233632894677L246.82,149.52927457369293L246.9288888888889,155.50870249821597L247.17777777777778,157.84431508871234L247.41111111111113,186.31314402360212L247.58222222222224,122.16414026113637L247.8,152.9945510717539L248.2822222222222,165.15953812232397L248.4377777777778,212.39929103851367L249.60444444444445,222.95905164571968L249.6977777777778,169.66033986898586" style="fill: none;" fill="none"></path></g></g></g></g></g></g><g transform="translate(50, 177)" clip-path="url(#clip_1)"><clipPath id="clip_1"><rect width="280" height="23"></rect></clipPath><g><g><line x1="0" y1="0" x2="0" y2="5" style="visibility: inherit;" fill="rgb(0, 0, 0)" stroke="rgb(204, 204, 204)" stroke-width="1px"></line><line x1="31.11111111111111" y1="0" x2="31.11111111111111" y2="5" style="visibility: inherit;" fill="rgb(0, 0, 0)" stroke="rgb(204, 204, 204)" stroke-width="1px"></line><line x1="62.22222222222222" y1="0" x2="62.22222222222222" y2="5" style="visibility: inherit;" fill="rgb(0, 0, 0)" stroke="rgb(204, 204, 204)" stroke-width="1px"></line><line x1="93.33333333333333" y1="0" x2="93.33333333333333" y2="5" style="visibility: inherit;" fill="rgb(0, 0, 0)" stroke="rgb(204, 204, 204)" stroke-width="1px"></line><line x1="124.44444444444444" y1="0" x2="124.44444444444444" y2="5" style="visibility: inherit;" fill="rgb(0, 0, 0)" stroke="rgb(204, 204, 204)" stroke-width="1px"></line><line x1="155.55555555555557" y1="0" x2="155.55555555555557" y2="5" style="visibility: inherit;" fill="rgb(0, 0, 0)" stroke="rgb(204, 204, 204)" stroke-width="1px"></line><line x1="186.66666666666666" y1="0" x2="186.66666666666666" y2="5" style="visibility: inherit;" fill="rgb(0, 0, 0)" stroke="rgb(204, 204, 204)" stroke-width="1px"></line><line x1="217.77777777777777" y1="0" x2="217.77777777777777" y2="5" style="visibility: inherit;" fill="rgb(0, 0, 0)" stroke="rgb(204, 204, 204)" stroke-width="1px"></line><line x1="248.88888888888889" y1="0" x2="248.88888888888889" y2="5" style="visibility: inherit;" fill="rgb(0, 0, 0)" stroke="rgb(204, 204, 204)" stroke-width="1px"></line><line x1="280" y1="0" x2="280" y2="5" style="visibility: inherit;" fill="rgb(0, 0, 0)" stroke="rgb(204, 204, 204)" stroke-width="1px"></line></g><g transform="translate(0, 8)"><text x="0" y="0" dx="0em" dy="0.95em" style="text-anchor: middle; visibility: hidden; font-family: Roboto, sans-serif; font-size: 12px; font-weight: 200;" fill="rgb(33, 33, 33)" stroke="none" stroke-width="1px">-2k</text><text x="31.11111111111111" y="0" dx="0em" dy="0.95em" style="text-anchor: middle; visibility: inherit; font-family: Roboto, sans-serif; font-size: 12px; font-weight: 200;" fill="rgb(33, 33, 33)" stroke="none" stroke-width="1px">0</text><text x="62.22222222222222" y="0" dx="0em" dy="0.95em" style="text-anchor: middle; visibility: inherit; font-family: Roboto, sans-serif; font-size: 12px; font-weight: 200;" fill="rgb(33, 33, 33)" stroke="none" stroke-width="1px">2k</text><text x="93.33333333333333" y="0" dx="0em" dy="0.95em" style="text-anchor: middle; visibility: inherit; font-family: Roboto, sans-serif; font-size: 12px; font-weight: 200;" fill="rgb(33, 33, 33)" stroke="none" stroke-width="1px">4k</text><text x="124.44444444444444" y="0" dx="0em" dy="0.95em" style="text-anchor: middle; visibility: inherit; font-family: Roboto, sans-serif; font-size: 12px; font-weight: 200;" fill="rgb(33, 33, 33)" stroke="none" stroke-width="1px">6k</text><text x="155.55555555555557" y="0" dx="0em" dy="0.95em" style="text-anchor: middle; visibility: inherit; font-family: Roboto, sans-serif; font-size: 12px; font-weight: 200;" fill="rgb(33, 33, 33)" stroke="none" stroke-width="1px">8k</text><text x="186.66666666666666" y="0" dx="0em" dy="0.95em" style="text-anchor: middle; visibility: inherit; font-family: Roboto, sans-serif; font-size: 12px; font-weight: 200;" fill="rgb(33, 33, 33)" stroke="none" stroke-width="1px">10k</text><text x="217.77777777777777" y="0" dx="0em" dy="0.95em" style="text-anchor: middle; visibility: inherit; font-family: Roboto, sans-serif; font-size: 12px; font-weight: 200;" fill="rgb(33, 33, 33)" stroke="none" stroke-width="1px">12k</text><text x="248.88888888888889" y="0" dx="0em" dy="0.95em" style="text-anchor: middle; visibility: inherit; font-family: Roboto, sans-serif; font-size: 12px; font-weight: 200;" fill="rgb(33, 33, 33)" stroke="none" stroke-width="1px">14k</text><text x="280" y="0" dx="0em" dy="0.95em" style="text-anchor: middle; visibility: hidden; font-family: Roboto, sans-serif; font-size: 12px; font-weight: 200;" fill="rgb(33, 33, 33)" stroke="none" stroke-width="1px">16k</text></g><line x1="0" y1="0" x2="280" y2="0" fill="rgb(0, 0, 0)" stroke="rgb(204, 204, 204)" stroke-width="1px"></line></g></g></g></g></svg>