<svg viewBox="0 0 330 200" xmlns="http://www.w3.org/2000/svg"><g><g><g><g><g><line x1="50" y1="177" x2="45" y2="177" style="visibility: inherit;" fill="rgb(0, 0, 0)" stroke="rgb(204, 204, 204)" stroke-width="1px"></line><line x1="50" y1="164.35714285714286" x2="45" y2="164.35714285714286" style="visibility: inherit;" fill="rgb(0, 0, 0)" stroke="rgb(204, 204, 204)" stroke-width="1px"></line><line x1="50" y1="151.71428571428572" x2="45" y2="151.71428571428572" style="visibility: inherit;" fill="rgb(0, 0, 0)" stroke="rgb(204, 204, 204)" stroke-width="1px"></line><line x1="50" y1="139.07142857142856" x2="45" y2="139.07142857142856" style="visibility: inherit;" fill="rgb(0, 0, 0)" stroke="rgb(204, 204, 204)" stroke-width="1px"></line><line x1="50" y1="126.42857142857143" x2="45" y2="126.42857142857143" style="visibility: inherit;" fill="rgb(0, 0, 0)" stroke="rgb(204, 204, 204)" stroke-width="1px"></line><line x1="50" y1="113.78571428571429" x2="45" y2="113.78571428571429" style="visibility: inherit;" fill="rgb(0, 0, 0)" stroke="rgb(204, 204, 204)" stroke-width="1px"></line><line x1="50" y1="101.14285714285715" x2="45" y2="101.14285714285715" style="visibility: inherit;" fill="rgb(0, 0, 0)" stroke="rgb(204, 204, 204)" stroke-width="1px"></line><line x1="50" y1="88.5" x2="45" y2="88.5" style="visibility: inherit;" fill="rgb(0, 0, 0)" stroke="rgb(204, 204, 204)" stroke-width="1px"></line><line x1="50" y1="75.85714285714288" x2="45" y2="75.85714285714288" style="visibility: inherit;" fill="rgb(0, 0, 0)" stroke="rgb(204, 204, 204)" stroke-width="1px"></line><line x1="50" y1="63.21428571428572" x2="45" y2="63.21428571428572" style="visibility: inherit;" fill="rgb(0, 0, 0)" stroke="rgb(204, 204, 204)" stroke-width="1px"></line><line x1="50" y1="50.57142857142859" x2="45" y2="50.57142857142859" style="visibility: inherit;" fill="rgb(0, 0, 0)" stroke="rgb(204, 204, 204)" stroke-width="1px"></line><line x1="50" y1="37.92857142857143" x2="45" y2="37.92857142857143" style="visibility: inherit;" fill="rgb(0, 0, 0)" stroke="rgb(204, 204, 204)" stroke-width="1px"></line><line x1="50" y1="25.285714285714274" x2="45" y2="25.285714285714274" style="visibility: inherit;" fill="rgb(0, 0, 0)" stroke="rgb(204, 204, 204)" stroke-width="1px"></line><line x1="50" y1="12.642857142857157" x2="45" y2="12.642857142857157" style="visibility: inherit;" fill="rgb(0, 0, 0)" stroke="rgb(204, 204, 204)" stroke-width="1px"></line><line x1="50" y1="0" x2="45" y2="0" style="visibility: inherit;" fill="rgb(0, 0, 0)" stroke="rgb(204, 204, 204)" stroke-width="1px"></line></g><g transform="translate(40, 0)"><text x="0" y="177" dx="0em" dy="0.3em" style="text-anchor: end; visibility: hidden; font-family: Roboto, sans-serif; font-size: 12px; font-weight: 200;" fill="rgb(33, 33, 33)" stroke="none" stroke-width="1px">-0.2</text><text x="0" y="164.35714285714286" dx="0em" dy="0.3em" style="text-anchor: end; visibility: inherit; font-family: Roboto, sans-serif; font-size: 12px; font-weight: 200;" fill="rgb(33, 33, 33)" stroke="none" stroke-width="1px">0</text><text x="0" y="151.71428571428572" dx="0em" dy="0.3em" style="text-anchor: end; visibility: hidden; font-family: Roboto, sans-serif; font-size: 12px; font-weight: 200;" fill="rgb(33, 33, 33)" stroke="none" stroke-width="1px">0.2</text><text x="0" y="139.07142857142856" dx="0em" dy="0.3em" style="text-anchor: end; visibility: inherit; font-family: Roboto, sans-serif; font-size: 12px; font-weight: 200;" fill="rgb(33, 33, 33)" stroke="none" stroke-width="1px">0.4</text><text x="0" y="126.42857142857143" dx="0em" dy="0.3em" style="text-anchor: end; visibility: hidden; font-family: Roboto, sans-serif; font-size: 12px; font-weight: 200;" fill="rgb(33, 33, 33)" stroke="none" stroke-width="1px">0.6</text><text x="0" y="113.78571428571429" dx="0em" dy="0.3em" style="text-anchor: end; visibility: inherit; font-family: Roboto, sans-serif; font-size: 12px; font-weight: 200;" fill="rgb(33, 33, 33)" stroke="none" stroke-width="1px">0.8</text><text x="0" y="101.14285714285715" dx="0em" dy="0.3em" style="text-anchor: end; visibility: hidden; font-family: Roboto, sans-serif; font-size: 12px; font-weight: 200;" fill="rgb(33, 33, 33)" stroke="none" stroke-width="1px">1</text><text x="0" y="88.5" dx="0em" dy="0.3em" style="text-anchor: end; visibility: inherit; font-family: Roboto, sans-serif; font-size: 12px; font-weight: 200;" fill="rgb(33, 33, 33)" stroke="none" stroke-width="1px">1.2</text><text x="0" y="75.85714285714288" dx="0em" dy="0.3em" style="text-anchor: end; visibility: hidden; font-family: Roboto, sans-serif; font-size: 12px; font-weight: 200;" fill="rgb(33, 33, 33)" stroke="none" stroke-width="1px">1.4</text><text x="0" y="63.21428571428572" dx="0em" dy="0.3em" style="text-anchor: end; visibility: inherit; font-family: Roboto, sans-serif; font-size: 12px; font-weight: 200;" fill="rgb(33, 33, 33)" stroke="none" stroke-width="1px">1.6</text><text x="0" y="50.57142857142859" dx="0em" dy="0.3em" style="text-anchor: end; visibility: hidden; font-family: Roboto, sans-serif; font-size: 12px; font-weight: 200;" fill="rgb(33, 33, 33)" stroke="none" stroke-width="1px">1.8</text><text x="0" y="37.92857142857143" dx="0em" dy="0.3em" style="text-anchor: end; visibility: inherit; font-family: Roboto, sans-serif; font-size: 12px; font-weight: 200;" fill="rgb(33, 33, 33)" stroke="none" stroke-width="1px">2</text><text x="0" y="25.285714285714274" dx="0em" dy="0.3em" style="text-anchor: end; visibility: hidden; font-family: Roboto, sans-serif; font-size: 12px; font-weight: 200;" fill="rgb(33, 33, 33)" stroke="none" stroke-width="1px">2.2</text><text x="0" y="12.642857142857157" dx="0em" dy="0.3em" style="text-anchor: end; visibility: inherit; font-family: Roboto, sans-serif; font-size: 12px; font-weight: 200;" fill="rgb(33, 33, 33)" stroke="none" stroke-width="1px">2.4</text><text x="0" y="0" dx="0em" dy="0.3em" style="text-anchor: end; visibility: hidden; font-family: Roboto, sans-serif; font-size: 12px; font-weight: 200;" fill="rgb(33, 33, 33)" stroke="none" stroke-width="1px">2.6</text></g><line x1="50" y1="0" x2="50" y2="177" fill="rgb(0, 0, 0)" stroke="rgb(204, 204, 204)" stroke-width="1px"></line></g></g><g transform="translate(50, 0)" clip-path="url(#clip_0)"><clipPath id="clip_0"><rect width="280" height="177"></rect></clipPath><g><g><g><line x1="0" y1="0" x2="0" y2="177" fill="rgb(0, 0, 0)" stroke="rgb(66, 66, 66)" stroke-width="1px" opacity="0.25"></line><line x1="31.11111111111111" y1="0" x2="31.11111111111111" y2="177" fill="rgb(0, 0, 0)" stroke="rgb(66, 66, 66)" stroke-width="1px" opacity="0.25"></line><line x1="62.22222222222222" y1="0" x2="62.22222222222222" y2="177" fill="rgb(0, 0, 0)" stroke="rgb(66, 66, 66)" stroke-width="1px" opacity="0.25"></line><line x1="93.33333333333333" y1="0" x2="93.33333333333333" y2="177" fill="rgb(0, 0, 0)" stroke="rgb(66, 66, 66)" stroke-width="1px" opacity="0.25"></line><line x1="124.44444444444444" y1="0" x2="124.44444444444444" y2="177" fill="rgb(0, 0, 0)" stroke="rgb(66, 66, 66)" stroke-width="1px" opacity="0.25"></line><line x1="155.55555555555557" y1="0" x2="155.55555555555557" y2="177" fill="rgb(0, 0, 0)" stroke="rgb(66, 66, 66)" stroke-width="1px" opacity="0.25"></line><line x1="186.66666666666666" y1="0" x2="186.66666666666666" y2="177" fill="rgb(0, 0, 0)" stroke="rgb(66, 66, 66)" stroke-width="1px" opacity="0.25"></line><line x1="217.77777777777777" y1="0" x2="217.77777777777777" y2="177" fill="rgb(0, 0, 0)" stroke="rgb(66, 66, 66)" stroke-width="1px" opacity="0.25"></line><line x1="248.88888888888889" y1="0" x2="248.88888888888889" y2="177" fill="rgb(0, 0, 0)" stroke="rgb(66, 66, 66)" stroke-width="1px" opacity="0.25"></line><line x1="280" y1="0" x2="280" y2="177" fill="rgb(0, 0, 0)" stroke="rgb(66, 66, 66)" stroke-width="1px" opacity="0.25"></line></g><g><line x1="0" y1="177" x2="280" y2="177" fill="rgb(0, 0, 0)" stroke="rgb(66, 66, 66)" stroke-width="1px" opacity="0.25"></line><line x1="0" y1="164.35714285714286" x2="280" y2="164.35714285714286" fill="rgb(0, 0, 0)" stroke="rgb(66, 66, 66)" stroke-width="1px" opacity="0.25"></line><line x1="0" y1="151.71428571428572" x2="280" y2="151.71428571428572" fill="rgb(0, 0, 0)" stroke="rgb(66, 66, 66)" stroke-width="1px" opacity="0.25"></line><line x1="0" y1="139.07142857142856" x2="280" y2="139.07142857142856" fill="rgb(0, 0, 0)" stroke="rgb(66, 66, 66)" stroke-width="1px" opacity="0.25"></line><line x1="0" y1="126.42857142857143" x2="280" y2="126.42857142857143" fill="rgb(0, 0, 0)" stroke="rgb(66, 66, 66)" stroke-width="1px" opacity="0.25"></line><line x1="0" y1="113.78571428571429" x2="280" y2="113.78571428571429" fill="rgb(0, 0, 0)" stroke="rgb(66, 66, 66)" stroke-width="1px" opacity="0.25"></line><line x1="0" y1="101.14285714285715" x2="280" y2="101.14285714285715" fill="rgb(0, 0, 0)" stroke="rgb(66, 66, 66)" stroke-width="1px" opacity="0.25"></line><line x1="0" y1="88.5" x2="280" y2="88.5" fill="rgb(0, 0, 0)" stroke="rgb(66, 66, 66)" stroke-width="1px" opacity="0.25"></line><line x1="0" y1="75.85714285714288" x2="280" y2="75.85714285714288" fill="rgb(0, 0, 0)" stroke="rgb(66, 66, 66)" stroke-width="1px" opacity="0.25"></line><line x1="0" y1="63.21428571428572" x2="280" y2="63.21428571428572" fill="rgb(0, 0, 0)" stroke="rgb(66, 66, 66)" stroke-width="1px" opacity="0.25"></line><line x1="0" y1="50.57142857142859" x2="280" y2="50.57142857142859" fill="rgb(0, 0, 0)" stroke="rgb(66, 66, 66)" stroke-width="1px" opacity="0.25"></line><line x1="0" y1="37.92857142857143" x2="280" y2="37.92857142857143" fill="rgb(0, 0, 0)" stroke="rgb(66, 66, 66)" stroke-width="1px" opacity="0.25"></line><line x1="0" y1="25.285714285714274" x2="280" y2="25.285714285714274" fill="rgb(0, 0, 0)" stroke="rgb(66, 66, 66)" stroke-width="1px" opacity="0.25"></line><line x1="0" y1="12.642857142857157" x2="280" y2="12.642857142857157" fill="rgb(0, 0, 0)" stroke="rgb(66, 66, 66)" stroke-width="1px" opacity="0.25"></line><line x1="0" y1="0" x2="280" y2="0" fill="rgb(0, 0, 0)" stroke="rgb(66, 66, 66)" stroke-width="1px" opacity="0.25"></line></g></g></g><g><g><line x1="0" y1="164.35714285714286" x2="280" y2="164.35714285714286" fill="rgb(0, 0, 0)" stroke="rgb(153, 153, 153)" stroke-width="1.5px"></line></g></g><g><g><line x1="31.11111111111111" y1="0" x2="31.11111111111111" y2="177" fill="rgb(0, 0, 0)" stroke="rgb(153, 153, 153)" stroke-width="1.5px"></line></g></g><g><g><g><g><g><path stroke="rgb(255, 112, 67)" stroke-width="2px" d="M31.39111111111111,18.731283954211648L31.842222222222222,18.237966803567762L32.07555555555555,18.146199104737285L32.09111111111111,18.386980325108805L32.215555555555554,18.499570085447615L32.495555555555555,18.47834389559489L32.71333333333333,18.23040275048369L32.775555555555556,18.158514706191298L33.102222222222224,18.21532527680747L33.13333333333333,17.987399862013046L33.553333333333335,18.064091211938983L33.6,18.0579323869935L33.66222222222222,18.059901853983202L33.78666666666667,18.14943974126152L34.08222222222222,18.341104372232476L34.26888888888889,18.321497733930467L34.67333333333333,18.281265498237975L34.906666666666666,18.242075612246204L34.922222222222224,18.32018823375325L35.14,18.400741719743817L35.32666666666667,18.30122971599809L35.49777777777778,18.32041500042112L35.544444444444444,18.225526688914172L36.02666666666667,18.2979260085146L36.07333333333333,18.395888050071427L36.49333333333333,18.22511430949475L36.68,18.420824324944586L36.80444444444444,18.452035372266213L36.99111111111112,18.238679501877144L37.11555555555556,18.254713049606703L37.364444444444445,18.325589626852434L37.56666666666666,18.031726577801496L37.89333333333333,18.339582458999082L37.90888888888889,18.419923099287722L38.04888888888889,18.40934878627947L38.282222222222224,18.56270139229387L38.34444444444445,18.574321785798315L38.5,18.430923048799468L38.577777777777776,18.53749706845673L38.593333333333334,18.292988975664965L39.044444444444444,18.46587141925738L39.07555555555555,18.495708530323313L39.09111111111111,18.525794565365857L39.40222222222222,18.304668141888996L39.48,18.508302878878872L39.511111111111106,18.67485409982872L39.76,18.442694250213172L39.85333333333333,18.259618762920667L40.28888888888889,18.22917595135551L40.35111111111111,18.369076196119575L40.382222222222225,18.43728776713456L40.89555555555555,18.365269187162163L41.019999999999996,18.3032669426277L41.11333333333334,18.27192537962473L41.128888888888895,18.357384803340768L41.346666666666664,18.364832651370037L41.486666666666665,18.181969138747675L41.611111111111114,18.41896092971424L42.32666666666667,18.426543750560143L42.388888888888886,18.5000423590942L42.995555555555555,18.224307053465715L43.16666666666667,18.387254901635124L43.275555555555556,18.343472456536333L43.36888888888889,18.430630798783582L43.617777777777775,18.343900626857504L44.05333333333333,18.437633686552402L44.44222222222222,18.48844176812083L44.58222222222222,18.479632306083435L44.89333333333333,18.186789197231256L45.76444444444444,18.049051354402657L46.651111111111106,18.074446903852106L46.72888888888889,18.230849558141593L46.900000000000006,18.395442613379196L47.00888888888889,18.390295800048317L47.07111111111111,18.694122927133296L47.102222222222224,18.584937163523964L47.242222222222225,18.291611541877884L47.53777777777778,18.685166649051627L47.77111111111111,18.668286068456254L47.864444444444445,18.64720378284098L48.19111111111111,18.59744847651132L48.36222222222222,18.695672561314L48.39333333333334,18.369060975066592L48.61111111111111,18.307380733512332L48.72,18.33917079000451L49.01555555555555,18.4955880262183L49.03111111111111,18.47269483740063L49.217777777777776,18.394766560915972L49.373333333333335,18.20171997394451L49.404444444444444,18.443254428356042L49.52888888888889,18.46052586187161L49.668888888888894,18.698859628647273L50.05777777777778,18.500696287518565L50.166666666666664,18.648900728716228L50.49333333333334,18.828035125481776L50.586666666666666,18.570219740308513L50.61777777777778,18.75050275455715L50.66444444444444,18.48722738412077L50.72666666666667,18.502288553296996L50.82,18.570875608261687L50.882222222222225,18.35891773899571L50.96,18.487638325521953L51.30222222222223,18.702509280375693L51.72222222222223,18.451625028195057L52.03333333333333,18.415794317432326L52.266666666666666,18.61290440657792L52.32888888888888,18.45916074675613L52.5,18.663774087715183L52.51555555555556,18.633892315014435L53.15333333333333,18.487620725094395L53.495555555555555,18.73406438631789L53.775555555555556,18.70758996028631L53.791111111111114,18.707675023872934L54.351111111111116,18.481485358987122L54.47555555555556,18.42190654829543L54.6,18.60743241164327L54.64666666666666,18.584696334236604L55.191111111111105,18.668874492937846L55.23777777777778,18.76093641816391L55.455555555555556,18.799582909934582L55.50222222222222,18.637626959575083L55.580000000000005,18.482904525812188L55.766666666666666,18.747240557458568L55.937777777777775,18.803223618380184L56.42,18.637002064465086L56.544444444444444,18.63332859071239L57.08888888888889,18.579254569109008L57.32222222222222,18.633272108901373L57.586666666666666,18.548028786036106L57.61777777777778,18.7871470581948L57.66444444444445,18.622816604547978L57.72666666666667,18.554180395195573L58.72222222222222,18.54734351303984L58.75333333333334,18.675297517834117L58.94,18.589641780070412L58.986666666666665,18.42709933288468L59.842222222222226,18.63167224098361L59.904444444444444,18.557413915552264L60.044444444444444,18.7016440304946L60.15333333333333,18.545013132349222L60.65111111111111,18.62585750295341L60.69777777777778,18.872529712332454L60.791111111111114,18.851636226610808L60.80666666666667,18.706772714806903L61.04,18.865639980322385L61.22666666666667,18.826595257844566L61.288888888888884,19.038301288901266L61.36666666666667,19.05156552610478L61.397777777777776,18.6799764724491L61.6,18.795594350299044L61.61555555555556,18.76021240018143L61.89555555555556,18.643731601780093L63.31111111111112,18.771779623561102L63.45111111111112,18.839963447071064L63.60666666666666,18.83969851196823L63.77777777777778,18.91322693401331L64.0111111111111,18.789037977130324L64.07333333333334,18.71492248954925L64.38444444444444,18.837583633216667L65.24000000000001,18.90520599260219L65.47333333333333,18.77817874245987L65.56666666666666,18.748334261052975L65.94,18.62610895343442L66.01777777777778,18.834393045182516L67.18444444444444,18.759335080736758L67.54222222222222,19.078378551319407L67.80666666666667,18.89842576910823L68.35111111111111,18.971323679096685L69.00444444444445,18.99095411738757L69.08222222222223,19.01188979956679L69.28444444444445,18.939080429836853L69.40888888888888,18.93077053933088L69.45555555555556,18.831184063776224L69.76666666666667,19.125153320258622L69.96888888888888,18.963482022334876L70.04666666666667,18.847754461454343L70.26444444444445,18.636814999598204L70.29555555555555,19.045179644322857L70.46666666666667,18.959874224124246L71.02666666666666,18.9991378188308L71.19777777777777,19.02529429538958L71.21333333333334,18.967758970607512L71.54,18.818272677493468L71.97555555555554,18.84281654119718L72.10000000000001,18.924297370843878L72.22444444444444,18.761220852675567L72.64444444444443,18.860985899056526L72.70666666666666,19.051448172211533L72.81555555555555,19.10864087353087L72.86222222222223,19.123441967682812L73.00222222222223,19.258115059411317L73.23555555555555,19.146341824866226L73.31333333333333,19.082123375820956L73.37555555555555,19.30047630226737L73.56222222222223,19.305599165552767L73.64,19.23516032935529L73.71777777777778,19.219085196843707L73.73333333333332,19.38612585930625L73.93555555555555,19.40770737757019L73.95111111111112,19.343828013120486L73.96666666666667,19.485972087217117L74.12222222222223,19.311215557748003L74.16888888888889,19.039550718806264L74.32444444444444,19.355571048599877L74.43333333333332,19.16100569793126L74.85333333333332,19.132892701966274L75.19555555555556,19.12319289084832L75.35111111111112,19.215644953128226L75.61555555555556,19.232870853146117L75.63111111111112,19.3524141936133L76.5488888888889,19.494807260380554L77.0311111111111,19.231718598095405L77.07777777777778,19.324992098809542L77.18666666666667,19.44894657039718L77.23333333333333,19.48215005272502L77.35777777777778,19.36330619396237L78.07333333333332,19.38538264597337L78.30666666666667,19.31929837938218L78.50888888888889,19.384201552980702L79.06888888888889,19.32779537146389L79.08444444444444,19.37814083911325L79.38,19.6942115192085L79.39555555555556,19.75694620397506L79.41111111111111,19.94114792219888L79.6288888888889,19.80441260602187L79.64444444444445,19.746503838354155L79.66,19.808686152456193L79.7688888888889,19.573310626192246L80.03333333333333,19.636617082229993L80.4688888888889,19.85380061737999L80.76444444444445,19.77971159552346L80.87333333333333,19.916863248981485L80.9511111111111,19.911769914938922L81.15333333333334,19.848428073797717L81.19999999999999,19.811218742210407L81.33999999999999,19.52664973614482L81.52666666666667,19.619743285813573L81.89999999999999,19.77851337430055L81.94666666666667,19.837911380751L82.53777777777779,19.78514099921172L83.06666666666668,19.863361772160612L83.31555555555556,20.004225604349067L83.59555555555556,19.986523232144613L83.76666666666668,20.12720721185017L83.89111111111112,20.011474637081484L84.06222222222222,20.18990032632282L84.28,20.352629713768543L84.94888888888889,20.313605373917632L85.2911111111111,20.259891106463346L85.30666666666666,20.284958209006973L85.41555555555556,20.28379966513283L85.44666666666666,20.43686960413775L85.55555555555556,20.495855784350677L85.96,20.375896909538206L86.58222222222223,20.46905655953911L86.62888888888888,20.73642905018617L86.73777777777778,20.704667312956907L86.92444444444445,20.68282506477826L87.11111111111111,20.587079885418035L87.31333333333333,20.659687421977843L87.32888888888888,20.7140069378974L87.36,20.791674370552222L87.57777777777777,20.892085971567944L87.95111111111112,20.926385906333376L87.99777777777777,20.87870420975025L88.02888888888889,20.945467391812596L88.06,20.873170579708184L88.10666666666665,20.931404276971815L88.16888888888889,21.01339156542452L88.21555555555555,20.915191086530353L88.51111111111112,20.936782539469657L88.85333333333334,21.081510201869584L88.93111111111111,21.111937338151872L89.41333333333334,21.03281992999728L89.50666666666666,20.996882166433416L89.61555555555555,20.94706956333573L89.64666666666666,21.11651713380352L89.94222222222223,21.207822540065184L90.06666666666666,21.20546686399183L90.96888888888888,21.148059969491136L91,21.430309411238294L91.15555555555555,21.554010637696706L91.29555555555555,21.662485788266387L91.80888888888889,22.0194146335128L91.94888888888889,22.06380701320533L92.01111111111112,22.131557384388895L92.10444444444444,22.27803940047543L92.29111111111112,22.12342881584852L92.33777777777777,22.281566105546958L92.80444444444444,22.307728649534223L92.94444444444444,22.30091544300334L93.03777777777778,22.43317600503148L93.52000000000001,22.588938616771415L93.55111111111111,22.937917719688805L93.69111111111111,23.09964922435347L93.86222222222221,23.11306563749557L93.95555555555555,23.2869316902693L94.06444444444445,23.10154771437434L94.64,23.49040043474207L95.0288888888889,23.502457002952085L95.12222222222222,23.658494484516613L95.21555555555555,23.869595991257995L95.26222222222222,23.7845571370456L95.60444444444444,24.23799368245887L96.14888888888889,24.14613410364253L96.32,24.677726186781808L96.86444444444444,25.049130118088016L97.20666666666666,25.650296270283015L97.25333333333333,25.92406980787207L97.33111111111111,25.561562282835943L98.28,26.390047247151696L98.35777777777778,26.931375975658312L98.43555555555555,27.73366721415082L98.52888888888889,27.941796384202505L99.47777777777779,29.13970156513192L99.89777777777779,29.453890510982955L100.1,30.256668366713754L100.22444444444444,31.138633062504383L100.39555555555556,31.990178356037696L100.58222222222223,32.947697011595395L100.94,33.68434094495076L101.03333333333333,35.16891666288505L101.5,36.16375765480935L101.65555555555557,36.3557041721245L101.71777777777777,36.537970223230175L102.10666666666665,37.96798463782364L102.16888888888889,39.07839201590408L102.26222222222222,40.19827835126173L102.80666666666666,39.541437880093845L102.85333333333334,40.86811454902929L103.42888888888889,42.98325010255056L103.58444444444444,45.93895141465794L103.88,46.35993773705902L104.00444444444445,47.34401380740744L104.06666666666666,48.30431006811517L104.09777777777778,48.656221482785426L104.19111111111111,49.82896366250712L104.33111111111111,51.02156933863284L104.47111111111111,51.34221828753202L104.68888888888888,52.465306494424304L104.79777777777777,54.59412201272819L105.14,54.146594235038435L105.24888888888889,55.2055567095237L105.34222222222223,55.461718170360996L105.40444444444445,57.41171305687205L105.42,57.97339872732916L105.84,57.49719030985331L105.88666666666666,59.821323704126634L105.99555555555555,58.91857560871516L106.24444444444444,60.66567266565505L106.27555555555556,61.318133255476276L106.32222222222222,63.202127268011374L106.33777777777777,64.19811036507275L106.46222222222222,64.17554882274347L107.05333333333334,67.54223597198208L107.25555555555555,71.6379952575874L107.4888888888889,71.25804649270248L107.78444444444443,76.30888027577458L107.84666666666666,77.22706717286962L107.95555555555555,75.78286462702175L108.09555555555555,76.52785897914404L108.57777777777778,78.76091405038053L108.74888888888889,79.06445760555616L109.24666666666667,82.93590839010722L109.62,84.962787440092L109.91555555555556,88.65756721110807L110.11777777777777,91.4448868271978L110.13333333333333,90.0390082126081L110.25777777777778,92.15027999772803L110.28888888888889,92.02154642791344L110.94222222222221,94.00622371022662L111.00444444444445,96.33923877502623L111.06666666666666,94.60056694624765L111.23777777777778,95.56303759808678L111.25333333333333,94.84425082782963L111.28444444444445,98.40191500260185L111.30000000000001,95.9926430924588L111.79777777777778,97.37429296124812L111.9688888888889,100.11584515064261L112,101.8921167040085L112.07777777777778,103.26498776580188L112.1088888888889,102.79765144530113L112.28,103.2819499209968L112.3888888888889,104.64584304305599L112.5911111111111,105.89107953300545L112.82444444444444,106.0081786270936L112.96444444444444,105.65721639302798L113.0111111111111,106.79840735891204L113.47777777777779,107.40134268836566L113.83555555555556,111.112243074055L113.85111111111111,114.64457009393219L113.89777777777778,111.56529821762673L113.92888888888889,111.33859527678544L113.99111111111111,110.45772386448621L114.08444444444444,110.96734278712891L114.52,115.11006223746674L114.64444444444445,117.71688954755219L115.00222222222222,119.5504365129742L115.14222222222222,120.92549224022721L115.15777777777778,115.76924187563645L115.8111111111111,117.81043610433129L115.9511111111111,119.00213559373422L116.02888888888889,119.4313114807686L116.72888888888889,119.69874458380909L116.80666666666667,122.7828401412952L116.99333333333334,124.27152817423614L117.36666666666667,124.35205771823294L117.70888888888888,125.11006036153606L118.28444444444445,126.41853055209619L119.04666666666668,126.02812317265351L119.26444444444445,130.20285356280885L120.13555555555556,128.32007022386261L120.24444444444445,129.16459722501745L120.66444444444446,131.9396834793082L120.67999999999999,131.63950649973953L121.03777777777778,130.9643977953199L121.16222222222223,128.61853392390208L121.83111111111111,127.7563809090636L122.36,129.63317095668376L122.56222222222223,130.11378106731928L122.60888888888888,131.52118948767128L123.63555555555556,133.53619265189067L123.76,131.05934537769392L123.88444444444444,131.69122328353546L124.14888888888889,134.22579565810165L124.28888888888889,134.06842317425267L124.39777777777778,132.45334059485486L124.49111111111111,130.9615585509546L124.58444444444444,134.42287605000607L125.14444444444443,134.08143946013408L125.2688888888889,135.63633476101577L125.65777777777778,134.5374899019706L125.67333333333333,135.73985270150519L126.17111111111112,136.54232846193324L126.20222222222223,136.1753969639111L126.51333333333332,138.8178901114377L126.59111111111112,139.49344809879736L126.62222222222223,136.6290966733942L126.65333333333332,140.8908208706766L127.05777777777777,138.28760595995638L127.63333333333333,137.11957866817644L127.72666666666666,138.49514605836316L127.94444444444444,141.82338579863625L128.22444444444443,143.05267084717087L128.78444444444443,140.51137939994277L128.81555555555556,142.36455583004715L128.92444444444445,140.48739098736212L129.06444444444443,140.67512898751664L129.11111111111111,142.7485717711789L129.54666666666668,141.33675377152306L129.60888888888888,140.9127557840293L129.64000000000001,141.38523543021012L129.8422222222222,141.82798710549432L130.01333333333332,141.01094585792669L130.0288888888889,142.1764370602839L130.10666666666665,138.33421100733372L130.18444444444444,136.48091368071L130.76000000000002,134.823615191104L131.04000000000002,137.37308347940905L131.33555555555554,139.3472625060109L131.58444444444444,139.22721221108603L131.8022222222222,138.90203952824692L132.0822222222222,141.97054381647223L132.1288888888889,142.16661308948449L132.6577777777778,140.61696382097668L132.70444444444445,140.13673783125694L132.84444444444443,137.8606894505667L132.9377777777778,141.33297502524965L133.01555555555555,138.14735861649783L133.2177777777778,140.70059611645317L133.29555555555555,140.58503359703406L133.54444444444445,140.50657106981728L133.6222222222222,141.03237331920212L133.7,140.59649942525235L133.76222222222222,143.2216623463427L134.01111111111112,143.00166177721843L134.54,141.71658244967816L134.91333333333333,142.2549696885539L135.56666666666666,142.92705780319613L135.64444444444445,143.0473553107174L135.79999999999998,145.7719088491537L135.86222222222221,145.66409909279997L136.11111111111111,144.89036885914035L136.28222222222223,144.14377218750357L136.65555555555557,143.74422145389715L136.92,147.0947822307028L137.21555555555557,144.791940717368L137.54222222222222,145.98632589402203L137.57333333333332,143.67685798232625L137.66666666666666,145.8492648865275L137.80666666666667,146.11650243451294L138.05555555555557,146.60156936930818L138.66222222222223,147.7116329924638L138.69333333333333,148.04258852255876L138.74,147.37523561747392L138.91111111111113,143.2139851444284L139.02,141.43247511772802L139.61111111111111,143.67044113322618L139.86,146.4663457489113L139.93777777777777,146.58943054942318L139.9688888888889,145.64811007216676L140.28,147.33219742710736L140.45111111111112,147.98898069479418L140.68444444444447,141.3394052479339L140.84,143.92261991803738L141.82,146.7607603020619L141.86666666666667,148.68438151504358L141.96,147.70810312133204L142.5511111111111,145.83197795042668L142.75333333333333,146.76517432998327L142.76888888888888,147.63335702205976L142.8,149.22177627784606L142.89333333333332,150.52469821505733L142.94,145.78286408452556L143.22,148.42259840707996L143.5,147.21906626036093L143.87333333333333,147.97094067605246L143.93555555555557,148.62610915874018L144.1222222222222,149.2266643762776L144.26222222222222,147.47262461901835L144.7911111111111,146.4888836694172L145.19555555555556,146.99349552790503L145.2577777777778,147.1184827130192L145.28888888888886,146.68686371520653L145.4911111111111,148.69635279887785L145.56888888888886,148.5449494280109L145.70888888888888,150.1722828784485L145.98888888888888,153.00153604786135L146.59555555555556,153.4002892319507L146.76666666666668,151.14448653126638L146.78222222222223,151.64013404058912L147.21777777777777,152.06093293713886L147.28,151.2435398063587L147.3111111111111,152.27548191701248L147.49777777777777,152.74314019959667L147.8711111111111,151.26930115407745L148.05777777777777,151.49787057851236L148.18222222222224,151.21637379092945L148.27555555555557,153.21887072217535L148.44666666666666,151.45389783471356L148.57111111111112,150.76886302754428L148.60222222222222,150.6294422896215L148.69555555555553,152.08108445414953L149.22444444444443,152.67309099637046L149.36444444444447,152.85981219872238L149.39555555555555,152.29001658307723L149.44222222222223,150.85742819056384L149.92444444444442,153.08024346932197L149.94,155.01566784316384L150.01777777777778,155.17673477882877L150.26666666666665,154.48607840877187L150.28222222222223,151.51887350268865L151.21555555555554,152.79141649000468L151.3088888888889,153.20147584825614L151.35555555555555,152.80164438371065L151.76000000000002,153.97427892445617L151.83777777777777,153.21348681178574L152.3511111111111,154.86903573328954L152.36666666666667,154.23048295402774L152.7711111111111,153.6723128550987L153.03555555555556,153.94535129927044L153.0977777777778,154.96472690287413L153.22222222222223,154.63472699564036L153.29999999999998,154.06148273398992L153.31555555555556,154.66260113039496L153.4088888888889,153.67872798956475L153.72,155.79158032142206L153.92222222222222,156.4403177777968L154.01555555555555,154.11779217260477L154.40444444444444,155.19730730747477L154.45111111111112,155.66144543823776L155.33777777777777,156.21607495743058L156.0222222222222,154.95925427188715L156.05333333333334,156.31699897516768L156.2711111111111,156.98924951100605L156.39555555555557,156.70720332725543L156.75333333333333,156.4443283456103L156.76888888888888,157.65749452001498L157.04888888888888,156.47691123562754L157.45333333333335,157.18921669435835L157.79555555555555,157.6502357008511L158.0911111111111,158.06172593493275L158.10666666666665,158.13680184987024L158.54222222222222,156.9738453743695L158.66666666666666,156.78224308809953L158.68222222222224,155.23659811415777L158.91555555555556,157.16943346835848L159.11777777777777,158.4921343124498L159.13333333333333,158.43417785040927L159.52222222222224,157.28391490434473L159.86444444444444,158.39668244454182L159.95777777777778,158.5138601463441L160.00444444444443,158.20473861276955L160.08222222222224,156.89373808933917L160.16,157.03916855312704L160.23777777777778,156.10518167538407L160.98444444444445,156.8203045558595L161.0311111111111,157.05600033484737L161.20222222222222,156.4819874563216L161.42000000000002,157.48225201529087L161.7311111111111,156.88031259394776L161.9488888888889,156.4493473572558L162.02666666666667,156.0909943952831L162.66444444444446,154.659533793779L162.7266666666667,157.568464923468L163.19333333333333,157.9110343517974L163.39555555555557,157.19718020119672L163.66,158.01207252162595L163.79999999999998,158.83366951599743L164.07999999999998,159.85671762475812L164.17333333333335,159.65346884744176L164.31333333333333,158.92050525321932L164.98222222222222,159.7146385625393L165.1688888888889,159.69775665409L165.2,158.29689872456143L165.30888888888887,158.30139288719027L165.80666666666664,158.9159115428658L165.86888888888888,159.97325969965988L166.35111111111112,157.9860961391433L166.44444444444446,157.7404831381979L166.72444444444443,158.63987440340347L166.81777777777776,157.1546307936808L167.25333333333336,156.61017380312938L167.28444444444443,157.75103387308206L167.62666666666667,159.11822592754842L167.65777777777777,159.2376413032649L167.81333333333336,160.27892865014218L167.98444444444442,160.148134566124L168.31111111111113,160.86498189525346L168.35777777777778,160.7501162775038L168.51333333333332,160.20861469433774L169.01111111111112,159.6719064136339L169.0888888888889,160.47696658971012L169.1977777777778,160.1707045797916L169.3688888888889,157.58133735742638L169.4622222222222,157.63719185114357L169.82000000000002,157.2586453626779L169.88222222222223,158.00563473481444L170.17777777777778,157.20812319206303L170.5822222222222,157.46981806428067L170.64444444444445,159.2609417614944L170.78444444444443,158.6191152286806L170.8777777777778,159.921884379991L170.95555555555555,159.572848568257L171.20444444444445,158.250328534354L171.62444444444444,160.0340991750521L171.87333333333333,158.78886206082902L172.01333333333332,158.88634439040663L172.1222222222222,159.5703749312725L172.2,160.10880543452387L172.9311111111111,159.8660976057676L172.99333333333334,160.2612095827119L173.47555555555556,160.24629024399005L173.66222222222223,159.89586249515736L174.06666666666666,159.39171105361604L174.11333333333334,159.5844574433619L174.22222222222223,159.12225569750055L174.26888888888888,160.16962877363503L174.34666666666666,159.34481231625912L174.4088888888889,159.5032779647131L174.56444444444446,158.61562656068406L174.62666666666667,159.4769523049467L174.7511111111111,158.919569178228L175.0311111111111,160.16294701336798L175.63777777777779,160.9307305917764L175.82444444444442,161.46047606672025L175.85555555555555,161.85729309319277L175.96444444444444,162.19959694571088L176.12,162.16910294580677L176.13555555555556,161.28700549280433L176.1977777777778,160.94358603752556L176.29111111111112,161.07524499982878L176.33777777777777,161.1805287716278L176.4777777777778,160.4695226803202L176.58666666666667,159.90047262680065L176.69555555555556,159.34996056067152L176.7888888888889,160.44210093536583L176.80444444444444,159.0173972436192L176.89777777777778,160.585614858994L176.97555555555556,159.74125462366035L177.13111111111112,158.2719455724531L177.28666666666666,158.91386754839775L177.61333333333332,160.74684812209784L177.97111111111113,161.2000112923745L178.0022222222222,160.5428787676296L178.20444444444445,161.31728515974845L178.42222222222222,161.75490497205098L178.45333333333332,161.42779420535402L178.70222222222222,159.3719642669341L178.7177777777778,160.34023632852237L178.73333333333332,161.10125594531723L179.20000000000002,161.00604843134676L179.48000000000002,160.52206842643446L179.61999999999998,161.529502981409L179.76,161.65310689345273L179.91555555555556,159.0219250889735L179.99333333333334,160.06488124455566L180.33555555555557,160.88015613085787L180.45999999999998,160.90645108745554L180.55333333333334,159.84949842064074L180.75555555555556,160.362879855743L181.26888888888888,160.96159309963468L181.54888888888888,161.38760937398297L181.56444444444446,159.44756087364416L181.61111111111111,159.49134314393282L181.81333333333333,157.39028720544658L181.87555555555556,159.8299259198846L182.06222222222223,160.47584439896679L182.07777777777775,160.98259773729694L182.18666666666664,161.25590471510307L182.56,160.36406849736784L182.5911111111111,161.31421183355468L182.82444444444445,159.22816553341895L182.84,160.65130619828645L183.12,161.40717062423118L183.36888888888888,159.4248879730586L183.52444444444447,160.34900591604782L183.75777777777776,159.96768039386623L183.92888888888888,160.44527113741898L184.13111111111112,160.4939912539668L184.33333333333334,161.35605309146754L184.59777777777776,162.1032561380772L184.70666666666665,161.88393399243915L185.01777777777778,161.9498819568349L185.17333333333335,161.90900041139682L185.36,161.59076103468956L185.37555555555554,161.76131881501126L185.85777777777778,160.55471958546207L185.87333333333333,158.53296320548958L185.88888888888889,159.2543111333925L186.04444444444442,159.36224062487693L186.24666666666667,160.7037732538615L186.34,159.82740254346166L186.46444444444444,160.85936068371402L186.55777777777777,157.39052831200894L187.64666666666668,157.62167636984327L188.06666666666666,158.03347042461476L188.5488888888889,159.66823346769954L188.62666666666667,161.1524354631022L188.81333333333333,160.92315698904827L189.60666666666668,159.32162041745121L189.63777777777779,160.16377176522846L189.9022222222222,160.11981306800456L190.01111111111112,161.5781095887333L190.16666666666669,161.5094718570647L190.8511111111111,161.05859201376745L190.94444444444446,161.48995114539414L191.0222222222222,162.0274814419197L191.2711111111111,160.3193075294216L191.89333333333335,160.21105447662248L191.98666666666665,161.28996764673005L192.03333333333333,159.75768498107576L192.04888888888888,160.07186051685767L192.8111111111111,156.17108438470882L192.95111111111112,158.22329119574806L193.12222222222223,159.23125520635713L193.5888888888889,159.87212862949158L193.68222222222224,160.16865438364582L193.6977777777778,161.0652445493519L193.79111111111112,161.05639481698748L194.46,160.79430186628184L194.72444444444443,159.48854939886687L195.08222222222224,159.35110817678597L195.23777777777778,160.12908921277506L195.39333333333332,158.10477637303885L195.58,159.47448996794745L195.70444444444445,158.75369869376735L195.9377777777778,160.48799402000745L196.2177777777778,160.8499318583741L196.51333333333332,160.35795692688689L196.6688888888889,161.54700385591195L196.70000000000002,162.07296542039992L197.66444444444446,162.31422536573697L197.82,162.5630795316085L197.92888888888888,162.39434324582385L198.0066666666667,161.22244189863525L198.25555555555556,158.24939789243754L198.36444444444444,157.56136799929612L198.38,158.78703886434138L198.56666666666666,160.81725329937396L198.66,160.94112982705064L199.2511111111111,161.76406981831897L199.76444444444445,161.4002603344643L200.27777777777777,161.62225824652114L200.62,161.03059568162988L200.68222222222224,161.01999824576598L201.8488888888889,161.09868379518915L202.0511111111111,160.4541446803712L202.56444444444443,161.06080046218142L202.58,161.7500239847605L202.65777777777777,161.78787058587187L202.78222222222223,162.07209315435563L203.06222222222223,161.69960151421625L203.23333333333332,162.66197347781758L203.68444444444444,161.75505752520212L204.05777777777777,160.9309955201789L204.15111111111113,158.83990591156234L204.16666666666666,160.5265557851338L204.26000000000002,160.75585478055993L204.29111111111112,161.8113292447666L204.69555555555556,161.3381621729568L204.86666666666667,162.0817840193629L205.45777777777778,161.01939820702108L205.51999999999998,161.12180915735587L205.61333333333332,161.11549670331138L205.72222222222223,161.91840522780137L205.73777777777778,161.93952577938677L205.92444444444445,161.0374930121305L206.20444444444445,162.12080550959806L206.64,161.4523616413114L206.8111111111111,161.27709226307155L207.15333333333334,161.6239076192704L207.35555555555555,161.46941160026356L207.3711111111111,162.37229880646265L207.49555555555557,162.84682758344096L207.6822222222222,161.36233133682197L207.88444444444445,162.31668513503254L208.3511111111111,162.13159369456434L208.5066666666667,161.66093492077388L208.55333333333334,161.58194135137217L208.58444444444444,160.83880092250848L209.11333333333334,159.9161142554307L209.1911111111111,158.76199650296118L209.22222222222223,160.6337443353447L209.34666666666666,159.55037365306265L209.39333333333335,161.08471309599977L209.42444444444445,161.18497565352826L209.48666666666665,160.63371937232134L209.81333333333333,161.65746099644338L209.84444444444446,159.8087071310231L210.04666666666665,157.81143307443384L210.40444444444447,159.26340893308304L210.42,161.12673842796778L210.8711111111111,161.17896429436436L211.0888888888889,159.32226549975294L211.2133333333333,160.7613484217082L211.72666666666666,161.4373694960963L212.22444444444443,161.69161970164384L212.95555555555555,161.3305793938654L213.04888888888888,161.01961634617467L213.31333333333333,159.0901287061231L213.6711111111111,161.01132434200642L213.88888888888889,160.62651927185038L213.98222222222222,161.9171558050248L214.07555555555555,156.5027610812488L214.1222222222222,158.75916526032194L214.26222222222222,160.41488011937176L214.4177777777778,160.06017620016493L214.4488888888889,160.98945214560672L214.9311111111111,159.830713926875L214.9622222222222,160.53069022745862L215.02444444444444,160.47874573014195L215.2266666666667,160.357811719387L215.3511111111111,161.24816407786648L215.39777777777778,158.79214617370528L215.45999999999998,160.27063348522162L215.70888888888888,160.18086098552826L215.84888888888887,160.17833238622765L215.94222222222223,159.79599352710463L216.01999999999998,159.57961854698925L216.50222222222223,160.7515352616682L216.51777777777775,160.8013396582418L216.59555555555556,160.77153950227066L216.85999999999999,161.5790296983394L217.07777777777775,161.25328772146116L217.09333333333333,158.83578368778763L217.3111111111111,157.29264152330174L217.34222222222223,158.52432071457937L217.42,159.413416800358L217.7,159.72296323135126L217.96444444444447,160.28537623885052L218.05777777777777,156.9977002327948L218.19777777777776,158.60800478690152L218.5088888888889,159.84135778681124L218.66444444444446,160.29997204929572L218.75777777777776,160.33359144485837L218.83555555555554,159.87060918233047L218.96,159.2388969138254L219.87777777777777,159.53337938572616L220.20444444444442,159.15367972969972L220.39111111111112,159.43913226518438L220.5,159.4226226239152L220.56222222222223,160.8622875713449L221.04444444444442,161.60615059140102L221.43333333333334,160.62945235952262L221.48000000000002,161.2573214152384L221.60444444444443,160.27124430581927L221.85333333333332,161.11132194988642L221.9933333333333,159.76011511874967L222.47555555555556,159.60824894466518L222.50666666666666,157.76466770249576L222.5688888888889,159.6139333447246L222.66222222222223,159.26617394858596L222.69333333333333,158.45267989066497L222.7088888888889,159.07444691384757L223.14444444444445,156.89968846489234L223.28444444444443,157.88486697758495L223.36222222222221,159.19157963684356L223.4711111111111,159.22422033875168L223.53333333333333,159.4945247169502L223.90666666666667,160.63042549798038L223.9688888888889,160.22753814102416L224,159.81840287399157L224.32666666666668,160.87056751172503L224.3422222222222,161.10517712605454L224.35777777777778,161.6079695413855L224.57555555555555,158.08550462069198L224.6688888888889,157.2508782502537L224.76222222222222,156.92501011444566L224.80888888888887,157.62848921028552L225.1822222222222,157.33982864776206L225.21333333333334,159.1527782509903L225.24444444444444,160.53710230561248L225.89777777777778,161.05422878210464L226.39555555555557,159.64400008926478L227.12666666666667,157.01838385953886L227.76444444444445,157.91773544912738L227.85777777777778,157.3608852409094L227.93555555555554,159.3071215170144L227.99777777777777,158.4851586875969L228.34,159.8682445881927L228.4488888888889,159.27749344929754L228.79111111111112,157.4582552752945L229.08666666666667,158.40402111491454L229.9422222222222,154.905632459748L230.08222222222224,152.1327339355773L230.95333333333332,156.0877807095637L231.12444444444444,151.75159972722983L231.79333333333332,151.3526607770661L231.85555555555555,151.07449367201818L231.9177777777778,152.77713720832165L232.11999999999998,151.92719085160093L232.4622222222222,154.67560358792747L232.89777777777778,156.55144298302395L232.95999999999998,156.16427653524778L232.9911111111111,156.75179853946355L233.0377777777778,157.3112803805068L233.2866666666667,156.22319445190567L233.48888888888888,155.6210670243367L233.61333333333334,155.50231070854537L233.67555555555558,156.2793382302079L233.70666666666668,155.2816623088809L233.76888888888888,153.25007211872207L233.89333333333335,151.75243728625594L233.90888888888887,149.19137674133668L233.9711111111111,150.51762682193078L234.06444444444446,152.20011791029563L234.07999999999998,153.14057510245948L234.70222222222222,146.74890332992058L234.76444444444445,148.36022710972708L236.25777777777776,149.13139344770207L236.41333333333336,143.20033636487335L236.6,147.6045615307584L236.86444444444447,138.77554853494388L236.97333333333336,139.27776069313114L237.11333333333334,133.31214425230775L237.22222222222223,134.43868409978768L237.39333333333335,126.64195456820893L237.92222222222225,111.79909110327037L238.06222222222223,110.25649269463021L238.76222222222225,-33.90136637663008" style="fill: none;" fill="none"></path></g></g></g></g><g opacity="0.2"><g><g><g><path stroke="rgb(255, 112, 67)" stroke-width="2px" d="M31.39111111111111,18.731283954211648L31.842222222222222,17.941976513181416L32.07555555555555,18.058102113860006L32.09111111111111,18.670139040265767L32.215555555555554,18.646567276545937L32.495555555555555,18.4489804336003L32.71333333333333,17.87584294591632L32.775555555555556,18.05370124748775L33.102222222222224,18.299109833581117L33.13333333333333,17.64895718438285L33.553333333333335,18.17843265192849L33.6,18.048727665628704L33.66222222222222,18.062849623816366L33.78666666666667,18.28357115813664L34.08222222222222,18.628376024109986L34.26888888888889,18.29210160459792L34.67333333333333,18.220934169633058L34.906666666666666,18.183300733566284L34.922222222222224,18.437345266342163L35.14,18.52156458582198L35.32666666666667,18.15196716785431L35.49777777777778,18.349192295755657L35.544444444444444,18.0831960950579L36.02666666666667,18.406524130276267L36.07333333333333,18.54283041613442L36.49333333333333,17.968954426901693L36.68,18.714388847351074L36.80444444444444,18.498851895332336L36.99111111111112,17.918645892824443L37.11555555555556,18.27876336233956L37.364444444444445,18.43190446921757L37.56666666666666,17.59093206269401L37.89333333333333,18.80136624404362L37.90888888888889,18.54043405396598L38.04888888888889,18.393487317221517L38.282222222222224,18.792730297361103L38.34444444444445,18.591752375875203L38.5,18.215824944632406L38.577777777777776,18.697358097348896L38.593333333333334,17.926226837294454L39.044444444444444,18.725195084299358L39.07555555555555,18.540464196886333L39.09111111111111,18.570923617907937L39.40222222222222,17.97297850676945L39.48,18.81375498431069L39.511111111111106,18.92468093122756L39.76,18.094454475811546L39.85333333333333,17.98500553199223L40.28888888888889,18.18351173400879L40.35111111111111,18.57892656326294L40.382222222222225,18.53960512365615L40.89555555555555,18.257241317204063L41.019999999999996,18.210263575826374L41.11333333333334,18.22491303512028L41.128888888888895,18.485573938914712L41.346666666666664,18.37600442341396L41.486666666666665,17.90767386981419L41.611111111111114,18.774448616164083L42.32666666666667,18.43791798182896L42.388888888888886,18.610290271895284L42.995555555555555,17.81070409502303L43.16666666666667,18.63167667388916L43.275555555555556,18.277798788888123L43.36888888888889,18.5613683121545L43.617777777777775,18.213805368968423L44.05333333333333,18.578233276094707L44.44222222222222,18.56465389047351L44.58222222222222,18.466418113027302L44.89333333333333,17.747524533952983L45.76444444444444,17.84244459015983L46.651111111111106,18.112540228026266L46.72888888888889,18.465453539575847L46.900000000000006,18.642332196235657L47.00888888888889,18.382575580051963L47.07111111111111,19.149863617760804L47.102222222222224,18.421158518110005L47.242222222222225,17.85162310940879L47.53777777777778,19.275499309812275L47.77111111111111,18.64296519756317L47.864444444444445,18.61558035441807L48.19111111111111,18.522815517016824L48.36222222222222,18.843008688517983L48.39333333333334,17.879143595695496L48.61111111111111,18.214860371180947L48.72,18.38685587474278L49.01555555555555,18.73021388053894L49.03111111111111,18.438355054174153L49.217777777777776,18.277874146189006L49.373333333333335,17.912150093487327L49.404444444444444,18.805556109973367L49.52888888888889,18.486433012144918L49.668888888888894,19.05636027881077L50.05777777777778,18.2034512758255L50.166666666666664,18.871207390512737L50.49333333333334,19.096736720630105L50.586666666666666,18.183496662548606L50.61777777777778,19.020927275930134L50.66444444444444,18.092314328466145L50.72666666666667,18.52488030706134L50.82,18.6737561907087L50.882222222222225,18.04098093509674L50.96,18.680719205311362L51.30222222222223,19.02481571265629L51.72222222222223,18.075298649924154L52.03333333333333,18.36204825128829L52.266666666666666,18.908569540296284L52.32888888888888,18.2285452570234L52.5,18.97069409915379L52.51555555555556,18.589069655963357L53.15333333333333,18.268213340214317L53.495555555555555,19.103729878153118L53.775555555555556,18.66787832123893L53.791111111111114,18.707802619252888L54.351111111111116,18.142200861658367L54.47555555555556,18.332538332257954L54.6,18.88572120666504L54.64666666666666,18.550592218126567L55.191111111111105,18.795141730989727L55.23777777777778,18.89902930600303L55.455555555555556,18.857552647590637L55.50222222222222,18.39469303403583L55.580000000000005,18.250820875167847L55.766666666666666,19.143744604928163L55.937777777777775,18.887198209762573L56.42,18.387669733592446L56.544444444444444,18.627818380083355L57.08888888888889,18.49814353670394L57.32222222222222,18.714298418590005L57.586666666666666,18.420163801738198L57.61777777777778,19.145824466432842L57.66444444444445,18.376320924077717L57.72666666666667,18.45122608116695L58.72222222222222,18.537088189806255L58.75333333333334,18.867228525025514L58.94,18.461158173424867L58.986666666666665,18.1832856621061L59.842222222222226,18.938531603131977L59.904444444444444,18.446026427405233L60.044444444444444,18.917989202908103L60.15333333333333,18.310066785131184L60.65111111111111,18.7471240588597L60.69777777777778,19.24253802640098L60.791111111111114,18.820295998028342L60.80666666666667,18.489477447101052L61.04,19.103940878595623L61.22666666666667,18.76802817412785L61.288888888888884,19.355860335486287L61.36666666666667,19.071461881910054L61.397777777777776,18.122592891965596L61.6,18.969021167073933L61.61555555555556,18.707139475005025L61.89555555555556,18.46901040417808L63.31111111111112,18.963851656232563L63.45111111111112,18.942239182336L63.60666666666666,18.839301109313965L63.77777777777778,19.02351956708091L64.0111111111111,18.60275454180581L64.07333333333334,18.603749258177633L64.38444444444444,19.021575348717835L65.24000000000001,19.00663953168052L65.47333333333333,18.587637867246357L65.56666666666666,18.703567538942607L65.94,18.442770992006572L66.01777777777778,19.14681918280465L67.18444444444444,18.646748134068076L67.54222222222222,19.55694375719344L67.80666666666667,18.628496595791404L68.35111111111111,19.080670544079368L69.00444444444445,19.020399774823872L69.08222222222223,19.043293322835652L69.28444444444445,18.829866375241963L69.40888888888888,18.91830570357186L69.45555555555556,18.681804350444253L69.76666666666667,19.566107204982217L69.96888888888888,18.72097507544926L70.04666666666667,18.674163120133546L70.26444444444445,18.320405806813923L70.29555555555555,19.65772661140987L70.46666666666667,18.831916093826294L71.02666666666666,19.058033210890645L71.19777777777777,19.064529010227744L71.21333333333334,18.881455983434407L71.54,18.594043237822408L71.97555555555554,18.879632336752767L72.10000000000001,19.046518615313943L72.22444444444444,18.516606075423116L72.64444444444443,19.01063346862793L72.70666666666666,19.337141581944053L72.81555555555555,19.194429925509866L72.86222222222223,19.145643608910706L73.00222222222223,19.460124697004048L73.23555555555555,18.978681973048623L73.31333333333333,18.98579570225307L73.37555555555555,19.628005691937034L73.56222222222223,19.313283460480836L73.64,19.129502075059083L73.71777777777778,19.194972498076314L73.73333333333332,19.6366868530001L73.93555555555555,19.440079654966084L73.95111111111112,19.248008966445923L73.96666666666667,19.69918819836208L74.12222222222223,19.049080763544353L74.16888888888889,18.632053460393635L74.32444444444444,19.829601543290284L74.43333333333332,18.869157671928406L74.85333333333332,19.090723208018716L75.19555555555556,19.108643174171448L75.35111111111112,19.354323046548036L75.61555555555556,19.258709703172954L75.63111111111112,19.531729204314107L76.5488888888889,19.708396860531394L77.0311111111111,18.837085604667664L77.07777777777778,19.46490234988076L77.18666666666667,19.634878277778625L77.23333333333333,19.531955276216777L77.35777777777778,19.1850404058184L78.07333333333332,19.418497323989868L78.30666666666667,19.22017197949546L78.50888888888889,19.48155631337848L79.06888888888889,19.24318609918868L79.08444444444444,19.4536590405873L79.38,20.16831753935134L79.39555555555556,19.851048231124878L79.41111111111111,20.217450499534607L79.6288888888889,19.59930963175637L79.64444444444445,19.6596406868526L79.66,19.901959623609272L79.7688888888889,19.220247336796348L80.03333333333333,19.73157676628658L80.4688888888889,20.17957592010498L80.76444444444445,19.66857806273869L80.87333333333333,20.12259072916848L80.9511111111111,19.90412991387504L81.15333333333334,19.753415312085835L81.19999999999999,19.75540474482945L81.33999999999999,19.099796227046426L81.52666666666667,19.75938361031669L81.89999999999999,20.016668507031028L81.94666666666667,19.927008390426636L82.53777777777779,19.70598542690277L83.06666666666668,19.980692931583945L83.31555555555556,20.215521352631715L83.59555555555556,19.959969673837932L83.76666666666668,20.33823318140847L83.89111111111112,19.837875774928506L84.06222222222222,20.457538860184815L84.28,20.596723794937134L84.94888888888889,20.255068864141194L85.2911111111111,20.17931970528194L85.30666666666666,20.322558862822408L85.41555555555556,20.282061849321636L85.44666666666666,20.66647451264518L85.55555555555556,20.584335054670063L85.96,20.19595859731948L86.58222222222223,20.608796034540447L86.62888888888888,21.1374877861568L86.73777777777778,20.657024707112996L86.92444444444445,20.650061692510334L87.11111111111111,20.443462116377706L87.31333333333333,20.768598726817544L87.32888888888888,20.795486211776733L87.36,20.908175519534524L87.57777777777777,21.042703373091573L87.95111111111112,20.977835808481487L87.99777777777777,20.80718166487557L88.02888888888889,21.04561216490609L88.06,20.764725361551555L88.10666666666665,21.01875482286727L88.16888888888889,21.136372498103555L88.21555555555555,20.76789036818913L88.51111111111112,20.96916971887862L88.85333333333334,21.298601695469443L88.93111111111111,21.157578042575295L89.41333333333334,20.914143817765382L89.50666666666666,20.942975521087646L89.61555555555555,20.87235065868923L89.64666666666666,21.370688489505227L89.94222222222223,21.34478064945766L90.06666666666666,21.201933349881855L90.96888888888888,21.061949627740052L91,21.85368357385909L91.15555555555555,21.739562477384297L91.29555555555555,21.82519851412093L91.80888888888889,22.554807901382446L91.94888888888889,22.130395582744057L92.01111111111112,22.233182941164287L92.10444444444444,22.497762424605245L92.29111111111112,21.891512938908164L92.33777777777777,22.518772040094646L92.80444444444444,22.346972465515137L92.94444444444444,22.29069563320705L93.03777777777778,22.63156684807369L93.52000000000001,22.822582534381326L93.55111111111111,23.46138637406486L93.69111111111111,23.342246481350486L93.86222222222221,23.1331902572087L93.95555555555555,23.54773076942989L94.06444444444445,22.82347175053188L94.64,24.073679515293662L95.0288888888889,23.520541855267112L95.12222222222222,23.892550706863403L95.21555555555555,24.186248251370017L95.26222222222222,23.65699885572707L95.60444444444444,24.918148500578756L96.14888888888889,24.00834473541805L96.32,25.475114311490742L96.86444444444444,25.606236015047344L97.20666666666666,26.55204549857548L97.25333333333333,26.334730114255635L97.33111111111111,25.01780099528176L98.28,27.632774693625326L98.35777777777778,27.743369068418232L98.43555555555555,28.937104071889607L98.52888888888889,28.25399013928005L99.47777777777779,30.936559336526063L99.89777777777779,29.92517392975944L100.1,31.460835150309975L100.22444444444444,32.46158010619027L100.39555555555556,33.26749629633767L100.58222222222223,34.383974994931904L100.94,34.789306844983784L101.03333333333333,37.39578023978642L101.5,37.65601914269584L101.65555555555557,36.64362394809723L101.71777777777777,36.81136929988861L102.10666666666665,40.113006259713856L102.16888888888889,40.74400308302471L102.26222222222222,41.87810785429818L102.80666666666666,38.55617717334202L102.85333333333334,42.85812955243247L103.42888888888889,46.15595343283245L103.58444444444444,50.37250338281903L103.88,46.99141722066062L104.00444444444445,48.820127912930076L104.06666666666666,49.74475445917675L104.09777777777778,49.18408860479083L104.19111111111111,51.58807693208968L104.33111111111111,52.81047785282137L104.47111111111111,51.82319171088084L104.68888888888888,54.14993880476271L104.79777777777777,57.78734529018404L105.14,53.47530256850379L105.24888888888889,56.79400042125159L105.34222222222223,55.84596036161696L105.40444444444445,60.33670538663866L105.42,58.81592723301481L105.84,56.78287768363955L105.88666666666666,63.3075237955366L105.99555555555555,57.56445346559798L106.24444444444444,63.28631825106486L106.27555555555556,62.296824140208116L106.32222222222222,66.02811828681402L106.33777777777777,65.69208501066481L106.46222222222222,64.14170650924956L107.05333333333334,72.59226669584002L107.25555555555555,77.78163418599539L107.4888888888889,70.68812334537508L107.78444444444443,83.88513095038279L107.84666666666666,78.60434751851218L107.95555555555555,73.61656080824989L108.09555555555555,77.64535050732749L108.57777777777778,82.11049665723529L108.74888888888889,79.51977293831962L109.24666666666667,88.74308456693377L109.62,88.00310601506915L109.91555555555556,94.1997368676322L110.11777777777777,95.62586625133243L110.13333333333333,87.93019029072353L110.25777777777778,95.31718767540796L110.28888888888889,91.82844607319151L110.94222222222221,96.98323963369643L111.00444444444445,99.83876137222563L111.06666666666666,91.99255920307978L111.23777777777778,97.00674357584546L111.25333333333333,93.76607067244394L111.28444444444445,103.73841126476016L111.30000000000001,92.37873522724425L111.79777777777778,99.4467677644321L111.9688888888889,104.22817343473434L112,104.55652403405736L112.07777777777778,105.3242943584919L112.1088888888889,102.09664696455002L112.28,104.0083976345403L112.3888888888889,106.69168272614479L112.5911111111111,107.75893426792963L112.82444444444444,106.18382726822581L112.96444444444444,105.13077304192953L113.0111111111111,108.51019380773818L113.47777777777779,108.30574568254607L113.83555555555556,116.67859365258899L113.85111111111111,119.94306062374797L113.89777777777778,106.94639040316855L113.92888888888889,110.99854086552348L113.99111111111111,109.13641674603736L114.08444444444444,111.73177117109299L114.52,121.3241414129734L114.64444444444445,121.62713051268034L115.00222222222222,122.30075696110725L115.14222222222222,122.98807583110673L115.15777777777778,108.03486632875035L115.8111111111111,120.87222744737353L115.9511111111111,120.78968482783864L116.02888888888889,120.07507531132018L116.72888888888889,120.09989423836981L116.80666666666667,127.40898347752434L116.99333333333334,126.50456022364753L117.36666666666667,124.4728520342282L117.70888888888888,126.24706432649069L118.28444444444445,128.3812358379364L119.04666666666668,125.44251210348946L119.26444444444445,136.46494914804188L120.13555555555556,125.4958952154432L120.24444444444445,130.4313877267497L120.66444444444446,136.10231286074435L120.67999999999999,131.1892410303865L121.03777777777778,129.95173473869053L121.16222222222223,125.09973811677526L121.83111111111111,126.46315138680595L122.36,132.44835602811406L122.56222222222223,130.83469623327255L122.60888888888888,133.63230211819922L123.63555555555556,136.5586973982198L123.76,127.34407446639878L123.88444444444444,132.63904014229774L124.14888888888889,138.02765421995096L124.28888888888889,133.83236444847927L124.39777777777778,130.03071672575814L124.49111111111111,128.72388548510415L124.58444444444444,139.61485229858332L125.14444444444443,133.56928457532612L125.2688888888889,137.96867771233832L125.65777777777778,132.88922261340278L125.67333333333333,137.54339690080712L126.17111111111112,137.7460421025753L126.20222222222223,135.62499971687794L126.51333333333332,142.7816298327276L126.59111111111112,140.50678507983685L126.62222222222223,132.3325695352895L126.65333333333332,147.28340716660023L127.05777777777777,134.38278359387604L127.63333333333333,135.3675377305065L127.72666666666666,140.55849714364325L127.94444444444444,146.81574540904592L128.22444444444443,144.89659841997283L128.78444444444443,136.69944222910064L128.81555555555556,145.14432047520367L128.92444444444445,137.6716437233346L129.06444444444443,140.95673598774843L129.11111111111111,145.8587359466723L129.54666666666668,139.21902677203929L129.60888888888888,140.2767588027886L129.64000000000001,142.09395489948136L129.8422222222222,142.4921146184206L130.01333333333332,139.78538398657528L130.0288888888889,143.92467386381966L130.10666666666665,132.57087192790848L130.18444444444444,133.70096769077438L130.76000000000002,132.33766745669502L131.04000000000002,141.1972859118666L131.33555555555554,142.3085310459137L131.58444444444444,139.0471367686987L131.8022222222222,138.41428050398827L132.0822222222222,146.57330024881023L132.1288888888889,142.46071699900287L132.6577777777778,138.29248991821495L132.70444444444445,139.41639884667737L132.84444444444443,134.44661687953132L132.9377777777778,146.54140338727404L133.01555555555555,133.36893400337016L133.2177777777778,144.53045236638616L133.29555555555555,140.41168981790543L133.54444444444445,140.3888772789921L133.6222222222222,141.82107669327942L133.7,139.9426885843277L133.76222222222222,147.15940672797817L134.01111111111112,142.67166092353207L134.54,139.78896345836776L134.91333333333333,143.06255054686753L135.56666666666666,143.93518997515952L135.64444444444445,143.2278015719993L135.79999999999998,149.85873915680816L135.86222222222221,145.50238445826938L136.11111111111111,143.72977350865094L136.28222222222223,143.0238771800484L136.65555555555557,143.14489535348756L136.92,152.12062339591128L137.21555555555557,141.33767844736576L137.54222222222222,147.77790365900313L137.57333333333332,140.21265611478262L137.66666666666666,149.10787524282932L137.80666666666667,146.51735875649112L138.05555555555557,147.329169771501L138.66222222222223,149.37672842719724L138.69333333333333,148.5390218177012L138.74,146.3742062598467L138.91111111111113,136.9721094348601L139.02,138.76021007767747L139.61111111111111,147.02739015647342L139.86,150.66020267243897L139.93777777777777,146.774057750191L139.9688888888889,144.2361293562821L140.28,149.8583284595183L140.45111111111112,148.97415559632438L140.68444444444447,131.36504207764355L140.84,147.79744192319257L141.82,151.0179708780987L141.86666666666667,151.5698133345161L141.96,146.24368553076474L142.5511111111111,143.01779019406865L142.75333333333333,148.16496889931815L142.76888888888888,148.93563106017453L142.8,151.6044051615255L142.89333333333332,152.47908112087418L142.94,138.67011288872789L143.22,152.38219989091158L143.5,145.4137680402824L143.87333333333333,149.0987522995898L143.93555555555557,149.60886188277175L144.1222222222222,150.12749720258373L144.26222222222222,144.8415649831295L144.7911111111111,145.01327224501543L145.19555555555556,147.7504133156368L145.2577777777778,147.3059634906905L145.28888888888886,146.03943521848748L145.4911111111111,151.71058642438481L145.56888888888886,148.31784437171052L145.70888888888888,152.61328305410487L145.98888888888888,157.24541580198067L146.59555555555556,153.9984190080847L146.76666666666668,147.76078248023987L146.78222222222223,152.38360530457328L147.21777777777777,152.6921312819634L147.28,150.01745011018855L147.3111111111111,153.8233950829932L147.49777777777777,153.4446276234729L147.8711111111111,149.05854258579868L148.05777777777777,151.84072471516473L148.18222222222224,150.79412860955512L148.27555555555557,156.22261611904418L148.44666666666666,148.80643850352084L148.57111111111112,149.74131081679036L148.60222222222222,150.42031118273735L148.69555555555553,154.25854770094156L149.22444444444443,153.56110080970186L149.36444444444447,153.13989400225026L149.39555555555555,151.43532315960954L149.44222222222223,148.7085456017937L149.92444444444442,156.4144663874592L149.94,157.91880440392663L150.01777777777778,155.4183351823262L150.26666666666665,153.45009385368655L150.28222222222223,147.0680661435638L151.21555555555554,154.70023097097874L151.3088888888889,153.81656488563334L151.35555555555555,152.20189718689238L151.76000000000002,155.73323073557447L151.83777777777777,152.07229864278008L152.3511111111111,157.35235911554526L152.36666666666667,153.27265378513505L152.7711111111111,152.83505770670516L153.03555555555556,154.354908965528L153.0977777777778,156.49379030827967L153.22222222222223,154.13972713478972L153.29999999999998,153.20161634151427L153.31555555555556,155.5642787250025L153.4088888888889,152.20291827831952L153.72,158.96085881920797L153.92222222222222,157.41342396235893L154.01555555555555,150.6340037648167L154.40444444444444,156.81658000977976L154.45111111111112,156.35765263438225L155.33777777777777,157.0480192362198L156.0222222222222,153.07402324357201L156.05333333333334,158.3536160300885L156.2711111111111,157.9976253147636L156.39555555555557,156.28413405162948L156.75333333333333,156.05001587314266L156.76888888888888,159.47724378162195L157.04888888888888,154.70603630904643L157.45333333333335,158.25767488245455L157.79555555555555,158.3417642105903L158.0911111111111,158.6789612860552L158.10666666666665,158.24941572227647L158.54222222222222,155.22941066111838L158.66666666666666,156.49483965869462L158.68222222222224,152.91813065324513L158.91555555555556,160.06868649965952L159.11777777777777,160.4761855785868L159.13333333333333,158.34724315734846L159.52222222222224,155.55852048524787L159.86444444444444,160.0658337548375L159.95777777777778,158.68962669904744L160.00444444444443,157.74105631240775L160.08222222222224,154.92723730419365L160.16,157.2573142488088L160.23777777777778,154.70420135876964L160.98444444444445,157.89298887657267L161.0311111111111,157.4095440033291L161.20222222222222,155.620968138533L161.42000000000002,158.98264885374476L161.7311111111111,155.97740346193314L161.9488888888889,155.80289950221777L162.02666666666667,155.55346495232413L162.66444444444446,152.51234289152282L162.7266666666667,161.93186161800156L163.19333333333333,158.42488849429148L163.39555555555557,156.1263989752957L163.66,159.2344110022698L163.79999999999998,160.06606500755464L164.07999999999998,161.39128978789915L164.17333333333335,159.34859568146723L164.31333333333333,157.82105986188566L164.98222222222222,160.9058385265193L165.1688888888889,159.67243379141604L165.2,156.1956118302686L165.30888888888887,158.30813413113356L165.80666666666664,159.8376895263791L165.86888888888888,161.559281934851L166.35111111111112,155.00535079836845L166.44444444444446,157.37206363677979L166.72444444444443,159.98896130121182L166.81777777777776,154.92676537909676L167.25333333333336,155.7934883173023L167.28444444444443,159.4623239780111L167.62666666666667,161.16901400924792L167.65777777777777,159.41676436683963L167.81333333333336,161.84085967045812L167.98444444444442,159.95194344009673L168.31111111111113,161.94025288894773L168.35777777777778,160.57781785087926L168.51333333333332,159.39636231958866L169.01111111111112,158.86684399257814L169.0888888888889,161.68455685382443L169.1977777777778,159.7113115649138L169.3688888888889,153.69728652387857L169.4622222222222,157.72097359171937L169.82000000000002,156.69082562997937L169.88222222222223,159.12611879301923L170.17777777777778,156.0118558779359L170.5822222222222,157.8623603726072L170.64444444444445,161.94762730731497L170.78444444444443,157.65637542945998L170.8777777777778,161.87603810695666L170.95555555555555,159.04929485065597L171.20444444444445,156.26654848349946L171.62444444444444,162.70975513609926L171.87333333333333,156.92100638949444L172.01333333333332,159.03256788477302L172.1222222222222,160.59642074257135L172.2,160.9164511894009L172.9311111111111,159.50203586263316L172.99333333333334,160.85387754812837L173.47555555555556,160.22391123590725L173.66222222222223,159.37022087190834L174.06666666666666,158.63548389130403L174.11333333333334,159.8735770279808L174.22222222222223,158.42895307870847L174.26888888888888,161.7406883878367L174.34666666666666,158.1075876301953L174.4088888888889,159.74097643739412L174.56444444444446,157.2841494546405L174.62666666666667,160.7689409213407L174.7511111111111,158.08349448814988L175.0311111111111,162.02801376607803L175.63777777777779,162.08240595938904L175.82444444444442,162.25509427913596L175.85555555555555,162.4525186329016L175.96444444444444,162.71305272448808L176.12,162.12336194595056L176.13555555555556,159.96385931330067L176.1977777777778,160.42845685460736L176.29111111111112,161.2727334432836L176.33777777777777,161.33845442932633L176.4777777777778,159.40301354335887L176.58666666666667,159.04689754652125L176.69555555555556,158.52419246147787L176.7888888888889,162.0803114974073L176.80444444444444,156.8803417059992L176.89777777777778,162.93794128205627L176.97555555555556,158.47471427065986L177.13111111111112,156.06798199564219L177.28666666666666,159.87675051231471L177.61333333333332,163.496318982648L177.97111111111113,161.87975604778956L178.0022222222222,159.55717998051216L178.20444444444445,162.47889474792672L178.42222222222222,162.41133469050484L178.45333333333332,160.93712805530856L178.70222222222222,156.2882193593042L178.7177777777778,161.7926444209048L178.73333333333332,162.24278537050952L179.20000000000002,160.86323716039104L179.48000000000002,159.79609841906597L179.61999999999998,163.0406548138708L179.76,161.83851276151836L179.91555555555556,155.0751523822546L179.99333333333334,161.62931547792894L180.33555555555557,162.1030684603112L180.45999999999998,160.94589352235198L180.55333333333334,158.26406942041856L180.75555555555556,161.1329520083964L181.26888888888888,161.85966296547224L181.54888888888888,162.0266337855054L181.56444444444446,156.53748812313592L181.61111111111111,159.55701654936587L181.81333333333333,154.23870329771725L181.87555555555556,163.48938399154162L182.06222222222223,161.44472211759006L182.07777777777775,161.7427277447922L182.18666666666664,161.66586518181222L182.56,159.02631417076503L182.5911111111111,162.7394268378349L182.82444444444445,156.0990960832153L182.84,162.78601719558773L183.12,162.5409672631483L183.36888888888888,156.45146399629968L183.52444444444447,161.7351828305317L183.75777777777776,159.3956921105938L183.92888888888888,161.1616572527481L184.13111111111112,160.56707142878858L184.33333333333334,162.64914584771861L184.59777777777776,163.2240607079917L184.70666666666665,161.55495077398209L185.01777777777778,162.0488039034286L185.17333333333335,161.84767809323967L185.36,161.11340196962868L185.37555555555554,162.01715548549382L185.85777777777778,158.74482074113828L185.87333333333333,155.50032863553082L185.88888888888889,160.33633302524686L186.04444444444442,159.52413486210364L186.24666666666667,162.71607219733832L186.34,158.5128464778619L186.46444444444444,162.40729789409255L186.55777777777777,152.18727975445134L187.64666666666668,157.96839845659477L188.06666666666666,158.65116150677204L188.5488888888889,162.1203780323267L188.62666666666667,163.37873845620615L188.81333333333333,160.5792392779674L189.60666666666668,156.91931556005565L189.63777777777779,161.42699878689436L189.9022222222222,160.05387502216865L190.01111111111112,163.76555436982642L190.16666666666669,161.40651525956181L190.8511111111111,160.3822722488216L190.94444444444446,162.13698984283423L191.0222222222222,162.83377688670797L191.2711111111111,157.7570466606745L191.89333333333335,160.0486748974238L191.98666666666665,162.9083374018914L192.03333333333333,157.45926098259432L192.04888888888888,160.54312382053052L192.8111111111111,150.31992018648555L192.95111111111112,161.30160141230692L193.12222222222223,160.74320122227073L193.5888888888889,160.83343876419323L193.68222222222224,160.6134430148772L193.6977777777778,162.41012979791103L193.79111111111112,161.0431202184409L194.46,160.40116244022337L194.72444444444443,157.5299206977444L195.08222222222224,159.14494634366463L195.23777777777778,161.29606076675867L195.39333333333332,155.06830711343457L195.58,161.52906036031035L195.70444444444445,157.67251178249717L195.9377777777778,163.08943700936754L196.2177777777778,161.39283861592412L196.51333333333332,159.619994529656L196.6688888888889,163.33057424944957L196.70000000000002,162.86190776713192L197.66444444444446,162.67611528374255L197.82,162.9363607804158L197.92888888888888,162.14123881714684L198.0066666666667,159.46458987785238L198.25555555555556,153.78983188314098L198.36444444444444,156.52932315958398L198.38,160.6255451619093L198.56666666666666,163.8625749519228L198.66,161.12694461856572L199.2511111111111,162.99847980522154L199.76444444444445,160.85454610868226L200.27777777777777,161.95525511460644L200.62,160.1431018342929L200.68222222222224,161.0041020919702L201.8488888888889,161.2167121193239L202.0511111111111,159.4873360081443L202.56444444444443,161.97078413489675L202.58,162.78385926862913L202.65777777777777,161.84464048753892L202.78222222222223,162.49842700708126L203.06222222222223,161.1408640540072L203.23333333333332,164.10553142321962L203.68444444444444,160.39468359627892L204.05777777777777,159.69490251264403L204.15111111111113,155.70327149863755L204.16666666666666,163.05653059549098L204.26000000000002,161.0998032736991L204.29111111111112,163.39454094107663L204.69555555555556,160.6284115652421L204.86666666666667,163.19721678897207L205.45777777777778,159.42581948850838L205.51999999999998,161.27542558285808L205.61333333333332,161.10602802224457L205.72222222222223,163.12276801453638L205.73777777777778,161.9712066067649L205.92444444444445,159.6844438612461L206.20444444444445,163.7457742557994L206.64,160.4496958388814L206.8111111111111,161.0141881957118L207.15333333333334,162.14413065356868L207.35555555555555,161.23766757175326L207.3711111111111,163.72662961576134L207.49555555555557,163.5586207489084L207.6822222222222,159.1355869668935L207.88444444444445,163.74821583234836L208.3511111111111,161.85395653386203L208.5066666666667,160.9549467600882L208.55333333333334,161.46345099726958L208.58444444444444,159.72409027921302L209.11333333333334,158.53208425481407L209.1911111111111,157.03081987425685L209.22222222222223,163.44136608392L209.34666666666666,157.9253176296396L209.39333333333335,163.38622226040545L209.42444444444445,161.33536948982095L209.48666666666665,159.80683495051096L209.81333333333333,163.19307343262648L209.84444444444446,157.03557633289267L210.04666666666665,154.8155219895499L210.40444444444447,161.44137272105684L210.42,163.92173267029492L210.8711111111111,161.2573030939592L211.0888888888889,156.53721730783582L211.2133333333333,162.9199728046411L211.72666666666666,162.45140110767846L212.22444444444443,162.07299500996513L212.95555555555555,160.7890189321978L213.04888888888888,160.55317177463857L213.31333333333333,156.19589724604575L213.6711111111111,163.8931177958314L213.88888888888889,160.04931166661638L213.98222222222222,163.85311060478645L214.07555555555555,148.38116899558474L214.1222222222222,162.1437715289316L214.26222222222222,162.89845240794656L214.4177777777778,159.5281203213547L214.4488888888889,162.38336606376936L214.9311111111111,158.09260659877745L214.9622222222222,161.5806546783341L215.02444444444444,160.40082898416688L215.2266666666667,160.17641070325462L215.3511111111111,162.58369261558568L215.39777777777778,155.10811931746346L215.45999999999998,162.48836445249617L215.70888888888888,160.0462022359882L215.84888888888887,160.17453948727677L215.94222222222223,159.22248523842012L216.01999999999998,159.25505607681615L216.50222222222223,162.50941033368665L216.51777777777775,160.87604625310217L216.59555555555556,160.726839268314L216.85999999999999,162.79026499244253L217.07777777777775,160.7646747561438L217.09333333333333,155.20952763727735L217.3111111111111,154.97792827657292L217.34222222222223,160.37183950149586L217.42,160.7470609290259L217.7,160.18728287784117L217.96444444444447,161.12899575009942L218.05777777777777,152.06618622371127L218.19777777777776,161.02346161806156L218.5088888888889,161.69138728667585L218.66444444444446,160.98789344302247L218.75777777777776,160.38402053820235L218.83555555555554,159.17613578853863L218.96,158.2913285110678L219.87777777777777,159.9751030935773L220.20444444444442,158.58413024566005L220.39111111111112,159.86731106841137L220.5,159.3978581620114L220.56222222222223,163.02178499248942L221.04444444444442,162.7219451214852L221.43333333333334,159.16440501170499L221.48000000000002,162.19912499881218L221.60444444444443,158.7921286416905L221.85333333333332,162.37143841598717L221.9933333333333,157.7333048720445L222.47555555555556,159.3804496835385L222.50666666666666,154.99929583924157L222.5688888888889,162.38783180806786L222.66222222222223,158.744534854378L222.69333333333333,157.23243880378348L222.7088888888889,160.0070974486215L223.14444444444445,153.63755079145943L223.28444444444443,159.3626347466239L223.36222222222221,161.15164862573147L223.4711111111111,159.27318139161383L223.53333333333333,159.89998128424799L223.90666666666667,162.33427666952568L223.9688888888889,159.62320710558978L224,159.20469997344273L224.32666666666668,162.44881446832525L224.3422222222222,161.45709154754877L224.35777777777778,162.36215816438198L224.57555555555555,152.80180723965168L224.6688888888889,155.9989386945963L224.76222222222222,156.43620791073357L224.80888888888887,158.6837078540453L225.1822222222222,156.90683780397688L225.21333333333334,161.87220265583267L225.24444444444444,162.61358838754575L225.89777777777778,161.82991849684288L226.39555555555557,157.52865705000502L227.12666666666667,153.07995951495002L227.76444444444445,159.26676283351014L227.85777777777778,156.5256099285824L227.93555555555554,162.22647593117188L227.99777777777777,157.25221444347073L228.34,161.94287343908636L228.4488888888889,158.3913667409548L228.79111111111112,154.72939801429L229.08666666666667,159.82266987434457L229.9422222222222,149.6580494769982L230.08222222222224,147.9733861493213L230.95333333333332,162.0203508705433L231.12444444444444,145.24732825372902L231.79333333333332,150.75425235182047L231.85555555555555,150.65724301444632L231.9177777777778,155.33110251277685L232.11999999999998,150.6522713165198L232.4622222222222,158.79822269241726L232.89777777777778,159.36520207566875L232.95999999999998,155.5835268635835L232.9911111111111,157.6330815457872L233.0377777777778,158.15050314207164L233.2866666666667,154.59106555900405L233.48888888888888,154.7178758829832L233.61333333333334,155.32417623485838L233.67555555555558,157.44487951270173L233.70666666666668,153.78514842689037L233.76888888888888,150.20268683348385L233.89333333333335,149.5059850375567L233.90888888888887,145.34978592395782L233.9711111111111,152.50700194282192L234.06444444444446,154.72385454284293L234.07999999999998,154.55126089070527L234.70222222222222,137.16139567111222L234.76444444444445,150.7772127794368L236.25777777777776,150.28814295466458L236.41333333333336,134.3037507406303L236.6,154.2108992795859L236.86444444444447,125.53202904122216L236.97333333333336,140.03107893041204L237.11333333333334,124.36371959107262L237.22222222222223,136.12849387100766L237.39333333333335,114.94686027084079L237.92222222222225,89.53479590586255L238.06222222222223,107.94259508166995L238.76222222222225,-250.1381549835205" style="fill: none;" fill="none"></path></g></g></g></g></g></g><g transform="translate(50, 177)" clip-path="url(#clip_1)"><clipPath id="clip_1"><rect width="280" height="23"></rect></clipPath><g><g><line x1="0" y1="0" x2="0" y2="5" style="visibility: inherit;" fill="rgb(0, 0, 0)" stroke="rgb(204, 204, 204)" stroke-width="1px"></line><line x1="31.11111111111111" y1="0" x2="31.11111111111111" y2="5" style="visibility: inherit;" fill="rgb(0, 0, 0)" stroke="rgb(204, 204, 204)" stroke-width="1px"></line><line x1="62.22222222222222" y1="0" x2="62.22222222222222" y2="5" style="visibility: inherit;" fill="rgb(0, 0, 0)" stroke="rgb(204, 204, 204)" stroke-width="1px"></line><line x1="93.33333333333333" y1="0" x2="93.33333333333333" y2="5" style="visibility: inherit;" fill="rgb(0, 0, 0)" stroke="rgb(204, 204, 204)" stroke-width="1px"></line><line x1="124.44444444444444" y1="0" x2="124.44444444444444" y2="5" style="visibility: inherit;" fill="rgb(0, 0, 0)" stroke="rgb(204, 204, 204)" stroke-width="1px"></line><line x1="155.55555555555557" y1="0" x2="155.55555555555557" y2="5" style="visibility: inherit;" fill="rgb(0, 0, 0)" stroke="rgb(204, 204, 204)" stroke-width="1px"></line><line x1="186.66666666666666" y1="0" x2="186.66666666666666" y2="5" style="visibility: inherit;" fill="rgb(0, 0, 0)" stroke="rgb(204, 204, 204)" stroke-width="1px"></line><line x1="217.77777777777777" y1="0" x2="217.77777777777777" y2="5" style="visibility: inherit;" fill="rgb(0, 0, 0)" stroke="rgb(204, 204, 204)" stroke-width="1px"></line><line x1="248.88888888888889" y1="0" x2="248.88888888888889" y2="5" style="visibility: inherit;" fill="rgb(0, 0, 0)" stroke="rgb(204, 204, 204)" stroke-width="1px"></line><line x1="280" y1="0" x2="280" y2="5" style="visibility: inherit;" fill="rgb(0, 0, 0)" stroke="rgb(204, 204, 204)" stroke-width="1px"></line></g><g transform="translate(0, 8)"><text x="0" y="0" dx="0em" dy="0.95em" style="text-anchor: middle; visibility: hidden; font-family: Roboto, sans-serif; font-size: 12px; font-weight: 200;" fill="rgb(33, 33, 33)" stroke="none" stroke-width="1px">-2k</text><text x="31.11111111111111" y="0" dx="0em" dy="0.95em" style="text-anchor: middle; visibility: inherit; font-family: Roboto, sans-serif; font-size: 12px; font-weight: 200;" fill="rgb(33, 33, 33)" stroke="none" stroke-width="1px">0</text><text x="62.22222222222222" y="0" dx="0em" dy="0.95em" style="text-anchor: middle; visibility: inherit; font-family: Roboto, sans-serif; font-size: 12px; font-weight: 200;" fill="rgb(33, 33, 33)" stroke="none" stroke-width="1px">2k</text><text x="93.33333333333333" y="0" dx="0em" dy="0.95em" style="text-anchor: middle; visibility: inherit; font-family: Roboto, sans-serif; font-size: 12px; font-weight: 200;" fill="rgb(33, 33, 33)" stroke="none" stroke-width="1px">4k</text><text x="124.44444444444444" y="0" dx="0em" dy="0.95em" style="text-anchor: middle; visibility: inherit; font-family: Roboto, sans-serif; font-size: 12px; font-weight: 200;" fill="rgb(33, 33, 33)" stroke="none" stroke-width="1px">6k</text><text x="155.55555555555557" y="0" dx="0em" dy="0.95em" style="text-anchor: middle; visibility: inherit; font-family: Roboto, sans-serif; font-size: 12px; font-weight: 200;" fill="rgb(33, 33, 33)" stroke="none" stroke-width="1px">8k</text><text x="186.66666666666666" y="0" dx="0em" dy="0.95em" style="text-anchor: middle; visibility: inherit; font-family: Roboto, sans-serif; font-size: 12px; font-weight: 200;" fill="rgb(33, 33, 33)" stroke="none" stroke-width="1px">10k</text><text x="217.77777777777777" y="0" dx="0em" dy="0.95em" style="text-anchor: middle; visibility: inherit; font-family: Roboto, sans-serif; font-size: 12px; font-weight: 200;" fill="rgb(33, 33, 33)" stroke="none" stroke-width="1px">12k</text><text x="248.88888888888889" y="0" dx="0em" dy="0.95em" style="text-anchor: middle; visibility: inherit; font-family: Roboto, sans-serif; font-size: 12px; font-weight: 200;" fill="rgb(33, 33, 33)" stroke="none" stroke-width="1px">14k</text><text x="280" y="0" dx="0em" dy="0.95em" style="text-anchor: middle; visibility: hidden; font-family: Roboto, sans-serif; font-size: 12px; font-weight: 200;" fill="rgb(33, 33, 33)" stroke="none" stroke-width="1px">16k</text></g><line x1="0" y1="0" x2="280" y2="0" fill="rgb(0, 0, 0)" stroke="rgb(204, 204, 204)" stroke-width="1px"></line></g></g></g></g></svg>