<svg viewBox="0 0 330 200" xmlns="http://www.w3.org/2000/svg"><g><g><g><g><g><line x1="40" y1="177" x2="35" y2="177" style="visibility: inherit;" fill="rgb(0, 0, 0)" stroke="rgb(204, 204, 204)" stroke-width="1px"></line><line x1="40" y1="164.35714285714286" x2="35" y2="164.35714285714286" style="visibility: inherit;" fill="rgb(0, 0, 0)" stroke="rgb(204, 204, 204)" stroke-width="1px"></line><line x1="40" y1="151.71428571428572" x2="35" y2="151.71428571428572" style="visibility: inherit;" fill="rgb(0, 0, 0)" stroke="rgb(204, 204, 204)" stroke-width="1px"></line><line x1="40" y1="139.07142857142856" x2="35" y2="139.07142857142856" style="visibility: inherit;" fill="rgb(0, 0, 0)" stroke="rgb(204, 204, 204)" stroke-width="1px"></line><line x1="40" y1="126.42857142857143" x2="35" y2="126.42857142857143" style="visibility: inherit;" fill="rgb(0, 0, 0)" stroke="rgb(204, 204, 204)" stroke-width="1px"></line><line x1="40" y1="113.78571428571428" x2="35" y2="113.78571428571428" style="visibility: inherit;" fill="rgb(0, 0, 0)" stroke="rgb(204, 204, 204)" stroke-width="1px"></line><line x1="40" y1="101.14285714285714" x2="35" y2="101.14285714285714" style="visibility: inherit;" fill="rgb(0, 0, 0)" stroke="rgb(204, 204, 204)" stroke-width="1px"></line><line x1="40" y1="88.5" x2="35" y2="88.5" style="visibility: inherit;" fill="rgb(0, 0, 0)" stroke="rgb(204, 204, 204)" stroke-width="1px"></line><line x1="40" y1="75.85714285714286" x2="35" y2="75.85714285714286" style="visibility: inherit;" fill="rgb(0, 0, 0)" stroke="rgb(204, 204, 204)" stroke-width="1px"></line><line x1="40" y1="63.21428571428571" x2="35" y2="63.21428571428571" style="visibility: inherit;" fill="rgb(0, 0, 0)" stroke="rgb(204, 204, 204)" stroke-width="1px"></line><line x1="40" y1="50.57142857142857" x2="35" y2="50.57142857142857" style="visibility: inherit;" fill="rgb(0, 0, 0)" stroke="rgb(204, 204, 204)" stroke-width="1px"></line><line x1="40" y1="37.92857142857143" x2="35" y2="37.92857142857143" style="visibility: inherit;" fill="rgb(0, 0, 0)" stroke="rgb(204, 204, 204)" stroke-width="1px"></line><line x1="40" y1="25.285714285714295" x2="35" y2="25.285714285714295" style="visibility: inherit;" fill="rgb(0, 0, 0)" stroke="rgb(204, 204, 204)" stroke-width="1px"></line><line x1="40" y1="12.642857142857137" x2="35" y2="12.642857142857137" style="visibility: inherit;" fill="rgb(0, 0, 0)" stroke="rgb(204, 204, 204)" stroke-width="1px"></line><line x1="40" y1="0" x2="35" y2="0" style="visibility: inherit;" fill="rgb(0, 0, 0)" stroke="rgb(204, 204, 204)" stroke-width="1px"></line></g><g transform="translate(30, 0)"><text x="0" y="177" dx="0em" dy="0.3em" style="text-anchor: end; visibility: hidden; font-family: Roboto, sans-serif; font-size: 12px; font-weight: 200;" fill="rgb(33, 33, 33)" stroke="none" stroke-width="1px">-20</text><text x="0" y="164.35714285714286" dx="0em" dy="0.3em" style="text-anchor: end; visibility: inherit; font-family: Roboto, sans-serif; font-size: 12px; font-weight: 200;" fill="rgb(33, 33, 33)" stroke="none" stroke-width="1px">0</text><text x="0" y="151.71428571428572" dx="0em" dy="0.3em" style="text-anchor: end; visibility: hidden; font-family: Roboto, sans-serif; font-size: 12px; font-weight: 200;" fill="rgb(33, 33, 33)" stroke="none" stroke-width="1px">20</text><text x="0" y="139.07142857142856" dx="0em" dy="0.3em" style="text-anchor: end; visibility: inherit; font-family: Roboto, sans-serif; font-size: 12px; font-weight: 200;" fill="rgb(33, 33, 33)" stroke="none" stroke-width="1px">40</text><text x="0" y="126.42857142857143" dx="0em" dy="0.3em" style="text-anchor: end; visibility: hidden; font-family: Roboto, sans-serif; font-size: 12px; font-weight: 200;" fill="rgb(33, 33, 33)" stroke="none" stroke-width="1px">60</text><text x="0" y="113.78571428571428" dx="0em" dy="0.3em" style="text-anchor: end; visibility: inherit; font-family: Roboto, sans-serif; font-size: 12px; font-weight: 200;" fill="rgb(33, 33, 33)" stroke="none" stroke-width="1px">80</text><text x="0" y="101.14285714285714" dx="0em" dy="0.3em" style="text-anchor: end; visibility: hidden; font-family: Roboto, sans-serif; font-size: 12px; font-weight: 200;" fill="rgb(33, 33, 33)" stroke="none" stroke-width="1px">100</text><text x="0" y="88.5" dx="0em" dy="0.3em" style="text-anchor: end; visibility: inherit; font-family: Roboto, sans-serif; font-size: 12px; font-weight: 200;" fill="rgb(33, 33, 33)" stroke="none" stroke-width="1px">120</text><text x="0" y="75.85714285714286" dx="0em" dy="0.3em" style="text-anchor: end; visibility: hidden; font-family: Roboto, sans-serif; font-size: 12px; font-weight: 200;" fill="rgb(33, 33, 33)" stroke="none" stroke-width="1px">140</text><text x="0" y="63.21428571428571" dx="0em" dy="0.3em" style="text-anchor: end; visibility: inherit; font-family: Roboto, sans-serif; font-size: 12px; font-weight: 200;" fill="rgb(33, 33, 33)" stroke="none" stroke-width="1px">160</text><text x="0" y="50.57142857142857" dx="0em" dy="0.3em" style="text-anchor: end; visibility: hidden; font-family: Roboto, sans-serif; font-size: 12px; font-weight: 200;" fill="rgb(33, 33, 33)" stroke="none" stroke-width="1px">180</text><text x="0" y="37.92857142857143" dx="0em" dy="0.3em" style="text-anchor: end; visibility: inherit; font-family: Roboto, sans-serif; font-size: 12px; font-weight: 200;" fill="rgb(33, 33, 33)" stroke="none" stroke-width="1px">200</text><text x="0" y="25.285714285714295" dx="0em" dy="0.3em" style="text-anchor: end; visibility: hidden; font-family: Roboto, sans-serif; font-size: 12px; font-weight: 200;" fill="rgb(33, 33, 33)" stroke="none" stroke-width="1px">220</text><text x="0" y="12.642857142857137" dx="0em" dy="0.3em" style="text-anchor: end; visibility: inherit; font-family: Roboto, sans-serif; font-size: 12px; font-weight: 200;" fill="rgb(33, 33, 33)" stroke="none" stroke-width="1px">240</text><text x="0" y="0" dx="0em" dy="0.3em" style="text-anchor: end; visibility: hidden; font-family: Roboto, sans-serif; font-size: 12px; font-weight: 200;" fill="rgb(33, 33, 33)" stroke="none" stroke-width="1px">260</text></g><line x1="40" y1="0" x2="40" y2="177" fill="rgb(0, 0, 0)" stroke="rgb(204, 204, 204)" stroke-width="1px"></line></g></g><g transform="translate(40, 0)" clip-path="url(#clip_0)"><clipPath id="clip_0"><rect width="290" height="177"></rect></clipPath><g><g><g><line x1="0" y1="0" x2="0" y2="177" fill="rgb(0, 0, 0)" stroke="rgb(66, 66, 66)" stroke-width="1px" opacity="0.25"></line><line x1="32.22222222222222" y1="0" x2="32.22222222222222" y2="177" fill="rgb(0, 0, 0)" stroke="rgb(66, 66, 66)" stroke-width="1px" opacity="0.25"></line><line x1="64.44444444444444" y1="0" x2="64.44444444444444" y2="177" fill="rgb(0, 0, 0)" stroke="rgb(66, 66, 66)" stroke-width="1px" opacity="0.25"></line><line x1="96.66666666666666" y1="0" x2="96.66666666666666" y2="177" fill="rgb(0, 0, 0)" stroke="rgb(66, 66, 66)" stroke-width="1px" opacity="0.25"></line><line x1="128.88888888888889" y1="0" x2="128.88888888888889" y2="177" fill="rgb(0, 0, 0)" stroke="rgb(66, 66, 66)" stroke-width="1px" opacity="0.25"></line><line x1="161.11111111111111" y1="0" x2="161.11111111111111" y2="177" fill="rgb(0, 0, 0)" stroke="rgb(66, 66, 66)" stroke-width="1px" opacity="0.25"></line><line x1="193.33333333333331" y1="0" x2="193.33333333333331" y2="177" fill="rgb(0, 0, 0)" stroke="rgb(66, 66, 66)" stroke-width="1px" opacity="0.25"></line><line x1="225.55555555555557" y1="0" x2="225.55555555555557" y2="177" fill="rgb(0, 0, 0)" stroke="rgb(66, 66, 66)" stroke-width="1px" opacity="0.25"></line><line x1="257.77777777777777" y1="0" x2="257.77777777777777" y2="177" fill="rgb(0, 0, 0)" stroke="rgb(66, 66, 66)" stroke-width="1px" opacity="0.25"></line><line x1="290" y1="0" x2="290" y2="177" fill="rgb(0, 0, 0)" stroke="rgb(66, 66, 66)" stroke-width="1px" opacity="0.25"></line></g><g><line x1="0" y1="177" x2="290" y2="177" fill="rgb(0, 0, 0)" stroke="rgb(66, 66, 66)" stroke-width="1px" opacity="0.25"></line><line x1="0" y1="164.35714285714286" x2="290" y2="164.35714285714286" fill="rgb(0, 0, 0)" stroke="rgb(66, 66, 66)" stroke-width="1px" opacity="0.25"></line><line x1="0" y1="151.71428571428572" x2="290" y2="151.71428571428572" fill="rgb(0, 0, 0)" stroke="rgb(66, 66, 66)" stroke-width="1px" opacity="0.25"></line><line x1="0" y1="139.07142857142856" x2="290" y2="139.07142857142856" fill="rgb(0, 0, 0)" stroke="rgb(66, 66, 66)" stroke-width="1px" opacity="0.25"></line><line x1="0" y1="126.42857142857143" x2="290" y2="126.42857142857143" fill="rgb(0, 0, 0)" stroke="rgb(66, 66, 66)" stroke-width="1px" opacity="0.25"></line><line x1="0" y1="113.78571428571428" x2="290" y2="113.78571428571428" fill="rgb(0, 0, 0)" stroke="rgb(66, 66, 66)" stroke-width="1px" opacity="0.25"></line><line x1="0" y1="101.14285714285714" x2="290" y2="101.14285714285714" fill="rgb(0, 0, 0)" stroke="rgb(66, 66, 66)" stroke-width="1px" opacity="0.25"></line><line x1="0" y1="88.5" x2="290" y2="88.5" fill="rgb(0, 0, 0)" stroke="rgb(66, 66, 66)" stroke-width="1px" opacity="0.25"></line><line x1="0" y1="75.85714285714286" x2="290" y2="75.85714285714286" fill="rgb(0, 0, 0)" stroke="rgb(66, 66, 66)" stroke-width="1px" opacity="0.25"></line><line x1="0" y1="63.21428571428571" x2="290" y2="63.21428571428571" fill="rgb(0, 0, 0)" stroke="rgb(66, 66, 66)" stroke-width="1px" opacity="0.25"></line><line x1="0" y1="50.57142857142857" x2="290" y2="50.57142857142857" fill="rgb(0, 0, 0)" stroke="rgb(66, 66, 66)" stroke-width="1px" opacity="0.25"></line><line x1="0" y1="37.92857142857143" x2="290" y2="37.92857142857143" fill="rgb(0, 0, 0)" stroke="rgb(66, 66, 66)" stroke-width="1px" opacity="0.25"></line><line x1="0" y1="25.285714285714295" x2="290" y2="25.285714285714295" fill="rgb(0, 0, 0)" stroke="rgb(66, 66, 66)" stroke-width="1px" opacity="0.25"></line><line x1="0" y1="12.642857142857137" x2="290" y2="12.642857142857137" fill="rgb(0, 0, 0)" stroke="rgb(66, 66, 66)" stroke-width="1px" opacity="0.25"></line><line x1="0" y1="0" x2="290" y2="0" fill="rgb(0, 0, 0)" stroke="rgb(66, 66, 66)" stroke-width="1px" opacity="0.25"></line></g></g></g><g><g><line x1="0" y1="164.35714285714286" x2="290" y2="164.35714285714286" fill="rgb(0, 0, 0)" stroke="rgb(153, 153, 153)" stroke-width="1.5px"></line></g></g><g><g><line x1="32.22222222222222" y1="0" x2="32.22222222222222" y2="177" fill="rgb(0, 0, 0)" stroke="rgb(153, 153, 153)" stroke-width="1.5px"></line></g></g><g><g><g><g><g><path stroke="rgb(255, 112, 67)" stroke-width="2px" d="M32.51222222222222,163.44339737764426L32.97944444444445,163.81919096725593L33.22111111111111,164.00091830273064L33.23722222222222,164.07221755830437L33.36611111111111,164.11599952738297L33.65611111111111,164.14968281461344L33.88166666666667,164.17936642555495L33.94611111111111,164.19436863058942L34.284444444444446,164.19629029284974L34.31666666666666,164.20498176022954L34.751666666666665,164.23487803055676L34.8,164.26493470928185L34.864444444444445,164.24599248861895L34.99333333333333,164.26466648039622L35.29944444444444,164.25370026856237L35.49277777777778,164.2523168451117L35.91166666666667,164.24273977275752L36.15333333333333,164.21919865519976L36.169444444444444,164.23038253599924L36.395,164.25174166397093L36.58833333333334,164.25000140374624L36.76555555555555,164.22597673051987L36.81388888888889,164.25837922035814L37.31333333333334,164.2639756230302L37.361666666666665,164.27385025253483L37.79666666666667,164.28654665348708L37.99,164.2675955787134L38.11888888888889,164.2579566392615L38.312222222222225,164.28244539779527L38.44111111111111,164.3044134570101L38.69888888888889,164.29961415468208L38.90833333333333,164.2662330857982L39.24666666666667,164.28396994205636L39.26277777777778,164.2970108195203L39.40777777777778,164.2959210893401L39.64944444444444,164.2592483110666L39.71388888888889,164.29205176377124L39.875,164.30397493638313L39.955555555555556,164.29372644745425L39.971666666666664,164.31206558368567L40.43888888888889,164.28599550156014L40.47111111111111,164.30010424247743L40.48722222222222,164.30305017983534L40.809444444444445,164.30308477677562L40.88999999999999,164.29980668054793L40.92222222222222,164.29396631059856L41.18,164.28773928805285L41.27666666666667,164.2591577121342L41.72777777777778,164.25312977097772L41.79222222222222,164.23605421495117L41.824444444444445,164.27416782784204L42.35611111111111,164.27239606095569L42.485,164.23024805719717L42.58166666666667,164.25833438090595L42.59777777777778,164.26294506923622L42.82333333333333,164.2825262977748L42.968333333333334,164.2826805586984L43.09722222222222,164.2786507958394L43.83833333333334,164.28859806894877L43.90277777777777,164.29037933814936L44.53111111111111,164.28899503678414L44.708333333333336,164.26704119036225L44.82111111111111,164.28337271832135L44.91777777777778,164.28637576487145L45.175555555555555,164.2855916486194L45.626666666666665,164.2699723474645L46.029444444444444,164.29945647800656L46.17444444444444,164.31111306663524L46.49666666666666,164.28802670441627L47.39888888888889,164.29366492260175L48.31722222222222,164.27295155776463L48.397777777777776,164.25695228101566L48.575,164.27119594771077L48.68777777777778,164.281782461721L48.752222222222215,164.25852454427124L48.784444444444446,164.2858002391885L48.92944444444444,164.28489870809668L49.23555555555556,164.25557120253535L49.47722222222222,164.2321289168675L49.573888888888895,164.24734165413597L49.91222222222222,164.24364955391536L50.089444444444446,164.24726262713105L50.12166666666667,164.2371809609425L50.34722222222222,164.24475176097107L50.459999999999994,164.24916969420914L50.76611111111111,164.24761681667553L50.782222222222224,164.23183870716275L50.97555555555556,164.2750426992789L51.13666666666667,164.26663226634355L51.16888888888889,164.2228038690351L51.29777777777778,164.23761721490143L51.442777777777785,164.243195220801L51.845555555555556,164.24483681296107L51.958333333333336,164.18701162318976L52.29666666666667,164.17075384856474L52.39333333333333,164.2144615188739L52.42555555555556,164.18685425637884L52.47388888888889,164.15104806770688L52.538333333333334,164.1486586436192L52.635,164.13784614760465L52.699444444444445,164.17829708500548L52.78,164.19575018170212L53.13444444444445,164.2006040587418L53.56944444444445,164.21063956397558L53.891666666666666,164.2305323640104L54.19777777777777,164.23759973632156L54.375,164.22382562014292L54.391111111111115,164.19357615149005L55.05166666666666,164.14741865588246L55.406111111111116,164.1419091519723L55.696111111111115,164.07405232539404L55.71222222222222,164.11149034423863L56.29222222222223,164.18030417474264L56.42111111111112,164.12850166068338L56.550000000000004,163.99495103524504L56.59833333333333,164.03655509703043L57.16222222222222,164.0470250365298L57.21055555555555,163.99481288484273L57.43611111111112,164.04556539143047L57.48444444444444,164.05608041307283L57.565000000000005,163.97980114753474L57.75833333333333,163.93539469178063L57.93555555555555,164.01491367139886L58.435,164.06066366687782L58.56388888888889,164.05163591520068L59.12777777777778,163.97819353538966L59.36944444444445,164.0423766773407L59.64333333333333,163.9886349912222L59.675555555555555,164.02888589590916L59.723888888888894,164.06131916312737L59.788333333333334,164.01476029521956L60.81944444444444,163.78885368872295L60.85166666666667,163.68203638006983L61.044999999999995,163.2660549804723L61.093333333333334,163.19713771118515L61.97944444444445,162.97073474681082L62.04388888888889,162.55932699313325L62.18888888888889,162.59165714697664L62.30166666666666,162.0165514850756L62.81722222222222,144.94798861068472L62.86555555555556,127.37376996215234L62.96222222222222,121.90279288287871L62.97833333333334,117.54672898290104L63.22,113.2257975629933L63.413333333333334,109.84855049170571L63.477777777777774,112.28207736664382L63.55833333333334,98.01496805171759L63.590555555555554,97.55483920331012L63.8,103.39991222167569L63.81611111111111,95.66863165481762L64.10611111111112,102.65342675420823L65.57222222222222,112.74860066704433L65.71722222222223,111.32899717478017L65.87833333333333,100.52838721608809L66.05555555555556,93.60859051359539L66.29722222222222,67.00388870059585L66.36166666666666,69.32137815095183L66.68388888888889,61.0926206353395L67.57000000000001,89.65859706011517L67.81166666666667,66.37684213063524L67.90833333333333,64.57228347487946L68.295,79.68273986424198L68.37555555555555,73.01832736842661L69.58388888888888,55.89601372888242L69.95444444444445,34.836649462217835L70.22833333333334,48.334200130909096L70.79222222222222,72.17459240956528L71.46888888888888,56.00517061559128L71.54944444444445,79.91500351637974L71.75888888888889,55.38273820253154L71.88777777777777,39.508306164403955L71.93611111111112,47.86955497026627L72.25833333333334,70.57714080599484L72.46777777777777,63.45114388475485L72.54833333333333,73.04945517545741L72.77388888888889,78.09459007566367L72.80611111111111,74.26292873237506L72.98333333333333,87.72645882546718L73.56333333333333,69.03911818032492L73.74055555555556,62.16987552332471L73.75666666666667,59.21991241813823L74.095,64.3679518061773L74.5461111111111,79.74333458206716L74.675,77.83926560694118L74.80388888888888,75.05567580180421L75.23888888888888,76.37694970541288L75.30333333333333,63.67226411820448L75.4161111111111,68.9613796021657L75.46444444444445,62.365930631695626L75.60944444444445,67.67901850126208L75.85111111111111,55.1203408100555L75.93166666666666,69.97803482573755L75.9961111111111,67.56248981895676L76.18944444444445,67.78795169864247L76.27000000000001,53.317364394255236L76.35055555555556,58.18194070076213L76.36666666666666,78.12431407648057L76.5761111111111,85.39575714924004L76.59222222222223,81.6649701150881L76.60833333333333,78.90524240143289L76.76944444444445,75.82782513707903L76.81777777777778,70.37582236670613L76.97888888888889,76.50142581922847L77.09166666666665,50.30762891159846L77.52666666666666,56.04413567041052L77.88111111111111,45.14401699882138L78.04222222222224,53.90681872067256L78.31611111111111,73.13508453597497L78.33222222222223,85.65964377404033L79.28277777777778,84.35223619815746L79.78222222222222,60.0473856816456L79.83055555555556,56.15825366589304L79.94333333333333,46.66742724051658L79.99166666666666,53.36543155967686L80.12055555555555,68.87123328142205L80.86166666666666,74.37066619042827L81.10333333333334,54.2698048699838L81.31277777777778,27.00338565113369L81.89277777777778,40.98690055746314L81.90888888888888,35.58816193220389L82.21499999999999,52.080769582766806L82.23111111111112,72.33584532509953L82.24722222222222,77.05508908680079L82.47277777777778,48.57457865524036L82.4888888888889,28.82688551624689L82.505,56.18979127199353L82.61777777777779,31.50651401054546L82.89166666666667,28.704603574958682L83.34277777777778,31.227720466682808L83.64888888888889,47.67213817426193L83.76166666666667,50.75998264646564L83.84222222222222,50.020440620245445L84.05166666666666,15.676997517724834L84.1,29.078153183312093L84.24499999999999,42.761956236682266L84.43833333333333,42.84386247579145L84.82499999999999,28.318085303380844L84.87333333333333,58.146341359728L85.48555555555556,79.01275751359069L86.03333333333335,63.84955749713321L86.29111111111112,48.01779203263398L86.58111111111111,49.03362897237054L86.75833333333334,45.93228202819772L86.88722222222222,77.63512374768906L87.06444444444445,90.27025002332395L87.28999999999999,50.91288788543689L87.98277777777777,38.82247269969825L88.33722222222222,8.189227943549419L88.35333333333332,14.770215777883283L88.46611111111112,29.549347854878704L88.49833333333332,26.572266379814785L88.61111111111111,65.67216789848038L89.03,59.132886746342685L89.67444444444445,62.33050148314324L89.72277777777778,66.87388689278075L89.83555555555556,43.77930543278758L90.0288888888889,32.072201092401336L90.22222222222223,41.5223514607561L90.43166666666667,37.438358560605444L90.44777777777777,71.71719326528695L90.48,65.96908799722324L90.70555555555555,46.24326004931051L91.09222222222222,62.05110728778246L91.14055555555555,59.61543943632042L91.17277777777778,39.70912565694431L91.205,-3.4706260288244577L91.25333333333333,24.237770387518395L91.31777777777778,21.120659625437934L91.36611111111111,-9.560790783051953L91.67222222222223,2.6838929400111646L92.02666666666667,-7.504242875432489L92.10722222222222,14.011315053549126L92.60666666666667,33.20205244242524L92.70333333333333,19.27735167855502L92.81611111111111,9.574836910453337L92.84833333333333,2.627107520853459L93.15444444444445,-3.9893628852976173L93.28333333333333,18.428795271925534L94.21777777777778,51.33628259528423L94.25,37.14045241849867L94.41111111111111,24.78319575006685L94.55611111111111,24.98396395010985L95.08777777777777,-6.144529423251588L95.23277777777778,2.1567956386341374L95.29722222222223,14.334983123100955L95.39388888888888,15.700177168956824L95.58722222222222,18.192384830949983L95.63555555555556,-3.950289621449551L96.11888888888889,41.768585829268254L96.26388888888889,35.025010052945994L96.36055555555556,37.29740329652068L96.86,24.853271232062795L96.89222222222223,4.638167442432446L97.03722222222223,-12.848452160796137L97.21444444444444,-22.36547937753238L97.3111111111111,1.205135198885133L97.42388888888888,-3.664663195680096L98.02000000000001,20.172862805596967L98.42277777777778,17.72549097262994L98.51944444444445,41.280977632371204L98.61611111111111,12.912805939774278L98.66444444444444,26.952514605473088L99.01888888888888,24.817570927590484L99.58277777777778,-2.255908031127034L99.75999999999999,30.71448666674509L100.32388888888889,26.575213148728682L100.67833333333334,16.63753729562671L100.72666666666666,-1.0715974084777637L100.80722222222222,12.049508639525483L101.78999999999999,36.43843229553171L101.87055555555557,15.38672802617507L101.95111111111112,56.08152175528022L102.04777777777777,32.889330751619596L103.03055555555557,27.855561559579463L103.46555555555557,37.62781268735204L103.675,18.897565254361545L103.80388888888889,22.045246589314765L103.98111111111112,28.239780726851958L104.17444444444445,2.6350540440213415L104.545,32.76356619193318L104.64166666666667,18.685417547191136L105.125,-6.424632345220519L105.75333333333333,-14.073742468543106L105.81777777777778,1.6702833056696345L105.91444444444444,34.187316424180246L106.47833333333332,45.06965826968673L106.52666666666667,40.004751591973864L107.12277777777777,29.505715487655014L107.2838888888889,45.90313155002186L107.59,51.25759945003264L107.7188888888889,47.37078423143839L107.78333333333333,48.44926477627235L107.81555555555555,37.40843525213338L107.91222222222223,61.701989121076345L108.05722222222222,57.02233391454034L108.20222222222222,38.078681524610076L108.42777777777778,15.64031734808076L108.54055555555556,16.91198784624383L108.895,30.054063457083654L109.00777777777778,7.86506995378426L109.10444444444445,48.19497949406883L109.1688888888889,29.0076653174653L109.185,29.76565812864184L109.62,34.024843398390466L109.66833333333332,49.210128228801295L109.7811111111111,38.4638454047752L110.03888888888888,20.914761274673154L110.07111111111111,25.34085625472438L110.11944444444445,36.59282270843591L110.13555555555556,34.015153594718356L110.26444444444445,38.5842911968352L110.87666666666668,48.922352999176724L111.08611111111111,69.44321807827976L111.32777777777778,44.17864854629123L111.63388888888888,46.23099541090812L111.69833333333332,48.16463615209732L111.8111111111111,42.21616119042135L111.95611111111111,49.819136324325356L112.45555555555555,46.71025906423109L112.63277777777778,31.735233589696577L113.14833333333333,31.547178340027497L113.53500000000001,47.07584898748469L113.8411111111111,64.02161587268053L114.05055555555556,40.80248804341859L114.06666666666666,4.798677056310645L114.19555555555556,-21.189455570412857L114.22777777777777,-7.4832390771110004L114.90444444444444,17.57802325469602L114.96888888888888,44.97035695644485L115.03333333333333,22.60233306163196L115.21055555555556,-1.8821387633975124L115.22666666666666,34.89728629370186L115.25888888888889,38.2093526547786L115.275,61.758277717483516L115.79055555555556,32.02239338830262L115.96777777777778,26.831957390926604L116,-9.949393985854208L116.08055555555556,12.823784781583166L116.11277777777778,24.03300308156151L116.29,17.02995304173825L116.40277777777779,53.31492072117857L116.61222222222221,55.5057161743366L116.85388888888889,45.99841625506931L116.99888888888889,54.79924556690181L117.04722222222222,56.66278800176218L117.53055555555557,72.66103506432809L117.9011111111111,61.34268906663816L117.91722222222222,50.10601258810648L117.96555555555555,35.28935013273274L117.99777777777778,20.934696810596694L118.06222222222222,34.52759717396961L118.15888888888888,29.881746183671645L118.61,44.52946017706963L118.7388888888889,45.58917757108553L119.10944444444443,50.48588390558378L119.25444444444445,23.478593724000397L119.27055555555556,35.62927993086369L119.94722222222222,49.61885490658601L120.09222222222222,30.6767310347719L120.17277777777777,28.69127761709639L120.89777777777778,37.57940844647853L120.97833333333334,20.818951961372044L121.17166666666667,17.192983834642693L121.55833333333334,-11.910705976069877L121.91277777777778,-1.6464952147574357L122.50888888888889,17.174094971452455L123.29833333333335,28.343153446320127L123.52388888888889,7.693490988341753L124.42611111111111,13.315725308511475L124.53888888888889,42.93864564086512L124.9738888888889,49.38054842054727L124.99,50.61437615403038L125.36055555555555,43.36724839052091L125.48944444444444,28.91563585595038L126.18222222222222,41.29063088142039L126.73,28.997701653329084L126.93944444444445,41.43707621399104L126.98777777777778,13.392433367903564L128.0511111111111,36.61375735786546L128.18,36.581021334536516L128.30888888888887,27.488277739512363L128.58277777777778,35.449917741468305L128.7277777777778,17.058993352051722L128.84055555555557,23.320510081578423L128.93722222222223,5.855573391650732L129.0338888888889,13.849269436950527L129.61388888888888,63.41745248335476L129.74277777777777,69.79906325637027L130.14555555555555,61.24954672718991L130.16166666666666,49.41021372356979L130.67722222222224,41.18909384519096L130.70944444444444,73.74694388864013L131.03166666666667,50.99766488577894L131.11222222222221,55.240595478621394L131.14444444444445,64.39371284311592L131.17666666666665,57.98234946664661L131.59555555555556,74.92127907783257L132.19166666666666,66.80219652820762L132.28833333333333,61.15504088706967L132.51388888888889,51.33007555327277L132.80388888888888,75.98636502321297L133.3838888888889,62.00623165954022L133.41611111111112,55.524256813630096L133.52888888888887,70.34117410291368L133.67388888888888,68.83286577766617L133.72222222222223,76.98267515943593L134.17333333333335,59.03302792542577L134.23777777777778,43.00752963716115L134.27,62.505474650059675L134.47944444444443,33.642760890412475L134.65666666666667,56.612205759100995L134.67277777777778,53.87612335170084L134.75333333333333,55.295570905202986L134.83388888888888,63.904778979366206L135.43,29.82157087011134L135.72,3.1738680330182545L136.0261111111111,13.873975142843866L136.2838888888889,6.028924052293932L136.50944444444443,45.356920841986025L136.79944444444445,45.36057638999212L136.8477777777778,55.415646828868326L137.39555555555557,69.4820059714665L137.4438888888889,68.51313858479816L137.5888888888889,64.77549846372767L137.68555555555557,74.65502147726698L137.76611111111112,20.15566172494836L137.97555555555556,17.144366622022577L138.0561111111111,28.24988293446496L138.3138888888889,24.32924847754563L138.39444444444445,41.394958318530705L138.475,33.02733793231541L138.53944444444446,54.06017049228197L138.79722222222222,14.742152100056668L139.345,40.896558458869116L139.73166666666665,42.81593449548748L140.40833333333333,36.74104912677071L140.48888888888888,39.09036702053091L140.65,26.214875729896665L140.71444444444444,48.34271644048405L140.97222222222223,23.756367125381384L141.14944444444444,6.002573457776279L141.53611111111113,-4.246595922544052L141.81,12.708291748928914L142.1161111111111,23.594912248541235L142.45444444444445,27.68870908531336L142.48666666666668,21.042905561574436L142.58333333333331,41.85087205572954L142.72833333333332,42.773217390629426L142.98611111111111,23.52548652568624L143.61444444444444,37.46601398310846L143.64666666666668,31.81385127055007L143.695,32.855968581805485L143.87222222222223,43.900075246111754L143.98499999999999,50.1903275224578L144.59722222222223,24.960441979434492L144.855,34.81621383093637L144.93555555555554,63.75666308031754L144.96777777777777,80.84358882545057L145.29,58.960678790527034L145.46722222222223,40.42561362110052L145.7088888888889,45.408000967721705L145.87,43.04668593481131L146.885,39.85045567012228L146.93333333333334,54.039458233965114L147.03,40.62626481464664L147.64222222222222,40.79138303865544L147.8516666666667,60.42533889999293L147.86777777777777,71.98147030994902L147.9,65.33811227106987L147.99666666666667,69.71066270740336L148.045,79.1575315486538L148.33499999999998,83.6077554055455L148.625,41.524729624465685L149.01166666666668,60.57479417813924L149.07611111111112,49.345740873687404L149.26944444444445,55.814681419092466L149.41444444444446,67.33716898939494L149.9622222222222,62.806668873233775L150.3811111111111,57.40463994785907L150.44555555555556,66.94653257362614L150.47777777777776,77.70182995764527L150.68722222222223,77.90495825203554L150.76777777777775,66.96765721963652L150.9127777777778,63.72564708359552L151.20277777777778,29.143704726161786L151.8311111111111,39.96992069423503L152.00833333333333,26.56134143282868L152.02444444444444,32.92553997147873L152.47555555555556,48.34474092275891L152.54000000000002,71.62490973920222L152.57222222222222,64.04982244351436L152.76555555555555,41.78153156250928L153.1522222222222,17.30180311021762L153.34555555555556,35.89867960957366L153.47444444444446,30.536382382966572L153.57111111111112,36.03848954243341L153.74833333333333,54.644883864794586L153.87722222222223,72.34979976685736L153.90944444444443,75.85258254042971L154.0061111111111,60.141821523071975L154.55388888888888,70.22365462038616L154.69888888888892,50.76237174474845L154.73111111111112,55.717286764064475L154.77944444444444,39.007427722501184L155.27888888888887,33.120543277264666L155.295,64.03133968183035L155.37555555555556,75.90399554668191L155.63333333333333,73.86715846256551L155.64944444444444,60.430608580259715L156.6161111111111,79.16455614023872L156.71277777777777,34.36218469907069L156.76111111111112,54.243961820418996L157.18,74.95208950331445L157.26055555555556,52.773094173528854L157.79222222222222,81.69510947413161L157.80833333333334,99.00792617664031L158.22722222222222,101.86373765047706L158.50111111111113,61.09577188716123L158.56555555555556,77.70107050621554L158.69444444444446,71.97953298976448L158.775,65.23172649028727L158.79111111111112,51.725832028031185L158.88777777777779,57.06672846486559L159.21,79.78164144249706L159.41944444444445,70.74754437041592L159.5161111111111,89.46135435924033L159.9188888888889,96.42497368078207L159.96722222222223,86.74804501256381L160.88555555555556,78.37836409947468L161.59444444444443,68.75177449344598L161.62666666666667,83.50470824421559L161.85222222222222,68.72645032581927L161.98111111111112,62.675243669612655L162.35166666666666,54.18337042749304L162.36777777777777,74.47706981160184L162.65777777777777,54.41584413392677L163.07666666666668,78.69674796377194L163.4311111111111,73.6953199400238L163.73722222222221,93.20044263104134L163.75333333333333,101.85432401324744L164.20444444444442,96.16979850733114L164.33333333333334,78.90825407388111L164.34944444444446,69.7553041376183L164.59111111111113,74.1327680756583L164.80055555555555,60.817960929100344L164.81666666666666,77.66636651674104L165.21944444444446,62.19478882571148L165.5738888888889,75.45894148259556L165.67055555555555,91.93818364566086L165.71888888888887,83.88506786736305L165.79944444444445,84.67058673874581L165.88,95.22592317754228L165.96055555555554,81.80936594440203L166.7338888888889,89.87761023916144L166.78222222222223,71.83656150046532L166.95944444444444,78.9721664578615L167.185,61.064447030478625L167.50722222222223,61.21187910347133L167.73277777777776,59.516286441226214L167.81333333333333,63.344153055444444L168.4738888888889,56.75229008591732L168.53833333333336,73.47903923884114L169.02166666666665,86.43092868333676L169.23111111111112,53.45077088972443L169.505,68.36135993591684L169.64999999999998,61.215921600326595L169.94,59.24943389804471L170.0366666666667,56.792183662975816L170.18166666666667,63.11862839585329L170.87444444444444,75.55490499946093L171.0677777777778,65.7516665801732L171.1,59.78649241462177L171.21277777777777,63.34333317547508L171.72833333333332,86.57340752421642L171.79277777777776,79.49588908414482L172.29222222222222,61.91872984854074L172.38888888888889,69.53303356342133L172.67888888888888,69.52567933866663L172.77555555555554,81.77908165802697L173.2266666666667,73.1941472544423L173.2588888888889,88.46856574960316L173.61333333333334,72.94300320185454L173.64555555555555,72.60248919441072L173.80666666666667,98.25536626270531L173.98388888888888,95.2710113966787L174.37055555555557,76.37203696583228L174.53166666666667,85.16756365375998L175.04722222222222,73.80578313941696L175.1277777777778,83.08889838314445L175.24055555555557,95.03115837454348L175.4177777777778,97.74805015560291L175.51444444444445,73.65886237659976L175.88500000000002,85.7503763684822L175.94944444444445,70.2112643342729L176.25555555555556,71.06035078108829L176.67444444444445,86.72323806744274L176.73888888888888,73.61465719157472L176.88388888888886,84.99523183456328L176.98055555555555,94.75501565495463L177.0611111111111,76.44070278722499L177.3188888888889,88.48438128014052L177.75388888888887,88.04952161214823L178.01166666666666,97.60073310453085L178.15666666666667,103.92369652426986L178.26944444444442,80.98269316916569L178.35,83.37432028425961L179.10722222222222,78.21596437165789L179.17166666666668,73.2221494019777L179.67111111111112,93.30655015013264L179.86444444444444,83.1362637692788L180.28333333333333,70.66729755076929L180.33166666666668,75.4080666059359L180.44444444444446,79.48705473319743L180.49277777777777,78.20019794960734L180.57333333333335,89.09187003188426L180.63777777777779,92.43858184055912L180.79888888888888,73.84036454971772L180.86333333333334,92.04540552574652L180.9922222222222,101.47610958742058L181.2822222222222,105.0542750446189L181.91055555555556,102.39206573739494L182.1038888888889,102.76617974351468L182.13611111111112,107.75539213740346L182.2488888888889,110.63376300766181L182.41,106.72138562529322L182.4261111111111,105.22722665846625L182.49055555555557,93.88306775864699L182.58722222222224,98.96001509584458L182.63555555555556,91.48274694638789L182.78055555555557,91.20912395213449L182.89333333333335,84.80310853963309L183.00611111111112,84.27744097957992L183.1027777777778,103.32189387197998L183.1188888888889,110.15431576218771L183.21555555555557,83.80716609131095L183.29611111111112,85.56906013539484L183.4572222222222,96.19460122275125L183.61833333333334,101.0254778727586L183.95666666666665,91.60289176951873L184.32722222222222,92.63701336022547L184.35944444444442,95.98275741973461L184.5688888888889,93.00930667134062L184.79444444444445,101.45991034906554L184.82666666666665,95.44010665996598L185.08444444444444,106.71613015590914L185.10055555555556,105.59433261276281L185.11666666666665,113.58372171644397L185.6,111.85560206367987L185.89000000000001,104.05414000320512L186.035,91.39788781487647L186.18,85.24768626297025L186.3411111111111,84.95021902052979L186.42166666666668,85.32227090162799L186.77611111111113,103.78050558885451L186.905,117.71220526545696L187.00166666666667,109.28340289298652L187.2111111111111,103.10815190206911L187.74277777777777,93.36960401442785L188.0327777777778,100.23795218003646L188.0488888888889,98.89788186884776L188.09722222222223,103.76495090344802L188.30666666666667,107.22558302550212L188.3711111111111,107.08052070283965L188.56444444444446,99.38498194031078L188.58055555555555,111.11012958210291L188.69333333333333,115.67916074399528L189.08,114.37649721369627L189.11222222222221,115.35880106215679L189.3538888888889,121.65205729439857L189.37,124.18634553146791L189.66,117.75963093599847L189.91777777777776,115.12062958132218L190.0788888888889,119.0428722371007L190.32055555555556,123.32209097117541L190.49777777777777,120.61628275478951L190.70722222222224,121.67535954675974L190.91666666666666,117.98932364475155L191.19055555555553,118.33697397593087L191.3033333333333,115.54220461435315L191.62555555555556,113.4430295905985L191.78666666666666,117.1903784320237L191.98000000000002,118.59918442179793L191.9961111111111,118.83565626116331L192.49555555555557,104.58714520846277L192.51166666666668,101.95383314558546L192.52777777777777,103.44662196115151L192.68888888888887,92.3786830155581L192.89833333333334,99.05913043311416L192.995,97.78639781989222L193.1238888888889,99.69642853568533L193.22055555555553,104.10718278102685L194.34833333333333,87.83771139765491L194.78333333333333,91.49200290670817L195.2827777777778,92.20589635680042L195.36333333333332,99.11120232562465L195.55666666666667,112.72669204400411L196.37833333333333,100.81241491512317L196.41055555555556,113.71824317994374L196.68444444444444,118.67394055976068L196.79722222222225,114.94540329590454L196.95833333333334,119.46483341583618L197.6672222222222,120.81364469366673L197.76388888888889,118.04405336283091L197.84444444444443,129.34456552447344L198.10222222222222,124.43865937170833L198.74666666666667,113.14668615821613L198.84333333333333,116.74217928438976L198.89166666666665,114.59632007848124L198.90777777777777,114.06769815104033L199.6972222222222,114.40099281814932L199.84222222222223,118.21813163623696L200.01944444444445,121.5954814902871L200.5027777777778,115.57027463592378L200.59944444444446,101.35745724894406L200.61555555555557,112.35101171051146L200.71222222222224,104.96834433317422L201.405,111.49153525155073L201.67888888888888,111.0508887434423L202.04944444444445,113.20822839507836L202.21055555555554,120.26522644722941L202.37166666666667,124.62086893435152L202.565,128.5475906300637L202.6938888888889,128.1543520257869L202.93555555555557,126.0373469114473L203.22555555555556,117.05937050343576L203.53166666666667,125.15686912496358L203.69277777777776,133.8634096524684L203.725,129.8828725170321L204.7238888888889,119.73500823922316L204.885,115.06288732224833L204.99777777777777,113.53295783105827L205.07833333333335,114.5184835979967L205.3361111111111,119.33607088367769L205.4488888888889,118.93166060097253L205.465,121.17385885164624L205.65833333333333,118.29976216462543L205.755,122.5673318547445L206.3672222222222,130.14434721552527L206.89888888888888,123.2881137396458L207.43055555555557,111.22363583717126L207.785,121.31893880581315L207.84944444444446,119.8840364816429L209.05777777777777,130.75962840470666L209.26722222222222,130.7445640181396L209.79888888888888,128.39483260992813L209.815,132.29869869162826L209.89555555555555,135.32887592492045L210.02444444444444,132.77090832407373L210.31444444444443,123.09562265950073L210.49166666666667,117.46717269194416L210.95888888888888,127.28450874124768L211.34555555555553,134.0671012659104L211.44222222222223,124.06197619620919L211.45833333333331,123.31120615796338L211.555,130.4876003721549L211.5872222222222,128.28791466316457L212.00611111111112,130.21446971682664L212.18333333333334,130.5925639657597L212.79555555555555,131.59919133900695L212.85999999999999,138.01519496665142L212.95666666666665,134.28195005210824L213.06944444444446,133.72781899083353L213.08555555555554,134.27847293986667L213.2788888888889,137.23493582233064L213.5688888888889,136.4964421343547L214.02,141.03270461101357L214.19722222222222,143.07923077921626L214.55166666666668,141.84091157543992L214.7611111111111,144.67158463120322L214.77722222222224,143.48536114423533L214.90611111111113,145.9682128168033L215.09944444444443,138.3755247981055L215.3088888888889,139.79780579443423L215.7922222222222,144.02680191265645L215.95333333333335,144.43806556128578L216.00166666666667,142.21276233983195L216.03388888888887,137.99226920395674L216.58166666666668,139.60737390597126L216.6622222222222,140.87234760604264L216.69444444444446,142.90138424275068L216.82333333333335,140.74865169411407L216.87166666666667,141.3343450757423L216.90388888888887,139.39470238453927L216.96833333333333,139.73633813037827L217.30666666666664,141.8768987388445L217.3388888888889,140.58511647392365L217.54833333333332,140.7314009237829L217.9188888888889,134.8176650280595L217.93499999999997,131.75045530629058L218.4022222222222,136.42079481637757L218.6277777777778,143.59754433776138L218.75666666666666,141.47029738512754L219.28833333333333,143.80855028885588L219.80388888888888,145.49227827021556L220.5611111111111,144.81840405515564L220.65777777777777,146.09412871119136L220.93166666666667,142.05845750690978L221.3022222222222,142.96885546313896L221.52777777777777,143.43872750986492L221.62444444444446,142.93252719021024L221.7211111111111,143.4890425396249L221.76944444444445,141.30145546696863L221.91444444444446,142.9250455181224L222.07555555555555,142.67148949523448L222.10777777777776,143.9945812701649L222.60722222222222,147.97101412497474L222.63944444444445,147.7514037200192L222.70388888888888,145.73938721383175L222.91333333333336,143.5959574952738L223.04222222222222,143.56087137107437L223.09055555555554,144.44869096033122L223.155,148.9356149243171L223.4127777777778,146.766470545428L223.55777777777777,148.01336720307205L223.65444444444447,147.8746266908618L223.73499999999999,148.34352689462222L224.23444444444445,147.0155138314973L224.25055555555554,146.1338736877141L224.3311111111111,146.80854464000535L224.605,148.30425663520822L224.83055555555555,145.2931830138049L224.84666666666666,146.52349979971623L225.07222222222222,149.37752176681877L225.10444444444445,149.5576545564771L225.185,149.9231060591688L225.475,148.38074994062907L225.7488888888889,150.62958593217706L225.84555555555556,149.13635949725528L225.99055555555555,151.8379985433326L226.3127777777778,152.230195453427L226.4738888888889,152.7444542553282L226.57055555555556,149.86744349806474L226.6511111111111,151.63927303455793L226.78,153.14919252780308L227.73055555555555,153.06470163576142L228.06888888888886,153.91573931505542L228.26222222222222,154.5164622464451L228.375,152.6392300427872L228.43944444444443,152.9086347745693L228.93888888888887,153.71574315929288L229.34166666666667,153.42918860786907L229.39000000000001,151.57381718083474L229.51888888888888,152.7386539706756L229.77666666666667,151.98606446797666L229.92166666666665,152.2021677711224L230.42111111111112,152.8949433933863L230.45333333333332,153.18018879037402L230.51777777777778,155.42631389787292L230.61444444444447,155.7341223541613L230.64666666666668,154.64371415041182L230.6627777777778,154.5776198193312L231.11388888888888,154.67377443921706L231.25888888888886,155.2895807438961L231.33944444444444,157.05131682478614L231.45222222222222,158.17522656326855L231.51666666666668,158.42219040720596L231.90333333333334,158.83608193252985L231.96777777777777,158.92918442503174L232,158.54010530855734L232.33833333333334,156.2993824153503L232.35444444444443,155.4298337507718L232.37055555555554,154.52609198859173L232.5961111111111,155.61096997107427L232.6927777777778,156.79544622465332L232.78944444444446,154.79323297309068L232.83777777777777,155.41368694217743L233.22444444444443,157.03499501107606L233.25666666666666,158.79801328395888L233.2888888888889,159.54618278631617L233.96555555555557,160.80484769823155L234.48111111111112,161.61951488952468L235.23833333333334,162.06567231629953L235.89888888888888,162.30787303575673L235.99555555555557,162.51885083684033L236.07611111111112,162.64431288513197L236.14055555555555,162.74201560285138L236.495,162.79877458186246L236.60777777777778,162.7909158767965L236.96222222222224,162.74394612714175L237.26833333333335,162.74806211508314L238.15444444444444,162.79032168900883L238.29944444444445,162.8109000819167L239.20166666666665,162.81113569226167L239.3788888888889,162.83536878756465L240.07166666666666,162.85061121593412L240.13611111111112,162.86159569252686L240.20055555555555,162.86465037278114L240.41,162.82631146982945L240.76444444444445,162.8612386612632L241.21555555555554,162.86325250182637L241.28,162.86665689876983L241.31222222222223,162.87587114054745L241.36055555555555,162.8774260047091L241.61833333333334,162.8695259623961L241.82777777777778,162.8712441179808L241.95666666666668,162.88346135050563L242.02111111111114,162.89007260051247L242.05333333333334,162.88198766838494L242.11777777777777,162.8786076836219L242.24666666666667,162.8783238224218L242.26277777777776,162.88538485258144L242.32722222222222,162.89327443090954L242.4238888888889,162.89450816285196L242.44,162.89708024757343L243.08444444444444,162.87257049005427L243.14888888888888,162.86845312003442L244.69555555555556,162.8760708100362L244.85666666666668,162.88451828588197L245.04999999999998,162.89362821357938L245.32388888888892,162.8941040700184L245.43666666666667,162.87669104762202L245.58166666666668,162.8737322427471L245.69444444444443,162.88605064395048L245.87166666666667,162.8998100397424L246.41944444444445,162.88426500816047L246.56444444444443,162.88385215504877L247.28944444444446,162.89628581091964L247.9177777777778,162.8998043956045L248.14333333333335,162.8901764463679L248.4011111111111,162.88005783029175L248.9972222222222,162.88633500939986L249.41611111111112,162.88970620346464L249.59333333333333,162.88424997907606L250.07666666666665,162.88653369466923L250.22166666666666,162.88947075302536L250.23777777777778,162.89254396393125L250.5277777777778,162.89011392579724L250.65666666666667,162.90182263195834L250.94666666666666,162.8977576121111L251.14,162.90227287335853L251.20444444444445,162.90901147541456L251.70388888888888,162.90639920040485L252.01,162.89912722743549L252.0422222222222,162.89267592298896L252.07444444444445,162.89418697789344L252.09055555555557,162.89679650497882L252.3,162.89508448007032L252.97666666666666,162.89482723588287L253.20222222222222,162.8920487672957L253.52444444444444,162.88348576968147L253.89499999999998,162.8900647653994L254.24944444444444,162.8941530508399L254.5877777777778,162.88969069360152L255.05499999999998,162.89348056339298L255.345,162.8972325735105L255.635,162.90021890512273L255.7477777777778,162.8948926945909L256.00555555555553,162.9004353405977L256.2472222222222,162.90291216385035L256.4244444444445,162.90126502180243L256.65,162.9011663747251L257.14944444444444,162.90220824707356L257.3105555555556,162.89916998079985L257.4555555555556,162.89831231791717L257.87444444444446,162.89971113248603L258.3416666666667,162.8994063768281L258.5188888888889,162.8995333926546L258.5511111111111,162.89952767369297" style="fill: none;" fill="none"></path></g></g></g></g><g opacity="0.2"><g><g><g><path stroke="rgb(255, 112, 67)" stroke-width="2px" d="M32.51222222222222,163.44339737764426L32.97944444444445,164.04466712102294L33.22111111111111,164.17537654478636L33.23722222222222,164.1560654828591L33.36611111111111,164.17316126621193L33.65611111111111,164.19627892683658L33.88166666666667,164.2218144641391L33.94611111111111,164.21624198955087L34.284444444444446,164.19912437142006L34.31666666666666,164.21788757635014L34.751666666666665,164.27945127907608L34.8,164.30985616025114L34.864444444444445,164.21764100726162L34.99333333333333,164.29264088376826L35.29944444444444,164.237263841182L35.49277777777778,164.25024268563303L35.91166666666667,164.2283782169223L36.15333333333333,164.18389295595034L36.169444444444444,164.2471566534468L36.395,164.28377840361955L36.58833333333334,164.24739110884923L36.76555555555555,164.1899405112224L36.81388888888889,164.30698231538491L37.31333333333334,164.2723701607436L37.361666666666665,164.28866212660714L37.79666666666667,164.3055912007711L37.99,164.23916901504356L38.11888888888889,164.24349824488164L38.312222222222225,164.31917851303837L38.44111111111111,164.3373655336909L38.69888888888889,164.29241520278157L38.90833333333333,164.21616148911417L39.24666666666667,164.31057522432613L39.26277777777778,164.31657213478218L39.40777777777778,164.2942864941167L39.64944444444444,164.20423914460198L39.71388888888889,164.34125694232063L39.875,164.32185969519028L39.955555555555556,164.27835371411803L39.971666666666664,164.3395742879715L40.43888888888889,164.2468903784241L40.47111111111111,164.32126735383645L40.48722222222222,164.30746908587005L40.809444444444445,164.303136672186L40.88999999999999,164.29488953620728L40.92222222222222,164.2852057556755L41.18,164.27839875423484L41.27666666666667,164.21628534825786L41.72777777777778,164.24408785924317L41.79222222222222,164.2104408809117L41.824444444444445,164.33133824717785L42.35611111111111,164.26973841062613L42.485,164.16702605155962L42.58166666666667,164.30046386646904L42.59777777777778,164.26986110173166L42.82333333333333,164.31189814058266L42.968333333333334,164.28291195008373L43.09722222222222,164.272606151551L43.83833333333334,164.30351897861274L43.90277777777777,164.29305124195025L44.53111111111111,164.28691858473633L44.708333333333336,164.23411042072945L44.82111111111111,164.30787001025996L44.91777777777778,164.2908803346966L45.175555555555555,164.28441547424134L45.626666666666665,164.24654339573215L46.029444444444444,164.34368267381964L46.17444444444444,164.3285979495783L46.49666666666666,164.25339716108783L47.39888888888889,164.30212224988L48.31722222222222,164.24188151050893L48.397777777777776,164.23295336589217L48.575,164.29256144775343L48.68777777777778,164.29766223273637L48.752222222222215,164.2236376680966L48.784444444444446,164.32671378156437L48.92944444444444,164.28354641145893L49.23555555555556,164.21157994419337L49.47722222222222,164.19696548836572L49.573888888888895,164.27016076003866L49.91222222222222,164.23811140358447L50.089444444444446,164.25268223695457L50.12166666666667,164.2220584616597L50.34722222222222,164.25610796101392L50.459999999999994,164.25579659406628L50.76611111111111,164.24528750037507L50.782222222222224,164.20817154289358L50.97555555555556,164.33984868745318L51.13666666666667,164.2540166169405L51.16888888888889,164.15706127307243L51.29777777777778,164.25983723370092L51.442777777777785,164.25156222965038L51.845555555555556,164.24729920120112L51.958333333333336,164.10027383853284L52.29666666666667,164.14636718662723L52.39333333333333,164.28002302433762L52.42555555555556,164.14544336263623L52.47388888888889,164.09733878469893L52.538333333333334,164.1450745074877L52.635,164.12162740358286L52.699444444444445,164.23897349110672L52.78,164.2219298267471L53.13444444444445,164.2078848743013L53.56944444444445,164.22569282182627L53.891666666666666,164.26037156406258L54.19777777777777,164.24820079478835L54.375,164.20316444587493L54.391111111111115,164.14820194851075L55.05166666666666,164.0781824124711L55.406111111111116,164.13364489610706L55.696111111111115,163.97226708552665L55.71222222222222,164.16764737250548L56.29222222222223,164.2835249204987L56.42111111111112,164.05079788959452L56.550000000000004,163.79462509708745L56.59833333333333,164.09896118970855L57.16222222222222,164.06272994577884L57.21055555555555,163.91649465731211L57.43611111111112,164.1216941513121L57.48444444444444,164.07185294553636L57.565000000000005,163.8653822492276L57.75833333333333,163.8687850081495L57.93555555555555,164.13419214082614L58.435,164.12928866009625L58.56388888888889,164.038094287685L59.12777777777778,163.86802996567317L59.36944444444445,164.13865139026726L59.64333333333333,163.90802246204444L59.675555555555555,164.08926225293962L59.723888888888894,164.1099690639547L59.788333333333334,163.94492199335778L60.81944444444444,163.44999377897807L60.85166666666667,163.52181041709014L61.044999999999995,162.642082881076L61.093333333333334,163.0937618072544L61.97944444444445,162.63113030024937L62.04388888888889,161.94221536261693L62.18888888888889,162.64015237774166L62.30166666666666,161.15389299222403L62.81722222222222,119.34514429909844L62.86555555555556,101.01244198935372L62.96222222222222,113.69632726396831L62.97833333333334,111.01263313293457L63.22,106.74440043313163L63.413333333333334,104.78267988477435L63.477777777777774,115.93236767905098L63.55833333333334,76.61430407932828L63.590555555555554,96.86464593069893L63.8,112.16752174922398L63.81611111111111,84.07171080453057L64.10611111111112,113.13061940329415L65.57222222222222,127.89136153629848L65.71722222222223,109.19959193638392L65.87833333333333,84.32747227805001L66.05555555555556,83.2288954598563L66.29722222222222,27.096835981096547L66.36166666666666,72.79761232648578L66.68388888888889,48.74948436192103L67.57000000000001,132.5075616972787L67.81166666666667,31.454209736415322L67.90833333333333,61.865445491245815L68.295,102.3484244482858L68.37555555555555,63.02170862470355L69.58388888888888,30.21254326956612L69.95444444444445,3.2476030622209837L70.22833333333334,68.580526133946L70.79222222222222,107.93518082754953L71.46888888888888,31.751037924630307L71.54944444444445,115.77975286756242L71.75888888888889,18.584340231759217L71.88777777777777,15.696658107212619L71.93611111111112,60.41142817905971L72.25833333333334,104.63851955958775L72.46777777777777,52.76214850289481L72.54833333333333,87.44692211151123L72.77388888888889,85.66229242597306L72.80611111111111,68.5154367174421L72.98333333333333,107.92175396510532L73.56333333333333,41.0081072126116L73.74055555555556,51.866011537824356L73.75666666666667,54.79496776035853L74.095,72.09001088823591L74.5461111111111,102.80640874590193L74.675,74.98316214425225L74.80388888888888,70.88029109409877L75.23888888888888,78.35886056082589L75.30333333333333,44.615235737391885L75.4161111111111,76.89505282810757L75.46444444444445,52.47275717599051L75.60944444444445,75.64865030561175L75.85111111111111,36.28232427324568L75.93166666666666,92.2645758492606L75.9961111111111,63.93917230878557L76.18944444444445,68.12614451817103L76.27000000000001,31.611483437674377L76.35055555555556,65.47880516052247L76.36666666666666,108.03787414005825L76.5761111111111,96.30292175837924L76.59222222222223,76.06878956386021L76.60833333333333,74.76565083095005L76.76944444444445,71.21169924054827L76.81777777777778,62.19781821114677L76.97888888888889,85.68983099801201L77.09166666666665,11.016933550153455L77.52666666666666,64.64889580862862L77.88111111111111,28.793838991437646L78.04222222222224,67.05102130344936L78.31611111111111,101.97748325892856L78.33222222222223,104.44648263113838L79.28277777777778,82.39112483433314L79.78222222222222,23.590109906877792L79.83055555555556,50.32455564226424L79.94333333333333,32.43118760245188L79.99166666666666,63.41243803841727L80.12055555555555,92.12993586403984L80.86166666666666,82.61981555393764L81.10333333333334,24.118512889317095L81.31277777777778,-13.896243177141463L81.89277777777778,61.962172916957314L81.90888888888888,27.490053994315L82.21499999999999,76.8196810586112L82.23111111111112,102.71845893859863L82.24722222222222,84.13395472935268L82.47277777777778,5.85381300789969L82.4888888888889,-0.7946541922432946L82.505,97.23414990561348L82.61777777777779,-5.518401881626684L82.89166666666667,24.50173792157855L83.34277777777778,35.01239580426897L83.64888888888889,72.33876473563058L83.76166666666667,55.391749354771214L83.84222222222222,48.911127580915185L84.05166666666666,-35.83816713605609L84.1,49.179886681692935L84.24499999999999,63.28766081673759L84.43833333333333,42.96672183445521L84.82499999999999,6.529419544764929L84.87333333333333,102.88872544424875L85.48555555555556,110.31238174438477L86.03333333333335,41.10475747244699L86.29111111111112,24.27014383588519L86.58111111111111,50.55738438197545L86.75833333333334,41.280261611938485L86.88722222222222,125.1893863269261L87.06444444444445,109.22293943677631L87.28999999999999,-8.123155321393677L87.98277777777777,20.686849921090268L88.33722222222222,-37.76063919067383L88.35333333333332,24.64169752938407L88.46611111111112,51.71804597037178L88.49833333333332,22.106644167218896L88.61111111111111,124.3220201764788L89.03,49.32396501813616L89.67444444444445,67.12692358834403L89.72277777777778,73.68896500723703L89.83555555555556,9.137433242797847L90.0288888888889,14.511544581821985L90.22222222222223,55.69757701328823L90.43166666666667,31.312369210379455L90.44777777777777,123.13544532230922L90.48,57.34693009512765L90.70555555555555,16.654518127441406L91.09222222222222,85.76287814549038L91.14055555555555,55.961937659127365L91.17277777777778,9.84965498788016L91.205,-68.24025355747769L91.25333333333333,65.80036501203264L91.31777777777778,16.444993482317237L91.36611111111111,-55.582966395786826L91.67222222222223,21.05091852460588L92.02666666666667,-22.786446598597948L92.10722222222222,46.28465194702148L92.60666666666667,61.98815852573939L92.70333333333333,-1.609699467250269L93.15444444444445,-13.914068494524292L93.28333333333333,52.056032507760186L94.21777777777778,100.69751358032227L94.25,15.846707153320317L94.41111111111111,6.24731074741908L94.55611111111111,25.285116250174394L95.08777777777777,-52.83726948329382L95.23277777777778,14.608783231462745L95.29722222222223,32.602264349801196L95.39388888888888,17.747968237740654L95.58722222222222,21.93069632393973L95.63555555555556,-37.16430130004882L96.11888888888889,110.34689900534492L96.26388888888889,24.90964638846261L96.36055555555556,40.70599316188267L96.86,6.187073135375969L96.89222222222223,-25.684488242013128L97.21444444444444,-36.64102020263671L97.3111111111111,36.56105706351145L97.42388888888888,-10.96936078752792L98.02000000000001,55.929151807512554L98.42277777777778,14.054433223179407L98.51944444444445,76.61420762198311L98.61611111111111,-29.639451599121102L98.66444444444444,48.01207760402134L99.01888888888888,21.615155410766597L99.58277777777778,-42.86612646920341L99.75999999999999,80.1700787135533L100.32388888888889,20.366302871704093L100.67833333333334,1.7310235159737752L100.72666666666666,-27.635299464634496L100.80722222222222,31.73116771153041L101.78999999999999,73.02181777954102L101.87055555555557,-16.19082837785992L101.95111111111112,117.12371234893799L102.04777777777777,-1.8989557538713784L103.03055555555557,20.304907771519257L103.46555555555557,52.28618937901087L103.675,-9.19780589512417L103.80388888888889,26.76676859174457L103.98111111111112,37.53158193315779L104.17444444444445,-35.7720359802246L104.545,77.95633441380092L104.64166666666667,-2.4318054199218593L105.75333333333333,-6.517468479701464L105.81777777777778,25.286321966988705L105.91444444444444,82.96286610194615L106.47833333333332,61.39317103794643L106.52666666666667,32.40739157540457L107.12277777777777,13.757161331176754L107.2838888888889,70.49925564357211L107.59,59.28930130004882L107.7188888888889,41.54056140354702L107.78333333333333,50.06698559352329L107.81555555555555,20.847190965924938L107.91222222222223,98.14231992449079L108.05722222222222,50.00285110473634L108.20222222222222,9.663202939714713L108.42777777777778,-18.01722891671317L108.54055555555556,18.81949359348841L108.895,49.76717687334334L109.00777777777778,-25.418420301164893L109.10444444444445,108.68984380449567L109.1688888888889,0.22669405255998154L109.185,30.902647345406674L109.62,40.41362130301339L109.66833333333332,71.98805547441755L109.7811111111111,22.34442116873604L110.03888888888888,-5.408864920479923L110.07111111111111,31.97999872480121L110.11944444444445,53.47077238900321L110.13555555555556,30.148649924142017L110.26444444444445,45.437997600010455L110.87666666666668,64.42944570268904L111.08611111111111,100.2245156969343L111.32777777777778,6.281794248308463L111.63388888888888,49.30951570783342L111.69833333333332,51.06509726388114L111.8111111111111,33.293448747907355L111.95611111111111,61.22359902518136L112.45555555555555,42.0469431740897L112.63277777777778,9.272695377894808L113.14833333333333,31.265095465523853L113.53500000000001,70.36885495867048L113.8411111111111,89.44026620047433L114.05055555555556,5.9737962995256755L114.06666666666666,-49.20703942435128L114.19555555555556,-60.17165451049803L114.22777777777777,13.076085662841805L114.90444444444444,55.16991675240653L114.96888888888888,86.05885750906808L115.03333333333333,-10.949702780587314L115.21055555555556,-38.60884650094168L115.22666666666666,90.06642387935092L115.25888888888889,43.17745219639369L115.275,97.08166531154087L115.79055555555556,-12.581433105468735L115.96777777777778,19.046303394862587L116,-65.12142105102541L116.08055555555556,46.98355293273926L116.11277777777778,40.84683053152902L116.29,6.525377982003345L116.40277777777779,107.74237224033901L116.61222222222221,58.79190935407367L116.85388888888889,31.73746637616839L116.99888888888889,68.00048953465053L117.04722222222222,59.458101654052726L117.53055555555557,96.65840565817696L117.9011111111111,44.36517007010323L117.91722222222222,33.250997870309014L117.96555555555555,13.064356449672156L117.99777777777778,-0.5972831726074062L118.06222222222222,54.91694771902902L118.15888888888888,22.912969698224742L118.61,66.50103116716657L118.7388888888889,47.17875366210938L119.10944444444443,57.83094340733118L119.25444444444445,-17.032341548374717L119.27055555555556,53.855309241158615L119.94722222222222,70.6032173701695L120.09222222222222,2.2635452270507774L120.17277777777777,25.713097490583145L120.89777777777778,50.91160469055176L120.97833333333334,-4.321732766287671L121.17166666666667,11.754031644548682L121.55833333333334,-55.56624069213866L121.91277777777778,13.749820927211227L122.50888888888889,45.404980250767295L123.29833333333335,45.096741158621654L123.52388888888889,-23.281002698625848L124.42611111111111,21.749076788766036L124.53888888888889,87.37302613939558L124.9738888888889,59.04340259007045L124.99,52.46511775425501L125.36055555555555,32.49655674525669L125.48944444444444,7.238217054094596L126.18222222222222,59.85312341962541L126.73,10.558307811192106L126.93944444444445,60.09613805498396L126.98777777777778,-28.674530901227676L128.0511111111111,71.4457433428083L128.18,36.53191729954311L128.30888888888887,13.849162346976147L128.58277777777778,47.39237774440221L128.7277777777778,-10.527393232073088L128.84055555555557,32.71278517586845L128.93722222222223,-20.341831643240813L129.0338888888889,25.83981350490025L129.61388888888888,137.76972705296106L129.74277777777777,79.37147941589355L130.14555555555555,48.42527193341936L130.16166666666666,31.651214218139657L130.67722222222224,28.85741402762276L130.70944444444444,122.58371895381383L131.03166666666667,16.87374638148716L131.11222222222221,61.60499136788505L131.14444444444445,78.12338888985771L131.17666666666665,48.365304401942666L131.59555555555556,100.32967349461147L132.19166666666666,54.62357270377023L132.28833333333333,52.684307425362725L132.51388888888889,36.59262755257742L132.80388888888888,112.97079922812327L133.3838888888889,41.03603161403112L133.41611111111112,45.801294544764936L133.52888888888887,92.56655003683909L133.67388888888888,66.57040328979492L133.72222222222223,89.20738923209053L134.17333333333335,32.10855707441058L134.23777777777778,18.969282204764237L134.27,91.75239216940743L134.47944444444443,-9.651309749058324L134.65666666666667,91.06637306213379L134.67277777777778,49.77199974060058L134.75333333333333,57.4247422354562L134.83388888888888,76.81859109061105L135.43,-21.303241293770906L135.72,-36.79768622262135L136.0261111111111,29.924135807582314L136.2838888888889,-5.738652583530989L136.50944444444443,104.34891602652412L136.79944444444445,45.36605971200126L136.8477777777778,70.49825248718263L137.39555555555557,90.58154468536377L137.4438888888889,67.05983750479562L137.5888888888889,59.169038282121925L137.68555555555557,89.47430599757602L137.76611111111112,-61.59337790352957L137.97555555555556,12.62742396763393L138.0561111111111,44.90815740312849L138.3138888888889,18.448296792166577L138.39444444444445,66.99352308000837L138.475,20.47590735299246L138.53944444444446,85.60941933223178L138.79722222222222,-44.23487548828123L139.345,80.12816799708776L139.73166666666665,45.69499855041504L140.40833333333333,27.62872107369559L140.48888888888888,42.614343861171186L140.65,6.901638793945317L140.71444444444444,81.53447750636509L140.97222222222223,-13.123156847272591L141.53611111111113,-19.62034999302457L141.81,38.1406232561384L142.1161111111111,39.924842997959686L142.45444444444445,33.829404340471534L142.48666666666668,11.074200275966101L142.58333333333331,73.0628217969622L142.72833333333332,44.15673539297922L142.98611111111111,-5.346109771728508L143.61444444444444,58.37680516924176L143.64666666666668,23.335607201712467L143.695,34.419144548688614L143.87222222222223,60.46623524257115L143.98499999999999,59.62570593697685L144.59722222222223,-12.884386335100464L144.855,49.59987160818918L144.93555555555554,107.16733695438931L144.96777777777777,106.4739774431501L145.29,26.13631373814173L145.46722222222223,12.623015866960792L145.7088888888889,52.88158198765346L145.87,39.50471338544573L146.885,35.056110273088734L146.93333333333334,75.32296207972935L147.03,20.50647468566894L147.64222222222222,41.03906037466866L147.8516666666667,89.87627269199918L147.86777777777777,89.31566742488316L147.9,55.37307521275112L147.99666666666667,76.2694883619036L148.045,93.32783481052944L148.33499999999998,90.2830911908831L148.625,-21.599809047154036L149.01166666666668,89.14989100864956L149.07611111111112,32.50216091700963L149.26944444444445,65.51809223720005L149.41444444444446,84.62090034484864L149.9622222222222,56.01091869899205L150.3811111111111,49.30159655979701L150.44555555555556,81.25937151227679L150.47777777777776,93.83477603367398L150.68722222222223,78.20965069362096L150.76777777777775,50.56170567103795L150.9127777777778,58.86263187953404L151.20277777777778,-22.72920880998885L151.8311111111111,56.209244646344864L152.00833333333333,6.448472540719169L152.02444444444444,42.471837779453814L152.47555555555556,71.47354234967914L152.54000000000002,106.54516296386718L152.57222222222222,52.68719149998257L152.76555555555555,8.379095241001677L153.1522222222222,-19.41778956821988L153.34555555555556,63.793994358607705L153.47444444444446,22.492936543055947L153.57111111111112,44.29165028163364L153.74833333333333,82.55447534833635L153.87722222222223,98.90717361995151L153.90944444444443,81.10675670078824L154.0061111111111,36.575679997035444L154.55388888888888,85.34640426635742L154.69888888888892,21.570447431291846L154.73111111111112,63.14965929303851L154.77944444444444,13.942639160156254L155.27888888888887,24.290216609409878L155.295,110.39753428867886L155.37555555555556,93.71297934395928L155.63333333333333,70.8119028363909L155.64944444444444,40.27578375680107L156.6161111111111,107.26547748020717L156.71277777777777,-32.84137246268135L156.76111111111112,84.0666275024414L157.18,106.01428102765765L157.26055555555556,19.504601178850457L157.79222222222222,125.07813242503575L157.80833333333334,124.97715123040335L158.22722222222222,106.14745486123222L158.50111111111113,-0.05617675781250786L158.56555555555556,102.60901843479702L158.69444444444446,63.39722671508788L158.775,55.110016741071426L158.79111111111112,31.466990334647033L158.88777777777779,65.0780731201172L159.21,113.85401090894428L159.41944444444445,57.196398762294216L159.5161111111111,117.53206934247697L159.9188888888889,106.87040266309467L159.96722222222223,72.23265201023646L160.88555555555556,65.82384272984096L161.59444444444443,54.311890084402904L161.62666666666667,105.63410887037006L161.85222222222222,46.559063448224755L161.98111111111112,53.59843368530273L162.35166666666666,41.44556056431361L162.36777777777777,104.91761888776506L162.65777777777777,24.32400561741421L163.07666666666668,115.11810370853969L163.4311111111111,66.19317790440151L163.73722222222221,122.45812666756767L163.75333333333333,114.83514608655656L164.20444444444442,87.64301024845668L164.33333333333334,53.01593742370606L164.34944444444446,56.02587923322405L164.59111111111113,80.69896398271833L164.80055555555555,40.84575020926339L164.81666666666666,102.93897489820208L165.21944444444446,38.98742228916712L165.5738888888889,95.35517046792165L165.67055555555555,116.6570468902588L165.71888888888887,71.8053941999163L165.79944444444445,85.84886504581998L165.88,111.05892783573695L165.96055555555554,61.68453009469168L166.7338888888889,101.97997668130058L166.78222222222223,44.774988392421186L166.95944444444444,89.67557389395577L167.185,34.20286788940429L167.50722222222223,61.433027212960376L167.73277777777776,56.972897447858536L167.81333333333333,69.08595297677178L168.4738888888889,46.864495631626674L168.53833333333336,98.56916296822685L169.02166666666665,105.85876285008023L169.23111111111112,3.9805341993059447L169.505,90.72724350520542L169.64999999999998,50.49776409694126L169.94,56.29970234462194L170.0366666666667,53.10630831037249L170.18166666666667,72.60829549516951L170.87444444444444,94.20931990487234L171.0677777777778,51.04680895124162L171.1,50.83873116629464L171.21277777777777,68.67859431675502L171.72833333333332,121.41851904732842L171.79277777777776,68.87961142403739L172.29222222222222,35.55299099513463L172.38888888888889,80.95448913574218L172.67888888888888,69.5146480015346L172.77555555555554,100.15918513706752L173.2266666666667,60.3167456490653L173.2588888888889,111.38019349234446L173.61333333333334,49.65465938023158L173.64555555555555,72.09171818324496L173.80666666666667,136.7346818651472L173.98388888888888,90.79447909763881L174.37055555555557,48.023575319562646L174.53166666666667,98.36085368565152L175.04722222222222,56.76311236790247L175.1277777777778,97.01357124873569L175.24055555555557,112.94454836164202L175.4177777777778,101.82338782719204L175.51444444444445,37.525080708095L175.88500000000002,103.8876473563058L175.94944444444445,46.90259628295899L176.25555555555556,72.33398045131139L176.67444444444445,110.2175689969744L176.73888888888888,53.951785877772735L176.88388888888886,102.0660937990461L176.98055555555555,109.39469138554165L177.0611111111111,48.96923348563059L177.3188888888889,106.54989901951382L177.75388888888887,87.39723211015975L178.01166666666666,111.92755034310478L178.15666666666667,113.40814165387835L178.26944444444442,46.57118813650949L178.35,86.96176095690046L179.10722222222222,70.4784305027553L179.17166666666668,65.73142694745745L179.67111111111112,123.43315127236504L179.86444444444444,67.88083419799806L180.28333333333333,51.963848223005016L180.33166666666668,82.51922018868582L180.44444444444446,85.60553692408969L180.49277777777777,76.26991277422225L180.57333333333335,105.4293781552996L180.63777777777779,97.45864955357143L180.79888888888888,45.943038613455634L180.86333333333334,119.35296698978969L180.9922222222222,115.62216567993164L181.2822222222222,110.42152323041643L181.91055555555556,98.39875177655901L182.1038888888889,103.32735075269426L182.13611111111112,115.23921072823661L182.2488888888889,114.95131931304932L182.41,100.85281955174038L182.4261111111111,102.98598820822579L182.49055555555557,76.86682940891812L182.58722222222224,106.57543610164096L182.63555555555556,80.26684472220285L182.78055555555557,90.7986894607544L182.89333333333335,75.194085420881L183.00611111111112,83.4889396395002L183.1027777777778,131.88857321058L183.1188888888889,120.40294859749929L183.21555555555557,44.286441584995806L183.29611111111112,88.21190120152066L183.4572222222222,112.13291285378591L183.61833333333334,108.2717928477696L183.95666666666665,77.4690126146589L184.32722222222222,94.18819574628557L184.35944444444442,101.00137350899831L184.5688888888889,88.54913054874966L184.79444444444445,114.1358158656529L184.82666666666665,86.4104011263166L185.08444444444444,123.63016539982387L185.10055555555556,103.9116362980434L185.11666666666665,125.56780537196568L185.6,109.2634225845337L185.89000000000001,92.35194691249302L186.035,72.41350953238351L186.18,76.02238393511091L186.3411111111111,84.50401815686908L186.42166666666668,85.88034872327532L186.77611111111113,131.4678576196943L186.905,138.60975478036062L187.00166666666667,96.64019933428082L187.2111111111111,93.84527541569302L187.74277777777777,78.76178218296597L188.0327777777778,110.54047442844937L188.0488888888889,96.88777640206474L188.09722222222223,111.06555445534842L188.30666666666667,112.4165312085833L188.3711111111111,106.86292721884593L188.56444444444446,87.8416737965175L188.58055555555555,128.6978510447911L188.69333333333333,122.53270748683384L189.08,112.42250191824776L189.11222222222221,116.83225683484758L189.3538888888889,131.09194164276124L189.37,127.98777788707189L189.66,108.11955904279436L189.91777777777776,111.16212754930767L190.0788888888889,124.92623622076852L190.32055555555556,129.74091907228743L190.49777777777777,116.55757043021065L190.70722222222224,123.26397473471505L190.91666666666666,112.46026979173934L191.19055555555553,118.85844947269986L191.3033333333333,111.35005057198661L191.62555555555556,110.29426705496651L191.78666666666666,122.81140169416156L191.98000000000002,120.71239340645927L191.9961111111111,119.19036402021135L192.49555555555557,83.21437862941197L192.51166666666668,98.00386505126953L192.52777777777777,105.68580518450057L192.68888888888887,75.77677459716797L192.89833333333334,109.07980155944824L192.995,95.87729890005929L193.1238888888889,102.561474609375L193.22055555555553,110.72331414903914L194.34833333333333,63.43350432259697L194.78333333333333,96.97344017028809L195.2827777777778,93.27673653193882L195.36333333333332,109.46916127886091L195.55666666666667,133.14992662157331L196.37833333333333,82.94099922180176L196.41055555555556,133.07698557717458L196.68444444444444,126.10748662948608L196.79722222222225,109.35259740012033L196.95833333333334,126.24397859573365L197.6672222222222,122.8368616104126L197.76388888888889,113.88966636657715L197.84444444444443,146.29533376693726L198.10222222222222,117.0798001425607L198.74666666666667,96.20872633797782L198.84333333333333,122.13541897365025L198.89166666666665,111.37753126961843L198.90777777777777,113.27476525987898L199.6972222222222,114.90093481881279L199.84222222222223,123.94383986336844L200.01944444444445,126.66150627136231L200.5027777777778,106.53246435437885L200.59944444444446,80.03823116847447L200.61555555555557,128.84134340286255L200.71222222222224,93.89434326716831L201.405,121.2763216291155L201.67888888888888,110.38991898127965L202.04944444444445,116.44423787253244L202.21055555555554,130.85072352545603L202.37166666666667,131.15433266503473L202.565,134.43767317363194L202.6938888888889,127.56449411937167L202.93555555555557,122.86183923993794L203.22555555555556,103.59240589141847L203.53166666666667,137.30311705725535L203.69277777777776,146.9232204437256L203.725,123.91206681387764L204.7238888888889,104.51321182250977L204.885,108.05470594678607L204.99777777777777,111.23806359427317L205.07833333333335,115.99677224840437L205.3361111111111,126.56245181219917L205.4488888888889,118.32504517691476L205.465,124.53715622765678L205.65833333333333,113.98861713409424L205.755,128.9686863899231L206.3672222222222,141.50987025669644L206.89888888888888,113.0037635258266L207.43055555555557,93.12691898345948L207.785,136.461893258776L207.84944444444446,117.73168299538747L209.05777777777777,147.07301628930227L209.26722222222222,130.72196743828908L209.79888888888888,124.87023549761089L209.815,138.15449781417846L209.89555555555555,139.87414177485874L210.02444444444444,128.9339569228036L210.31444444444443,108.58269416264126L210.49166666666667,109.0244977406093L210.95888888888888,142.010512815203L211.34555555555553,144.2409900529044L211.44222222222223,109.05428859165737L211.45833333333331,122.18505110059465L211.555,141.2521916934422L211.5872222222222,124.98838609967915L212.00611111111112,133.1043022973197L212.18333333333334,131.1597053391593L212.79555555555555,133.10913239887782L212.85999999999999,147.6392004081181L212.95666666666665,128.68208268029352L213.06944444444446,132.8966223989214L213.08555555555554,135.10445386341638L213.2788888888889,141.6696301460266L213.5688888888889,135.38870160239082L214.02,147.83709832600186L214.19722222222222,146.1490200315203L214.55166666666668,139.9834327697754L214.7611111111111,148.91759421484812L214.77722222222224,141.7060259137835L214.90611111111113,149.69249032565526L215.09944444444443,126.98649277005876L215.3088888888889,141.93122728892735L215.7922222222222,150.3702960899898L215.95333333333335,145.05496103422982L216.00166666666667,138.87480750765118L216.03388888888887,131.66152950014387L216.58166666666668,142.03003095899308L216.6622222222222,142.76980815614974L216.69444444444446,145.94493919781274L216.82333333333335,137.51955287115914L216.87166666666667,142.21288514818465L216.90388888888887,136.4852383477347L216.96833333333333,140.24879174913679L217.30666666666664,145.08773965154376L217.3388888888889,138.64744307654246L217.54833333333332,140.95082759857178L217.9188888888889,125.9470611844744L217.93499999999997,127.14964072363718L218.4022222222222,143.42630408150808L218.6277777777778,154.36266861983708L218.75666666666666,138.27942695617676L219.28833333333333,147.3159296444484L219.80388888888888,148.01787024225507L220.5611111111111,143.80759273256575L220.65777777777777,148.0077156952449L220.93166666666667,136.00495070048743L221.3022222222222,144.33445239748275L221.52777777777777,144.1435355799539L221.62444444444446,142.17322671072824L221.7211111111111,144.32381556374685L221.76944444444445,138.02007485798427L221.91444444444446,145.360430594853L222.07555555555555,142.29115546090262L222.10777777777776,145.9792189325605L222.60722222222222,153.9356634071895L222.63944444444445,147.4219881125859L222.70388888888888,142.72136245455061L222.91333333333336,140.38081291743686L223.04222222222222,143.5082421847752L223.09055555555554,145.78042034421648L223.155,155.66600087029593L223.4127777777778,143.51275397709438L223.55777777777777,149.88371218953813L223.65444444444447,147.66651592254638L223.73499999999999,149.04687720026288L224.23444444444445,145.02349423680985L224.25055555555554,144.81141347203936L224.3311111111111,147.8205510684422L224.605,150.54782462801253L224.83055555555555,140.77657258169992L224.84666666666666,148.3689749785832L225.07222222222222,153.6585547174726L225.10444444444445,149.8278537409646L225.185,150.47128331320627L225.475,146.06721576281956L225.7488888888889,154.002839919499L225.84555555555556,146.8965198448726L225.99055555555555,155.89045711244856L226.3127777777778,152.81849081856865L226.4738888888889,153.51584245818003L226.57055555555556,145.55192736216952L226.6511111111111,154.2970173392977L226.78,155.41407176767078L227.73055555555555,152.93796529769898L228.06888888888886,155.19229583399635L228.26222222222222,155.41754664352962L228.375,149.82338173730034L228.43944444444443,153.31274187224253L228.93888888888887,154.92640573637826L229.34166666666667,152.99935678073336L229.39000000000001,148.7907600402832L229.51888888888888,154.48590915543693L229.77666666666667,150.85718021392822L229.92166666666665,152.52632272584097L230.42111111111112,153.93410682678223L230.45333333333332,153.60805688585555L230.51777777777778,158.79550155912128L230.61444444444447,156.19583503859383L230.64666666666668,153.0081018447876L230.6627777777778,154.47847832271032L231.11388888888888,154.8180063690458L231.25888888888886,156.21329020091466L231.33944444444444,159.6939209461212L231.45222222222222,159.86109117099215L231.51666666666668,158.79263617311207L231.90333333333334,159.45691922051566L231.96777777777777,159.06883816378456L232,157.95648663384574L232.33833333333334,152.93829807553973L232.35444444444443,154.12551075390405L232.37055555555554,153.17047934532167L232.5961111111111,157.23828694479806L232.6927777777778,158.57216060502188L232.78944444444446,151.78991309574673L232.83777777777777,156.34436789580752L233.22444444444443,159.46695711442402L233.25666666666666,161.4425406932831L233.2888888888889,160.66843703985214L233.96555555555557,162.6928450661046L234.48111111111112,162.84151567646435L235.23833333333334,162.73490845646177L235.89888888888888,162.67117411494254L235.99555555555557,162.83531753846577L236.07611111111112,162.8325059575694L236.14055555555555,162.88856967943056L236.495,162.88391305037908L236.60777777777778,162.7791278191975L236.96222222222224,162.67349150265966L237.26833333333335,162.75423609699521L238.15444444444444,162.85371104989733L238.29944444444445,162.84176767127855L239.20166666666665,162.8114891077791L239.3788888888889,162.8717184305191L240.07166666666666,162.87347485848835L240.13611111111112,162.87807240741594L240.20055555555555,162.8692323931626L240.41,162.76880311540197L240.76444444444445,162.91362944841384L241.21555555555554,162.86627326267106L241.28,162.87176349418505L241.31222222222223,162.8896925032139L241.36055555555555,162.87975830095155L241.61833333333334,162.8576758989266L241.82777777777778,162.87382135135786L241.95666666666668,162.90178719929287L242.02111111111114,162.89998947552272L242.05333333333334,162.86986027019364L242.11777777777777,162.87353770647732L242.24666666666667,162.87789803062165L242.26277777777776,162.89597639782087L242.32722222222222,162.9051087984017L242.4238888888889,162.89635876076562L242.44,162.90093837465557L243.08444444444444,162.83580585377558L243.14888888888888,162.8622770650046L244.69555555555556,162.8874973450388L244.85666666666668,162.89718949965066L245.04999999999998,162.90729310512543L245.32388888888892,162.89481785467694L245.43666666666667,162.85057151402745L245.58166666666668,162.86929403543473L245.69444444444443,162.9045282457556L245.87166666666667,162.92044913343022L246.41944444444445,162.86094746078763L246.56444444444443,162.8832328753812L247.28944444444446,162.91493629472598L247.9177777777778,162.9050822726318L248.14333333333335,162.87573452251297L248.4011111111111,162.86487990617752L248.9972222222222,162.89575077806202L249.41611111111112,162.89476299456186L249.59333333333333,162.8760656424931L250.07666666666665,162.88995926805904L250.22166666666666,162.89387634055956L250.23777777777778,162.89715378029007L250.5277777777778,162.8864688685962L250.65666666666667,162.91938569119998L250.94666666666666,162.89166008234025L251.14,162.90904576522962L251.20444444444445,162.91911937849864L251.70388888888888,162.9024807878903L252.01,162.88821926798138L252.0422222222222,162.8829989663192L252.07444444444445,162.89645356025014L252.09055555555557,162.90071079560687L252.3,162.8925164427076L252.97666666666666,162.89444136960165L253.20222222222222,162.88788106441498L253.52444444444444,162.8706412732601L253.89499999999998,162.89993325897626L254.24944444444444,162.90028547900064L254.5877777777778,162.882997157744L255.05499999999998,162.89916536808013L255.345,162.90286058868682L255.635,162.90469840254102L255.7477777777778,162.88690337879316L256.00555555555553,162.9087493096079L256.2472222222222,162.9066273987293L256.4244444444445,162.89879430873054L256.65,162.90101840410912L257.14944444444444,162.9037710555962L257.3105555555556,162.89461258138928L257.4555555555556,162.89702582359314L257.87444444444446,162.90180935433932L258.3416666666667,162.89894924334118L258.5188888888889,162.89972391639438L258.5511111111111,162.89951909525053" style="fill: none;" fill="none"></path></g></g></g></g></g></g><g transform="translate(40, 177)" clip-path="url(#clip_1)"><clipPath id="clip_1"><rect width="290" height="23"></rect></clipPath><g><g><line x1="0" y1="0" x2="0" y2="5" style="visibility: inherit;" fill="rgb(0, 0, 0)" stroke="rgb(204, 204, 204)" stroke-width="1px"></line><line x1="32.22222222222222" y1="0" x2="32.22222222222222" y2="5" style="visibility: inherit;" fill="rgb(0, 0, 0)" stroke="rgb(204, 204, 204)" stroke-width="1px"></line><line x1="64.44444444444444" y1="0" x2="64.44444444444444" y2="5" style="visibility: inherit;" fill="rgb(0, 0, 0)" stroke="rgb(204, 204, 204)" stroke-width="1px"></line><line x1="96.66666666666666" y1="0" x2="96.66666666666666" y2="5" style="visibility: inherit;" fill="rgb(0, 0, 0)" stroke="rgb(204, 204, 204)" stroke-width="1px"></line><line x1="128.88888888888889" y1="0" x2="128.88888888888889" y2="5" style="visibility: inherit;" fill="rgb(0, 0, 0)" stroke="rgb(204, 204, 204)" stroke-width="1px"></line><line x1="161.11111111111111" y1="0" x2="161.11111111111111" y2="5" style="visibility: inherit;" fill="rgb(0, 0, 0)" stroke="rgb(204, 204, 204)" stroke-width="1px"></line><line x1="193.33333333333331" y1="0" x2="193.33333333333331" y2="5" style="visibility: inherit;" fill="rgb(0, 0, 0)" stroke="rgb(204, 204, 204)" stroke-width="1px"></line><line x1="225.55555555555557" y1="0" x2="225.55555555555557" y2="5" style="visibility: inherit;" fill="rgb(0, 0, 0)" stroke="rgb(204, 204, 204)" stroke-width="1px"></line><line x1="257.77777777777777" y1="0" x2="257.77777777777777" y2="5" style="visibility: inherit;" fill="rgb(0, 0, 0)" stroke="rgb(204, 204, 204)" stroke-width="1px"></line><line x1="290" y1="0" x2="290" y2="5" style="visibility: inherit;" fill="rgb(0, 0, 0)" stroke="rgb(204, 204, 204)" stroke-width="1px"></line></g><g transform="translate(0, 8)"><text x="0" y="0" dx="0em" dy="0.95em" style="text-anchor: middle; visibility: hidden; font-family: Roboto, sans-serif; font-size: 12px; font-weight: 200;" fill="rgb(33, 33, 33)" stroke="none" stroke-width="1px">-2k</text><text x="32.22222222222222" y="0" dx="0em" dy="0.95em" style="text-anchor: middle; visibility: inherit; font-family: Roboto, sans-serif; font-size: 12px; font-weight: 200;" fill="rgb(33, 33, 33)" stroke="none" stroke-width="1px">0</text><text x="64.44444444444444" y="0" dx="0em" dy="0.95em" style="text-anchor: middle; visibility: inherit; font-family: Roboto, sans-serif; font-size: 12px; font-weight: 200;" fill="rgb(33, 33, 33)" stroke="none" stroke-width="1px">2k</text><text x="96.66666666666666" y="0" dx="0em" dy="0.95em" style="text-anchor: middle; visibility: inherit; font-family: Roboto, sans-serif; font-size: 12px; font-weight: 200;" fill="rgb(33, 33, 33)" stroke="none" stroke-width="1px">4k</text><text x="128.88888888888889" y="0" dx="0em" dy="0.95em" style="text-anchor: middle; visibility: inherit; font-family: Roboto, sans-serif; font-size: 12px; font-weight: 200;" fill="rgb(33, 33, 33)" stroke="none" stroke-width="1px">6k</text><text x="161.11111111111111" y="0" dx="0em" dy="0.95em" style="text-anchor: middle; visibility: inherit; font-family: Roboto, sans-serif; font-size: 12px; font-weight: 200;" fill="rgb(33, 33, 33)" stroke="none" stroke-width="1px">8k</text><text x="193.33333333333331" y="0" dx="0em" dy="0.95em" style="text-anchor: middle; visibility: inherit; font-family: Roboto, sans-serif; font-size: 12px; font-weight: 200;" fill="rgb(33, 33, 33)" stroke="none" stroke-width="1px">10k</text><text x="225.55555555555557" y="0" dx="0em" dy="0.95em" style="text-anchor: middle; visibility: inherit; font-family: Roboto, sans-serif; font-size: 12px; font-weight: 200;" fill="rgb(33, 33, 33)" stroke="none" stroke-width="1px">12k</text><text x="257.77777777777777" y="0" dx="0em" dy="0.95em" style="text-anchor: middle; visibility: inherit; font-family: Roboto, sans-serif; font-size: 12px; font-weight: 200;" fill="rgb(33, 33, 33)" stroke="none" stroke-width="1px">14k</text><text x="290" y="0" dx="0em" dy="0.95em" style="text-anchor: middle; visibility: hidden; font-family: Roboto, sans-serif; font-size: 12px; font-weight: 200;" fill="rgb(33, 33, 33)" stroke="none" stroke-width="1px">16k</text></g><line x1="0" y1="0" x2="290" y2="0" fill="rgb(0, 0, 0)" stroke="rgb(204, 204, 204)" stroke-width="1px"></line></g></g></g></g></svg>