<svg viewBox="0 0 330 200" xmlns="http://www.w3.org/2000/svg"><g><g><g><g><g><line x1="50" y1="177" x2="45" y2="177" style="visibility: inherit;" fill="rgb(0, 0, 0)" stroke="rgb(204, 204, 204)" stroke-width="1px"></line><line x1="50" y1="162.25" x2="45" y2="162.25" style="visibility: inherit;" fill="rgb(0, 0, 0)" stroke="rgb(204, 204, 204)" stroke-width="1px"></line><line x1="50" y1="147.5" x2="45" y2="147.5" style="visibility: inherit;" fill="rgb(0, 0, 0)" stroke="rgb(204, 204, 204)" stroke-width="1px"></line><line x1="50" y1="132.75" x2="45" y2="132.75" style="visibility: inherit;" fill="rgb(0, 0, 0)" stroke="rgb(204, 204, 204)" stroke-width="1px"></line><line x1="50" y1="118.00000000000001" x2="45" y2="118.00000000000001" style="visibility: inherit;" fill="rgb(0, 0, 0)" stroke="rgb(204, 204, 204)" stroke-width="1px"></line><line x1="50" y1="103.25" x2="45" y2="103.25" style="visibility: inherit;" fill="rgb(0, 0, 0)" stroke="rgb(204, 204, 204)" stroke-width="1px"></line><line x1="50" y1="88.50000000000001" x2="45" y2="88.50000000000001" style="visibility: inherit;" fill="rgb(0, 0, 0)" stroke="rgb(204, 204, 204)" stroke-width="1px"></line><line x1="50" y1="73.75000000000001" x2="45" y2="73.75000000000001" style="visibility: inherit;" fill="rgb(0, 0, 0)" stroke="rgb(204, 204, 204)" stroke-width="1px"></line><line x1="50" y1="59.00000000000003" x2="45" y2="59.00000000000003" style="visibility: inherit;" fill="rgb(0, 0, 0)" stroke="rgb(204, 204, 204)" stroke-width="1px"></line><line x1="50" y1="44.25000000000002" x2="45" y2="44.25000000000002" style="visibility: inherit;" fill="rgb(0, 0, 0)" stroke="rgb(204, 204, 204)" stroke-width="1px"></line><line x1="50" y1="29.500000000000014" x2="45" y2="29.500000000000014" style="visibility: inherit;" fill="rgb(0, 0, 0)" stroke="rgb(204, 204, 204)" stroke-width="1px"></line><line x1="50" y1="14.750000000000007" x2="45" y2="14.750000000000007" style="visibility: inherit;" fill="rgb(0, 0, 0)" stroke="rgb(204, 204, 204)" stroke-width="1px"></line><line x1="50" y1="0" x2="45" y2="0" style="visibility: inherit;" fill="rgb(0, 0, 0)" stroke="rgb(204, 204, 204)" stroke-width="1px"></line></g><g transform="translate(40, 0)"><text x="0" y="177" dx="0em" dy="0.3em" style="text-anchor: end; visibility: hidden; font-family: Roboto, sans-serif; font-size: 12px; font-weight: 200;" fill="rgb(33, 33, 33)" stroke="none" stroke-width="1px">-0.2</text><text x="0" y="162.25" dx="0em" dy="0.3em" style="text-anchor: end; visibility: inherit; font-family: Roboto, sans-serif; font-size: 12px; font-weight: 200;" fill="rgb(33, 33, 33)" stroke="none" stroke-width="1px">0</text><text x="0" y="147.5" dx="0em" dy="0.3em" style="text-anchor: end; visibility: hidden; font-family: Roboto, sans-serif; font-size: 12px; font-weight: 200;" fill="rgb(33, 33, 33)" stroke="none" stroke-width="1px">0.2</text><text x="0" y="132.75" dx="0em" dy="0.3em" style="text-anchor: end; visibility: inherit; font-family: Roboto, sans-serif; font-size: 12px; font-weight: 200;" fill="rgb(33, 33, 33)" stroke="none" stroke-width="1px">0.4</text><text x="0" y="118.00000000000001" dx="0em" dy="0.3em" style="text-anchor: end; visibility: hidden; font-family: Roboto, sans-serif; font-size: 12px; font-weight: 200;" fill="rgb(33, 33, 33)" stroke="none" stroke-width="1px">0.6</text><text x="0" y="103.25" dx="0em" dy="0.3em" style="text-anchor: end; visibility: inherit; font-family: Roboto, sans-serif; font-size: 12px; font-weight: 200;" fill="rgb(33, 33, 33)" stroke="none" stroke-width="1px">0.8</text><text x="0" y="88.50000000000001" dx="0em" dy="0.3em" style="text-anchor: end; visibility: hidden; font-family: Roboto, sans-serif; font-size: 12px; font-weight: 200;" fill="rgb(33, 33, 33)" stroke="none" stroke-width="1px">1</text><text x="0" y="73.75000000000001" dx="0em" dy="0.3em" style="text-anchor: end; visibility: inherit; font-family: Roboto, sans-serif; font-size: 12px; font-weight: 200;" fill="rgb(33, 33, 33)" stroke="none" stroke-width="1px">1.2</text><text x="0" y="59.00000000000003" dx="0em" dy="0.3em" style="text-anchor: end; visibility: hidden; font-family: Roboto, sans-serif; font-size: 12px; font-weight: 200;" fill="rgb(33, 33, 33)" stroke="none" stroke-width="1px">1.4</text><text x="0" y="44.25000000000002" dx="0em" dy="0.3em" style="text-anchor: end; visibility: inherit; font-family: Roboto, sans-serif; font-size: 12px; font-weight: 200;" fill="rgb(33, 33, 33)" stroke="none" stroke-width="1px">1.6</text><text x="0" y="29.500000000000014" dx="0em" dy="0.3em" style="text-anchor: end; visibility: hidden; font-family: Roboto, sans-serif; font-size: 12px; font-weight: 200;" fill="rgb(33, 33, 33)" stroke="none" stroke-width="1px">1.8</text><text x="0" y="14.750000000000007" dx="0em" dy="0.3em" style="text-anchor: end; visibility: inherit; font-family: Roboto, sans-serif; font-size: 12px; font-weight: 200;" fill="rgb(33, 33, 33)" stroke="none" stroke-width="1px">2</text><text x="0" y="0" dx="0em" dy="0.3em" style="text-anchor: end; visibility: hidden; font-family: Roboto, sans-serif; font-size: 12px; font-weight: 200;" fill="rgb(33, 33, 33)" stroke="none" stroke-width="1px">2.2</text></g><line x1="50" y1="0" x2="50" y2="177" fill="rgb(0, 0, 0)" stroke="rgb(204, 204, 204)" stroke-width="1px"></line></g></g><g transform="translate(50, 0)" clip-path="url(#clip_0)"><clipPath id="clip_0"><rect width="280" height="177"></rect></clipPath><g><g><g><line x1="0" y1="0" x2="0" y2="177" fill="rgb(0, 0, 0)" stroke="rgb(66, 66, 66)" stroke-width="1px" opacity="0.25"></line><line x1="31.11111111111111" y1="0" x2="31.11111111111111" y2="177" fill="rgb(0, 0, 0)" stroke="rgb(66, 66, 66)" stroke-width="1px" opacity="0.25"></line><line x1="62.22222222222222" y1="0" x2="62.22222222222222" y2="177" fill="rgb(0, 0, 0)" stroke="rgb(66, 66, 66)" stroke-width="1px" opacity="0.25"></line><line x1="93.33333333333333" y1="0" x2="93.33333333333333" y2="177" fill="rgb(0, 0, 0)" stroke="rgb(66, 66, 66)" stroke-width="1px" opacity="0.25"></line><line x1="124.44444444444444" y1="0" x2="124.44444444444444" y2="177" fill="rgb(0, 0, 0)" stroke="rgb(66, 66, 66)" stroke-width="1px" opacity="0.25"></line><line x1="155.55555555555557" y1="0" x2="155.55555555555557" y2="177" fill="rgb(0, 0, 0)" stroke="rgb(66, 66, 66)" stroke-width="1px" opacity="0.25"></line><line x1="186.66666666666666" y1="0" x2="186.66666666666666" y2="177" fill="rgb(0, 0, 0)" stroke="rgb(66, 66, 66)" stroke-width="1px" opacity="0.25"></line><line x1="217.77777777777777" y1="0" x2="217.77777777777777" y2="177" fill="rgb(0, 0, 0)" stroke="rgb(66, 66, 66)" stroke-width="1px" opacity="0.25"></line><line x1="248.88888888888889" y1="0" x2="248.88888888888889" y2="177" fill="rgb(0, 0, 0)" stroke="rgb(66, 66, 66)" stroke-width="1px" opacity="0.25"></line><line x1="280" y1="0" x2="280" y2="177" fill="rgb(0, 0, 0)" stroke="rgb(66, 66, 66)" stroke-width="1px" opacity="0.25"></line></g><g><line x1="0" y1="177" x2="280" y2="177" fill="rgb(0, 0, 0)" stroke="rgb(66, 66, 66)" stroke-width="1px" opacity="0.25"></line><line x1="0" y1="162.25" x2="280" y2="162.25" fill="rgb(0, 0, 0)" stroke="rgb(66, 66, 66)" stroke-width="1px" opacity="0.25"></line><line x1="0" y1="147.5" x2="280" y2="147.5" fill="rgb(0, 0, 0)" stroke="rgb(66, 66, 66)" stroke-width="1px" opacity="0.25"></line><line x1="0" y1="132.75" x2="280" y2="132.75" fill="rgb(0, 0, 0)" stroke="rgb(66, 66, 66)" stroke-width="1px" opacity="0.25"></line><line x1="0" y1="118.00000000000001" x2="280" y2="118.00000000000001" fill="rgb(0, 0, 0)" stroke="rgb(66, 66, 66)" stroke-width="1px" opacity="0.25"></line><line x1="0" y1="103.25" x2="280" y2="103.25" fill="rgb(0, 0, 0)" stroke="rgb(66, 66, 66)" stroke-width="1px" opacity="0.25"></line><line x1="0" y1="88.50000000000001" x2="280" y2="88.50000000000001" fill="rgb(0, 0, 0)" stroke="rgb(66, 66, 66)" stroke-width="1px" opacity="0.25"></line><line x1="0" y1="73.75000000000001" x2="280" y2="73.75000000000001" fill="rgb(0, 0, 0)" stroke="rgb(66, 66, 66)" stroke-width="1px" opacity="0.25"></line><line x1="0" y1="59.00000000000003" x2="280" y2="59.00000000000003" fill="rgb(0, 0, 0)" stroke="rgb(66, 66, 66)" stroke-width="1px" opacity="0.25"></line><line x1="0" y1="44.25000000000002" x2="280" y2="44.25000000000002" fill="rgb(0, 0, 0)" stroke="rgb(66, 66, 66)" stroke-width="1px" opacity="0.25"></line><line x1="0" y1="29.500000000000014" x2="280" y2="29.500000000000014" fill="rgb(0, 0, 0)" stroke="rgb(66, 66, 66)" stroke-width="1px" opacity="0.25"></line><line x1="0" y1="14.750000000000007" x2="280" y2="14.750000000000007" fill="rgb(0, 0, 0)" stroke="rgb(66, 66, 66)" stroke-width="1px" opacity="0.25"></line><line x1="0" y1="0" x2="280" y2="0" fill="rgb(0, 0, 0)" stroke="rgb(66, 66, 66)" stroke-width="1px" opacity="0.25"></line></g></g></g><g><g><line x1="0" y1="162.25" x2="280" y2="162.25" fill="rgb(0, 0, 0)" stroke="rgb(153, 153, 153)" stroke-width="1.5px"></line></g></g><g><g><line x1="31.11111111111111" y1="0" x2="31.11111111111111" y2="177" fill="rgb(0, 0, 0)" stroke="rgb(153, 153, 153)" stroke-width="1.5px"></line></g></g><g><g><g><g><g><path stroke="rgb(255, 112, 67)" stroke-width="2px" d="M31.39111111111111,156.3429178800434L31.842222222222222,156.31909584766254L32.07555555555555,156.29514208017866L32.09111111111111,156.28342957509108L32.215555555555554,156.26820133655417L32.495555555555555,156.23587029366143L32.71333333333333,156.19555612695396L32.775555555555556,156.16534083196584L33.102222222222224,156.1081361556778L33.13333333333333,156.07008525553832L33.553333333333335,155.98606412993973L33.6,155.92833790970394L33.66222222222222,155.88356132808113L33.78666666666667,155.83555223474633L34.08222222222222,155.75248965919397L34.26888888888889,155.6655098923493L34.67333333333333,155.52515627811175L34.906666666666666,155.38533043272236L34.922222222222224,155.2976119250301L35.14,155.18971812787748L35.32666666666667,155.07521091553363L35.49777777777778,154.95893817927848L35.544444444444444,154.87587930701835L36.02666666666667,154.68058000913786L36.07333333333333,154.54854435135732L36.49333333333333,154.32944483060248L36.68,154.13226304808197L36.80444444444444,153.96892790440236L36.99111111111112,153.801574528058L37.11555555555556,153.65372127965142L37.364444444444445,153.46723942622586L37.56666666666666,153.2730852071799L37.89333333333333,153.0183698058303L37.90888888888889,152.8587947126311L38.04888888888889,152.7016678715208L38.282222222222224,152.50241992652295L38.34444444444445,152.3543166466123L38.5,152.1930358104419L38.577777777777776,152.05950531736136L38.593333333333334,151.97199057701525L39.044444444444444,151.69860866741246L39.07555555555555,151.51889427638886L39.09111111111111,151.40320103991766L39.40222222222222,151.17344014717378L39.48,150.99459194016526L39.511111111111106,150.87078497928843L39.76,150.66244079244825L39.85333333333333,150.48621260417718L40.28888888888889,150.13463424022453L40.35111111111111,149.88765537962388L40.382222222222225,149.72136730238756L40.89555555555555,149.3147765146778L41.019999999999996,148.99413876665096L41.11333333333334,148.74365714599142L41.128888888888895,148.58363621776957L41.346666666666664,148.3499177387097L41.486666666666665,148.11972793136465L41.611111111111114,147.9007120814587L42.32666666666667,147.28713095406678L42.388888888888886,146.87569817435732L42.995555555555555,146.19558997918358L43.16666666666667,145.66167604606864L43.275555555555556,145.26041297275728L43.36888888888889,144.9497884864146L43.617777777777775,144.57480753240196L44.05333333333333,144.01179053650623L44.44222222222222,143.36370330909685L44.58222222222222,142.86121756350872L44.89333333333333,142.303578612303L45.76444444444444,141.22559144919828L46.651111111111106,139.78353936270307L46.72888888888889,138.84673763987678L46.900000000000006,138.12619263635432L47.00888888888889,137.59230408791518L47.07111111111111,137.21368648245223L47.102222222222224,136.9573055454152L47.242222222222225,136.6714707105194L47.53777777777778,136.21830883555617L47.77111111111111,135.72121885080938L47.864444444444445,135.33219598626974L48.19111111111111,134.77801060316492L48.36222222222222,134.27558247528987L48.39333333333334,133.94309358765196L48.61111111111111,133.52518754285285L48.72,133.16446433116022L49.01555555555555,132.64694683938637L49.03111111111111,132.3204864692057L49.217777777777776,131.93241521903067L49.373333333333335,131.53829340152853L49.404444444444444,131.26944317229336L49.52888888888889,130.97822357897607L49.668888888888894,130.65658100655466L50.05777777777778,130.05132785267108L50.166666666666664,129.57165184513613L50.49333333333334,128.9314658307784L50.586666666666666,128.44590872608143L50.61777777777778,128.12068427552296L50.66444444444444,127.87464399009653L50.72666666666667,127.65901701372688L50.82,127.42735748423235L50.882222222222225,127.21998883147893L50.96,127.00989442682182L51.30222222222223,126.50418644616553L51.72222222222223,125.72894093078105L52.03333333333333,124.91022193838198L52.32888888888888,124.07996382361078L52.5,123.38416132357968L52.51555555555556,122.94866390244516L53.15333333333333,121.94176901111815L53.495555555555555,120.93215252596028L53.775555555555556,119.99192055844004L53.791111111111114,119.40912893881044L54.351111111111116,118.3832133738377L54.47555555555556,117.6161498921024L54.6,117.0039598343913L54.64666666666666,116.57955259669687L55.191111111111105,115.65440335624734L55.23777777777778,115.04147331567597L55.455555555555556,114.40304216535088L55.50222222222222,113.96182296151635L55.580000000000005,113.60003475233744L55.766666666666666,113.14940543702146L55.937777777777775,112.6641801639253L56.42,111.76380408071603L56.544444444444444,111.06548107423262L57.08888888888889,109.95080826138184L57.32222222222222,108.98193908604816L57.586666666666666,108.05921886487506L57.61777777777778,107.46533312275233L57.66444444444445,107.04858521744146L57.72666666666667,106.71791672184786L58.72222222222222,105.22010808273981L58.75333333333334,104.28054683855076L58.94,103.47123019367994L58.986666666666665,102.92415995282259L59.842222222222226,101.4632639162679L59.904444444444444,100.50396840411065L60.044444444444444,99.74201440595172L60.15333333333333,99.13971941937557L60.65111111111111,98.11323034924L60.69777777777778,97.43484912611086L60.791111111111114,96.90277977166797L60.80666666666667,96.56268955694573L61.04,96.0456338550266L61.22666666666667,95.4846492663393L61.288888888888884,95.06441090436995L61.36666666666667,94.70766090114246L61.397777777777776,94.45175544476112L61.6,94.02597060832738L61.61555555555556,93.74954384585239L61.89555555555556,93.2062290967704L63.31111111111112,90.96585609085568L63.45111111111112,89.43194992284302L63.60666666666666,88.30081326329902L63.77777777777778,87.39023123123764L64.0111111111111,86.52764158212256L64.07333333333334,85.92575794913239L64.38444444444444,85.14302075182121L65.24000000000001,83.5149613873644L65.47333333333333,82.22263087370894L65.56666666666666,81.32110705100835L65.94,80.27616193368044L66.01777777777778,79.54429247661834L67.18444444444444,77.5371772806907L67.54222222222222,75.85458422667173L67.80666666666667,74.4923974213981L68.35111111111111,72.9517863713493L69.00444444444445,71.16484993236006L69.08222222222223,69.99042670450652L69.28444444444445,69.02035531116752L69.40888888888888,68.275307599981L69.45555555555556,67.76722247855625L69.76666666666667,67.0562694040344L69.96888888888888,66.3666573743466L70.04666666666667,65.85192292812131L70.26444444444445,65.26097818543114L70.29555555555555,64.8661841054535L70.46666666666667,64.40840426086045L71.02666666666666,63.41494576334154L71.19777777777777,62.60056960701462L71.21333333333334,62.09213097166728L71.54,61.37224092049428L71.97555555555554,60.391062187928135L72.10000000000001,59.646267371045454L72.22444444444444,59.04368622104343L72.64444444444443,58.15953866839418L72.70666666666666,57.55201739192016L72.81555555555555,57.05294612717631L72.86222222222223,56.695931897592594L73.00222222222223,56.30936413170817L73.23555555555555,55.7913490722294L73.31333333333333,55.38551950393411L73.37555555555555,55.06612490378792L73.56222222222223,54.64746573426115L73.64,54.301974134789624L73.71777777777778,54.00055891105338L73.73333333333332,53.80090963738444L73.93555555555555,53.437333678586995L73.95111111111112,53.2004864307545L73.96666666666667,53.039679926175026L74.12222222222223,52.75664701553472L74.16888888888889,52.53100710208589L74.32444444444444,52.21003068146333L74.43333333333332,51.8879749575688L74.85333333333332,51.1988728999754L75.19555555555556,50.385586926916865L75.35111111111112,49.71716073130347L75.61555555555556,49.01120937451589L75.63111111111112,48.56978088965935L76.5488888888889,47.26626708716702L77.0311111111111,45.95074265367123L77.07777777777778,45.1102744529625L77.18666666666667,44.48695411622407L77.23333333333333,44.062082674145L77.35777777777778,43.671901491903846L78.07333333333332,42.671878759636655L78.30666666666667,41.82657007251632L78.50888888888889,41.108609484877896L79.06888888888889,40.103103093651974L79.08444444444444,39.484026975839164L79.38,38.814863197451146L79.39555555555556,38.397803647783604L79.41111111111111,38.1320136686964L79.6288888888889,37.75590904359838L79.64444444444445,37.514853786258826L79.66,37.354835182922436L79.7688888888889,37.151445895729886L80.03333333333333,36.770845347820796L80.4688888888889,36.12352254043763L80.76444444444445,35.455809986893804L80.87333333333333,34.95330440777809L80.9511111111111,34.57936812507075L81.15333333333334,34.16802831332066L81.19999999999999,33.87835265302765L81.33999999999999,33.57655438842838L81.52666666666667,33.22628120817225L81.89999999999999,32.682806934341684L81.94666666666667,32.31553860034042L82.53777777777779,31.582868525537823L83.06666666666668,30.699813883991848L83.31555555555556,29.966263688499826L83.59555555555556,29.3007956486315L83.76666666666668,28.765830990157784L83.89111111111112,28.347141406823564L84.06222222222222,27.962916494541986L84.28,27.56535359688615L84.94888888888889,26.829786732602205L85.2911111111111,26.143605217223218L85.30666666666666,25.72092076831152L85.41555555555556,25.390857605296905L85.44666666666666,25.171093695258207L85.55555555555556,24.963630374011487L85.96,24.564137921176616L86.58222222222223,23.919395450021195L86.62888888888888,23.503062655487884L86.73777777777778,23.184944552158825L86.92444444444445,22.87854743121596L87.11111111111111,22.581197953930694L87.31333333333333,22.282099531120767L87.32888888888888,22.093454924837793L87.36,21.96194277263647L87.57777777777777,21.756329715591452L87.95111111111112,21.42223925610889L87.99777777777777,21.19602182638948L88.02888888888889,21.043189782692856L88.06,20.934445237394495L88.10666666666665,20.843737790153217L88.16888888888889,20.755567317703843L88.21555555555555,20.67750674813956L88.51111111111112,20.4743542452453L88.85333333333334,20.178000544297582L88.93111111111111,19.961522492639958L89.41333333333334,19.60007322601839L89.50666666666666,19.340018908812784L89.61555555555555,19.13427461423531L89.64666666666666,18.996757824647773L89.94222222222223,18.783536493437488L90.06666666666666,18.602171349321004L90.96888888888888,18.134609310504313L91,17.84260421316418L91.15555555555555,17.610965569738116L91.29555555555555,17.422485196544898L91.80888888888889,17.138437380763378L91.94888888888889,16.924264782889182L92.01111111111112,16.77671491755457L92.10444444444444,16.660076222738123L92.29111111111112,16.53552829141647L92.33777777777777,16.447502988071626L92.80444444444444,16.26933595984659L92.94444444444444,16.127532753047237L93.03777777777778,16.019877298293647L93.52000000000001,15.847522582780222L93.55111111111111,15.737670723301697L93.69111111111111,15.64354181510363L93.86222222222221,15.554285551441655L93.95555555555555,15.483644274075596L94.06444444444445,15.422033850669722L94.64,15.296123876762328L95.0288888888889,15.172578808422067L95.12222222222222,15.08838352963639L95.21555555555555,15.02836430910413L95.26222222222222,14.987812750596937L95.60444444444444,14.934497388040523L96.14888888888889,14.872029156586821L96.32,14.828939122618022L96.86444444444444,14.797458423769958L97.20666666666666,14.779825457094026L97.25333333333333,14.76953052768583L97.33111111111111,14.763884587821204L98.28,14.773037483535315L98.35777777777778,14.780051940823862L98.43555555555555,14.785860701885982L98.52888888888889,14.791361012749176L99.47777777777779,14.821292971785253L99.89777777777779,14.8545989127251L100.1,14.882751711087973L100.22444444444444,14.904921917842374L100.39555555555556,14.925791924432845L100.58222222222223,14.94698604657409L100.94,14.977528540576449L101.03333333333333,15.000763313940157L101.5,15.040868232828966L101.65555555555557,15.074250370372889L101.71777777777777,15.09809172756053L102.10666666666665,15.137301627436724L102.16888888888889,15.164984276079831L102.26222222222222,15.187920361866789L102.80666666666666,15.240720611876412L102.85333333333334,15.275917435923901L103.42888888888889,15.342601075911327L103.58444444444444,15.39562647053233L103.88,15.452990344218197L104.00444444444445,15.498486191661247L104.06666666666666,15.531392795223658L104.09777777777778,15.553957129942578L104.19111111111111,15.576037732021348L104.33111111111111,15.60229427054901L104.47111111111111,15.63129902145494L104.68888888888888,15.669787849552806L104.79777777777777,15.703642168979282L105.14,15.758720600211872L105.24888888888889,15.803130032780317L105.34222222222223,15.839629412986381L105.40444444444445,15.868157971678714L105.42,15.886938493715835L105.84,15.944264686862923L105.88666666666666,15.983910797095497L105.99555555555555,16.020052539143677L106.24444444444444,16.070518044730292L106.27555555555556,16.104447655737534L106.32222222222222,16.13030550054321L106.33777777777777,16.147655911276402L106.46222222222222,16.17288190545421L107.05333333333334,16.26095332158674L107.25555555555555,16.33972109230202L107.4888888888889,16.41751000208762L107.78444444444443,16.503802197713284L107.84666666666666,16.5640526995293L107.95555555555555,16.615145348622328L108.09555555555555,16.665223528810692L108.57777777777778,16.76398624769948L108.74888888888889,16.848300181580186L109.24666666666667,16.973776115627658L109.62,17.107181747944125L109.91555555555556,17.234422409648282L110.11777777777777,17.343658258983258L110.13333333333333,17.41174935726451L110.25777777777778,17.47311325924472L110.28888888888889,17.51508704457808L110.94222222222221,17.65120831509908L111.00444444444445,17.743708916786208L111.06666666666666,17.810086350609613L111.23777777777778,17.88005774078949L111.25333333333333,17.924801164020202L111.28444444444445,17.957168396204175L111.30000000000001,17.979356357985406L111.79777777777778,18.08270654054503L111.9688888888889,18.176345616412302L112,18.238317507405355L112.07777777777778,18.290017472445545L112.1088888888889,18.326864580356837L112.28,18.381227779414516L112.3888888888889,18.434551875606946L112.5911111111111,18.5053704147433L112.82444444444444,18.593254766755997L112.96444444444444,18.673527969058572L113.0111111111111,18.730926676473736L113.47777777777779,18.859088780809504L113.83555555555556,19.009561897712366L113.85111111111111,19.103081107972507L113.89777777777778,19.16890568783194L113.92888888888889,19.214892216028627L113.99111111111111,19.255502860249194L114.08444444444444,19.29947470456429L114.52,19.418705039203587L114.64444444444445,19.517173929798847L115.00222222222222,19.654680611961037L115.14222222222222,19.768275536461452L115.15777777777778,19.839899931766872L115.8111111111111,20.031067213069363L115.9511111111111,20.17815966644941L116.02888888888889,20.28450842642225L116.72888888888889,20.514266013761972L116.80666666666667,20.67090312222279L116.99333333333334,20.810246965763824L117.36666666666667,20.985761547969496L117.70888888888888,21.176701310209477L118.28444444444445,21.438262142498523L119.04666666666668,21.795582245444816L119.26444444444445,22.06841791311237L120.13555555555556,22.47114061498244L120.24444444444445,22.74324270000218L120.66444444444446,23.025233900011553L120.67999999999999,23.19886666265783L121.03777777777778,23.405771885679105L121.16222222222223,23.56597147844192L121.83111111111111,23.858785846602657L122.36,24.193421100838034L122.56222222222223,24.45577218250218L122.60888888888888,24.627453494762097L123.63555555555556,25.050279169496726L123.76,25.34350199056676L123.88444444444444,25.559124866443934L124.14888888888889,25.773377036641893L124.28888888888889,25.947163316959653L124.39777777777778,26.08675655922562L124.49111111111111,26.200889534957824L124.58444444444444,26.29983778429488L125.14444444444443,26.543913004591815L125.2688888888889,26.731847857114555L125.65777777777778,26.975291892693555L125.67333333333333,27.126615741733378L126.17111111111112,27.387033306886963L126.20222222222223,27.55397101839197L126.51333333333332,27.761529353855927L126.59111111111112,27.91306889510088L126.62222222222223,28.0148099092003L126.65333333333332,28.0866858737085L127.05777777777777,28.27147011616313L127.63333333333333,28.586775473704854L127.72666666666666,28.80942335841115L127.94444444444444,29.021437437039964L128.22444444444443,29.250165230454403L128.78444444444443,29.592772153867138L128.81555555555556,29.809835832031286L128.92444444444445,29.980399740166508L129.06444444444443,30.134753210799147L129.11111111111111,30.244748212967078L129.54666666666668,30.473996256633875L129.60888888888888,30.6350188820626L129.64000000000001,30.743381665293324L129.8422222222222,30.885003045883153L130.01333333333332,31.035104677490224L130.0288888888889,31.131098285562913L130.10666666666665,31.218403312711203L130.18444444444444,31.300554974763582L130.76000000000002,31.5719169043833L131.04000000000002,31.843909207781195L131.33555555555554,32.12315131652359L131.58444444444444,32.38905443804268L131.8022222222222,32.63513814244749L132.0822222222222,32.89470651646902L132.1288888888889,33.06917031348021L132.6577777777778,33.38746192300482L132.70444444444445,33.597409345174825L132.84444444444443,33.780411218085874L132.9377777777778,33.928336605119114L133.01555555555555,34.04892477076497L133.2177777777778,34.20429227758197L133.29555555555555,34.32954264884441L133.54444444444445,34.50755207064899L133.6222222222222,34.64661617471667L133.7,34.76236935492691L133.76222222222222,34.85771101734841L134.01111111111112,35.018823182712815L134.54,35.338134632188584L134.91333333333333,35.68837625126749L135.56666666666666,36.1791060944838L135.64444444444445,36.50719505431906L135.79999999999998,36.77150878836309L135.86222222222221,36.95714025217055L136.11111111111111,37.17701907466506L136.28222222222223,37.383851525251L136.65555555555557,37.672242973484984L136.92,37.96236550464535L137.21555555555557,38.26800131591741L137.54222222222222,38.597644792750984L137.57333333333332,38.80940614149304L137.66666666666666,38.978441488774614L137.80666666666667,39.1429588628006L138.05555555555557,39.35424857331468L138.66222222222223,39.75755254622195L138.69333333333333,40.01379504320559L138.74,40.18894653628789L138.91111111111113,40.372680813732885L139.02,40.533090252079454L139.61111111111111,40.90333757305019L139.86,41.241680392646046L139.93777777777777,41.48109772743181L139.9688888888889,41.63932825888036L140.28,41.88046175101305L140.45111111111112,42.105870615595016L140.68444444444447,42.35156763264743L140.84,42.572853581125806L141.82,43.1752207017036L141.86666666666667,43.55918285465787L141.96,43.834693141082234L142.5511111111111,44.28734323221405L142.75333333333333,44.657822160947084L142.76888888888888,44.88773015083538L142.8,45.04091972673933L142.89333333333332,45.17860650160909L142.94,45.284129697912945L143.22,45.485237454673076L143.5,45.74426213222768L143.87333333333333,46.08502324413077L143.93555555555557,46.32046532625448L144.1222222222222,46.554855620828235L144.26222222222222,46.765492711047514L144.7911111111111,47.1575561723591L145.19555555555556,47.59725719460733L145.2577777777778,47.892632924132876L145.28888888888886,48.08564471162161L145.4911111111111,48.30422658298493L145.56888888888886,48.47498048886111L145.70888888888888,48.648817798760234L145.98888888888888,48.896280468265246L146.59555555555556,49.35671167418959L146.76666666666668,49.72139013317587L146.78222222222223,49.948243358775144L147.21777777777777,50.310312151339176L147.28,50.55993144477994L147.3111111111111,50.7259008214807L147.49777777777777,50.92279936825847L147.8711111111111,51.236229955885506L148.05777777777777,51.52225581391676L148.18222222222224,51.75930256595627L148.27555555555557,51.95066558689127L148.44666666666666,52.15570367199332L148.57111111111112,52.34445316089484L148.60222222222222,52.47415033872898L148.69555555555553,52.60134274897562L149.22444444444443,52.958422417268686L149.36444444444447,53.247265908018086L149.39555555555555,53.43716718727073L149.44222222222223,53.5760060070379L149.92444444444442,53.917348773385505L149.94,54.13049950069513L150.01777777777778,54.30014340797858L150.26666666666665,54.53576381635544L150.28222222222223,54.685512778949025L151.21555555555554,55.280419849032924L151.3088888888889,55.688134314224L151.35555555555555,55.958163929942195L151.76000000000002,56.34082837877451L151.83777777777777,56.612957703934775L152.3511111111111,57.05774153939883L152.36666666666667,57.33316439194681L152.7711111111111,57.721206437368394L153.03555555555556,58.100149471055985L153.0977777777778,58.361947046811316L153.22222222222223,58.587948886808725L153.29999999999998,58.76666441455899L153.31555555555556,58.88252013263358L153.4088888888889,59.003820105417105L153.72,59.24952901841615L153.92222222222222,59.50960750246891L154.01555555555555,59.71771543541462L154.40444444444444,60.05994933437652L154.45111111111112,60.29142207855789L155.33777777777777,60.92873097035176L156.0222222222222,61.69828101738026L156.05333333333334,62.17765771593889L156.2711111111111,62.588926477707865L156.39555555555557,62.906432666467126L156.75333333333333,63.300692473701545L156.76888888888888,63.54611740997548L157.04888888888888,63.85322279030749L157.45333333333335,64.2689394372384L157.79555555555555,64.71472292051796L158.0911111111111,65.15213628355313L158.10666666666665,65.42353775348457L158.54222222222222,65.83745509532804L158.66666666666666,66.1576722511513L158.68222222222224,66.35878764682191L158.91555555555556,66.61437408383595L159.11777777777777,66.88481009159035L159.13333333333333,67.05608493181198L159.52222222222224,67.38444447572309L159.86444444444444,67.7804195526557L159.95777777777778,68.07233369608622L160.00444444444443,68.27465903913917L160.08222222222224,68.44136307332481L160.16,68.58671542223433L160.23777777777778,68.71927786002243L160.98444444444445,69.23517127114346L161.0311111111111,69.57203890846854L161.20222222222222,69.87443041781597L161.42000000000002,70.18361202466495L161.7311111111111,70.55186495535379L161.9488888888889,70.90090453238969L162.02666666666667,71.15610482461265L162.66444444444446,71.68525592188246L162.7266666666667,72.03948879063253L163.19333333333333,72.52794675719814L163.39555555555557,72.94076077158496L163.66,73.34518382558373L163.79999999999998,73.67088743215292L164.07999999999998,74.03254629472191L164.17333333333335,74.30499252855357L164.31333333333333,74.55167884337651L164.98222222222222,75.09789066736549L165.1688888888889,75.53691697850616L165.2,75.81889025410887L165.30888888888887,76.05303773904369L165.80666666666664,76.49080827012376L165.86888888888888,76.79066293343735L166.35111111111112,77.25907663646241L166.44444444444446,77.5960118421489L166.72444444444443,77.96592183402625L166.81777777777776,78.2438145964828L167.25333333333336,78.67182155188841L167.28444444444443,78.94729926429345L167.62666666666667,79.31809328938814L167.65777777777777,79.55926082697687L167.81333333333336,79.7974380622338L167.98444444444442,80.04320711910908L168.35777777777778,80.41523280751815L168.51333333333332,80.73206911690303L169.01111111111112,81.22195329789679L169.0888888888889,81.56275052144741L169.1977777777778,81.83285350987089L169.3688888888889,82.09806286924346L169.4622222222222,82.3134658195571L169.82000000000002,82.65850829231717L169.88222222222223,82.90307427136884L170.17777777777778,83.22818659954541L170.5822222222222,83.66745535858436L170.64444444444445,83.96859579281787L170.78444444444443,84.23384551403988L170.8777777777778,84.44937818168444L170.95555555555555,84.62569109749106L171.20444444444445,84.88186941237036L171.62444444444444,85.2894415836977L171.87333333333333,85.68445985206648L172.01333333333332,86.00612419062067L172.1222222222222,86.2649689985109L172.2,86.46731139855342L172.9311111111111,87.03091398261046L172.99333333333334,87.40671449531351L173.47555555555556,87.92389412301321L173.66222222222223,88.34711702810253L174.06666666666666,88.84568995920732L174.11333333333334,89.17305854372928L174.22222222222223,89.43533996589632L174.26888888888888,89.62093188671857L174.34666666666666,89.77932782953138L174.4088888888889,89.91199556580277L174.56444444444446,90.08566723818238L174.62666666666667,90.22749689551983L174.7511111111111,90.38784448106763L175.0311111111111,90.65334220409201L175.63777777777779,91.17931389021759L175.82444444444442,91.60767839674881L175.85555555555555,91.88349196508365L175.96444444444444,92.11475597736144L176.12,92.34746760676447L176.13555555555556,92.49648937910881L176.1977777777778,92.6234781046515L176.29111111111112,92.75603131650719L176.33777777777777,92.86373883604307L176.4777777777778,93.01288485002101L176.58666666666667,93.16809909624803L176.69555555555556,93.32694549013941L176.7888888888889,93.47857461958986L176.80444444444444,93.57893810027755L176.89777777777778,93.69546869012068L176.97555555555556,93.81230826742859L177.13111111111112,93.97623687724716L177.28666666666666,94.16839604819089L177.61333333333332,94.48059716370265L177.97111111111113,94.8834407183323L178.0022222222222,95.1438819320675L178.20444444444445,95.4218903989599L178.42222222222222,95.7197478539351L178.45333333333332,95.91717982450744L178.70222222222222,96.18532799577488L178.7177777777778,96.35556949314936L178.73333333333332,96.46706698618809L179.20000000000002,96.8143833117633L179.48000000000002,97.19086836796694L179.61999999999998,97.50076219452436L179.76,97.77066963322767L179.91555555555556,98.02587980871088L179.99333333333334,98.22562294509821L180.33555555555557,98.55046103183517L180.45999999999998,98.81985583176666L180.55333333333334,99.03734277051957L180.75555555555556,99.28878917910025L181.26888888888888,99.74634616742946L181.54888888888888,100.1879434774543L181.56444444444446,100.46217884959134L181.61111111111111,100.6545475145659L181.81333333333333,100.89049744132049L181.87555555555556,101.06913665844732L182.06222222222223,101.28747522183497L182.07777777777775,101.4277377626195L182.18666666666664,101.57669703965749L182.56,101.88804507139544L182.5911111111111,102.09333752920162L182.82444444444445,102.35506468611914L182.84,102.52133400796629L183.12,102.78717404937015L183.36888888888888,103.09414100846807L183.52444444444447,103.37040705204704L183.75777777777776,103.67417679262576L183.92888888888888,103.95755708236942L184.13111111111112,104.24698688995512L184.33333333333334,104.53993387467665L184.59777777777776,104.87152589229945L184.70666666666665,105.1345847956431L185.01777777777778,105.47539092970445L185.17333333333335,105.77125186844202L185.36,106.05832689478117L185.37555555555554,106.23969767972304L185.85777777777778,106.63103215983197L185.87333333333333,106.87493400031735L185.88888888888889,107.03037449869164L186.04444444444442,107.21460284681709L186.24666666666667,107.44327548677678L186.34,107.63495762667034L186.46444444444444,107.82256161285028L186.55777777777777,107.98953750200619L187.64666666666668,108.72234983722898L188.06666666666666,109.40493215608913L188.5488888888889,110.09255727224541L188.62666666666667,110.54989960249061L188.81333333333333,110.93165675077316L189.60666666666668,111.61542578502582L189.63777777777779,112.0434675095325L189.9022222222222,112.4512686358598L190.01111111111112,112.75803267518921L190.16666666666669,113.03069545960571L190.8511111111111,113.58293484530537L190.94444444444446,113.96711826253943L191.0222222222222,114.24163245516428L191.2711111111111,114.54697452400572L191.89333333333335,115.08054951676397L191.98666666666665,115.45309647231501L192.03333333333333,115.70281155889751L192.04888888888888,115.8613672374816L192.8111111111111,116.38270747179574L192.95111111111112,116.77349385926001L193.12222222222223,117.10314799135251L193.5888888888889,117.55979405513598L193.68222222222224,117.88542229337213L193.6977777777778,118.08940277935694L193.79111111111112,118.26338067914027L194.46,118.73619529166807L194.72444444444443,119.16490466331831L195.08222222222224,119.61774527988071L195.23777777777778,119.97428765273833L195.39333333333332,120.27291920409647L195.58,120.553573522723L195.70444444444445,120.78951087221877L195.9377777777778,121.05749068036901L196.2177777777778,121.36957994923132L196.51333333333332,121.71606323614797L196.6688888888889,122.00755861696649L196.70000000000002,122.19916180549293L197.66444444444446,122.82919162379642L197.82,123.28977398793066L197.92888888888888,123.62383202743628L198.0066666666667,123.86544534583152L198.25555555555556,124.141935187693L198.36444444444444,124.3652528632376L198.38,124.50744083575566L198.56666666666666,124.69100597531892L198.66,124.85019211191712L199.2511111111111,125.25508231353032L199.76444444444445,125.76490649838011L200.27777777777777,126.33600570713736L200.62,126.85451739701783L200.68222222222224,127.1975153694937L201.8488888888889,127.99647859694893L202.0511111111111,128.57773370124303L202.56444444444443,129.183829057678L202.58,129.55525548366572L202.65777777777777,129.81693454151073L202.78222222222223,130.03596995213462L203.06222222222223,130.30655478202598L203.23333333333332,130.5536759869057L203.68444444444444,130.9244310930847L204.05777777777777,131.3298962697672L204.15111111111113,131.6187699338965L204.16666666666666,131.7996866316302L204.26000000000002,131.9537564790668L204.29111111111112,132.06135701098574L204.69555555555556,132.32233500455936L204.86666666666667,132.56165595337822L205.45777777777778,132.98936853101893L205.51999999999998,133.2757506566706L205.61333333333332,133.49215465470925L205.72222222222223,133.67391810825333L205.73777777777778,133.79038581258575L205.92444444444445,133.94904047552657L206.20444444444445,134.17689188899942L206.64,134.51875231315105L206.8111111111111,134.804057527479L207.15333333333334,135.13492842846898L207.35555555555555,135.42737517853848L207.3711111111111,135.6100550478713L207.49555555555557,135.77728543198208L207.6822222222222,135.96382525572835L207.88444444444445,136.168817928491L208.3511111111111,136.5053266382563L208.5066666666667,136.7780093250482L208.55333333333334,136.96281305240447L208.58444444444444,137.08781561426434L209.11333333333334,137.40163360638684L209.1911111111111,137.62484849156897L209.22222222222223,137.7727333436129L209.34666666666666,137.917207055075L209.39333333333335,138.02476186322158L209.42444444444445,138.10319791893352L209.48666666666665,138.17804215645904L209.81333333333333,138.36827349541255L209.84444444444446,138.49620645271344L210.04666666666665,138.66242513970496L210.40444444444447,138.91957938621022L210.42,139.08069164424882L210.8711111111111,139.37422944527714L211.0888888888889,139.64476515306143L211.2133333333333,139.86085300715632L211.72666666666666,140.2108631525747L212.22444444444443,140.63233827914667L212.95555555555555,141.1918263397567L213.04888888888888,141.56631512415126L213.31333333333333,141.90050267858336L213.6711111111111,142.24814406146425L213.88888888888889,142.54571481114516L213.98222222222222,142.76226107815438L214.07555555555555,142.93011265122612L214.1222222222222,143.04975560977292L214.26222222222222,143.17821610375782L214.4177777777778,143.31805272343482L214.4488888888889,143.41448020900918L214.9311111111111,143.66532781550669L214.9622222222222,143.82821287411082L215.02444444444444,143.9506700840451L215.2266666666667,144.10425380509244L215.3511111111111,144.24551175320832L215.39777777777778,144.34864422103578L215.45999999999998,144.43499535722026L215.70888888888888,144.58432736636692L215.84888888888887,144.72852469469007L215.94222222222223,144.85133868446886L216.01999999999998,144.95520981246793L216.50222222222223,145.2033781623516L216.51777777777775,145.35823685769284L216.59555555555556,145.48090709354904L216.85999999999999,145.6552399671461L217.07777777777775,145.8422881142131L217.09333333333333,145.96038852935024L217.3111111111111,146.11320398780697L217.34222222222223,146.2165637852728L217.42,146.30771398943543L217.7,146.46679965795204L217.96444444444447,146.66014207685666L218.05777777777777,146.81053356697961L218.19777777777776,146.95218619180207L218.5088888888889,147.15074699653675L218.66444444444446,147.32630807479316L218.75777777777776,147.46538457167205L218.83555555555554,147.57688034112488L218.96,147.68853231540461L219.87777777777777,148.08079606754268L220.20444444444442,148.42987784274032L220.39111111111112,148.7038253472901L220.5,148.90565390149692L220.56222222222223,149.04810208088125L221.04444444444442,149.29769988063552L221.43333333333334,149.57807838442073L221.48000000000002,149.76187512142747L221.60444444444443,149.91356156088884L221.85333333333332,150.08690799515233L221.9933333333333,150.2369460418271L222.47555555555556,150.4839514407186L222.50666666666666,150.64219874070096L222.5688888888889,150.75720535025604L222.66222222222223,150.85622017267707L222.69333333333333,150.92561246414996L222.7088888888889,150.97223580157768L223.14444444444445,151.1388344572545L223.28444444444443,151.28292571196323L223.36222222222221,151.3938086014352L223.4711111111111,151.49443029203186L223.53333333333333,151.57422765545948L223.90666666666667,151.73778750570358L223.9688888888889,151.85505895806398L224,151.93497443493035L224.32666666666668,152.08259769258396L224.3422222222222,152.17588970498738L224.35777777777778,152.23657989315092L224.57555555555555,152.33873515016973L224.6688888888889,152.42804652564013L224.76222222222222,152.5095579407351L224.80888888888887,152.57239169816594L225.1822222222222,152.72066145950808L225.21333333333334,152.81876930632743L225.24444444444444,152.886769454411L225.89777777777778,153.11698442070562L226.39555555555557,153.39630104970266L227.12666666666667,153.76632111517387L227.76444444444445,154.16009037195323L227.85777777777778,154.42110755293774L227.93555555555554,154.5982734806788L227.99777777777777,154.72096887066675L228.34,154.88398940986224L228.4488888888889,155.0099731497516L228.79111111111112,155.17323583588302L229.08666666666667,155.34584979996265L229.9422222222222,155.659961673082L230.08222222222224,155.88209040088122L230.95333333333332,156.21979080064693L231.12444444444444,156.46154458924295L231.79333333333332,156.75633992018794L231.85555555555555,156.94688445262608L231.9177777777778,157.07483344857394L232.11999999999998,157.19556654667556L232.4622222222222,157.34132664159358L232.89777777777778,157.5201316036607L232.95999999999998,157.64028417924496L232.9911111111111,157.71879354482562L233.0377777777778,157.77550473952692L233.2866666666667,157.86033201080204L233.48888888888888,157.9519708006778L233.61333333333334,158.03178849699785L233.67555555555558,158.0920282453757L233.70666666666668,158.13432968075344L233.76888888888888,158.17199164690237L233.89333333333335,158.21901487521325L233.90888888888887,158.25026919670103L233.9711111111111,158.2811553041023L234.06444444444446,158.31780190601242L234.07999999999998,158.34279904117759L234.70222222222222,158.47583020054145L234.76444444444445,158.56720117038694L236.25777777777776,158.88552165437463L236.41333333333336,159.10243721736208L236.6,159.2633134945943L236.86444444444447,159.40265663562502L236.97333333333336,159.50365016556253L237.11333333333334,159.5863933075754L237.22222222222223,159.65310231502582L237.39333333333335,159.7196542115851L237.92222222222225,159.83935423165374L238.06222222222223,159.93172667585947L238.76222222222225,160.08637007832905L239.3688888888889,160.26035980495294L239.58666666666667,160.3928168646245L239.83555555555554,160.50365917350345L240.4111111111111,160.63982201402928L240.81555555555556,160.7680573495361L240.98666666666668,160.86408760701912L241.45333333333332,160.97195136831505L241.59333333333333,161.05122472684118L241.6088888888889,161.1003911914112L241.8888888888889,161.15822917138007L242.01333333333332,161.20521883382702L242.29333333333332,161.26036491568345L242.48,161.31088716320966L242.54222222222222,161.3469171401204L243.02444444444444,161.41122867556834L243.32,161.47457152596817L243.3511111111111,161.51512069818276L243.38222222222223,161.54198176723733L243.39777777777778,161.55935971326835L243.6,161.58591287655582L244.25333333333333,161.65050668289595L244.4711111111111,161.70431545803336L244.78222222222223,161.75709012988776L245.14,161.81084178895583L245.48222222222222,161.86274084064115L245.8088888888889,161.9112857613448L246.26,161.9622804713137L246.54,162.005184509401L246.82,162.0422640368561L246.9288888888889,162.0686585542295L247.17777777777778,162.0934224275648L247.41111111111113,162.1159532482881L247.58222222222224,162.13466961848488L247.8,162.15199027196374L248.2822222222222,162.17377784700636L248.4377777777778,162.18991136229818L248.57777777777778,162.2020898417193L248.98222222222222,162.21524924463398L249.43333333333334,162.22727925486163L249.60444444444445,162.23540519727175L249.61999999999998,162.24034529402988" style="fill: none;" fill="none"></path></g></g></g></g><g opacity="0.2"><g><g><g><path stroke="rgb(255, 112, 67)" stroke-width="2px" d="M31.39111111111111,156.3429178800434L31.842222222222222,156.30480262823403L32.07555555555555,156.27214646339417L32.09111111111111,156.26965566910803L32.215555555555554,156.24831934832036L32.495555555555555,156.19114482216537L32.71333333333333,156.13790622353554L32.775555555555556,156.12128664180636L33.102222222222224,156.02377036958933L33.13333333333333,156.01358410343528L33.553333333333335,155.86079450696707L33.6,155.84206272289157L33.66222222222222,155.81654265895486L33.78666666666667,155.7636326495558L34.08222222222222,155.62799343280494L34.26888888888889,155.5351015869528L34.67333333333333,155.31468524970114L34.906666666666666,155.17562716640532L34.922222222222224,155.16604752652347L35.14,155.02788729406893L35.32666666666667,154.9034563768655L35.49777777777778,154.78453290089965L35.544444444444444,154.75129263848066L36.02666666666667,154.3876333758235L36.07333333333333,154.35049180313945L36.49333333333333,154.00079648382962L36.68,153.83649087883532L36.80444444444444,153.72392543964088L36.99111111111112,153.5505446176976L37.11555555555556,153.43194148875773L37.364444444444445,153.187516707927L37.56666666666666,152.9818539172411L37.89333333333333,152.63629673421383L37.90888888888889,152.61943208426237L38.04888888888889,152.46597761660814L38.282222222222224,152.20354801416397L38.34444444444445,152.13216172903776L38.5,151.95111455768347L38.577777777777776,151.8592095784843L38.593333333333334,151.84071846678853L39.044444444444444,151.28853580355644L39.07555555555555,151.24932269006968L39.09111111111111,151.2296611852944L39.40222222222222,150.82879880815744L39.48,150.726319629699L39.511111111111106,150.68507453799248L39.76,150.3499245122075L39.85333333333333,150.22187032178044L40.28888888888889,149.60726669430733L40.35111111111111,149.51718708872795L40.382222222222225,149.47193518653512L40.89555555555555,148.70489033311605L41.019999999999996,148.51318214461207L41.11333333333334,148.36793471500278L41.128888888888895,148.34360482543707L41.346666666666664,147.99934002012014L41.486666666666665,147.77444322034717L41.611111111111114,147.57218830659986L42.32666666666667,146.36675926297903L42.388888888888886,146.25854900479317L42.995555555555555,145.17542768642306L43.16666666666667,144.86080514639616L43.275555555555556,144.65851836279035L43.36888888888889,144.48385175690055L43.617777777777775,144.01233610138297L44.05333333333333,143.16726504266262L44.44222222222222,142.39157246798277L44.58222222222222,142.10748894512653L44.89333333333333,141.46712018549442L45.76444444444444,139.6086107045412L46.651111111111106,137.62046123296022L46.72888888888889,137.44153505563736L46.900000000000006,137.0453751310706L47.00888888888889,136.7914712652564L47.07111111111111,136.64576007425785L47.102222222222224,136.57273413985968L47.242222222222225,136.24271845817566L47.53777777777778,135.53856602311134L47.77111111111111,134.97558387368917L47.864444444444445,134.74866168946028L48.19111111111111,133.9467325285077L48.36222222222222,133.5219402834773L48.39333333333334,133.44436025619507L48.61111111111111,132.89832847565413L48.72,132.62337951362133L49.01555555555555,131.87067060172558L49.03111111111111,131.8307959139347L49.217777777777776,131.35030834376812L49.373333333333335,130.94711067527533L49.404444444444444,130.86616782844067L49.52888888888889,130.54139418900013L49.668888888888894,130.17411714792252L50.05777777777778,129.14344812184572L50.166666666666664,128.8521378338337L50.49333333333334,127.97118680924177L50.586666666666666,127.717573069036L50.61777777777778,127.63284759968519L50.66444444444444,127.50558356195688L50.72666666666667,127.3355765491724L50.82,127.07986818999052L50.882222222222225,126.90893585234882L50.96,126.69475281983614L51.30222222222223,125.74562447518112L51.72222222222223,124.56607265770437L52.03333333333333,123.68214344978333L52.32888888888888,122.83457665145399L52.5,122.34045757353306L52.51555555555556,122.29541777074338L53.15333333333333,120.4314266741276L53.495555555555555,119.41772779822351L53.775555555555556,118.58157260715963L53.791111111111114,118.53494150936605L54.351111111111116,116.84434002637865L54.47555555555556,116.46555466949941L54.6,116.08567474782468L54.64666666666666,115.94294174015522L55.191111111111105,114.26667949557306L55.23777777777778,114.12207825481893L55.455555555555556,113.4453954398632L55.50222222222222,113.2999941557646L55.580000000000005,113.05735243856907L55.766666666666666,112.47346146404743L55.937777777777775,111.93634225428107L56.42,110.4132399559021L56.544444444444444,110.01799656450748L57.08888888888889,108.27879904210567L57.32222222222222,107.52863532304767L57.586666666666666,106.67513853311542L57.61777777777778,106.57450450956824L57.66444444444445,106.42346335947515L57.72666666666667,106.22191397845745L58.72222222222222,102.97339512407781L58.75333333333334,102.87120497226717L58.94,102.25725522637367L58.986666666666665,102.10355459153652L59.842222222222226,99.2719198614359L59.904444444444444,99.06502513587478L60.044444444444444,98.59908340871337L60.15333333333333,98.23627693951131L60.65111111111111,96.57349674403669L60.69777777777778,96.41727729141714L60.791111111111114,96.10467574000361L60.80666666666667,96.05255423486234L61.04,95.2700503021479L61.22666666666667,94.64317238330842L61.288888888888884,94.43405336141589L61.36666666666667,94.17253589630128L61.397777777777776,94.06789726018907L61.6,93.38729335367682L61.61555555555556,93.33490370213987L61.89555555555556,92.3912569731474L63.31111111111112,87.60529658198358L63.45111111111112,87.13109067082408L63.60666666666666,86.60410827398302L63.77777777777778,86.02435818314554L64.0111111111111,85.23375710844995L64.07333333333334,85.02293249964717L64.38444444444444,83.96891495585443L65.24000000000001,81.0728723406792L65.47333333333333,80.28413510322572L65.56666666666666,79.96882131695749L65.94,78.70874425768855L66.01777777777778,78.44648829102518L67.18444444444444,74.52650448679927L67.54222222222222,73.33069464564325L67.80666666666667,72.44911721348764L68.35111111111111,70.6408697962761L69.00444444444445,68.4844452738762L69.08222222222223,68.22879186272623L69.28444444444445,67.565248221159L69.40888888888888,67.15773603320125L69.45555555555556,67.00509479641916L69.76666666666667,65.9898397922516L69.96888888888888,65.33223932981494L70.04666666666667,65.07982125878335L70.26444444444445,64.3745610713959L70.29555555555555,64.27399298548701L70.46666666666667,63.721734493970885L71.02666666666666,61.92475801706316L71.19777777777777,61.37900537252428L71.21333333333334,61.32947301864626L71.54,60.29240584373476L71.97555555555554,58.919294089078925L72.10000000000001,58.52907514572146L72.22444444444444,58.13981449604037L72.64444444444443,56.83331733942034L72.70666666666666,56.64073547720912L72.81555555555555,56.3043392300606L72.86222222222223,56.160410553216956L73.00222222222223,55.72951248288156L73.23555555555555,55.01432648301126L73.31333333333333,54.77677515149119L73.37555555555555,54.58703300356867L73.56222222222223,54.01947697997096L73.64,53.78373673558238L73.71777777777778,53.54843607544901L73.73333333333332,53.50143572688105L73.93555555555555,52.891969740390806L73.95111111111112,52.84521555900575L73.96666666666667,52.79847016930583L74.12222222222223,52.3320976495743L74.16888888888889,52.192547231912634L74.32444444444444,51.72856605052951L74.43333333333332,51.40489137172702L74.85333333333332,50.165219813585296L75.19555555555556,49.16565796732904L75.35111111111112,48.7145214378834L75.61555555555556,47.95228233933451L75.63111111111112,47.907638162374525L76.5488888888889,45.31099638342859L77.0311111111111,43.97745600342753L77.07777777777778,43.849572151899366L77.18666666666667,43.55197361111643L77.23333333333333,43.42477551102641L77.35777777777778,43.086629718542135L78.07333333333332,41.17184466123584L78.30666666666667,40.55860704183582L78.50888888888889,40.03166860342028L79.06888888888889,38.59484350681308L79.08444444444444,38.55541279911998L79.38,37.811117529869115L79.39555555555556,37.77221432328228L79.41111111111111,37.73332870006564L79.6288888888889,37.191752105951345L79.64444444444445,37.15327090024952L79.66,37.11480727791789L79.7688888888889,36.84636196494105L80.03333333333333,36.19994452595714L80.4688888888889,35.152538329362905L80.76444444444445,34.454241156578085L80.87333333333333,34.19954603910449L80.9511111111111,34.018463701009786L81.15333333333334,33.55101859569553L81.19999999999999,33.44383916258814L81.33999999999999,33.123856991529486L81.52666666666667,32.700871437788045L81.89999999999999,31.867595523595835L81.94666666666667,31.764636099338563L82.53777777777779,30.483863413333925L83.06666666666668,29.375231921672828L83.31555555555556,28.86593839526178L83.59555555555556,28.302593588829055L83.76666666666668,27.963384002447143L83.89111111111112,27.719107031822205L84.06222222222222,27.38657912611962L84.28,26.969009250402458L84.94888888888889,25.726436436176314L85.2911111111111,25.11433294415474L85.30666666666666,25.086894094944014L85.41555555555556,24.895762860774994L85.44666666666666,24.84144783020021L85.55555555555556,24.65243539214135L85.96,23.9648992419243L86.58222222222223,22.952281743288054L86.62888888888888,22.87856346368791L86.73777777777778,22.7077673971653L86.92444444444445,22.41895174980165L87.11111111111111,22.135173738002784L87.31333333333333,21.833451896905913L87.32888888888888,21.810488015413306L87.36,21.764674544334433L87.57777777777777,21.447910130023978L87.95111111111112,20.921103566885L87.99777777777777,20.856695681810386L88.02888888888889,20.813941717147834L88.06,20.77132841944696L88.10666666666665,20.707676619291313L88.16888888888889,20.623311609029784L88.21555555555555,20.560415893793127L88.51111111111112,20.16962549090386L88.85333333333334,19.733469992876067L88.93111111111111,19.636805415153518L89.41333333333334,19.05789932608606L89.50666666666666,18.949937433004386L89.61555555555555,18.82565817236901L89.64666666666666,18.790482640266433L89.94222222222223,18.463704496622107L90.06666666666666,18.330123633146293L90.96888888888888,17.43326625227929L91,17.404596567153938L91.15555555555555,17.26350760459902L91.29555555555555,17.139764636754997L91.80888888888889,16.712365657091155L91.94888888888889,16.603005886077888L92.01111111111112,16.555390119552634L92.10444444444444,16.485118180513396L92.29111111111112,16.34870639443399L92.33777777777777,16.31546503305436L92.80444444444444,16.002085417509093L92.94444444444444,15.914827942848213L93.03777777777778,15.858394116163266L93.52000000000001,15.588990509510047L93.55111111111111,15.572892934083958L93.69111111111111,15.50234845280648L93.86222222222221,15.420401155948646L93.95555555555555,15.377682358026517L94.06444444444445,15.32961821556092L94.64,15.107258915901197L95.0288888888889,14.987261205911656L95.12222222222222,14.962090611457837L95.21555555555555,14.938335478305836L95.26222222222222,14.926985412836087L95.60444444444444,14.854524344205863L96.14888888888889,14.778326809406288L96.32,14.764304071664823L96.86444444444444,14.750237375497825L97.20666666666666,14.753376007080085L97.25333333333333,14.75408813357354L97.33111111111111,14.755415678024304L98.28,14.786766827106483L98.35777777777778,14.79057362675668L98.43555555555555,14.794573843479164L98.52888888888889,14.799611479043968L99.47777777777779,14.866190910339368L99.89777777777779,14.904557824134834L100.1,14.92498090863229L100.22444444444444,14.938177227973958L100.39555555555556,14.95709693431855L100.58222222222223,14.978777229785926L100.94,15.02334228157999L101.03333333333333,15.035615473985679L101.5,15.101025611162193L101.65555555555557,15.124323576688779L101.71777777777777,15.133853763341923L102.10666666666665,15.196116477251065L102.16888888888889,15.20650824904443L102.26222222222222,15.222324490547187L102.80666666666666,15.319920986890805L102.85333333333334,15.328712671995183L103.42888888888889,15.442626535892506L103.58444444444444,15.475164562463773L103.88,15.539036154747016L104.00444444444445,15.566729962825782L104.06666666666666,15.580752700567265L104.09777777777778,15.587803632020957L104.19111111111111,15.609158635139485L104.33111111111111,15.64167907834055L104.47111111111111,15.674806147813817L104.68888888888888,15.727521091699613L104.79777777777777,15.754423648118985L105.14,15.841338247060795L105.24888888888889,15.869744181633015L105.34222222222223,15.89437848329546L105.40444444444445,15.910950809717185L105.42,15.915109276771565L105.84,16.030253976583495L105.88666666666666,16.043379962444313L105.99555555555555,16.074265152215965L106.24444444444444,16.14621630311013L106.27555555555556,16.155342072248466L106.32222222222222,16.169092267751708L106.33777777777777,16.17368152737619L106.46222222222222,16.210720896720908L107.05333333333334,16.39306044578553L107.25555555555555,16.457872748374953L107.4888888888889,16.534193366765983L107.78444444444443,16.633240491151824L107.84666666666666,16.654428452253363L107.95555555555555,16.691784322261817L108.09555555555555,16.740340799093254L108.57777777777778,16.912130326032653L108.74888888888889,16.97477108240129L109.24666666666667,17.16199001669886L109.62,17.307290196418784L109.91555555555556,17.425283402204528L110.11777777777777,17.507512032985694L110.13333333333333,17.513886004686377L110.25777777777778,17.565159112215063L110.28888888888889,17.578047722578063L110.94222222222221,17.85539022088053L111.00444444444445,17.88245981931687L111.06666666666666,17.909652501344688L111.23777777777778,17.985014826059356L111.25333333333333,17.99191629886628L111.28444444444445,18.005719244480147L111.30000000000001,18.012638300657294L111.79777777777778,18.237731814384468L111.9688888888889,18.316804230213172L112,18.33127534389498L112.07777777777778,18.36756742000582L112.1088888888889,18.382135242223747L112.28,18.462772578001037L112.3888888888889,18.51453801989556L112.5911111111111,18.611598223447807L112.82444444444444,18.72508129477503L112.96444444444444,18.79393777251245L113.0111111111111,18.817024737596533L113.47777777777779,19.051331937313094L113.83555555555556,19.235271573066726L113.85111111111111,19.24335992336274L113.89777777777778,19.267642557621024L113.92888888888889,19.283872008323677L113.99111111111111,19.316418826580055L114.08444444444444,19.365432471036925L114.52,19.597550541162498L114.64444444444445,19.66487726569178L115.00222222222222,19.86094063520433L115.14222222222222,19.938667923212066L115.15777777777778,19.947336524724967L115.8111111111111,20.31781813502314L115.9511111111111,20.398798346519477L116.02888888888889,20.44403156638146L116.72888888888889,20.858902394771597L116.80666666666667,20.905858784914024L116.99333333333334,21.019262731075308L117.36666666666667,21.249033421278014L117.70888888888888,21.46311095356942L118.28444444444445,21.830603390932097L119.04666666666668,22.331562399864204L119.26444444444445,22.477671414613724L120.13555555555556,23.075224667787552L120.24444444444445,23.151395827531815L120.66444444444446,23.44822070002556L120.67999999999999,23.459315806627288L121.03777777777778,23.716129720211043L121.16222222222223,23.806270867586143L121.83111111111111,24.298007398843772L122.36,24.695373982191093L122.56222222222223,24.849298804998405L122.60888888888888,24.88497546315193L123.63555555555556,25.68451768159867L123.76,25.783336222171783L123.88444444444444,25.882559180259705L124.14888888888889,26.09475529193879L124.28888888888889,26.207842737436295L124.39777777777778,26.296146422624588L124.49111111111111,26.372088998556144L124.58444444444444,26.448260158300407L125.14444444444443,26.91002583503723L125.2688888888889,27.013750135898604L125.65777777777778,27.340457946062102L125.67333333333333,27.35360151529312L126.17111111111112,27.77765965461731L126.20222222222223,27.80437758564949L126.51333333333332,28.072866857051864L126.59111111111112,28.140378206968315L126.62222222222223,28.167421430349364L126.65333333333332,28.194499820470817L127.05777777777777,28.54864647984506L127.63333333333333,29.059733510017402L127.72666666666666,29.143395185470588L127.94444444444444,29.33945855498314L128.22444444444443,29.593256920576128L128.78444444444443,30.106682538986227L128.81555555555556,30.135431349277518L128.92444444444445,30.236245602369333L129.06444444444443,30.36628341674808L129.11111111111111,30.409740716218973L129.54666666666668,30.817868322134043L129.60888888888888,30.876552820205713L129.64000000000001,30.90592584013941L129.8422222222222,31.097435116767905L130.01333333333332,31.260257124900843L130.0288888888889,31.275088697671922L130.10666666666665,31.34936085343364L130.18444444444444,31.423782467842127L130.76000000000002,31.978959798812898L131.04000000000002,32.25189766287806L131.33555555555554,32.54201447963718L131.58444444444444,32.78790912032131L131.8022222222222,33.00426369905475L132.0822222222222,33.28405907750132L132.1288888888889,33.330866008997L132.6577777777778,33.864899337291746L132.70444444444445,33.91233047842983L132.84444444444443,34.054914027452504L132.9377777777778,34.150224685668974L133.01555555555555,34.22980701923374L133.2177777777778,34.43734353780749L133.29555555555555,34.517418205738096L133.54444444444445,34.77456620335581L133.6222222222222,34.85521233081821L133.7,34.93599912524227L133.76222222222222,35.00072351098064L134.01111111111112,35.260491430759465L134.54,35.817101806402235L134.91333333333333,36.2137386798859L135.56666666666666,36.91520085930827L135.64444444444445,36.99932849407198L135.79999999999998,37.16797938942912L135.86222222222221,37.235587447881734L136.11111111111111,37.50683730840685L136.28222222222223,37.694100201129935L136.65555555555557,38.10483014583591L136.92,38.3975493013859L137.21555555555557,38.7264550328255L137.54222222222222,39.09211000800135L137.57333333333332,39.12704816460613L137.66666666666666,39.231994509696996L137.80666666666667,39.3897349238396L138.05555555555557,39.6711831390858L138.66222222222223,40.362508505582845L138.69333333333333,40.39815878868106L138.74,40.45167377591136L138.91111111111113,40.648282229900396L139.02,40.773704409599326L139.61111111111111,41.45870855450634L139.86,41.74919462203982L139.93777777777777,41.84022372961048L139.9688888888889,41.8766740560532L140.28,42.24216198921206L140.45111111111112,42.44398391246798L140.68444444444447,42.72011315822604L140.84,42.90478250384333L141.82,44.078771382570295L141.86666666666667,44.1351260840893L141.96,44.24795857071879L142.5511111111111,44.96631836891177L142.75333333333333,45.213540554046645L142.76888888888888,45.23259213566782L142.8,45.27070409059527L142.89333333333332,45.38513666391374L142.94,45.44241449236873L143.22,45.78689908981326L143.5,46.13279914855959L143.87333333333333,46.596164911985426L143.93555555555557,46.67362844944003L144.1222222222222,46.906441062688856L144.26222222222222,47.08144834637643L144.7911111111111,47.74565136432649L145.19555555555556,48.25680872797968L145.2577777777778,48.335696518421194L145.28888888888886,48.37516239285472L145.4911111111111,48.63209939002993L145.56888888888886,48.731111347675345L145.70888888888888,48.90957376360896L145.98888888888888,49.26747447252276L146.59555555555556,50.04735848307612L146.76666666666668,50.268407821655295L146.78222222222223,50.28852319717409L147.21777777777777,50.853415340185194L147.28,50.93436038494113L147.3111111111111,50.974854886531844L147.49777777777777,51.218147188425085L147.8711111111111,51.70637583732607L148.05777777777777,51.951294600963614L148.18222222222224,52.114872694015524L148.27555555555557,52.23771011829379L148.44666666666666,52.4632607996464L148.57111111111112,52.627577394247076L148.60222222222222,52.668696105480215L148.69555555555553,52.79213136434557L149.22444444444443,53.494041919708266L149.36444444444447,53.68053114414218L149.39555555555555,53.7220191061497L149.44222222222223,53.78426423668864L149.92444444444442,54.4293629229069L149.94,54.45022559165957L150.01777777777778,54.55460926890375L150.26666666666665,54.889194428920774L150.28222222222223,54.910136222839384L151.21555555555554,56.172780454158804L151.3088888888889,56.2997060120106L151.35555555555555,56.36320835351946L151.76000000000002,56.91482505202296L151.83777777777777,57.0211516916752L152.3511111111111,57.724917292594924L152.36666666666667,57.746298670768766L152.7711111111111,58.30326950550081L153.03555555555556,58.668564021587386L153.0977777777778,58.75464341044429L153.22222222222223,58.92695164680484L153.29999999999998,59.03473770618441L153.31555555555556,59.05630370974542L153.4088888888889,59.18577006459239L153.72,59.61809238791467L153.92222222222222,59.899725228548064L154.01555555555555,60.029877334833174L154.40444444444444,60.57330018281939L154.45111111111112,60.63863119482996L155.33777777777777,61.88469430804255L156.0222222222222,62.85260608792307L156.05333333333334,62.89672276377679L156.2711111111111,63.20582962036136L156.39555555555557,63.38269194960596L156.75333333333333,63.892082184553175L156.76888888888888,63.91425481438639L157.04888888888888,64.31388086080553L157.45333333333335,64.89251440763476L157.79555555555555,65.38339814543725L158.0911111111111,65.80825632810595L158.10666666666665,65.83063995838167L158.54222222222222,66.45833110809328L158.66666666666666,66.63799798488618L158.68222222222224,66.66046074032786L158.91555555555556,66.99775373935701L159.11777777777777,67.29046410322191L159.13333333333333,67.31299719214441L159.52222222222224,67.87698379158977L159.86444444444444,68.3743821680546L159.95777777777778,68.51020491123201L160.00444444444443,68.57814705371858L160.08222222222224,68.6914191246033L160.16,68.80474394559862L160.23777777777778,68.91812151670457L160.98444444444445,70.00901138782504L161.0311111111111,70.07734036445619L161.20222222222222,70.32801768183711L161.42000000000002,70.64738443493844L161.7311111111111,71.10424435138704L161.9488888888889,71.42446389794351L162.02666666666667,71.5389052629471L162.66444444444446,72.4789825677872L162.7266666666667,72.57083809375764L163.19333333333333,73.26063370704654L163.39555555555557,73.55998179316522L163.66,73.9518184065819L163.79999999999998,74.15944284200671L164.07999999999998,74.57503458857539L164.17333333333335,74.7136618793011L164.31333333333333,74.92170831561091L164.98222222222222,75.91720840334895L165.1688888888889,76.19545644521715L165.2,76.24185016751291L165.30888888888887,76.40425896644594L165.80666666666664,77.14746406674386L165.86888888888888,77.2404449284077L166.35111111111112,77.96169719100001L166.44444444444446,78.10141465067865L166.72444444444443,78.52078682184221L166.81777777777776,78.66065374016763L167.25333333333336,79.31383198499681L167.28444444444443,79.36051583290102L167.62666666666667,79.87428432703021L167.65777777777777,79.92101213335992L167.81333333333336,80.1547039151192L167.98444444444442,80.41186070442203L168.35777777777778,80.97327134013177L168.51333333333332,81.20732358098032L169.01111111111112,81.95677956938746L169.0888888888889,82.07394635677339L169.1977777777778,82.23800799250604L169.3688888888889,82.49587690830232L169.4622222222222,82.63657024502757L169.82000000000002,83.17607200145724L169.88222222222223,83.26992323994638L170.17777777777778,83.71585509181024L170.5822222222222,84.3263584971428L170.64444444444445,84.4203064441681L170.78444444444443,84.6317200958729L170.8777777777778,84.77267718315126L170.95555555555555,84.89016047120097L171.20444444444445,85.26613688468936L171.62444444444444,85.90079984068873L171.87333333333333,86.27698725461963L172.01333333333332,86.48862069845202L172.1222222222222,86.65323621034624L172.2,86.77082499861719L172.9311111111111,87.87631785869601L172.99333333333334,87.97041526436807L173.47555555555556,88.69966356456281L173.66222222222223,88.98195138573648L174.06666666666666,89.59354935586454L174.11333333333334,89.66411142051223L174.22222222222223,89.82876209914686L174.26888888888888,89.89931976795198L174.34666666666666,90.01692174375059L174.4088888888889,90.11099717020991L174.56444444444446,90.3461747467518L174.62666666666667,90.44024138152601L174.7511111111111,90.62836585938932L175.0311111111111,91.05158878862859L175.63777777777779,91.96827141940595L175.82444444444442,92.25022515654567L175.85555555555555,92.29721231758597L175.96444444444444,92.4616519957781L176.12,92.696535050869L176.13555555555556,92.72002203762533L176.1977777777778,92.81396119296552L176.29111111111112,92.95486113429072L176.33777777777777,93.02530011534692L176.4777777777778,93.2366038709879L176.58666666666667,93.40092046558858L176.69555555555556,93.5652150809765L176.7888888888889,93.70601831376554L176.80444444444444,93.72948332130912L176.89777777777778,93.87026457488538L176.97555555555556,93.98756763339044L177.13111111111112,94.22212979197505L177.28666666666666,94.45663480460645L177.61333333333332,94.94889883697034L177.97111111111113,95.48770605027677L178.0022222222222,95.5345437526703L178.20444444444445,95.83890309929849L178.42222222222222,96.16653403639795L178.45333333333332,96.21332778036597L178.70222222222222,96.58755025267604L178.7177777777778,96.61093173921111L178.73333333333332,96.63431322574618L179.20000000000002,97.33535780012609L179.48000000000002,97.75559595227244L179.61999999999998,97.96560293436052L179.76,98.17553079128267L179.91555555555556,98.40869507193568L179.99333333333334,98.5252376496792L180.33555555555557,99.03771816194059L180.45999999999998,99.22394803166392L180.55333333333334,99.36357317864896L180.75555555555556,99.6659587919712L181.26888888888888,100.43268164992332L181.54888888888888,100.85033944249156L181.56444444444446,100.87353190779687L181.61111111111111,100.94310051202777L181.81333333333333,101.2444223314524L181.87555555555556,101.33709548413754L182.06222222222223,101.61498306691647L182.07777777777775,101.63813157379629L182.18666666666664,101.8001359552145L182.56,102.35506711900234L182.5911111111111,102.40127621591091L182.82444444444445,102.74765542149547L182.84,102.77073799073696L183.12,103.18593411147594L183.36888888888888,103.55459144711494L183.52444444444447,103.78480611741543L183.75777777777776,104.12983140349388L183.92888888888888,104.38262751698495L184.13111111111112,104.68113160133365L184.33333333333334,104.97935435175899L184.59777777777776,105.36891391873363L184.70666666666665,105.52917315065861L185.01777777777778,105.98660013079645L185.17333333333335,106.21504327654839L185.36,106.48893943428995L185.37555555555554,106.51175385713579L185.85777777777778,107.21803387999535L185.87333333333333,107.24078676104547L185.88888888888889,107.26353524625303L186.04444444444442,107.49094536900523L186.24666666666667,107.78628444671631L186.34,107.92248083651069L186.46444444444444,108.1039675921202L186.55777777777777,108.24000133574009L187.64666666666668,109.8215683400631L188.06666666666666,110.4288056343794L188.5488888888889,111.1239949464798L188.62666666666667,111.23591309785846L188.81333333333333,111.50429247319701L189.60666666666668,112.64107933640481L189.63777777777779,112.6855300962925L189.9022222222222,113.06297032535076L190.01111111111112,113.21817873418333L190.16666666666669,113.43968963623048L190.8511111111111,114.41129392385484L190.94444444444446,114.54339338839056L191.0222222222222,114.65340374410154L191.2711111111111,115.00498762726787L191.89333333333335,115.88091200590135L191.98666666666665,116.01191690564157L192.03333333333333,116.07738418877128L192.04888888888888,116.09920075535774L192.8111111111111,117.164717823267L192.95111111111112,117.35967344045642L193.12222222222223,117.5976291894913L193.5888888888889,118.24476315081121L193.68222222222224,118.37386465072632L193.6977777777778,118.39537350833416L193.79111111111112,118.52434752881527L194.46,119.44541721045971L194.72444444444443,119.80796872079372L195.08222222222224,120.29700620472433L195.23777777777778,120.5091012120247L195.39333333333332,120.72086653113367L195.58,120.97455500066282L195.70444444444445,121.14341689646244L195.9377777777778,121.45946039259435L196.2177777777778,121.83771385252476L196.51333333333332,122.23578816652298L196.6688888888889,122.44480168819427L196.70000000000002,122.48656658828259L197.66444444444446,123.7742363512516L197.82,123.980647534132L197.92888888888888,124.12491908669472L198.0066666666667,124.22786532342435L198.25555555555556,124.55666995048524L198.36444444444444,124.7002293765545L198.38,124.72072279453279L198.56666666666666,124.96635368466379L198.66,125.08897131681444L199.2511111111111,125.86241761595011L199.76444444444445,126.5296427756548L200.27777777777777,127.19265452027321L200.62,127.63228493183853L200.68222222222224,127.71201232820749L201.8488888888889,129.1949234381318L202.0511111111111,129.44961635768414L202.56444444444443,130.09297209233046L202.58,130.11239512264729L202.65777777777777,130.20945312827826L202.78222222222223,130.3645230680704L203.06222222222223,130.7124320268631L203.23333333333332,130.92435779422522L203.68444444444444,131.4805637523532L204.05777777777777,131.938094034791L204.15111111111113,132.05208043009043L204.16666666666666,132.07106167823076L204.26000000000002,132.18486125022173L204.29111111111112,132.22275780886412L204.69555555555556,132.71380199491978L204.86666666666667,132.92063737660646L205.45777777777778,133.63093739748L205.51999999999998,133.7053238451481L205.61333333333332,133.81676065176725L205.72222222222223,133.94656328856945L205.73777777777778,133.96508736908436L205.92444444444445,134.1870224699378L206.20444444444445,134.51866900920868L206.64,135.0315429493785L206.8111111111111,135.2320153489709L207.15333333333334,135.63123477995396L207.35555555555555,135.86604530364275L207.3711111111111,135.88407485187054L207.49555555555557,136.0281310081482L207.6822222222222,136.2436349913478L207.88444444444445,136.47630693763494L208.3511111111111,137.01008970290422L208.5066666666667,137.18703335523605L208.55333333333334,137.24001864343882L208.58444444444444,137.27531945705414L209.11333333333334,137.87236059457064L209.1911111111111,137.95967081934214L209.22222222222223,137.99456062167883L209.34666666666666,138.1339176222682L209.39333333333335,138.18609407544136L209.42444444444445,138.2208520025015L209.48666666666665,138.2903085127473L209.81333333333333,138.65362050384283L209.84444444444446,138.68810588866472L210.04666666666665,138.91175317019224L210.40444444444447,139.3053107559681L210.42,139.32236003130674L210.8711111111111,139.8145361468196L211.0888888888889,140.0505687147379L211.2133333333333,140.1849847882986L211.72666666666666,140.73587837070227L212.22444444444443,141.26455096900463L212.95555555555555,142.0310584306717L213.04888888888888,142.1280483007431L213.31333333333333,142.4017840102315L213.6711111111111,142.76960613578558L213.88888888888889,142.99207093566656L213.98222222222222,143.0870804786682L214.07555555555555,143.18189001083374L214.1222222222222,143.22922004759312L214.26222222222222,143.37090684473515L214.4177777777778,143.5278076529503L214.4488888888889,143.55912143737078L214.9311111111111,144.04159922525287L214.9622222222222,144.07254046201706L215.02444444444444,144.13435589894652L215.2266666666667,144.33462938666344L215.3511111111111,144.45739867538214L215.39777777777778,144.50334292277694L215.45999999999998,144.56452206149697L215.70888888888888,144.8083253800869L215.84888888888887,144.9448206871748L215.94222222222223,145.035559669137L216.01999999999998,145.11101650446653L216.50222222222223,145.57563068717718L216.51777777777775,145.59052490070462L216.59555555555556,145.66491244733334L216.85999999999999,145.91673927754164L217.07777777777775,146.1228603348136L217.09333333333333,146.13753915205598L217.3111111111111,146.34242717549205L217.34222222222223,146.37160348147154L217.42,146.44443929567933L217.7,146.70542816072702L217.96444444444447,146.95015570521355L218.05777777777777,147.03612080216408L218.19777777777776,147.1646651290357L218.5088888888889,147.4485882036388L218.66444444444446,147.58964969217777L218.75777777777776,147.67399931699038L218.83555555555554,147.7441239953041L218.96,147.85601027682424L219.87777777777777,148.66919169574976L220.20444444444442,148.9535005055368L220.39111111111112,149.11474660411477L220.5,149.20839673280716L220.56222222222223,149.2617743499577L221.04444444444442,149.67209658026695L221.43333333333334,149.99864614009857L221.48000000000002,150.03757022693753L221.60444444444443,150.14109122008085L221.85333333333332,150.34692764654756L221.9933333333333,150.4620031118393L222.47555555555556,150.85445953905582L222.50666666666666,150.87956969067454L222.5688888888889,150.9297152645886L222.66222222222223,151.00474240630865L222.69333333333333,151.02970090135932L222.7088888888889,151.04217080771923L223.14444444444445,151.38873244076967L223.28444444444443,151.49906259402633L223.36222222222221,151.5601329356432L223.4711111111111,151.64536282792687L223.53333333333333,151.69392370060086L223.90666666666667,151.98312728106976L223.9688888888889,152.03096613660455L224,152.05484765022993L224.32666666666668,152.30403257906437L224.3422222222222,152.31582772359252L224.35777777777778,152.3276151753962L224.57555555555555,152.49196803569794L224.6688888888889,152.56201358884573L224.76222222222222,152.63182506337762L224.80888888888887,152.6666423343122L225.1822222222222,152.94306610152125L225.21333333333334,152.96593107655644L225.24444444444444,152.98876967653632L225.89777777777778,153.4623068701476L226.39555555555557,153.81527599319816L227.12666666666667,154.3213512133807L227.76444444444445,154.75074425712228L227.85777777777778,154.8126333244145L227.93555555555554,154.8640223722905L227.99777777777777,154.90501195564866L228.34,155.12852021865547L228.4488888888889,155.19894875958562L228.79111111111112,155.41812986508012L229.08666666666667,155.60477074608207L229.9422222222222,156.13112948276103L230.08222222222224,156.21528349258006L230.95333333333332,156.7263414002955L231.12444444444444,156.82417527213693L231.79333333333332,157.19853291660547L231.85555555555555,157.2327012512833L231.9177777777778,157.2667569424957L232.11999999999998,157.376666193828L232.4622222222222,157.5599667839706L232.89777777777778,157.7883390467614L232.95999999999998,157.82051304262131L232.9911111111111,157.83655759319663L233.0377777777778,157.8605715315789L233.2866666666667,157.98757291771472L233.48888888888888,158.0894289854914L233.61333333333334,158.15151504147798L233.67555555555558,158.18238786794245L233.70666666666668,158.19778183382004L233.76888888888888,158.22848459612578L233.89333333333335,158.28954971767962L233.90888888888887,158.29715067893267L233.9711111111111,158.32748446520418L234.06444444444446,158.3727718088776L234.07999999999998,158.38029474392533L234.70222222222222,158.6753769395873L234.76444444444445,158.70425762515515L236.25777777777776,159.3630023803562L236.41333333333336,159.42781056184322L236.6,159.50462791044265L236.86444444444447,159.61167134717107L236.97333333333336,159.65514046046883L237.11333333333334,159.71050802059472L237.22222222222223,159.75316582620144L237.39333333333335,159.81948205642402L237.92222222222225,160.0189042617567L238.06222222222223,160.07028534216806L238.76222222222225,160.31833518203348L239.3688888888889,160.52134439488873L239.58666666666667,160.59150245413184L239.83555555555554,160.66992263682187L240.4111111111111,160.84406627481803L240.81555555555556,160.96041035279632L240.98666666666668,161.00813299324363L241.45333333333332,161.13374701025896L241.59333333333333,161.17013476463035L241.6088888888889,161.17414088826627L241.8888888888889,161.24498614133336L242.01333333333332,161.27570332749747L242.29333333333332,161.34308403846808L242.48,161.386670534499L242.54222222222222,161.40096210548654L243.02444444444444,161.50769597874023L243.32,161.56958580156788L243.3511111111111,161.57594445650466L243.38222222222223,161.58227337081917L243.39777777777778,161.58542663231492L243.6,161.625742621487L244.25333333333333,161.74739739240613L244.4711111111111,161.78502862073947L244.78222222222223,161.83625213766936L245.14,161.89146927755792L245.48222222222222,161.9405894181691L245.8088888888889,161.98410314240027L246.26,162.03877253626706L246.54,162.06954056653194L246.82,162.09788332803873L246.9288888888889,162.1082503302896L247.17777777777778,162.1305682375678L247.41111111111113,162.14974947937299L247.58222222222224,162.16274417378008L247.8,162.17797125218203L248.2822222222222,162.2064592095703L248.4377777777778,162.2141116352359L248.57777777777778,162.22035756085097L248.98222222222222,162.23498834900602L249.43333333333334,162.24532427020313L249.60444444444445,162.2475941108869L249.61999999999998,162.24775543916712" style="fill: none;" fill="none"></path></g></g></g></g></g></g><g transform="translate(50, 177)" clip-path="url(#clip_1)"><clipPath id="clip_1"><rect width="280" height="23"></rect></clipPath><g><g><line x1="0" y1="0" x2="0" y2="5" style="visibility: inherit;" fill="rgb(0, 0, 0)" stroke="rgb(204, 204, 204)" stroke-width="1px"></line><line x1="31.11111111111111" y1="0" x2="31.11111111111111" y2="5" style="visibility: inherit;" fill="rgb(0, 0, 0)" stroke="rgb(204, 204, 204)" stroke-width="1px"></line><line x1="62.22222222222222" y1="0" x2="62.22222222222222" y2="5" style="visibility: inherit;" fill="rgb(0, 0, 0)" stroke="rgb(204, 204, 204)" stroke-width="1px"></line><line x1="93.33333333333333" y1="0" x2="93.33333333333333" y2="5" style="visibility: inherit;" fill="rgb(0, 0, 0)" stroke="rgb(204, 204, 204)" stroke-width="1px"></line><line x1="124.44444444444444" y1="0" x2="124.44444444444444" y2="5" style="visibility: inherit;" fill="rgb(0, 0, 0)" stroke="rgb(204, 204, 204)" stroke-width="1px"></line><line x1="155.55555555555557" y1="0" x2="155.55555555555557" y2="5" style="visibility: inherit;" fill="rgb(0, 0, 0)" stroke="rgb(204, 204, 204)" stroke-width="1px"></line><line x1="186.66666666666666" y1="0" x2="186.66666666666666" y2="5" style="visibility: inherit;" fill="rgb(0, 0, 0)" stroke="rgb(204, 204, 204)" stroke-width="1px"></line><line x1="217.77777777777777" y1="0" x2="217.77777777777777" y2="5" style="visibility: inherit;" fill="rgb(0, 0, 0)" stroke="rgb(204, 204, 204)" stroke-width="1px"></line><line x1="248.88888888888889" y1="0" x2="248.88888888888889" y2="5" style="visibility: inherit;" fill="rgb(0, 0, 0)" stroke="rgb(204, 204, 204)" stroke-width="1px"></line><line x1="280" y1="0" x2="280" y2="5" style="visibility: inherit;" fill="rgb(0, 0, 0)" stroke="rgb(204, 204, 204)" stroke-width="1px"></line></g><g transform="translate(0, 8)"><text x="0" y="0" dx="0em" dy="0.95em" style="text-anchor: middle; visibility: hidden; font-family: Roboto, sans-serif; font-size: 12px; font-weight: 200;" fill="rgb(33, 33, 33)" stroke="none" stroke-width="1px">-2k</text><text x="31.11111111111111" y="0" dx="0em" dy="0.95em" style="text-anchor: middle; visibility: inherit; font-family: Roboto, sans-serif; font-size: 12px; font-weight: 200;" fill="rgb(33, 33, 33)" stroke="none" stroke-width="1px">0</text><text x="62.22222222222222" y="0" dx="0em" dy="0.95em" style="text-anchor: middle; visibility: inherit; font-family: Roboto, sans-serif; font-size: 12px; font-weight: 200;" fill="rgb(33, 33, 33)" stroke="none" stroke-width="1px">2k</text><text x="93.33333333333333" y="0" dx="0em" dy="0.95em" style="text-anchor: middle; visibility: inherit; font-family: Roboto, sans-serif; font-size: 12px; font-weight: 200;" fill="rgb(33, 33, 33)" stroke="none" stroke-width="1px">4k</text><text x="124.44444444444444" y="0" dx="0em" dy="0.95em" style="text-anchor: middle; visibility: inherit; font-family: Roboto, sans-serif; font-size: 12px; font-weight: 200;" fill="rgb(33, 33, 33)" stroke="none" stroke-width="1px">6k</text><text x="155.55555555555557" y="0" dx="0em" dy="0.95em" style="text-anchor: middle; visibility: inherit; font-family: Roboto, sans-serif; font-size: 12px; font-weight: 200;" fill="rgb(33, 33, 33)" stroke="none" stroke-width="1px">8k</text><text x="186.66666666666666" y="0" dx="0em" dy="0.95em" style="text-anchor: middle; visibility: inherit; font-family: Roboto, sans-serif; font-size: 12px; font-weight: 200;" fill="rgb(33, 33, 33)" stroke="none" stroke-width="1px">10k</text><text x="217.77777777777777" y="0" dx="0em" dy="0.95em" style="text-anchor: middle; visibility: inherit; font-family: Roboto, sans-serif; font-size: 12px; font-weight: 200;" fill="rgb(33, 33, 33)" stroke="none" stroke-width="1px">12k</text><text x="248.88888888888889" y="0" dx="0em" dy="0.95em" style="text-anchor: middle; visibility: inherit; font-family: Roboto, sans-serif; font-size: 12px; font-weight: 200;" fill="rgb(33, 33, 33)" stroke="none" stroke-width="1px">14k</text><text x="280" y="0" dx="0em" dy="0.95em" style="text-anchor: middle; visibility: hidden; font-family: Roboto, sans-serif; font-size: 12px; font-weight: 200;" fill="rgb(33, 33, 33)" stroke="none" stroke-width="1px">16k</text></g><line x1="0" y1="0" x2="280" y2="0" fill="rgb(0, 0, 0)" stroke="rgb(204, 204, 204)" stroke-width="1px"></line></g></g></g></g></svg>